<svg width="112" height="113" viewBox="0 0 112 113" fill="none" xmlns="http://www.w3.org/2000/svg">
<g clip-path="url(#clip0)">
<path fill-rule="evenodd" clip-rule="evenodd" d="M0.624242 0.0654297H111.193C111.539 0.0654297 111.817 0.343864 111.817 0.689691V111.441C111.817 111.787 111.539 112.065 111.193 112.065H0.624242C0.278412 112.065 0 111.787 0 111.441V0.689691C0 0.343864 0.278412 0.0654297 0.624242 0.0654297Z" fill="#48773E"/>
<path d="M39.2069 16.9674C39.2069 17.2681 39.1881 17.5265 39.1505 17.7426C39.1223 17.9587 39.0283 18.1937 38.8686 18.4474C38.784 18.5789 38.676 18.7057 38.5444 18.8279C38.4223 18.9406 38.2814 19.044 38.1216 19.1379C37.9713 19.2225 37.8068 19.293 37.6283 19.3494C37.4498 19.4057 37.276 19.4339 37.1068 19.4339C36.684 19.4339 36.2988 19.3447 35.9511 19.1661C35.6128 18.9876 35.3638 18.7621 35.2041 18.4896C35.0444 18.2171 34.941 17.9634 34.894 17.7285C34.8564 17.4936 34.8376 17.2399 34.8376 16.9674V12.1049C34.8376 11.8418 34.8611 11.6069 34.9081 11.4002C34.9645 11.1841 35.0772 10.9539 35.2464 10.7096C35.4155 10.4653 35.6551 10.2586 35.9652 10.0895C36.2753 9.91092 36.5994 9.82166 36.9377 9.82166C37.586 9.82166 38.1263 10.0377 38.5585 10.47C38.9908 10.8928 39.2069 11.4378 39.2069 12.1049V12.6123H37.8679V12.1049C37.8679 11.8418 37.7927 11.621 37.6424 11.4425C37.5015 11.264 37.29 11.1747 37.0082 11.1747C36.7451 11.1747 36.5384 11.264 36.388 11.4425C36.2471 11.621 36.1766 11.8418 36.1766 12.1049V17.3339C36.1954 17.4748 36.2612 17.6346 36.3739 17.8131C36.5055 18.001 36.7216 18.095 37.0223 18.095C37.3417 18.095 37.5531 18.0104 37.6565 17.8413C37.7599 17.6722 37.8209 17.55 37.8397 17.4748C37.8585 17.3903 37.8679 17.2775 37.8679 17.1366V16.6574H39.2069L39.2069 16.9674Z" fill="white"/>
<path d="M44.192 19.3494H40.161V9.90628H41.5141V17.9964H44.192V19.3494Z" fill="white"/>
<path d="M44.5022 19.3494V9.90628H45.8412V19.3494H44.5022Z" fill="white"/>
<path d="M51.7412 19.3494V13.5989L50.3882 17.6299H49.7117L48.3727 13.5989V19.3494H47.0197V9.90628H48.2881L50.0781 14.9379L51.8399 9.90628H53.0802V19.3494H51.7412Z" fill="white"/>
<path d="M53.3322 19.3494L55.4463 9.90628H56.6161L58.7303 19.3494H57.2785L56.898 17.3199H55.1503L54.7557 19.3494H53.3322ZM55.3899 16.0655H56.6584L56.0242 12.6265L55.3899 16.0655Z" fill="white"/>
<path d="M59.9556 19.3494V11.1607H58.3629V9.90628H62.9154V11.1607H61.2945V19.3494H59.9556Z" fill="white"/>
<path d="M67.6076 17.9964V19.3494H63.5625V9.90628H67.6076V11.1466H64.9015V13.9373H67.2693V15.2198H64.9015V17.9964H67.6076Z" fill="white"/>
<path d="M34.2679 32.3717L36.3821 22.9285H37.5519L39.666 32.3717H38.2143L37.8338 30.342H36.0861L35.6915 32.3717H34.2679ZM36.3257 29.0877H37.5942L36.9599 25.6487L36.3257 29.0877Z" fill="white"/>
<path d="M44.6393 29.9898C44.6393 30.2905 44.6205 30.5489 44.5829 30.765C44.5547 30.9811 44.4607 31.2161 44.301 31.4698C44.2164 31.6013 44.1084 31.7282 43.9768 31.8503C43.8547 31.9631 43.7137 32.0664 43.554 32.1604C43.4036 32.2449 43.2392 32.3154 43.0607 32.3718C42.8822 32.4282 42.7083 32.4564 42.5392 32.4564C42.1164 32.4564 41.7311 32.3671 41.3835 32.1886C41.0452 32.0101 40.7962 31.7845 40.6365 31.5121C40.4767 31.2396 40.3734 30.9858 40.3264 30.7509C40.2888 30.516 40.27 30.2623 40.27 29.9898V25.1273C40.27 24.8642 40.2935 24.6293 40.3405 24.4226C40.3969 24.2065 40.5096 23.9763 40.6787 23.732C40.8479 23.4877 41.0875 23.281 41.3976 23.1119C41.7076 22.9333 42.0318 22.8441 42.3701 22.8441C43.0184 22.8441 43.5587 23.0602 43.9909 23.4924C44.4231 23.9152 44.6392 24.4602 44.6392 25.1273V25.6348H43.3003V25.1273C43.3003 24.8642 43.2251 24.6434 43.0748 24.4649C42.9338 24.2864 42.7224 24.1971 42.4405 24.1971C42.1774 24.1971 41.9707 24.2864 41.8204 24.4649C41.6794 24.6434 41.609 24.8642 41.609 25.1273V30.3563C41.6277 30.4972 41.6935 30.657 41.8063 30.8355C41.9378 31.0235 42.1539 31.1174 42.4546 31.1174C42.7741 31.1174 42.9855 31.0328 43.0889 30.8637C43.1922 30.6946 43.2533 30.5724 43.2721 30.4972C43.2909 30.4127 43.3003 30.2999 43.3003 30.159V29.6798H44.6392L44.6393 29.9898Z" fill="white"/>
<path d="M46.8905 32.3717V24.1828H45.2979V22.9285H49.8503V24.1828H48.2295V32.3717H46.8905Z" fill="white"/>
<path d="M50.5297 32.3717V22.9285H51.8686V32.3717H50.5297Z" fill="white"/>
<path d="M53.3249 23.8166C53.541 23.5159 53.8135 23.281 54.1423 23.1119C54.4806 22.9333 54.8283 22.8441 55.1853 22.8441C55.533 22.8441 55.8571 22.9145 56.1578 23.0555C56.4679 23.1964 56.7263 23.389 56.933 23.6333C57.1397 23.8776 57.2807 24.1313 57.3558 24.3944C57.431 24.6481 57.4686 24.9253 57.4686 25.226V30.0321C57.4686 30.314 57.4404 30.563 57.384 30.7791C57.3371 30.9952 57.2243 31.2349 57.0458 31.498C56.8766 31.7611 56.6276 31.9866 56.2988 32.1745C55.9793 32.3624 55.6222 32.4564 55.2276 32.4564C55.0021 32.4564 54.786 32.4282 54.5793 32.3718C54.3725 32.306 54.1799 32.2215 54.0014 32.1181C53.8229 32.0148 53.6631 31.8973 53.5222 31.7658C53.3906 31.6342 53.2873 31.4979 53.2121 31.357C53.0712 31.0657 52.9866 30.8308 52.9584 30.6523C52.9302 30.4738 52.9161 30.267 52.9161 30.0321V25.226C52.9161 24.9441 52.9443 24.6951 53.0007 24.479C53.0665 24.2535 53.1745 24.0327 53.3249 23.8166ZM55.9464 24.5636C55.7679 24.3005 55.5236 24.1689 55.2135 24.1689C55.0538 24.1689 54.894 24.2159 54.7343 24.3099C54.584 24.3944 54.4759 24.4931 54.4101 24.6059C54.3537 24.7186 54.3162 24.8314 54.2974 24.9441C54.2786 25.0569 54.2692 25.1508 54.2692 25.226V30.0321C54.2692 30.0791 54.2692 30.1308 54.2692 30.1872C54.2692 30.2341 54.2739 30.2858 54.2833 30.3422C54.2927 30.4362 54.3679 30.5912 54.5088 30.8073C54.6498 31.0047 54.8847 31.1033 55.2136 31.1033C55.3827 31.1033 55.533 31.0657 55.6646 30.9906C55.8055 30.906 55.9042 30.812 55.9606 30.7087C56.0263 30.5959 56.0686 30.4926 56.0874 30.3986C56.1062 30.3046 56.1156 30.1825 56.1156 30.0321V25.226C56.1156 25.0381 56.1062 24.9065 56.0874 24.8314C56.078 24.7562 56.031 24.6669 55.9465 24.5636H55.9464Z" fill="white"/>
<path d="M62.0827 32.3717L59.9827 26.6353V32.3717H58.6296V22.9285H59.9122L61.9982 28.6507V22.9285H63.3512V32.3717H62.0827Z" fill="white"/>
<path d="M10.9529 32.4893V13.2657L7.71521 15.694V12.254L10.9529 9.89316H14.1568V32.4893H10.9529Z" fill="white"/>
<path d="M26.2858 27.2955V27.7002C26.2858 27.8576 26.2745 28.0375 26.252 28.2398C26.252 28.4197 26.2183 28.6895 26.1509 29.0493C25.8361 30.1285 25.2403 31.0053 24.3634 31.6798C23.509 32.3543 22.5085 32.6916 21.3618 32.6916C20.4625 32.6916 19.6081 32.4218 18.7987 31.8822C17.9893 31.3201 17.4722 30.7692 17.2473 30.2296C17.1124 29.9373 17 29.6788 16.9101 29.4539C16.8426 29.2291 16.7864 29.0155 16.7414 28.8132C16.6965 28.6108 16.6627 28.3972 16.6403 28.1724C16.6403 27.925 16.6403 27.6328 16.6403 27.2955V25.9802H19.8779V27.8351C19.9229 28.1274 20.0465 28.4534 20.2489 28.8132C20.4737 29.2179 20.8784 29.4202 21.463 29.4202C22.0476 29.4202 22.4635 29.2179 22.7109 28.8132C22.9582 28.4085 23.0818 27.9026 23.0818 27.2955V23.8218C23.0594 23.3946 22.9694 23.0686 22.812 22.8437C22.6771 22.6189 22.5085 22.4615 22.3062 22.3716C22.1038 22.2591 21.8902 22.2029 21.6654 22.2029C21.4405 22.1804 21.2382 22.1692 21.0583 22.1692H20.485V19.3025H21.0583C22.4073 19.3025 23.0818 18.673 23.0818 17.4139V14.7158C23.0818 14.446 23.0594 14.2212 23.0144 14.0413C23.0144 13.9739 22.9807 13.8727 22.9132 13.7378C22.8458 13.6029 22.7446 13.468 22.6097 13.3331C22.4973 13.1982 22.3511 13.0858 22.1713 12.9958C21.9914 12.9059 21.7778 12.8609 21.5305 12.8609C20.9684 12.8609 20.5524 13.0408 20.2826 13.4005C20.0128 13.7378 19.8779 14.1762 19.8779 14.7158V16.3684H16.6403V14.7158C16.6403 13.2994 17.1012 12.1077 18.023 11.1409C18.9224 10.1741 20.0915 9.69073 21.5305 9.69073C22.3174 9.69073 23.0706 9.8931 23.7901 10.2978C24.532 10.7025 25.0717 11.1747 25.4089 11.7143C25.7687 12.2539 26.0047 12.7598 26.1171 13.2319C26.2296 13.7041 26.2858 14.1987 26.2858 14.7158V17.3464C26.2858 18.8079 25.645 19.9208 24.3634 20.6853C25.0829 21.2024 25.5775 21.7195 25.8473 22.2367C26.1396 22.7313 26.2858 23.4058 26.2858 24.2602L26.2858 27.2955Z" fill="white"/>
<path d="M57.9685 49.9054C41.6715 49.7534 25.2662 57.1863 15.7152 71.2267C34.2383 98.4566 78.5429 100.837 97.8387 71.2267C88.4923 56.8845 73.2778 50.0483 57.9685 49.9054ZM57.0306 53.98C57.8965 53.9803 58.7458 54.03 59.1261 54.1305C59.4574 54.2178 60.0674 54.345 60.4814 54.4121C61.3986 54.5608 62.7481 54.9657 63.2892 55.2557C63.509 55.3735 63.803 55.471 63.9411 55.471C64.0791 55.471 64.2932 55.5724 64.4174 55.6966C64.5416 55.8208 64.7738 55.9222 64.9335 55.9222C65.0932 55.9222 65.2241 55.9907 65.2241 56.0756C65.2241 56.1605 65.3953 56.2954 65.6045 56.375C65.8137 56.4545 66.068 56.5908 66.1693 56.6773C66.2707 56.7638 66.7133 57.0982 67.1544 57.4205C67.9489 58.0011 70.0419 59.9197 70.0419 60.0676C70.0419 60.1099 70.38 60.5746 70.794 61.1014C71.208 61.6282 71.5476 62.1298 71.5476 62.2163C71.5476 62.3028 71.6314 62.4654 71.7349 62.5761C72.3095 63.1906 73.5045 66.3279 73.5045 67.2229C73.5045 68.2609 72.6073 68.6019 71.9458 67.8157C70.9749 66.6619 70.0388 67.9232 70.884 69.2462C71.0331 69.4797 71.0357 69.5984 70.8973 69.7786C70.6693 70.0753 69.512 70.6767 69.1674 70.6767C68.7585 70.6767 68.1355 71.4974 68.026 72.1823C67.9129 72.8894 68.1293 73.864 68.461 74.1393C68.6701 74.3128 68.7871 75.0418 68.6056 75.0418C68.4849 75.0418 67.6414 74.4273 67.0719 73.924C66.6232 73.5274 66.3894 73.1257 65.7476 71.6544C65.6392 71.406 65.5122 71.0287 65.4659 70.8153C65.3188 70.1374 64.7092 69.6223 64.0546 69.6223C63.1416 69.6223 62.9039 69.8888 62.8807 70.9392C62.867 71.5596 62.772 71.9595 62.574 72.231C62.231 72.7013 62.1968 72.7071 61.7909 72.3696C61.0694 71.7698 60.7876 71.5792 60.62 71.5792C60.5228 71.5792 60.3589 71.4778 60.2558 71.3536C60.1527 71.2293 59.8908 71.124 59.6733 71.1191C58.8883 71.1014 57.9485 70.4943 57.5866 69.7712C57.4004 69.3994 57.2467 69.0265 57.2459 68.9424C57.2444 68.8079 55.8706 67.8157 55.6857 67.8157C55.6465 67.8157 55.2624 67.5832 54.8318 67.2996C53.9414 66.7132 53.6314 66.741 53.6314 67.4072C53.6314 67.7888 53.8416 68.0724 54.8259 69.0191C56.1394 70.2824 56.3955 70.8017 55.9482 71.296C55.6881 71.5834 54.8158 72.0304 54.5147 72.0304C54.441 72.0304 53.8754 71.5177 53.2583 70.8905C52.4065 70.0248 52.0536 69.7622 51.7924 69.7992C51.5401 69.835 51.4349 69.9628 51.3987 70.28C51.3715 70.5178 51.4229 70.785 51.5122 70.8743C51.6015 70.9636 51.6745 71.1566 51.6745 71.3019C51.6745 71.7783 52.9679 73.3857 53.3512 73.3857C53.4213 73.3857 53.6525 73.5362 53.8644 73.7205C54.3724 74.1622 54.261 74.5903 53.4176 75.4459C52.7864 76.0861 52.7682 76.1316 52.6876 77.3084C52.6421 77.9721 52.5384 78.5971 52.4575 78.6976C52.3767 78.7981 52.2678 79.0848 52.2142 79.3332C52.1606 79.5816 51.9158 80.0144 51.67 80.2947C51.4131 80.5877 51.2232 80.9747 51.2232 81.2061C51.2232 81.4274 51.1236 81.7399 51.002 81.9007C50.8804 82.0614 50.7775 82.2748 50.7749 82.374C50.7688 82.6058 50.108 83.3223 49.9004 83.3223C49.8133 83.3223 49.7162 83.3986 49.6851 83.4919C49.6539 83.5852 49.2883 83.6938 48.8725 83.7337C48.1874 83.7996 48.094 83.7708 47.8638 83.4196V83.4181C47.6926 83.1569 47.6087 82.7177 47.6087 82.0702C47.6087 81.259 47.5509 81.0417 47.2297 80.6722C47.0205 80.4316 46.8162 80.0828 46.777 79.8965C46.7377 79.7102 46.6694 79.3834 46.6251 79.171C46.5706 78.9102 46.3754 78.7149 46.0234 78.5678C45.7365 78.448 45.5013 78.2888 45.5013 78.2139C45.5013 78.139 45.2273 77.7913 44.8923 77.4426C44.3056 76.832 44.2572 76.8123 43.5857 76.9044C43.2023 76.9569 42.7772 77.1021 42.6404 77.2258C42.5036 77.3496 42.1598 77.4491 41.8765 77.447C41.4393 77.444 41.3215 77.3626 41.0979 76.9132C40.9529 76.622 40.8339 76.2541 40.8339 76.0947C40.8339 75.9353 40.7383 75.5821 40.6215 75.3102C40.344 74.664 40.0737 72.9067 39.983 71.1648C39.9122 69.8049 39.9213 69.7552 40.3723 69.0869C40.6264 68.7104 40.8339 68.3437 40.8339 68.2714C40.8339 68.1208 41.8873 67.7312 42.1139 67.798C42.1967 67.8225 42.6478 67.9037 43.1153 67.9794C43.5827 68.0552 44.1574 68.2189 44.3938 68.3422C44.6302 68.4655 44.9259 68.5691 45.0501 68.5723C45.1743 68.5753 45.407 68.6763 45.5677 68.7979C45.7284 68.9195 46.0126 69.0191 46.1989 69.0191C46.3852 69.0191 46.5734 69.0788 46.6177 69.1503C46.6619 69.222 46.9487 69.3204 47.2548 69.3701C48.229 69.5282 49.5593 68.701 49.5642 67.9337C49.5672 67.3615 49.034 66.9117 48.3519 66.9117C48.0419 66.9117 47.7133 66.8122 47.6087 66.6861C47.5056 66.5619 47.1811 66.4605 46.8861 66.4605C46.5506 66.4605 46.2251 66.3429 46.0175 66.1478C45.5776 65.7346 44.4455 65.6764 44.0369 66.0461C43.8771 66.1907 43.5956 66.3101 43.4117 66.3101C43.2278 66.3101 42.895 66.4031 42.6714 66.5165C42.4478 66.63 41.9382 66.7695 41.5388 66.8277L40.8118 66.9339L40.8604 66.5091C40.9038 66.1301 40.9831 66.0741 41.5875 65.99C42.9078 65.8064 43.6151 65.5035 43.6697 65.0993C43.7132 64.7777 43.8714 64.594 44.674 63.9328C44.7568 63.8646 45.1873 63.6901 45.6311 63.545C46.3855 63.2984 46.5017 63.2978 47.4111 63.5258C48.5926 63.8221 49.1291 63.7242 49.7854 63.0952C50.0577 62.8342 50.4584 62.4684 50.6761 62.2826C51.1311 61.8943 51.1607 61.7534 50.8442 61.4907C50.4641 61.1753 49.5722 61.4183 49.0627 61.9759C48.6736 62.4018 48.5148 62.4684 47.9213 62.4596C47.0938 62.4474 45.9887 61.9917 45.8685 61.6131C45.6551 60.9405 46.8595 60.363 48.7531 60.2298C49.5627 60.1729 50.2976 60.0687 50.3856 59.9968C50.6076 59.8154 52.5797 59.6196 52.5711 59.7801C52.5673 59.8519 52.2791 60.0513 51.9311 60.2225C51.3717 60.4975 51.2984 60.5933 51.2984 61.0483C51.2984 61.4249 51.3709 61.5778 51.5698 61.6161C51.8883 61.6775 53.0579 61.1584 53.711 60.6664C53.9621 60.4772 54.2952 60.297 54.4513 60.2667C54.6074 60.2364 54.8012 60.0136 54.8819 59.7712C55.0142 59.3741 54.9793 59.2852 54.5192 58.879C53.8025 58.2463 53.4836 57.7276 53.4824 57.1919C53.4802 56.2485 53.2755 56.1571 50.971 56.0608C49.8258 56.0131 49.0326 55.9617 49.2087 55.9473C49.3849 55.933 49.6144 55.8193 49.7175 55.6951C49.8206 55.5709 50.0188 55.4695 50.1585 55.4695C50.2981 55.4695 50.5434 55.3699 50.7041 55.2483C50.8648 55.1267 51.1217 55.0253 51.2748 55.0227C51.4279 55.0196 51.7675 54.9187 52.0284 54.797C52.2893 54.6754 52.8751 54.5094 53.3306 54.4283C53.786 54.3472 54.4636 54.2125 54.8362 54.129C55.2829 54.0289 56.1647 53.9798 57.0306 53.98ZM45.0073 58.9321C45.5552 58.9321 45.463 59.5853 44.848 60.0544C44.2764 60.4904 43.6948 60.5628 43.6948 60.1989C43.6948 59.8265 44.6214 58.9321 45.0073 58.9321ZM43.6167 61.8107C43.6997 61.804 43.7817 61.8054 43.8615 61.8166C44.1895 61.863 44.1203 61.9651 43.1167 62.9227C41.929 64.056 41.7389 64.1865 41.7349 63.8753C41.7342 63.7649 41.8864 63.3648 42.0741 62.9861C42.3998 62.329 43.0356 61.8579 43.6167 61.8107ZM73.388 69.3421C73.4662 69.3609 73.571 69.4459 73.7066 69.5957C74.0525 69.9779 74.082 73.6865 73.739 73.6865C73.6197 73.6865 73.4692 73.6013 73.4043 73.4978C72.7288 72.4207 72.5411 71.161 72.9722 70.5911C73.0937 70.4304 73.1952 70.0787 73.1978 69.8095C73.2011 69.4632 73.2578 69.3106 73.388 69.3421ZM60.9327 72.9344C61.0569 72.9344 61.1583 72.9609 61.1583 72.9934C61.1583 73.026 61.0569 73.0918 60.9327 73.1394C60.8085 73.1871 60.707 73.1592 60.707 73.079C60.707 72.9988 60.8085 72.9344 60.9327 72.9344ZM70.4077 74.6672C70.4571 74.6598 70.514 74.6653 70.5728 74.6879C70.6939 74.7343 70.7543 74.832 70.7085 74.9061C70.6109 75.064 70.4331 75.082 70.2971 74.9459C70.1768 74.8257 70.2594 74.6895 70.4077 74.6672ZM54.6091 75.7939C54.7738 75.7939 54.6693 76.4978 54.441 76.9235C54.3078 77.1719 54.1444 77.5438 54.0782 77.7508C53.9869 78.0369 53.9553 77.9206 53.9455 77.2627C53.9354 76.5863 53.9978 76.33 54.2331 76.0947C54.3987 75.9291 54.5677 75.7939 54.6091 75.7939ZM72.2333 75.8204C72.4051 75.8436 72.5421 76.0534 72.689 76.4767C72.8697 76.9972 72.8654 77.141 72.6581 77.6004C72.2275 78.5543 71.8322 79.3259 71.5388 79.7845C71.3798 80.0329 71.1853 80.3811 71.1067 80.5587C71.028 80.7363 70.9087 80.9053 70.8412 80.9347C70.7737 80.9641 70.5228 81.2759 70.2838 81.6278C70.0448 81.9798 69.792 82.2679 69.7204 82.2679C69.6489 82.2679 69.5892 82.3693 69.5892 82.4935C69.5892 82.6177 69.4716 82.726 69.3267 82.7339C67.7797 82.8179 67.4959 82.7881 67.4287 82.5318C67.3441 82.209 66.8313 82.1869 66.5247 82.4935C66.4005 82.6177 66.1242 82.7191 65.9113 82.7191C65.5873 82.7191 65.5249 82.6512 65.5249 82.2974C65.5249 82.0648 65.4253 81.7429 65.3037 81.5821C65.1704 81.4059 65.0809 80.944 65.0781 80.4201C65.0728 79.4912 65.4238 78.7363 66.1458 78.1269C66.4869 77.8389 68.3858 77.1431 68.8164 77.1477C69.3414 77.153 71.4124 76.3584 71.8765 75.9738C72.0142 75.8596 72.1303 75.8065 72.2333 75.8204ZM66.2121 84.5433C66.4321 84.5593 66.5872 84.6326 66.6413 84.7734C66.6935 84.9094 66.7184 85.0285 66.6958 85.0374C66.6732 85.0463 66.5178 85.1403 66.3522 85.2468C66.1866 85.3533 65.8662 85.5204 65.6385 85.6184C65.4107 85.7163 65.2241 85.8435 65.2241 85.9015C65.2241 85.9595 65.0258 86.0517 64.7831 86.105C64.5404 86.1584 64.2609 86.2988 64.1623 86.4177C64.0636 86.5366 63.8851 86.6345 63.7656 86.6345C63.6461 86.6345 63.3993 86.7161 63.2185 86.8173C62.8189 87.0409 61.8877 87.3225 60.4814 87.6432C59.317 87.9086 55.1054 88.0576 54.6106 87.8511H54.6091C54.4435 87.782 53.9364 87.6756 53.481 87.6137C52.5873 87.4922 52.4331 87.3687 52.4295 86.776C52.4272 86.3566 53.2628 85.4296 53.6432 85.4296C53.7657 85.4296 54.0172 85.3232 54.2021 85.1937C54.8425 84.7452 58.1485 85.0482 59.4019 85.67C59.6363 85.7863 59.9615 85.8809 60.1245 85.8809C60.2875 85.8809 60.6044 85.9742 60.828 86.0873C61.3502 86.3516 62.2199 86.4911 62.5298 86.3602C62.6626 86.3041 63.0861 85.9916 63.4721 85.6671C64.3095 84.9629 65.5522 84.4955 66.2121 84.5433Z" fill="white"/>
</g>
<defs>
<clipPath id="clip0">
<rect y="0.0654297" width="111.817" height="112" rx="6" fill="white"/>
</clipPath>
</defs>
</svg>
