<svg width="113" height="112" viewBox="0 0 113 112" fill="none" xmlns="http://www.w3.org/2000/svg">
<g clip-path="url(#clip0)">
<path fill-rule="evenodd" clip-rule="evenodd" d="M1.259 0H111.828C112.174 0 112.452 0.278411 112.452 0.624239V111.376C112.452 111.722 112.174 112 111.828 112H1.259C0.913176 112 0.634766 111.722 0.634766 111.376V0.624239C0.634766 0.278411 0.913176 0 1.259 0Z" fill="#279B48"/>
<path d="M37.8818 18.4574C37.6657 18.7957 37.3885 19.0588 37.0502 19.2467C36.712 19.4346 36.3408 19.5286 35.9368 19.5286C35.5797 19.5286 35.2321 19.444 34.8938 19.2749C34.5649 19.1058 34.3065 18.8991 34.1186 18.6548C33.9401 18.4011 33.8179 18.1474 33.7522 17.8937C33.6958 17.64 33.6676 17.3534 33.6676 17.0339V12.3124C33.6676 12.0774 33.6911 11.8425 33.738 11.6076C33.8038 11.3727 33.9777 11.0392 34.2595 10.6069C34.5508 10.1465 35.124 9.91632 35.979 9.91632C36.3549 9.91632 36.7072 10.0056 37.0361 10.1841C37.365 10.3626 37.614 10.5835 37.7831 10.8465C37.9616 11.1002 38.0744 11.3445 38.1214 11.5794C38.1778 11.805 38.2059 12.0493 38.2059 12.3124V12.707H36.867V12.3124C36.867 12.2372 36.8623 12.1714 36.8529 12.115C36.8529 12.0493 36.8481 11.9929 36.8387 11.9459C36.8293 11.8613 36.7588 11.7251 36.6273 11.5372C36.4958 11.3492 36.275 11.2553 35.9649 11.2553C35.5984 11.2553 35.3541 11.3539 35.232 11.5513C35.1192 11.7486 35.0535 11.8942 35.0347 11.9882C35.0159 12.0821 35.0065 12.1902 35.0065 12.3124V17.0339C35.0065 17.1279 35.0065 17.2078 35.0065 17.2735C35.0065 17.3393 35.0112 17.3957 35.0206 17.4427C35.03 17.5178 35.1005 17.6635 35.232 17.8796C35.3542 18.0769 35.5938 18.1756 35.9509 18.1756C36.3173 18.1756 36.5522 18.0769 36.6556 17.8796C36.7119 17.7762 36.7542 17.6917 36.7824 17.6259C36.8106 17.5507 36.8294 17.4849 36.8388 17.4286C36.8576 17.3722 36.867 17.3158 36.867 17.2594C36.867 17.1937 36.867 17.1185 36.867 17.0339V15.3849H35.7817V14.201H38.2059V17.0339C38.2059 17.2312 38.2012 17.4004 38.1918 17.5413C38.1824 17.6729 38.1636 17.7903 38.1354 17.8937C38.1072 17.997 38.0696 18.0957 38.0227 18.1897C37.9851 18.2742 37.9381 18.3635 37.8817 18.4574H37.8818Z" fill="white"/>
<path d="M39.6972 10.8888C39.9133 10.5882 40.1858 10.3532 40.5146 10.1841C40.8529 10.0056 41.2006 9.91632 41.5576 9.91632C41.9053 9.91632 42.2294 9.98679 42.5301 10.1277C42.8402 10.2687 43.0986 10.4613 43.3053 10.7056C43.512 10.9499 43.653 11.2036 43.7281 11.4667C43.8033 11.7204 43.8409 11.9976 43.8409 12.2982V17.1044C43.8409 17.3863 43.8127 17.6353 43.7563 17.8514C43.7094 18.0675 43.5966 18.3071 43.4181 18.5702C43.2489 18.8333 42.9999 19.0588 42.6711 19.2467C42.3516 19.4346 41.9945 19.5286 41.5999 19.5286C41.3744 19.5286 41.1583 19.5004 40.9516 19.444C40.7449 19.3783 40.5522 19.2937 40.3737 19.1903C40.1952 19.087 40.0355 18.9695 39.8945 18.838C39.763 18.7064 39.6596 18.5702 39.5844 18.4292C39.4435 18.138 39.3589 17.9031 39.3307 17.7245C39.3025 17.546 39.2885 17.3393 39.2885 17.1044V12.2982C39.2885 12.0164 39.3166 11.7674 39.373 11.5513C39.4388 11.3257 39.5468 11.1049 39.6972 10.8888ZM42.3187 11.6358C42.1402 11.3727 41.8959 11.2412 41.5858 11.2412C41.4261 11.2412 41.2663 11.2882 41.1066 11.3821C40.9563 11.4667 40.8482 11.5653 40.7824 11.6781C40.7261 11.7909 40.6885 11.9036 40.6697 12.0164C40.6509 12.1291 40.6415 12.2231 40.6415 12.2982V17.1044C40.6415 17.1514 40.6415 17.203 40.6415 17.2594C40.6415 17.3064 40.6462 17.3581 40.6556 17.4145C40.6651 17.5084 40.7402 17.6635 40.8811 17.8796C41.0221 18.0769 41.257 18.1756 41.5859 18.1756C41.755 18.1756 41.9053 18.138 42.0369 18.0628C42.1778 17.9782 42.2765 17.8843 42.3328 17.7809C42.3986 17.6682 42.4409 17.5648 42.4597 17.4709C42.4785 17.3769 42.4879 17.2547 42.4879 17.1044V12.2982C42.4879 12.1103 42.4785 11.9788 42.4597 11.9036C42.4503 11.8284 42.4033 11.7392 42.3187 11.6358H42.3187Z" fill="white"/>
<path d="M45.3988 10.8888C45.6149 10.5882 45.8874 10.3532 46.2163 10.1841C46.5546 10.0056 46.9022 9.91632 47.2593 9.91632C47.6069 9.91632 47.9311 9.98679 48.2318 10.1277C48.5419 10.2687 48.8002 10.4613 49.007 10.7056C49.2137 10.9499 49.3546 11.2036 49.4298 11.4667C49.505 11.7204 49.5426 11.9976 49.5426 12.2982V17.1044C49.5426 17.3863 49.5144 17.6353 49.458 17.8514C49.411 18.0675 49.2983 18.3071 49.1197 18.5702C48.9506 18.8333 48.7016 19.0588 48.3727 19.2467C48.0533 19.4346 47.6962 19.5286 47.3016 19.5286C47.0761 19.5286 46.86 19.5004 46.6532 19.444C46.4465 19.3783 46.2539 19.2937 46.0754 19.1903C45.8968 19.087 45.7371 18.9695 45.5962 18.838C45.4646 18.7064 45.3613 18.5702 45.2861 18.4292C45.1451 18.138 45.0606 17.9031 45.0324 17.7245C45.0042 17.546 44.9901 17.3393 44.9901 17.1044V12.2982C44.9901 12.0164 45.0183 11.7674 45.0747 11.5513C45.1405 11.3257 45.2485 11.1049 45.3988 10.8888ZM48.0204 11.6358C47.8419 11.3727 47.5975 11.2412 47.2875 11.2412C47.1277 11.2412 46.968 11.2882 46.8083 11.3821C46.6579 11.4667 46.5499 11.5653 46.4841 11.6781C46.4277 11.7909 46.3901 11.9036 46.3713 12.0164C46.3526 12.1291 46.3432 12.2231 46.3432 12.2982V17.1044C46.3432 17.1514 46.3432 17.203 46.3432 17.2594C46.3432 17.3064 46.3479 17.3581 46.3573 17.4145C46.3667 17.5084 46.4419 17.6635 46.5828 17.8796C46.7238 18.0769 46.9587 18.1756 47.2875 18.1756C47.4567 18.1756 47.607 18.138 47.7385 18.0628C47.8795 17.9782 47.9781 17.8843 48.0345 17.7809C48.1003 17.6682 48.1426 17.5648 48.1614 17.4709C48.1802 17.3769 48.1895 17.2547 48.1895 17.1044V12.2982C48.1895 12.1103 48.1802 11.9788 48.1614 11.9036C48.152 11.8284 48.105 11.7392 48.0204 11.6358H48.0204Z" fill="white"/>
<path d="M52.9327 10.0009C53.5435 10.0009 54.065 10.2171 54.4972 10.6493C54.9388 11.0721 55.1596 11.5889 55.1596 12.1997V17.1045C55.1596 17.7998 54.9482 18.3635 54.5254 18.7958C54.1026 19.228 53.5576 19.4441 52.8905 19.4441H50.7904V10.0009H52.9327ZM53.8207 17.1045V12.1997C53.8207 11.9366 53.722 11.7158 53.5247 11.5372C53.3368 11.3587 53.1066 11.2694 52.8341 11.2694H52.1294V18.1897H52.7918C53.4777 18.1897 53.8207 17.828 53.8207 17.1045Z" fill="white"/>
<path d="M57.7405 19.4441V10.0009H59.0794V14.0319H60.7989V10.0009H62.1379V19.4441H60.7989V15.2299H59.0794V19.4441H57.7405Z" fill="white"/>
<path d="M67.4356 18.091V19.4441H63.3905V10.0009H67.4356V11.2412H64.7295V14.0319H67.0973V15.3145H64.7295V18.091H67.4356Z" fill="white"/>
<path d="M67.6368 19.4441L69.751 10.0009H70.9208L73.035 19.4441H71.5832L71.2027 17.4145H69.455L69.0604 19.4441H67.6368ZM69.6946 16.1601H70.9631L70.3288 12.7211L69.6946 16.1601Z" fill="white"/>
<path d="M77.7686 19.4441H73.7377V10.0009H75.0907V18.091H77.7686V19.4441Z" fill="white"/>
<path d="M78.3799 19.4441V11.2553H76.7872V10.0009H81.3397V11.2553H79.7188V19.4441H78.3799Z" fill="white"/>
<path d="M82.0637 19.4441V10.0009H83.4027V14.0319H85.1222V10.0009H86.4611V19.4441H85.1222V15.2299H83.4027V19.4441H82.0637Z" fill="white"/>
<path d="M33.0475 32.4664L35.1616 23.0232H36.3314L38.4456 32.4664H36.9939L36.6133 30.4368H34.8656L34.471 32.4664H33.0475ZM35.1052 29.1824H36.3737L35.7395 25.7435L35.1052 29.1824Z" fill="white"/>
<path d="M42.5874 32.4664L40.4873 26.7301V32.4664H39.1343V23.0232H40.4169L42.5028 28.7455V23.0232H43.8559V32.4664H42.5874Z" fill="white"/>
<path d="M47.4703 23.0232C48.0811 23.0232 48.6026 23.2394 49.0348 23.6716C49.4764 24.0944 49.6972 24.6112 49.6972 25.222V30.1268C49.6972 30.8221 49.4858 31.3858 49.063 31.8181C48.6401 32.2503 48.0952 32.4664 47.4281 32.4664H45.328V23.0232H47.4703ZM48.3583 30.1268V25.222C48.3583 24.9589 48.2596 24.738 48.0623 24.5595C47.8744 24.381 47.6442 24.2917 47.3717 24.2917H46.6669V31.212H47.3294C48.0153 31.212 48.3583 30.8503 48.3583 30.1268Z" fill="white"/>
<path d="M56.6635 32.4664L55.5501 26.716L54.4648 32.4664H53.2104L51.8433 23.0232H53.2809L53.9574 28.7314L55.0427 23.0232H56.0434L57.1568 28.7314L57.8333 23.0232H59.2568L57.932 32.4664H56.6635Z" fill="white"/>
<path d="M64.0001 31.1134V32.4664H59.9551V23.0232H64.0001V24.2635H61.294V27.0542H63.6619V28.3368H61.294V31.1134H64.0001Z" fill="white"/>
<path d="M68.5384 32.4664H64.5074V23.0232H65.8605V31.1134H68.5384V32.4664Z" fill="white"/>
<path d="M72.9632 32.4664H68.9323V23.0232H70.2853V31.1134H72.9632V32.4664Z" fill="white"/>
<path d="M77.3841 23.0232C77.6754 23.0232 77.9479 23.0843 78.2016 23.2065C78.4835 23.338 78.77 23.5494 79.0613 23.8407C79.3714 24.1414 79.5264 24.6112 79.5264 25.2501V25.9689C79.5264 26.6924 79.2399 27.1999 78.6667 27.4911C79.2399 27.8294 79.5264 28.3556 79.5264 29.0697V30.169C79.5264 30.8362 79.3103 31.3858 78.8781 31.8181C78.4553 32.2503 77.9103 32.4664 77.2432 32.4664H75.1572V23.0232H77.3841ZM78.1875 25.828V25.2501C78.1875 24.9589 78.1029 24.7286 77.9338 24.5595C77.7647 24.381 77.5392 24.2917 77.2573 24.2917H76.4962V26.8992H77.2996C77.6096 26.8992 77.8351 26.8052 77.9761 26.6173C78.117 26.42 78.1875 26.1569 78.1875 25.828ZM78.1875 30.169V29.0697C78.1875 28.769 78.1029 28.5341 77.9338 28.365C77.7741 28.1864 77.5486 28.0972 77.2573 28.0972H76.4962V31.1274H77.2714C77.5438 31.1274 77.7647 31.0382 77.9338 30.8597C78.1029 30.6717 78.1875 30.4415 78.1875 30.169Z" fill="white"/>
<path d="M84.5803 31.1134V32.4664H80.5353V23.0232H84.5803V24.2635H81.8742V27.0542H84.2421V28.3368H81.8742V31.1134H84.5803Z" fill="white"/>
<path d="M85.1803 32.4664V23.0232H86.5193V32.4664H85.1803Z" fill="white"/>
<path d="M91.1211 32.4664L89.021 26.7301V32.4664H87.668V23.0232H88.9505L91.0365 28.7455V23.0232H92.3896V32.4664H91.1211Z" fill="white"/>
<path d="M97.337 31.4798C97.1209 31.818 96.8437 32.0811 96.5054 32.2691C96.1672 32.457 95.796 32.5509 95.392 32.5509C95.0349 32.5509 94.6873 32.4664 94.349 32.2972C94.0201 32.1281 93.7618 31.9214 93.5738 31.6771C93.3953 31.4234 93.2731 31.1697 93.2074 30.916C93.151 30.6623 93.1228 30.3757 93.1228 30.0562V25.3347C93.1228 25.0998 93.1463 24.8649 93.1932 24.63C93.259 24.3951 93.4329 24.0615 93.7147 23.6293C94.006 23.1688 94.5792 22.9386 95.4342 22.9386C95.8101 22.9386 96.1624 23.0279 96.4913 23.2064C96.8202 23.385 97.0692 23.6058 97.2383 23.8689C97.4168 24.1226 97.5296 24.3668 97.5766 24.6018C97.633 24.8273 97.6611 25.0716 97.6611 25.3347V25.7293H96.3222V25.3347C96.3222 25.2595 96.3175 25.1937 96.3081 25.1373C96.3081 25.0716 96.3034 25.0152 96.294 24.9682C96.2845 24.8837 96.2141 24.7474 96.0825 24.5595C95.951 24.3715 95.7302 24.2776 95.4201 24.2776C95.0536 24.2776 94.8093 24.3763 94.6872 24.5736C94.5744 24.7709 94.5087 24.9165 94.4899 25.0105C94.4711 25.1045 94.4617 25.2125 94.4617 25.3347V30.0562C94.4617 30.1502 94.4617 30.2301 94.4617 30.2958C94.4617 30.3616 94.4664 30.418 94.4758 30.465C94.4852 30.5402 94.5557 30.6858 94.6872 30.9019C94.8094 31.0992 95.049 31.1979 95.406 31.1979C95.7725 31.1979 96.0074 31.0992 96.1108 30.9019C96.1671 30.7986 96.2094 30.714 96.2376 30.6482C96.2658 30.573 96.2846 30.5073 96.294 30.4509C96.3128 30.3945 96.3222 30.3381 96.3222 30.2817C96.3222 30.216 96.3222 30.1408 96.3222 30.0562V28.4072H95.2369V27.2233H97.6611V30.0562C97.6611 30.2536 97.6564 30.4227 97.647 30.5636C97.6376 30.6952 97.6188 30.8126 97.5906 30.916C97.5624 31.0193 97.5248 31.118 97.4778 31.212C97.4402 31.2965 97.3933 31.3858 97.3369 31.4798H97.337Z" fill="white"/>
<path d="M22.7633 26.8427V27.2474C22.7633 27.4048 22.7521 27.5847 22.7296 27.787C22.7296 27.9669 22.6959 28.2367 22.6284 28.5964C22.3136 29.6756 21.7178 30.5525 20.841 31.227C19.9866 31.9015 18.9861 32.2388 17.8394 32.2388C16.94 32.2388 16.0857 31.969 15.2762 31.4294C14.4668 30.8673 13.9497 30.3164 13.7249 29.7768C13.59 29.4845 13.4775 29.226 13.3876 29.0011C13.3201 28.7763 13.2639 28.5627 13.219 28.3604C13.174 28.158 13.1403 27.9444 13.1178 27.7196C13.1178 27.4722 13.1178 27.18 13.1178 26.8427V25.5274H16.3554V27.3823C16.4004 27.6746 16.5241 28.0006 16.7265 28.3604C16.9513 28.7651 17.356 28.9674 17.9406 28.9674C18.5251 28.9674 18.9411 28.7651 19.1884 28.3604C19.4357 27.9557 19.5594 27.4498 19.5594 26.8427V23.369C19.5369 22.9418 19.447 22.6158 19.2896 22.3909C19.1547 22.1661 18.986 22.0087 18.7837 21.9188C18.5813 21.8063 18.3677 21.7501 18.1429 21.7501C17.9181 21.7276 17.7157 21.7164 17.5359 21.7164H16.9625V18.8497H17.5359C18.8849 18.8497 19.5594 18.2202 19.5594 16.9611V14.263C19.5594 13.9932 19.5369 13.7684 19.492 13.5885C19.492 13.5211 19.4582 13.4199 19.3908 13.285C19.3233 13.1501 19.2222 13.0152 19.0872 12.8803C18.9748 12.7454 18.8287 12.633 18.6488 12.543C18.469 12.4531 18.2554 12.4081 18.008 12.4081C17.4459 12.4081 17.03 12.588 16.7602 12.9477C16.4904 13.285 16.3555 13.7234 16.3555 14.263V15.9156H13.1178V14.263C13.1178 12.8466 13.5788 11.6549 14.5006 10.6881C15.3999 9.72133 16.5691 9.23793 18.008 9.23793C18.795 9.23793 19.5482 9.44028 20.2677 9.84499C21.0096 10.2497 21.5492 10.7218 21.8865 11.2615C22.2462 11.8011 22.4823 12.307 22.5947 12.7791C22.7071 13.2513 22.7633 13.7459 22.7633 14.263V16.8936C22.7633 18.3551 22.1226 19.468 20.841 20.2325C21.5605 20.7496 22.0551 21.2667 22.3249 21.7838C22.6172 22.2785 22.7633 22.953 22.7633 23.8074V26.8427Z" fill="white"/>
<path d="M20.9657 73.4429H39.4526L45.948 59.203L49.1957 80.9375L56.9402 67.0307L61.6035 93.4287L76.5929 43.9638L83.5046 58.2037" stroke="white" stroke-width="3.4" stroke-linecap="round" stroke-linejoin="round"/>
<path fill-rule="evenodd" clip-rule="evenodd" d="M85.8706 81.5112C85.8706 81.5112 90.9591 76.3344 93.5255 73.768C94.3145 72.979 94.9387 71.7702 94.9387 70.3233C94.9387 67.7708 93.8378 64.376 90.0514 64.376C87.8959 64.376 86.096 66.4526 85.9001 66.6725C85.6055 67.0031 85.2641 66.9869 85.0164 66.6725C84.8342 66.4411 83.0206 64.376 80.8651 64.376C77.0787 64.376 75.9778 67.7708 75.9778 70.3233C75.9778 71.7702 76.6021 72.979 77.391 73.768C79.9574 76.3344 85.0459 81.5112 85.0459 81.5112C85.3257 81.8084 85.5466 81.8139 85.8706 81.5112Z" fill="white"/>
</g>
<defs>
<clipPath id="clip0">
<rect x="0.634766" width="111.817" height="112" rx="6" fill="white"/>
</clipPath>
</defs>
</svg>
