<svg width="113" height="113" viewBox="0 0 113 113" fill="none" xmlns="http://www.w3.org/2000/svg">
<g clip-path="url(#clip0)">
<path fill-rule="evenodd" clip-rule="evenodd" d="M1.259 0.0654297H111.828C112.174 0.0654297 112.452 0.343864 112.452 0.689691V111.441C112.452 111.787 112.174 112.065 111.828 112.065H1.259C0.913176 112.065 0.634766 111.787 0.634766 111.441V0.689691C0.634766 0.343864 0.913176 0.0654297 1.259 0.0654297Z" fill="#3EB049"/>
<path d="M40.5776 19.3496H36.5466V9.90643H37.8997V17.9965H40.5776V19.3496Z" fill="white"/>
<path d="M40.8452 19.3496V9.90643H42.1842V19.3496H40.8452Z" fill="white"/>
<path d="M43.0444 19.3496V9.90643H47.0754V11.1749H44.3834V14.0079H46.7371V15.2763H44.3834V19.3496H43.0444Z" fill="white"/>
<path d="M51.5825 17.9965V19.3496H47.5375V9.90643H51.5825V11.1467H48.8764V13.9374H51.2443V15.22H48.8764V17.9965H51.5825Z" fill="white"/>
<path d="M36.8426 23.8167C37.0587 23.5161 37.3312 23.2811 37.66 23.112C37.9983 22.9335 38.346 22.8442 38.703 22.8442C39.0507 22.8442 39.3748 22.9147 39.6755 23.0556C39.9856 23.1966 40.244 23.3892 40.4507 23.6335C40.6574 23.8778 40.7984 24.1315 40.8735 24.3946C40.9487 24.6483 40.9863 24.9255 40.9863 25.2261V30.0323C40.9863 30.3142 40.9581 30.5632 40.9017 30.7793C40.8548 30.9954 40.742 31.235 40.5635 31.4981C40.3943 31.7612 40.1453 31.9867 39.8165 32.1746C39.497 32.3626 39.1399 32.4565 38.7453 32.4565C38.5198 32.4565 38.3037 32.4283 38.097 32.372C37.8902 32.3062 37.6976 32.2216 37.5191 32.1183C37.3406 32.0149 37.1808 31.8975 37.0399 31.7659C36.9084 31.6344 36.805 31.4981 36.7298 31.3571C36.5889 31.0659 36.5043 30.831 36.4761 30.6525C36.4479 30.4739 36.4338 30.2672 36.4338 30.0323V25.2261C36.4338 24.9443 36.462 24.6953 36.5184 24.4792C36.5842 24.2536 36.6922 24.0328 36.8426 23.8167ZM39.4641 24.5637C39.2856 24.3006 39.0413 24.1691 38.7312 24.1691C38.5715 24.1691 38.4117 24.2161 38.252 24.31C38.1017 24.3946 37.9936 24.4933 37.9278 24.606C37.8715 24.7188 37.8339 24.8315 37.8151 24.9443C37.7963 25.057 37.7869 25.151 37.7869 25.2261V30.0323C37.7869 30.0793 37.7869 30.1309 37.7869 30.1873C37.7869 30.2343 37.7916 30.286 37.801 30.3424C37.8104 30.4363 37.8856 30.5914 38.0265 30.8075C38.1675 31.0048 38.4024 31.1034 38.7312 31.1034C38.9004 31.1034 39.0507 31.0659 39.1823 30.9907C39.3232 30.9062 39.4219 30.8122 39.4783 30.7088C39.544 30.5961 39.5863 30.4927 39.6051 30.3988C39.6239 30.3048 39.6333 30.1826 39.6333 30.0323V25.2261C39.6333 25.0382 39.6239 24.9067 39.6051 24.8315C39.5957 24.7563 39.5487 24.6671 39.4642 24.5637H39.4641Z" fill="white"/>
<path d="M45.279 32.3718L43.179 26.6355V32.3718H41.8259V22.9286H43.1085L45.1944 28.6509V22.9286H46.5475V32.3718H45.279Z" fill="white"/>
<path d="M54.4554 32.3718H50.4244V22.9286H51.7775V31.0188H54.4554V32.3718Z" fill="white"/>
<path d="M54.5278 32.3718L56.642 22.9286H57.8118L59.9259 32.3718H58.4742L58.0937 30.3422H56.346L55.9514 32.3718H54.5278ZM56.5856 29.0879H57.8541L57.2198 25.6488L56.5856 29.0879Z" fill="white"/>
<path d="M63.7816 32.3718L61.6815 26.6355V32.3718H60.3285V22.9286H61.6111L63.697 28.6509V22.9286H65.0501V32.3718H63.7816Z" fill="white"/>
<path d="M68.0925 22.9286C68.7033 22.9286 69.2248 23.1448 69.657 23.577C70.0986 23.9998 70.3194 24.5166 70.3194 25.1273V30.0322C70.3194 30.7275 70.108 31.2913 69.6852 31.7235C69.2624 32.1557 68.7174 32.3718 68.0502 32.3718H65.9502V22.9286H68.0925ZM68.9805 30.0322V25.1273C68.9805 24.8643 68.8818 24.6434 68.6845 24.4649C68.4966 24.2864 68.2663 24.1971 67.9939 24.1971H67.2892V31.1174H67.9516C68.6375 31.1174 68.9805 30.7557 68.9805 30.0322Z" fill="white"/>
<path d="M11.8092 32.4894V13.2658L8.57153 15.6941V12.2541L11.8092 9.89325H15.0131V32.4894H11.8092Z" fill="white"/>
<path d="M23.3767 17.9536C23.9388 17.9536 24.5009 18.111 25.063 18.4258C25.6475 18.7406 26.0748 19.1115 26.3446 19.5387C26.6368 19.9659 26.828 20.4156 26.9179 20.8877C27.0303 21.3374 27.0865 21.8208 27.0865 22.338V27.3968C27.0865 27.8914 27.064 28.3186 27.0191 28.6784C26.9966 29.0156 26.8729 29.4878 26.6481 30.0948C26.4233 30.7019 25.8724 31.2864 24.9955 31.8485C24.1636 32.4106 23.2418 32.6917 22.2301 32.6917C21.4656 32.6917 20.7349 32.5118 20.0379 32.1521C19.3409 31.7699 18.8013 31.3089 18.4191 30.7693C18.0368 30.2297 17.7783 29.6789 17.6434 29.1168C17.5085 28.5547 17.441 27.9813 17.441 27.3968V26.8234H20.7461V28.0713C20.7461 28.1837 20.7799 28.3186 20.8473 28.476C20.9148 28.6334 21.0047 28.7908 21.1171 28.9481C21.2295 29.0831 21.3869 29.2067 21.5893 29.3191C21.7916 29.4091 22.0277 29.454 22.2975 29.454C22.9046 29.454 23.3093 29.2854 23.5116 28.9481C23.714 28.6109 23.8264 28.3523 23.8489 28.1725C23.8714 27.9701 23.8826 27.7565 23.8826 27.5317V22.7764C23.8826 22.6639 23.8826 22.5628 23.8826 22.4728C23.8826 22.3604 23.8714 22.248 23.8489 22.1356C23.8489 22.0232 23.8152 21.8883 23.7477 21.7309C23.7028 21.5735 23.6128 21.4273 23.4779 21.2924C23.3655 21.1351 23.2081 21.0114 23.0058 20.9215C22.8259 20.809 22.601 20.7528 22.3312 20.7528C21.5443 20.7528 21.0159 21.1576 20.7461 21.967H17.8457V9.89319H27.0865V12.8948H20.7461V18.9654C21.5106 18.2909 22.3875 17.9536 23.3767 17.9536H23.3767Z" fill="white"/>
<path d="M37.588 52.3563C29.1649 52.9404 30.0421 61.1244 34.1408 63.4545C30.6773 68.8932 34.1148 74.0482 38.2606 74.0482H51.797C59.248 74.0482 64.4836 61.4004 52.8479 56.1818C57.0934 41.4715 37.4664 42.4666 37.588 52.3563Z" fill="white"/>
<path d="M65.3061 68.1233C69.0832 66.3714 73.6888 70.2635 73.6888 70.2635C73.6888 70.2635 77.6371 66.5888 81.9525 68.1827C83.0623 68.5927 82.9773 67.4385 82.6065 67.172C80.4041 65.5899 77.6456 64.0655 73.8077 67.1126C69.1703 64.1454 66.6018 65.4913 64.771 67.1126C64.2908 67.5379 64.4587 68.5163 65.3061 68.1233Z" fill="white"/>
<path d="M59.5675 54.5145C62.5534 52.7967 66.6312 55.6704 66.6312 55.6704C66.6312 55.6704 69.6187 52.3555 73.2908 53.3561C74.2352 53.6135 74.0814 52.6685 73.7565 52.4758C71.8267 51.3316 69.4427 50.2753 66.5007 53.065C62.4636 50.9559 60.4444 52.2515 59.0532 53.7204C58.6883 54.1058 58.8976 54.8999 59.5675 54.5145Z" fill="white"/>
<path d="M70.3957 46.3202C73.1373 45.9153 75.3417 49.2691 75.3417 49.2691C75.3417 49.2691 78.5556 47.6693 81.0089 49.5016C81.6398 49.9728 81.8035 49.2201 81.6172 48.98C80.5103 47.5543 79.0376 46.0605 76.0126 47.2805C73.6132 44.511 71.7197 44.885 70.2451 45.5741C69.8583 45.7549 69.7807 46.411 70.3957 46.3202Z" fill="white"/>
<path fill-rule="evenodd" clip-rule="evenodd" d="M44.8845 76.1631H47.6931C48.039 76.1631 48.3174 76.4415 48.3174 76.7873V84.2716C48.3174 84.6175 48.039 84.8959 47.6931 84.8959H44.8845C44.5387 84.8959 44.2603 84.6175 44.2603 84.2716V76.7873C44.2603 76.4415 44.5387 76.1631 44.8845 76.1631Z" fill="white"/>
<path fill-rule="evenodd" clip-rule="evenodd" d="M30.088 88.2628H83.601C83.9468 88.2628 84.2252 88.5413 84.2252 88.8871V91.5491C84.2252 91.8949 83.9468 92.1733 83.601 92.1733H30.088C29.7422 92.1733 29.4637 91.8949 29.4637 91.5491V88.8871C29.4637 88.5413 29.7422 88.2628 30.088 88.2628Z" fill="white"/>
<path fill-rule="evenodd" clip-rule="evenodd" d="M30.088 94.6835H83.601C83.9468 94.6835 84.2252 94.9619 84.2252 95.3077V97.9698C84.2252 98.3157 83.9468 98.5941 83.601 98.5941H30.088C29.7422 98.5941 29.4637 98.3157 29.4637 97.9698V95.3077C29.4637 94.9619 29.7422 94.6835 30.088 94.6835Z" fill="white"/>
</g>
<defs>
<clipPath id="clip0">
<rect x="0.634766" y="0.0654297" width="111.817" height="112" rx="6" fill="white"/>
</clipPath>
</defs>
</svg>
