<svg width="112" height="113" viewBox="0 0 112 113" fill="none" xmlns="http://www.w3.org/2000/svg">
<g clip-path="url(#clip0)">
<path fill-rule="evenodd" clip-rule="evenodd" d="M0.71113 0.0654297H111.28C111.626 0.0654297 111.904 0.343833 111.904 0.689668V111.441C111.904 111.787 111.626 112.065 111.28 112.065H0.71113C0.365302 112.065 0.0869141 111.787 0.0869141 111.441V0.689668C0.0869141 0.343833 0.365302 0.0654297 0.71113 0.0654297Z" fill="#CF8D2A"/>
<path d="M36.0693 19.1186V9.67542H38.4372C39.0573 9.67542 39.5788 9.89151 40.0016 10.3237C40.4338 10.756 40.65 11.2868 40.65 11.9164V12.7902C40.65 13.6641 40.2788 14.3312 39.5365 14.7916L40.9741 19.1186H39.5365L38.268 15.0735H37.4224V19.1186H36.0693ZM39.0714 13.5795C39.1559 13.4762 39.2123 13.3587 39.2405 13.2272C39.2781 13.0956 39.2969 12.95 39.2969 12.7902V11.9164C39.2969 11.6251 39.2171 11.3902 39.0573 11.2117C38.8976 11.0237 38.6721 10.9298 38.3808 10.9298H37.4224V13.8755H38.3667C38.6486 13.8755 38.8835 13.7768 39.0714 13.5795H39.0714Z" fill="white"/>
<path d="M45.3837 17.7655V19.1186H41.3386V9.67542H45.3837V10.9157H42.6776V13.7064H45.0454V14.9889H42.6776V17.7655H45.3837Z" fill="white"/>
<path d="M46.9148 16.7648C46.9148 16.8587 46.9148 16.9386 46.9148 17.0043C46.9148 17.0701 46.9195 17.1265 46.9289 17.1735C46.9477 17.2675 47.0182 17.4037 47.1403 17.5822C47.2719 17.7701 47.5068 17.8641 47.845 17.8641C48.0329 17.8641 48.2068 17.8265 48.3665 17.7514C48.5262 17.6668 48.6437 17.5587 48.7189 17.4272C48.7752 17.3238 48.8081 17.2252 48.8175 17.1312C48.8363 17.0373 48.8457 16.9527 48.8457 16.8775V16.7507V16.0882V15.9614C48.8457 15.7547 48.8081 15.5949 48.7329 15.4822C48.6578 15.36 48.4886 15.2238 48.2255 15.0734C48.047 14.9795 47.7276 14.8479 47.2672 14.6788C46.8067 14.5097 46.4215 14.2419 46.1114 13.8754C45.8013 13.509 45.6463 13.011 45.6463 12.3814V11.9586C45.6463 11.3103 45.8624 10.7559 46.2946 10.2955C46.7363 9.82569 47.2718 9.59079 47.9014 9.59079C48.5591 9.59079 49.1041 9.82098 49.5363 10.2814C49.9779 10.7418 50.1987 11.3009 50.1987 11.9586V12.3814H48.8457V11.9586C48.8457 11.8928 48.841 11.8318 48.8316 11.7754C48.8316 11.719 48.8269 11.6673 48.8174 11.6204C48.808 11.5734 48.7846 11.517 48.747 11.4512C48.7094 11.3854 48.6577 11.3056 48.592 11.2116C48.4604 11.0237 48.2396 10.9297 47.9295 10.9297C47.657 10.9297 47.4315 11.0284 47.253 11.2257C47.0839 11.423 46.9993 11.6673 46.9993 11.9586V12.3814V12.5083C46.9993 12.6962 47.0275 12.8465 47.0839 12.9593C47.1497 13.0627 47.3 13.1801 47.5349 13.3117C47.6101 13.3493 47.7228 13.401 47.8732 13.4667C48.0329 13.5231 48.2255 13.5936 48.451 13.6781C48.902 13.8285 49.3061 14.0963 49.6631 14.4815C50.0202 14.8667 50.1987 15.3741 50.1987 16.0037V16.7648C50.1987 17.0936 50.1658 17.3708 50.1001 17.5963C50.0437 17.8218 49.851 18.1507 49.5222 18.5829C49.1933 18.9964 48.6437 19.2031 47.8732 19.2031C47.0557 19.2031 46.4638 18.94 46.0973 18.4138C45.7309 17.8782 45.5476 17.3285 45.5476 16.7648V16.4265H46.9148L46.9148 16.7648Z" fill="white"/>
<path d="M50.8115 19.1186V9.67542H53.0243H53.0525C53.3344 9.67542 53.6021 9.73648 53.8558 9.85862C54.1095 9.97138 54.3351 10.1217 54.5324 10.3097C54.7297 10.4976 54.8847 10.7137 54.9975 10.958C55.1196 11.1929 55.1854 11.4372 55.1948 11.6909V13.058V13.199C55.1948 13.509 55.1337 13.8003 55.0116 14.0728C54.8988 14.3359 54.7438 14.5661 54.5464 14.7634C54.3491 14.9607 54.1143 15.1158 53.8418 15.2285C53.5787 15.3413 53.2968 15.3977 52.9961 15.3977H52.8692H52.1645V19.1186H50.8115ZM53.6726 13.8473C53.7572 13.7627 53.8089 13.6735 53.8277 13.5795C53.8559 13.4856 53.87 13.3681 53.87 13.2272V11.8318C53.87 11.5687 53.7901 11.3526 53.6304 11.1835C53.4706 11.005 53.2545 10.9157 52.982 10.9157H52.1646V14.1151H52.8693C53.0572 14.1151 53.2075 14.101 53.3203 14.0728C53.4424 14.0352 53.5599 13.9601 53.6726 13.8473Z" fill="white"/>
<path d="M56.2683 10.5633C56.4845 10.2626 56.757 10.0277 57.0858 9.85856C57.4241 9.68004 57.7717 9.59079 58.1288 9.59079C58.4764 9.59079 58.8006 9.66126 59.1013 9.8022C59.4114 9.94315 59.6698 10.1358 59.8765 10.3801C60.0832 10.6244 60.2241 10.878 60.2993 11.1411C60.3745 11.3948 60.4121 11.672 60.4121 11.9727V16.7789C60.4121 17.0607 60.3839 17.3097 60.3275 17.5258C60.2806 17.742 60.1678 17.9816 59.9893 18.2446C59.8201 18.5077 59.5711 18.7333 59.2422 18.9212C58.9228 19.1091 58.5657 19.2031 58.1711 19.2031C57.9456 19.2031 57.7295 19.1749 57.5228 19.1185C57.316 19.0527 57.1234 18.9682 56.9449 18.8648C56.7664 18.7614 56.6066 18.644 56.4657 18.5124C56.3341 18.3809 56.2308 18.2447 56.1556 18.1037C56.0147 17.8124 55.9301 17.5775 55.9019 17.399C55.8737 17.2205 55.8596 17.0138 55.8596 16.7789V11.9727C55.8596 11.6908 55.8878 11.4418 55.9442 11.2257C56.01 11.0002 56.118 10.7794 56.2683 10.5633ZM58.8899 11.3103C58.7114 11.0472 58.4671 10.9156 58.157 10.9156C57.9972 10.9156 57.8375 10.9626 57.6778 11.0566C57.5275 11.1411 57.4194 11.2398 57.3536 11.3526C57.2973 11.4653 57.2597 11.5781 57.2409 11.6908C57.2221 11.8036 57.2127 11.8975 57.2127 11.9727V16.7789C57.2127 16.8258 57.2127 16.8775 57.2127 16.9339C57.2127 16.9808 57.2174 17.0325 57.2268 17.0889C57.2362 17.1829 57.3114 17.3379 57.4523 17.554C57.5933 17.7514 57.8282 17.85 58.157 17.85C58.3262 17.85 58.4765 17.8124 58.6081 17.7373C58.749 17.6527 58.8477 17.5587 58.9041 17.4554C58.9698 17.3426 59.0121 17.2393 59.0309 17.1453C59.0497 17.0513 59.059 16.9292 59.059 16.7789V11.9727C59.059 11.7848 59.0497 11.6532 59.0309 11.5781C59.0215 11.5029 58.9745 11.4136 58.89 11.3103H58.8899Z" fill="white"/>
<path d="M64.8325 19.1186L62.7325 13.3822V19.1186H61.3794V9.67542H62.662L64.7479 15.3977V9.67542H66.101V19.1186H64.8325Z" fill="white"/>
<path d="M67.8642 16.7648C67.8642 16.8587 67.8642 16.9386 67.8642 17.0043C67.8642 17.0701 67.869 17.1265 67.8784 17.1735C67.8971 17.2675 67.9676 17.4037 68.0898 17.5822C68.2213 17.7701 68.4562 17.8641 68.7945 17.8641C68.9824 17.8641 69.1562 17.8265 69.316 17.7514C69.4757 17.6668 69.5932 17.5587 69.6683 17.4272C69.7247 17.3238 69.7576 17.2252 69.767 17.1312C69.7858 17.0373 69.7952 16.9527 69.7952 16.8775V16.7507V16.0882V15.9614C69.7952 15.7547 69.7576 15.5949 69.6824 15.4822C69.6072 15.36 69.4381 15.2238 69.175 15.0734C68.9965 14.9795 68.677 14.8479 68.2166 14.6788C67.7562 14.5097 67.3709 14.2419 67.0609 13.8754C66.7508 13.509 66.5958 13.011 66.5958 12.3814V11.9586C66.5958 11.3103 66.8119 10.7559 67.2441 10.2955C67.6857 9.82569 68.2213 9.59079 68.8508 9.59079C69.5086 9.59079 70.0536 9.82098 70.4858 10.2814C70.9274 10.7418 71.1482 11.3009 71.1482 11.9586V12.3814H69.7952V11.9586C69.7952 11.8928 69.7905 11.8318 69.7811 11.7754C69.7811 11.719 69.7763 11.6673 69.7669 11.6204C69.7575 11.5734 69.734 11.517 69.6965 11.4512C69.6589 11.3854 69.6072 11.3056 69.5414 11.2116C69.4099 11.0237 69.1891 10.9297 68.879 10.9297C68.6065 10.9297 68.381 11.0284 68.2025 11.2257C68.0333 11.423 67.9488 11.6673 67.9488 11.9586V12.3814V12.5083C67.9488 12.6962 67.977 12.8465 68.0333 12.9593C68.0991 13.0627 68.2495 13.1801 68.4844 13.3117C68.5595 13.3493 68.6723 13.401 68.8226 13.4667C68.9824 13.5231 69.175 13.5936 69.4005 13.6781C69.8515 13.8285 70.2555 14.0963 70.6126 14.4815C70.9697 14.8667 71.1482 15.3741 71.1482 16.0037V16.7648C71.1482 17.0936 71.1153 17.3708 71.0495 17.5963C70.9932 17.8218 70.8005 18.1507 70.4717 18.5829C70.1428 18.9964 69.5931 19.2031 68.8226 19.2031C68.0052 19.2031 67.4132 18.94 67.0468 18.4138C66.6803 17.8782 66.4971 17.3285 66.4971 16.7648V16.4265H67.8642V16.7648Z" fill="white"/>
<path d="M71.8899 19.1186V9.67542H73.2288V19.1186H71.8899Z" fill="white"/>
<path d="M76.4085 9.67542C76.6998 9.67542 76.9723 9.73648 77.226 9.85862C77.5079 9.99017 77.7945 10.2016 78.0857 10.4929C78.3958 10.7935 78.5508 11.2634 78.5508 11.9023V12.6211C78.5508 13.3446 78.2642 13.852 77.6911 14.1433C78.2642 14.4816 78.5508 15.0077 78.5508 15.7218V16.8212C78.5508 17.4883 78.3347 18.038 77.9025 18.4702C77.4797 18.9024 76.9347 19.1186 76.2676 19.1186H74.1816V9.67542H76.4085ZM77.2119 12.4802V11.9023C77.2119 11.611 77.1273 11.3808 76.9582 11.2117C76.7891 11.0331 76.5636 10.9439 76.2817 10.9439H75.5206V13.5513H76.3239C76.634 13.5513 76.8596 13.4574 77.0005 13.2694C77.1414 13.0721 77.2119 12.809 77.2119 12.4802ZM77.2119 16.8212V15.7218C77.2119 15.4212 77.1273 15.1863 76.9582 15.0171C76.7985 14.8386 76.573 14.7494 76.2817 14.7494H75.5206V17.7796H76.2958C76.5683 17.7796 76.7891 17.6903 76.9582 17.5118C77.1273 17.3239 77.2119 17.0937 77.2119 16.8212Z" fill="white"/>
<path d="M83.2795 19.1186H79.2485V9.67542H80.6016V17.7655H83.2795V19.1186Z" fill="white"/>
<path d="M87.6994 17.7655V19.1186H83.6543V9.67542H87.6994V10.9157H84.9933V13.7064H87.3611V14.9889H84.9933V17.7655H87.6994Z" fill="white"/>
<path d="M40.3681 29.7589C40.3681 30.0596 40.3493 30.318 40.3117 30.5341C40.2835 30.7502 40.1895 30.9851 40.0298 31.2388C39.9452 31.3703 39.8371 31.4972 39.7056 31.6193C39.5834 31.7321 39.4425 31.8355 39.2828 31.9294C39.1324 32.014 38.968 32.0845 38.7895 32.1408C38.6109 32.1972 38.4371 32.2254 38.268 32.2254C37.8452 32.2254 37.4599 32.1361 37.1123 31.9576C36.774 31.7791 36.525 31.5536 36.3653 31.2811C36.2056 31.0086 36.1022 30.7549 36.0552 30.52C36.0176 30.2851 35.9988 30.0314 35.9988 29.7589V24.8964C35.9988 24.6333 36.0223 24.3984 36.0692 24.1917C36.1256 23.9755 36.2384 23.7454 36.4075 23.5011C36.5766 23.2568 36.8163 23.05 37.1263 22.8809C37.4364 22.7024 37.7605 22.6131 38.0988 22.6131C38.7471 22.6131 39.2874 22.8292 39.7196 23.2614C40.1519 23.6843 40.368 24.2293 40.368 24.8964V25.4038H39.029V24.8964C39.029 24.6333 38.9539 24.4125 38.8035 24.2339C38.6626 24.0554 38.4512 23.9662 38.1693 23.9662C37.9062 23.9662 37.6995 24.0554 37.5492 24.2339C37.4082 24.4125 37.3377 24.6333 37.3377 24.8964V30.1253C37.3565 30.2663 37.4223 30.426 37.5351 30.6046C37.6666 30.7925 37.8827 30.8864 38.1834 30.8864C38.5028 30.8864 38.7143 30.8019 38.8176 30.6327C38.921 30.4636 38.9821 30.3415 39.0009 30.2663C39.0196 30.1817 39.029 30.069 39.029 29.928V29.4488H40.368L40.3681 29.7589Z" fill="white"/>
<path d="M41.8441 23.5856C42.0602 23.2849 42.3327 23.05 42.6615 22.8809C42.9998 22.7024 43.3474 22.6131 43.7045 22.6131C44.0522 22.6131 44.3763 22.6836 44.677 22.8245C44.9871 22.9655 45.2455 23.1581 45.4522 23.4024C45.6589 23.6467 45.7998 23.9004 45.875 24.1635C45.9502 24.4172 45.9878 24.6944 45.9878 24.995V29.8012C45.9878 30.0831 45.9596 30.3321 45.9032 30.5482C45.8562 30.7643 45.7435 31.0039 45.5649 31.267C45.3958 31.5301 45.1468 31.7556 44.818 31.9435C44.4985 32.1314 44.1414 32.2254 43.7468 32.2254C43.5213 32.2254 43.3052 32.1972 43.0984 32.1408C42.8917 32.0751 42.6991 31.9905 42.5206 31.8871C42.3421 31.7838 42.1823 31.6663 42.0414 31.5348C41.9098 31.4032 41.8065 31.267 41.7313 31.126C41.5904 30.8348 41.5058 30.5998 41.4776 30.4213C41.4494 30.2428 41.4353 30.0361 41.4353 29.8012V24.995C41.4353 24.7132 41.4635 24.4642 41.5199 24.248C41.5857 24.0225 41.6937 23.8017 41.8441 23.5856ZM44.4656 24.3326C44.2871 24.0695 44.0428 23.938 43.7327 23.938C43.573 23.938 43.4132 23.9849 43.2535 24.0789C43.1031 24.1635 42.9951 24.2621 42.9293 24.3749C42.8729 24.4876 42.8353 24.6004 42.8165 24.7131C42.7978 24.8259 42.7884 24.9199 42.7884 24.995V29.8012C42.7884 29.8482 42.7884 29.8998 42.7884 29.9562C42.7884 30.0032 42.7931 30.0549 42.8025 30.1113C42.812 30.2052 42.8871 30.3603 43.028 30.5764C43.169 30.7737 43.4039 30.8724 43.7328 30.8724C43.9019 30.8724 44.0522 30.8348 44.1837 30.7596C44.3247 30.675 44.4234 30.5811 44.4797 30.4777C44.5455 30.365 44.5878 30.2616 44.6066 30.1676C44.6253 30.0737 44.6348 29.9515 44.6348 29.8012V24.995C44.6348 24.8071 44.6253 24.6756 44.6066 24.6004C44.5972 24.5252 44.5502 24.436 44.4656 24.3326H44.4656Z" fill="white"/>
<path d="M50.3437 32.1408L48.2437 26.4044V32.1408H46.8906V22.6976H48.1732L50.2591 28.4199V22.6976H51.6122V32.1408H50.3437Z" fill="white"/>
<path d="M53.3108 29.7871C53.3108 29.881 53.3108 29.9609 53.3108 30.0267C53.3108 30.0925 53.3155 30.1489 53.3249 30.1958C53.3437 30.2898 53.4141 30.426 53.5363 30.6046C53.6678 30.7925 53.9027 30.8864 54.241 30.8864C54.4289 30.8864 54.6028 30.8489 54.7625 30.7737C54.9222 30.6891 55.0397 30.5811 55.1149 30.4495C55.1712 30.3462 55.2041 30.2475 55.2135 30.1535C55.2323 30.0596 55.2417 29.975 55.2417 29.8999V29.773V29.1106V28.9837C55.2417 28.777 55.2041 28.6173 55.1289 28.5045C55.0538 28.3824 54.8846 28.2461 54.6215 28.0958C54.443 28.0018 54.1235 27.8703 53.6631 27.7011C53.2027 27.532 52.8175 27.2642 52.5074 26.8978C52.1973 26.5313 52.0423 26.0333 52.0423 25.4038V24.9809C52.0423 24.3326 52.2584 23.7782 52.6906 23.3178C53.1323 22.848 53.6678 22.6131 54.2974 22.6131C54.9551 22.6131 55.5001 22.8433 55.9323 23.3037C56.3739 23.7641 56.5947 24.3232 56.5947 24.9809V25.4038H55.2417V24.9809C55.2417 24.9152 55.237 24.8541 55.2275 24.7977C55.2275 24.7413 55.2229 24.6897 55.2134 24.6427C55.204 24.5957 55.1805 24.5393 55.143 24.4736C55.1054 24.4078 55.0537 24.3279 54.988 24.2339C54.8564 24.046 54.6356 23.9521 54.3255 23.9521C54.053 23.9521 53.8275 24.0507 53.649 24.248C53.4799 24.4454 53.3953 24.6897 53.3953 24.9809V25.4038V25.5306C53.3953 25.7185 53.4235 25.8689 53.4799 25.9817C53.5457 26.085 53.696 26.2024 53.9309 26.334C54.0061 26.3716 54.1188 26.4233 54.2692 26.489C54.4289 26.5454 54.6215 26.6159 54.847 26.7005C55.298 26.8508 55.7021 27.1186 56.0591 27.5038C56.4162 27.8891 56.5947 28.3965 56.5947 29.026V29.7871C56.5947 30.1159 56.5618 30.3931 56.4961 30.6187C56.4397 30.8442 56.247 31.173 55.9182 31.6053C55.5893 32.0187 55.0397 32.2254 54.2692 32.2254C53.4517 32.2254 52.8598 31.9623 52.4933 31.4361C52.1268 30.9005 51.9436 30.3509 51.9436 29.7871V29.4488H53.3107L53.3108 29.7871Z" fill="white"/>
<path d="M61.2947 31.1542C61.0879 31.4737 60.8201 31.7321 60.4913 31.9294C60.1718 32.1267 59.8147 32.2254 59.4201 32.2254C59.2228 32.2254 59.0254 32.1972 58.8281 32.1408C58.6402 32.0844 58.4617 32.014 58.2926 31.9294C58.1234 31.8354 57.9731 31.7321 57.8415 31.6193C57.71 31.4972 57.6114 31.3703 57.5456 31.2388C57.4046 30.9757 57.3107 30.7455 57.2637 30.5481C57.2261 30.3508 57.2073 30.1394 57.2073 29.9139V22.6976H58.5603V29.9139C58.5603 29.9797 58.5603 30.0408 58.5603 30.0971C58.5697 30.1441 58.5791 30.1911 58.5885 30.2381C58.5979 30.3133 58.6684 30.4448 58.7999 30.6327C58.9221 30.8018 59.1335 30.8864 59.4341 30.8864C59.7066 30.8864 59.9086 30.7877 60.0402 30.5904C60.1811 30.3837 60.2516 30.1582 60.2516 29.9139V22.6976H61.6047V29.9139C61.6047 30.1394 61.5812 30.3555 61.5342 30.5622C61.4872 30.769 61.4074 30.9663 61.2946 31.1542H61.2947Z" fill="white"/>
<path d="M66.797 32.1408V26.3903L65.444 30.4213H64.7675L63.4285 26.3903V32.1408H62.0754V22.6976H63.3439L65.1339 27.7293L66.8957 22.6976H68.136V32.1408H66.797Z" fill="white"/>
<path d="M69.0742 32.1408V22.6976H71.287H71.3152C71.5971 22.6976 71.8649 22.7587 72.1186 22.8809C72.3723 22.9936 72.5978 23.1439 72.7951 23.3319C72.9924 23.5198 73.1475 23.7359 73.2602 23.9802C73.3824 24.2151 73.4481 24.4594 73.4575 24.7131V26.0803V26.2212C73.4575 26.5313 73.3964 26.8226 73.2743 27.095C73.1615 27.3581 73.0065 27.5883 72.8092 27.7857C72.6119 27.983 72.377 28.138 72.1045 28.2508C71.8414 28.3635 71.5595 28.4199 71.2588 28.4199H71.1319H70.4273V32.1408H69.0742ZM71.9354 26.8696C72.0199 26.785 72.0716 26.6957 72.0904 26.6018C72.1186 26.5078 72.1327 26.3903 72.1327 26.2494V24.8541C72.1327 24.591 72.0528 24.3749 71.8931 24.2057C71.7333 24.0272 71.5172 23.9379 71.2448 23.9379H70.4273V27.1373H71.132C71.3199 27.1373 71.4703 27.1232 71.583 27.095C71.7052 27.0574 71.8226 26.9823 71.9354 26.8696Z" fill="white"/>
<path d="M75.3066 32.1408V23.952H73.7139V22.6976H78.2663V23.952H76.6455V32.1408H75.3066Z" fill="white"/>
<path d="M78.752 32.1408V22.6976H80.0909V32.1408H78.752Z" fill="white"/>
<path d="M81.4827 23.5856C81.6988 23.2849 81.9713 23.05 82.3002 22.8809C82.6385 22.7024 82.9861 22.6131 83.3432 22.6131C83.6908 22.6131 84.015 22.6836 84.3157 22.8245C84.6257 22.9655 84.8841 23.1581 85.0908 23.4024C85.2976 23.6467 85.4385 23.9004 85.5137 24.1635C85.5888 24.4172 85.6264 24.6944 85.6264 24.995V29.8012C85.6264 30.0831 85.5983 30.3321 85.5419 30.5482C85.4949 30.7643 85.3822 31.0039 85.2036 31.267C85.0345 31.5301 84.7855 31.7556 84.4566 31.9435C84.1372 32.1314 83.7801 32.2254 83.3854 32.2254C83.1599 32.2254 82.9438 32.1972 82.7371 32.1408C82.5304 32.0751 82.3378 31.9905 82.1593 31.8871C81.9807 31.7838 81.821 31.6663 81.68 31.5348C81.5485 31.4032 81.4451 31.267 81.37 31.126C81.229 30.8348 81.1445 30.5998 81.1163 30.4213C81.0881 30.2428 81.074 30.0361 81.074 29.8012V24.995C81.074 24.7132 81.1022 24.4642 81.1585 24.248C81.2243 24.0225 81.3324 23.8017 81.4827 23.5856ZM84.1043 24.3326C83.9257 24.0695 83.6814 23.938 83.3713 23.938C83.2116 23.938 83.0519 23.9849 82.8921 24.0789C82.7418 24.1635 82.6338 24.2621 82.568 24.3749C82.5116 24.4876 82.474 24.6004 82.4552 24.7131C82.4364 24.8259 82.4271 24.9199 82.4271 24.995V29.8012C82.4271 29.8482 82.4271 29.8998 82.4271 29.9562C82.4271 30.0032 82.4318 30.0549 82.4412 30.1113C82.4506 30.2052 82.5258 30.3603 82.6667 30.5764C82.8076 30.7737 83.0425 30.8724 83.3714 30.8724C83.5405 30.8724 83.6909 30.8348 83.8224 30.7596C83.9634 30.675 84.062 30.5811 84.1184 30.4777C84.1842 30.365 84.2264 30.2616 84.2452 30.1676C84.264 30.0737 84.2734 29.9515 84.2734 29.8012V24.995C84.2734 24.8071 84.264 24.6756 84.2452 24.6004C84.2358 24.5252 84.1889 24.436 84.1043 24.3326H84.1043Z" fill="white"/>
<path d="M90.1115 32.1408L88.0115 26.4044V32.1408H86.6584V22.6976H87.941L90.027 28.4199V22.6976H91.38V32.1408H90.1115Z" fill="white"/>
<path d="M35.5581 45.1632L37.6722 35.72H38.8421L40.9562 45.1632H39.5045L39.1239 43.1336H37.3763L36.9816 45.1632H35.5581ZM37.6159 41.8792H38.8844L38.2501 38.4402L37.6159 41.8792Z" fill="white"/>
<path d="M45.0334 45.1632L42.9334 39.4268V45.1632H41.5803V35.72H42.8629L44.9488 41.4423V35.72H46.3019V45.1632H45.0334Z" fill="white"/>
<path d="M49.2065 35.72C49.8173 35.72 50.3388 35.9361 50.771 36.3684C51.2126 36.7912 51.4334 37.308 51.4334 37.9188V42.8236C51.4334 43.5189 51.222 44.0826 50.7992 44.5149C50.3764 44.9471 49.8314 45.1632 49.1643 45.1632H47.0642V35.72H49.2065ZM50.0945 42.8236V37.9188C50.0945 37.6557 49.9958 37.4348 49.7985 37.2563C49.6106 37.0778 49.3804 36.9885 49.1079 36.9885H48.4032V43.9088H49.0656C49.7515 43.9088 50.0945 43.5471 50.0945 42.8236Z" fill="white"/>
<path d="M53.6821 45.1632V35.72H55.8949H55.9231C56.205 35.72 56.4727 35.7811 56.7264 35.9033C56.9801 36.016 57.2057 36.1664 57.403 36.3543C57.6003 36.5422 57.7553 36.7583 57.8681 37.0026C57.9902 37.2375 58.056 37.4818 58.0654 37.7355V39.1027V39.2436C58.0654 39.5537 58.0043 39.845 57.8822 40.1174C57.7694 40.3805 57.6144 40.6107 57.4171 40.8081C57.2197 41.0054 56.9849 41.1604 56.7124 41.2732C56.4493 41.3859 56.1674 41.4423 55.8667 41.4423H55.7399H55.0351V45.1632H53.6821ZM56.5432 39.8919C56.6278 39.8074 56.6795 39.7181 56.6983 39.6242C56.7265 39.5302 56.7406 39.4127 56.7406 39.2718V37.8765C56.7406 37.6134 56.6607 37.3973 56.501 37.2281C56.3412 37.0496 56.1251 36.9603 55.8526 36.9603H55.0352V40.1597H55.7399C55.9278 40.1597 56.0781 40.1456 56.1909 40.1174C56.313 40.0798 56.4305 40.0047 56.5432 39.8919Z" fill="white"/>
<path d="M58.8794 45.1632V35.72H61.2473C61.8674 35.72 62.3889 35.9361 62.8117 36.3684C63.2439 36.8006 63.4601 37.3315 63.4601 37.961V38.8349C63.4601 39.7087 63.0889 40.3758 62.3466 40.8362L63.7842 45.1632H62.3466L61.0781 41.1181H60.2324V45.1632H58.8794ZM61.8815 39.6242C61.966 39.5208 62.0224 39.4033 62.0506 39.2718C62.0882 39.1402 62.107 38.9946 62.107 38.8349V37.961C62.107 37.6697 62.0272 37.4348 61.8674 37.2563C61.7077 37.0684 61.4822 36.9744 61.1909 36.9744H60.2325V39.9201H61.1768C61.4587 39.9201 61.6936 39.8215 61.8815 39.6242H61.8815Z" fill="white"/>
<path d="M64.4588 36.6079C64.6749 36.3073 64.9474 36.0723 65.2762 35.9032C65.6145 35.7247 65.9621 35.6354 66.3192 35.6354C66.6669 35.6354 66.991 35.7059 67.2917 35.8468C67.6018 35.9878 67.8602 36.1804 68.0669 36.4247C68.2736 36.669 68.4146 36.9227 68.4897 37.1858C68.5649 37.4395 68.6025 37.7167 68.6025 38.0174V42.8235C68.6025 43.1054 68.5743 43.3544 68.5179 43.5705C68.4709 43.7866 68.3582 44.0262 68.1796 44.2893C68.0105 44.5524 67.7615 44.7779 67.4327 44.9658C67.1132 45.1537 66.7562 45.2477 66.3615 45.2477C66.136 45.2477 65.9199 45.2195 65.7131 45.1631C65.5064 45.0974 65.3138 45.0128 65.1353 44.9094C64.9568 44.8061 64.797 44.6886 64.6561 44.5571C64.5246 44.4255 64.4212 44.2893 64.346 44.1484C64.2051 43.8571 64.1205 43.6222 64.0923 43.4436C64.0641 43.2651 64.05 43.0584 64.05 42.8235V38.0174C64.05 37.7355 64.0782 37.4865 64.1346 37.2703C64.2004 37.0448 64.3084 36.824 64.4588 36.6079ZM67.0803 37.3549C66.9018 37.0918 66.6575 36.9603 66.3474 36.9603C66.1877 36.9603 66.0279 37.0073 65.8682 37.1012C65.7178 37.1858 65.6098 37.2844 65.544 37.3972C65.4876 37.51 65.4501 37.6227 65.4313 37.7355C65.4125 37.8482 65.4031 37.9422 65.4031 38.0174V42.8235C65.4031 42.8705 65.4031 42.9221 65.4031 42.9785C65.4031 43.0255 65.4078 43.0772 65.4172 43.1336C65.4267 43.2275 65.5018 43.3826 65.6427 43.5987C65.7837 43.796 66.0186 43.8947 66.3475 43.8947C66.5166 43.8947 66.6669 43.8571 66.7985 43.7819C66.9394 43.6973 67.0381 43.6034 67.0944 43.5C67.1602 43.3873 67.2025 43.2839 67.2213 43.1899C67.2401 43.096 67.2495 42.9738 67.2495 42.8235V38.0174C67.2495 37.8294 67.2401 37.6979 67.2213 37.6227C67.2119 37.5475 67.1649 37.4583 67.0803 37.3549H67.0803Z" fill="white"/>
<path d="M71.6477 35.72C72.2585 35.72 72.78 35.9361 73.2122 36.3684C73.6538 36.7912 73.8746 37.308 73.8746 37.9188V42.8236C73.8746 43.5189 73.6632 44.0826 73.2403 44.5149C72.8175 44.9471 72.2725 45.1632 71.6054 45.1632H69.5054V35.72H71.6477ZM72.5357 42.8236V37.9188C72.5357 37.6557 72.437 37.4348 72.2397 37.2563C72.0517 37.0778 71.8215 36.9885 71.549 36.9885H70.8443V43.9088H71.5068C72.1927 43.9088 72.5357 43.5471 72.5357 42.8236Z" fill="white"/>
<path d="M79.0603 44.1766C78.8536 44.4961 78.5858 44.7545 78.2569 44.9518C77.9374 45.1491 77.5804 45.2478 77.1857 45.2478C76.9884 45.2478 76.7911 45.2196 76.5938 45.1632C76.4059 45.1068 76.2273 45.0364 76.0582 44.9518C75.8891 44.8578 75.7387 44.7545 75.6072 44.6417C75.4756 44.5196 75.377 44.3927 75.3112 44.2612C75.1703 43.9981 75.0763 43.7679 75.0293 43.5705C74.9917 43.3732 74.9729 43.1618 74.9729 42.9363V35.72H76.3259V42.9363C76.3259 43.0021 76.3259 43.0632 76.3259 43.1195C76.3354 43.1665 76.3448 43.2135 76.3541 43.2605C76.3636 43.3357 76.434 43.4672 76.5655 43.6551C76.6877 43.8242 76.8991 43.9088 77.1998 43.9088C77.4723 43.9088 77.6743 43.8101 77.8058 43.6128C77.9468 43.4061 78.0172 43.1806 78.0172 42.9363V35.72H79.3703V42.9363C79.3703 43.1618 79.3468 43.3779 79.2998 43.5846C79.2529 43.7914 79.173 43.9887 79.0602 44.1766H79.0603Z" fill="white"/>
<path d="M84.7709 42.7812C84.7709 43.0819 84.7521 43.3403 84.7145 43.5564C84.6863 43.7725 84.5923 44.0074 84.4326 44.2611C84.348 44.3926 84.24 44.5195 84.1084 44.6416C83.9863 44.7544 83.8453 44.8578 83.6856 44.9517C83.5353 45.0363 83.3708 45.1068 83.1923 45.1631C83.0138 45.2195 82.8399 45.2477 82.6708 45.2477C82.248 45.2477 81.8627 45.1584 81.5151 44.9799C81.1768 44.8014 80.9278 44.5759 80.7681 44.3034C80.6083 44.0309 80.505 43.7772 80.458 43.5423C80.4204 43.3074 80.4016 43.0537 80.4016 42.7812V37.9187C80.4016 37.6556 80.4251 37.4207 80.472 37.214C80.5284 36.9978 80.6412 36.7677 80.8103 36.5234C80.9794 36.2791 81.219 36.0723 81.5291 35.9032C81.8392 35.7247 82.1634 35.6354 82.5016 35.6354C83.15 35.6354 83.6903 35.8515 84.1225 36.2837C84.5547 36.7066 84.7708 37.2516 84.7708 37.9187V38.4261H83.4319V37.9187C83.4319 37.6556 83.3567 37.4348 83.2063 37.2562C83.0654 37.0777 82.854 36.9885 82.5721 36.9885C82.309 36.9885 82.1023 37.0777 81.9519 37.2562C81.811 37.4348 81.7405 37.6556 81.7405 37.9187V43.1477C81.7593 43.2886 81.8251 43.4483 81.9378 43.6269C82.0694 43.8148 82.2855 43.9087 82.5862 43.9087C82.9057 43.9087 83.1171 43.8242 83.2204 43.655C83.3238 43.4859 83.3849 43.3638 83.4037 43.2886C83.4224 43.204 83.4318 43.0913 83.4318 42.9503V42.4711H84.7708L84.7709 42.7812Z" fill="white"/>
<path d="M86.5704 45.1632V36.9744H84.9778V35.72H89.5302V36.9744H87.9094V45.1632H86.5704Z" fill="white"/>
<path d="M90.0806 45.1632V35.72H91.4195V45.1632H90.0806Z" fill="white"/>
<path d="M92.6822 36.6079C92.8983 36.3073 93.1707 36.0723 93.4996 35.9032C93.8379 35.7247 94.1855 35.6354 94.5426 35.6354C94.8903 35.6354 95.2144 35.7059 95.5151 35.8468C95.8252 35.9878 96.0836 36.1804 96.2903 36.4247C96.497 36.669 96.638 36.9227 96.7131 37.1858C96.7883 37.4395 96.8259 37.7167 96.8259 38.0174V42.8235C96.8259 43.1054 96.7977 43.3544 96.7413 43.5705C96.6943 43.7866 96.5816 44.0262 96.403 44.2893C96.2339 44.5524 95.9849 44.7779 95.656 44.9658C95.3366 45.1537 94.9795 45.2477 94.5849 45.2477C94.3594 45.2477 94.1433 45.2195 93.9365 45.1631C93.7298 45.0974 93.5372 45.0128 93.3587 44.9094C93.1802 44.8061 93.0204 44.6886 92.8795 44.5571C92.748 44.4255 92.6446 44.2893 92.5694 44.1484C92.4285 43.8571 92.3439 43.6222 92.3157 43.4436C92.2875 43.2651 92.2734 43.0584 92.2734 42.8235V38.0174C92.2734 37.7355 92.3016 37.4865 92.358 37.2703C92.4238 37.0448 92.5318 36.824 92.6822 36.6079ZM95.3037 37.3549C95.1252 37.0918 94.8809 36.9603 94.5708 36.9603C94.4111 36.9603 94.2513 37.0073 94.0916 37.1012C93.9412 37.1858 93.8332 37.2844 93.7674 37.3972C93.711 37.51 93.6734 37.6227 93.6546 37.7355C93.6359 37.8482 93.6265 37.9422 93.6265 38.0174V42.8235C93.6265 42.8705 93.6265 42.9221 93.6265 42.9785C93.6265 43.0255 93.6312 43.0772 93.6406 43.1336C93.65 43.2275 93.7252 43.3826 93.8661 43.5987C94.0071 43.796 94.242 43.8947 94.5708 43.8947C94.74 43.8947 94.8903 43.8571 95.0219 43.7819C95.1628 43.6973 95.2615 43.6034 95.3178 43.5C95.3836 43.3873 95.4259 43.2839 95.4447 43.1899C95.4635 43.096 95.4729 42.9738 95.4729 42.8235V38.0174C95.4729 37.8294 95.4635 37.6979 95.4447 37.6227C95.4353 37.5475 95.3883 37.4583 95.3037 37.3549H95.3037Z" fill="white"/>
<path d="M101.182 45.1632L99.0818 39.4268V45.1632H97.7288V35.72H99.0113L101.097 41.4423V35.72H102.45V45.1632H101.182Z" fill="white"/>
<path d="M11.6356 31.969V12.7454L8.39795 15.1737V11.7336L11.6356 9.37286H14.8396V31.969H11.6356Z" fill="white"/>
<path d="M27.159 31.969H17.5472V29.0012L23.5503 17.3321C23.8201 16.7925 23.955 16.2417 23.955 15.6796V13.9933C23.955 13.5436 23.7977 13.1614 23.4829 12.8466C23.1681 12.5094 22.7859 12.3407 22.3362 12.3407C21.9315 12.3407 21.5605 12.4869 21.2233 12.7792C20.9085 13.0715 20.7511 13.4312 20.7511 13.8584V15.8482H17.4797V14.2294C17.4797 13.3525 17.8058 12.2845 18.4578 11.0254C19.1323 9.78884 20.4813 9.17053 22.5048 9.17053C23.7864 9.17053 24.8769 9.65393 25.7762 10.6207C26.698 11.61 27.159 12.7342 27.159 13.9933V16.0505C27.159 16.9724 26.9116 17.8942 26.417 18.816L21.3582 28.7651H27.159V31.969Z" fill="white"/>
<path fill-rule="evenodd" clip-rule="evenodd" d="M51.8692 76.5714L41.8903 79.8865C41.4493 80.0332 41.3321 80.602 41.6792 80.911L49.5385 87.8953C49.8857 88.204 50.4369 88.0215 50.5314 87.5666L52.6511 77.2673C52.7455 76.8116 52.3109 76.4248 51.8692 76.5714ZM73.4654 54.3348C65.3666 54.3348 60.1127 60.1606 57.5253 63.1907C57.5253 63.1907 59.5055 67.2932 60.6133 67.9036C60.6133 67.9036 65.7628 59.5449 73.4654 59.5449C76.1817 59.5449 79.1791 60.4351 81.4155 62.4398C83.652 64.4445 85.325 67.5599 85.325 72.7863C85.325 75.9306 84.289 78.9961 82.5024 81.17C80.7158 83.344 78.2911 84.702 74.9239 84.702C71.2941 84.702 68.4178 83.6622 65.6509 81.4488C62.884 79.2354 60.2685 75.7497 57.7509 70.9297C56.459 68.4562 54.3747 64.4498 51.1118 60.9636C47.8489 57.4774 43.1975 54.441 37.1994 54.441C33.1813 54.441 29.0018 55.6911 25.8043 58.6926C22.6069 61.6941 20.5833 66.3765 20.5559 72.5091C20.5098 82.8006 28.3242 89.7499 37.2525 89.7499C43.6784 89.7499 48.0016 85.7859 48.0016 85.7859L44.5095 81.9192C44.5095 81.9192 41.5451 84.5397 37.2525 84.5397C30.8525 84.5397 25.7296 80.3308 25.7645 72.5327C25.7871 67.4885 27.3019 64.433 29.3702 62.4914C31.4385 60.5498 34.2529 59.6511 37.1994 59.6511C41.4805 59.6511 44.6627 61.6967 47.3085 64.5236C49.9543 67.3504 51.8523 70.8892 53.1336 73.3423C55.8543 78.5513 58.815 82.6511 62.3962 85.516C65.9775 88.3809 70.2223 89.9121 74.9239 89.9121C79.7912 89.9121 83.8689 87.7121 86.5269 84.4778C89.1849 81.2435 90.5351 77.0493 90.5351 72.7863C90.5351 66.3785 88.2511 61.5715 84.8929 58.5613C81.5347 55.5512 77.2987 54.3348 73.4654 54.3348Z" fill="white"/>
</g>
<defs>
<clipPath id="clip0">
<rect x="0.0869141" y="0.0654297" width="111.817" height="112" rx="6" fill="white"/>
</clipPath>
</defs>
</svg>
