<svg width="113" height="112" viewBox="0 0 113 112" fill="none" xmlns="http://www.w3.org/2000/svg">
<g clip-path="url(#clip0)">
<path fill-rule="evenodd" clip-rule="evenodd" d="M1.07641 0H111.645C111.991 0 112.27 0.278411 112.27 0.624239V111.376C112.27 111.722 111.991 112 111.645 112H1.07641C0.730575 112 0.452148 111.722 0.452148 111.376V0.624239C0.452148 0.278411 0.730575 0 1.07641 0Z" fill="#C31F33"/>
<path d="M33.7973 18.7111C33.5812 18.4762 33.4355 18.2272 33.3603 17.9641C33.2946 17.701 33.2617 17.391 33.2617 17.0339V12.3405C33.2617 11.6546 33.4778 11.0814 33.91 10.621C34.3517 10.1512 34.906 9.91629 35.5731 9.91629C36.1745 9.91629 36.7054 10.1371 37.1658 10.5787C37.6168 11.0203 37.8423 11.5465 37.8423 12.1573V17.0339C37.8423 17.3064 37.8282 17.5084 37.8 17.64C37.7813 17.7715 37.7437 17.903 37.6873 18.0346L38.5752 18.7816L37.8282 19.6836L36.9826 19.0071C36.5692 19.3454 36.0711 19.5145 35.4886 19.5145C35.1785 19.5145 34.8684 19.4393 34.5584 19.289C34.2577 19.1386 34.004 18.946 33.7973 18.7111ZM36.0383 16.6815L36.4893 17.0339V12.3405C36.4893 12.0398 36.4047 11.7861 36.2356 11.5794C36.0665 11.3633 35.8316 11.2552 35.5309 11.2552C35.343 11.2552 35.1785 11.3022 35.0376 11.3962C34.8966 11.4902 34.7933 11.6029 34.7275 11.7345C34.6711 11.866 34.6383 11.9694 34.6289 12.0445C34.6195 12.1103 34.6147 12.209 34.6147 12.3405V17.0339V17.1325C34.6147 17.405 34.6899 17.6493 34.8403 17.8655C35 18.0722 35.2443 18.1802 35.5731 18.1896C35.6671 18.1896 35.7799 18.1614 35.9114 18.1051L35.2912 17.5836L36.0383 16.6815Z" fill="white"/>
<path d="M43.2284 18.4575C43.0217 18.777 42.754 19.0354 42.4251 19.2327C42.1056 19.43 41.7486 19.5287 41.3539 19.5287C41.1566 19.5287 40.9593 19.5005 40.762 19.4441C40.574 19.3877 40.3955 19.3173 40.2264 19.2327C40.0573 19.1387 39.9069 19.0354 39.7754 18.9226C39.6438 18.8005 39.5452 18.6736 39.4794 18.5421C39.3385 18.279 39.2445 18.0488 39.1975 17.8515C39.1599 17.6541 39.1411 17.4427 39.1411 17.2172V10.0009H40.4942V17.2172C40.4942 17.283 40.4942 17.3441 40.4942 17.4004C40.5036 17.4474 40.513 17.4944 40.5223 17.5414C40.5317 17.6165 40.6022 17.7481 40.7338 17.936C40.8559 18.1052 41.0673 18.1897 41.368 18.1897C41.6405 18.1897 41.8425 18.0911 41.974 17.8937C42.115 17.687 42.1855 17.4615 42.1855 17.2172V10.0009H43.5385V17.2172C43.5385 17.4427 43.515 17.6588 43.468 17.8655C43.4211 18.0723 43.3412 18.2696 43.2284 18.4575Z" fill="white"/>
<path d="M44.2583 19.4441L46.3725 10.0009H47.5423L49.6564 19.4441H48.2047L47.8242 17.4145H46.0765L45.6819 19.4441H44.2583ZM46.3161 16.1601H47.5846L46.9503 12.7211L46.3161 16.1601Z" fill="white"/>
<path d="M54.3901 19.4441H50.3591V10.0009H51.7122V18.091H54.3901V19.4441Z" fill="white"/>
<path d="M54.7698 19.4441V10.0009H56.1087V19.4441H54.7698Z" fill="white"/>
<path d="M58.4496 19.4441V11.2553H56.8569V10.0009H61.4094V11.2553H59.7885V19.4441H58.4496Z" fill="white"/>
<path d="M63.3898 19.4441V15.385L61.5576 10.0009H62.967L64.0664 13.6936L65.1798 10.0009H66.6033L64.7288 15.385V19.4441H63.3898Z" fill="white"/>
<path d="M37.4054 31.1134V32.4664H33.3604V23.0232H37.4054V24.2635H34.6993V27.0542H37.0672V28.3368H34.6993V31.1134H37.4054Z" fill="white"/>
<path d="M40.5747 23.0232C41.1855 23.0232 41.7069 23.2394 42.1391 23.6716C42.5808 24.0944 42.8016 24.6112 42.8016 25.222V30.1268C42.8016 30.8221 42.5902 31.3858 42.1673 31.8181C41.7445 32.2503 41.1995 32.4664 40.5324 32.4664H38.4324V23.0232H40.5747ZM41.4626 30.1268V25.222C41.4626 24.9589 41.364 24.738 41.1667 24.5595C40.9787 24.381 40.7485 24.2917 40.476 24.2917H39.7713V31.212H40.4337C41.1197 31.212 41.4626 30.8503 41.4626 30.1268Z" fill="white"/>
<path d="M48.032 31.4798C47.8252 31.7993 47.5574 32.0577 47.2286 32.255C46.9091 32.4523 46.552 32.551 46.1574 32.551C45.9601 32.551 45.7627 32.5228 45.5654 32.4664C45.3775 32.41 45.199 32.3396 45.0299 32.255C44.8607 32.161 44.7104 32.0577 44.5788 31.9449C44.4473 31.8228 44.3487 31.6959 44.2829 31.5644C44.1419 31.3013 44.048 31.0711 44.001 30.8737C43.9634 30.6764 43.9446 30.465 43.9446 30.2395V23.0232H45.2976V30.2395C45.2976 30.3053 45.2976 30.3664 45.2976 30.4227C45.307 30.4697 45.3164 30.5167 45.3258 30.5637C45.3352 30.6389 45.4057 30.7704 45.5372 30.9583C45.6594 31.1274 45.8708 31.212 46.1714 31.212C46.4439 31.212 46.6459 31.1134 46.7775 30.916C46.9184 30.7093 46.9889 30.4838 46.9889 30.2395V23.0232H48.342V30.2395C48.342 30.465 48.3185 30.6811 48.2715 30.8879C48.2245 31.0946 48.1447 31.2919 48.0319 31.4798H48.032Z" fill="white"/>
<path d="M53.8517 30.0844C53.8517 30.3851 53.8328 30.6435 53.7952 30.8596C53.7671 31.0757 53.6731 31.3106 53.5134 31.5643C53.4288 31.6959 53.3207 31.8227 53.1892 31.9449C53.067 32.0576 52.9261 32.161 52.7664 32.255C52.6161 32.3395 52.4516 32.41 52.2731 32.4664C52.0946 32.5227 51.9208 32.5509 51.7516 32.5509C51.3288 32.5509 50.9435 32.4617 50.5959 32.2831C50.2576 32.1046 50.0086 31.8791 49.8489 31.6066C49.6891 31.3341 49.5858 31.0804 49.5388 30.8455C49.5012 30.6106 49.4824 30.3569 49.4824 30.0844V25.2219C49.4824 24.9588 49.5059 24.7239 49.5528 24.5172C49.6092 24.3011 49.722 24.0709 49.8911 23.8266C50.0602 23.5823 50.2999 23.3756 50.6099 23.2064C50.92 23.0279 51.2441 22.9386 51.5824 22.9386C52.2307 22.9386 52.771 23.1547 53.2032 23.587C53.6355 24.0098 53.8516 24.5548 53.8516 25.2219V25.7293H52.5126V25.2219C52.5126 24.9588 52.4375 24.738 52.2871 24.5595C52.1462 24.3809 51.9348 24.2917 51.6529 24.2917C51.3898 24.2917 51.1831 24.3809 51.0328 24.5595C50.8918 24.738 50.8213 24.9588 50.8213 25.2219V30.4509C50.8401 30.5918 50.9059 30.7516 51.0187 30.9301C51.1502 31.118 51.3663 31.212 51.667 31.212C51.9864 31.212 52.1979 31.1274 52.3012 30.9583C52.4046 30.7891 52.4657 30.667 52.4845 30.5918C52.5032 30.5073 52.5126 30.3945 52.5126 30.2536V29.7744H53.8516L53.8517 30.0844Z" fill="white"/>
<path d="M54.2988 32.4664L56.413 23.0232H57.5828L59.6969 32.4664H58.2452L57.8647 30.4368H56.117L55.7223 32.4664H54.2988ZM56.3566 29.1824H57.6251L56.9908 25.7435L56.3566 29.1824Z" fill="white"/>
<path d="M60.8304 32.4664V24.2776H59.2378V23.0232H63.7902V24.2776H62.1694V32.4664H60.8304Z" fill="white"/>
<path d="M64.5142 32.4664V23.0232H65.8531V32.4664H64.5142Z" fill="white"/>
<path d="M67.4812 23.9112C67.6973 23.6105 67.9698 23.3756 68.2987 23.2064C68.6369 23.0279 68.9846 22.9386 69.3417 22.9386C69.6893 22.9386 70.0135 23.0091 70.3141 23.15C70.6242 23.291 70.8826 23.4836 71.0893 23.7279C71.2961 23.9722 71.437 24.2259 71.5122 24.489C71.5873 24.7427 71.6249 25.0199 71.6249 25.3206V30.1267C71.6249 30.4086 71.5967 30.6576 71.5404 30.8737C71.4934 31.0898 71.3806 31.3294 71.2021 31.5925C71.033 31.8556 70.784 32.0811 70.4551 32.2691C70.1356 32.457 69.7786 32.5509 69.3839 32.5509C69.1584 32.5509 68.9423 32.5227 68.7356 32.4664C68.5289 32.4006 68.3363 32.316 68.1578 32.2127C67.9792 32.1093 67.8195 31.9919 67.6785 31.8603C67.547 31.7288 67.4436 31.5925 67.3685 31.4516C67.2275 31.1603 67.143 30.9254 67.1148 30.7469C67.0866 30.5683 67.0725 30.3616 67.0725 30.1267V25.3206C67.0725 25.0387 67.1007 24.7897 67.1571 24.5736C67.2228 24.3481 67.3309 24.1273 67.4812 23.9112ZM70.1028 24.6581C69.9242 24.395 69.6799 24.2635 69.3699 24.2635C69.2101 24.2635 69.0504 24.3105 68.8906 24.4044C68.7403 24.489 68.6322 24.5877 68.5665 24.7004C68.5101 24.8132 68.4725 24.9259 68.4537 25.0387C68.4349 25.1514 68.4256 25.2454 68.4256 25.3206V30.1267C68.4256 30.1737 68.4256 30.2254 68.4256 30.2817C68.4256 30.3287 68.4303 30.3804 68.4397 30.4368C68.4491 30.5308 68.5243 30.6858 68.6652 30.9019C68.8061 31.0992 69.041 31.1979 69.3699 31.1979C69.539 31.1979 69.6894 31.1603 69.8209 31.0851C69.9618 31.0006 70.0605 30.9066 70.1169 30.8032C70.1827 30.6905 70.2249 30.5871 70.2437 30.4932C70.2625 30.3992 70.2719 30.2771 70.2719 30.1267V25.3206C70.2719 25.1327 70.2625 25.0011 70.2437 24.9259C70.2343 24.8508 70.1874 24.7615 70.1028 24.6581H70.1028Z" fill="white"/>
<path d="M76.0684 32.4664L73.9683 26.7301V32.4664H72.6152V23.0232H73.8978L75.9838 28.7455V23.0232H77.3368V32.4664H76.0684Z" fill="white"/>
<path d="M18.5129 32.0365V28.5965H12.0713V25.5612L16.7591 9.44034H20.1654L15.3426 25.5612H18.5129V19.1196H21.7505V25.5612H23.3356V28.5965H21.7505V32.0365H18.5129Z" fill="white"/>
<path fill-rule="evenodd" clip-rule="evenodd" d="M85.7419 45.2241C84.5937 45.2302 83.4443 45.8597 83.4443 47.0941V50.4593H88.0381V47.0941C88.0381 45.8363 86.8902 45.2183 85.7419 45.2241ZM83.4443 51.906V85.5441L85.7419 93.0813L88.0381 85.5441V51.906H83.4443ZM30.1552 48.6541V85.8507L49.8664 91.9298V60.119L30.1552 48.6541ZM49.6998 96.1767L25.8418 89.4315V50.2094L27.9176 48.6247V87.9002L50.1804 94.3952H51.9904L74.2533 87.9002V48.6247L76.3291 50.2094V89.4315L52.471 96.1767H49.6998ZM72.0157 48.6541V85.8507L52.3044 91.9298V60.119L72.0157 48.6541Z" fill="white"/>
</g>
<defs>
<clipPath id="clip0">
<rect x="0.452148" width="111.817" height="112" rx="6" fill="white"/>
</clipPath>
</defs>
</svg>
