<svg width="113" height="113" viewBox="0 0 113 113" fill="none" xmlns="http://www.w3.org/2000/svg">
<g clip-path="url(#clip0)">
<path fill-rule="evenodd" clip-rule="evenodd" d="M1.44162 0.0654297H112.011C112.356 0.0654297 112.635 0.343833 112.635 0.689668V111.441C112.635 111.787 112.356 112.065 112.011 112.065H1.44162C1.09579 112.065 0.817383 111.787 0.817383 111.441V0.689668C0.817383 0.343833 1.09579 0.0654297 1.44162 0.0654297Z" fill="#8F1838"/>
<path d="M33.1374 9.93338C33.7482 9.93338 34.2697 10.1495 34.7019 10.5817C35.1435 11.0045 35.3643 11.5213 35.3643 12.1321V17.0369C35.3643 17.7322 35.1529 18.296 34.7301 18.7282C34.3073 19.1604 33.7623 19.3765 33.0952 19.3765H30.9951V9.93338H33.1374ZM34.0254 17.0369V12.1321C34.0254 11.869 33.9267 11.6482 33.7294 11.4697C33.5415 11.2911 33.3113 11.2019 33.0388 11.2019H32.3341V18.1222H32.9965C33.6824 18.1222 34.0254 17.7604 34.0254 17.0369Z" fill="white"/>
<path d="M40.5724 18.0235V19.3765H36.5273V9.93338H40.5724V11.1737H37.8663V13.9644H40.2341V15.2469H37.8663V18.0235H40.5724Z" fill="white"/>
<path d="M45.5166 16.9946C45.5166 17.2952 45.4978 17.5536 45.4602 17.7697C45.432 17.9859 45.338 18.2208 45.1783 18.4745C45.0937 18.606 44.9857 18.7328 44.8542 18.855C44.732 18.9677 44.5911 19.0711 44.4313 19.1651C44.281 19.2496 44.1166 19.3201 43.938 19.3765C43.7595 19.4329 43.5857 19.4611 43.4165 19.4611C42.9937 19.4611 42.6085 19.3718 42.2608 19.1933C41.9225 19.0147 41.6735 18.7892 41.5138 18.5167C41.3541 18.2442 41.2507 17.9906 41.2037 17.7556C41.1661 17.5207 41.1473 17.2671 41.1473 16.9946V12.132C41.1473 11.8689 41.1708 11.634 41.2178 11.4273C41.2742 11.2112 41.3869 10.981 41.556 10.7367C41.7252 10.4924 41.9648 10.2857 42.2748 10.1166C42.5849 9.93802 42.9091 9.84875 43.2473 9.84875C43.8957 9.84875 44.436 10.0649 44.8682 10.4971C45.3004 10.9199 45.5165 11.4649 45.5165 12.132V12.6394H44.1776V12.132C44.1776 11.8689 44.1024 11.6481 43.9521 11.4696C43.8111 11.2911 43.5997 11.2018 43.3178 11.2018C43.0547 11.2018 42.848 11.2911 42.6977 11.4696C42.5567 11.6481 42.4863 11.8689 42.4863 12.132V17.361C42.505 17.5019 42.5708 17.6617 42.6836 17.8402C42.8151 18.0281 43.0313 18.1221 43.3319 18.1221C43.6514 18.1221 43.8628 18.0375 43.9662 17.8684C44.0695 17.6993 44.1306 17.5771 44.1494 17.502C44.1682 17.4174 44.1776 17.3046 44.1776 17.1637V16.6845H45.5165L45.5166 16.9946Z" fill="white"/>
<path d="M50.4694 18.0235V19.3765H46.4243V9.93338H50.4694V11.1737H47.7633V13.9644H50.1311V15.2469H47.7633V18.0235H50.4694Z" fill="white"/>
<path d="M54.7111 19.3765L52.6111 13.6402V19.3765H51.2581V9.93338H52.5406L54.6266 15.6557V9.93338H55.9796V19.3765H54.7111Z" fill="white"/>
<path d="M57.8919 19.3765V11.1878H56.2992V9.93338H60.8516V11.1878H59.2308V19.3765H57.8919Z" fill="white"/>
<path d="M67.4336 19.3765L66.3202 13.6261L65.2349 19.3765H63.9805L62.6134 9.93338H64.051L64.7276 15.6416L65.8128 9.93338H66.8135L67.927 15.6416L68.6035 9.93338H70.027L68.7021 19.3765H67.4336Z" fill="white"/>
<path d="M70.8839 10.8213C71.1001 10.5206 71.3725 10.2857 71.7014 10.1166C72.0397 9.93802 72.3873 9.84875 72.7444 9.84875C73.0921 9.84875 73.4162 9.91923 73.7169 10.0602C74.027 10.2011 74.2854 10.3937 74.4921 10.638C74.6988 10.8823 74.8397 11.136 74.9149 11.3991C74.9901 11.6528 75.0277 11.93 75.0277 12.2307V17.0368C75.0277 17.3187 74.9995 17.5677 74.9431 17.7838C74.8961 17.9999 74.7834 18.2396 74.6048 18.5027C74.4357 18.7657 74.1867 18.9913 73.8578 19.1792C73.5384 19.3671 73.1813 19.4611 72.7867 19.4611C72.5612 19.4611 72.3451 19.4329 72.1383 19.3765C71.9316 19.3107 71.739 19.2261 71.5605 19.1228C71.3819 19.0194 71.2222 18.902 71.0813 18.7704C70.9497 18.6389 70.8464 18.5026 70.7712 18.3617C70.6303 18.0704 70.5457 17.8355 70.5175 17.657C70.4893 17.4785 70.4752 17.2717 70.4752 17.0368V12.2307C70.4752 11.9488 70.5034 11.6998 70.5598 11.4837C70.6256 11.2582 70.7336 11.0374 70.8839 10.8213ZM73.5055 11.5683C73.327 11.3052 73.0827 11.1736 72.7726 11.1736C72.6128 11.1736 72.4531 11.2206 72.2934 11.3146C72.143 11.3991 72.035 11.4978 71.9692 11.6105C71.9128 11.7233 71.8753 11.8361 71.8565 11.9488C71.8377 12.0616 71.8283 12.1555 71.8283 12.2307V17.0368C71.8283 17.0838 71.8283 17.1355 71.8283 17.1919C71.8283 17.2388 71.833 17.2905 71.8424 17.3469C71.8518 17.4409 71.927 17.5959 72.0679 17.812C72.2089 18.0094 72.4438 18.108 72.7726 18.108C72.9418 18.108 73.0921 18.0704 73.2237 17.9952C73.3646 17.9107 73.4633 17.8167 73.5196 17.7134C73.5854 17.6006 73.6277 17.4972 73.6465 17.4033C73.6653 17.3093 73.6746 17.1872 73.6746 17.0368V12.2307C73.6746 12.0428 73.6653 11.9112 73.6465 11.8361C73.6371 11.7609 73.5901 11.6716 73.5055 11.5683H73.5055Z" fill="white"/>
<path d="M76.1746 19.3765V9.93338H78.5424C79.1625 9.93338 79.684 10.1495 80.1068 10.5817C80.5391 11.0139 80.7552 11.5448 80.7552 12.1744V13.0482C80.7552 13.9221 80.384 14.5892 79.6417 15.0496L81.0794 19.3765H79.6417L78.3733 15.3315H77.5276V19.3765H76.1746ZM79.1766 13.8375C79.2612 13.7341 79.3176 13.6167 79.3458 13.4851C79.3834 13.3536 79.4022 13.208 79.4022 13.0482V12.1744C79.4022 11.8831 79.3223 11.6482 79.1625 11.4697C79.0028 11.2817 78.7773 11.1878 78.486 11.1878H77.5276V14.1335H78.4719C78.7538 14.1335 78.9887 14.0348 79.1766 13.8375H79.1766Z" fill="white"/>
<path d="M85.1305 19.3765L83.6224 15.1624L82.8755 16.5577V19.3765H81.5365V9.93338H82.8895V14.2744L84.905 9.93338H86.244L84.3976 13.6966L86.5682 19.3765H85.1305Z" fill="white"/>
<path d="M87.9265 19.3765L90.0406 9.93338H91.2105L93.3246 19.3765H91.8729L91.4924 17.347H89.7447L89.35 19.3765H87.9265ZM89.9843 16.0926H91.2528L90.6185 12.6536L89.9843 16.0926Z" fill="white"/>
<path d="M97.4663 19.3765L95.3662 13.6402V19.3765H94.0132V9.93338H95.2958L97.3817 15.6557V9.93338H98.7348V19.3765H97.4663Z" fill="white"/>
<path d="M101.828 9.93338C102.439 9.93338 102.961 10.1495 103.393 10.5817C103.834 11.0045 104.055 11.5213 104.055 12.1321V17.0369C104.055 17.7322 103.844 18.296 103.421 18.7282C102.998 19.1604 102.453 19.3765 101.786 19.3765H99.686V9.93338H101.828ZM102.716 17.0369V12.1321C102.716 11.869 102.618 11.6482 102.42 11.4697C102.232 11.2911 102.002 11.2019 101.73 11.2019H101.025V18.1222H101.687C102.373 18.1222 102.716 17.7604 102.716 17.0369Z" fill="white"/>
<path d="M35.0402 31.0458V32.3988H30.9951V22.9557H35.0402V24.196H32.3341V26.9866H34.7019V28.2692H32.3341V31.0458H35.0402Z" fill="white"/>
<path d="M39.9264 30.0169C39.9264 30.3175 39.9076 30.5759 39.87 30.7921C39.8418 31.0082 39.7479 31.2431 39.5881 31.4968C39.5036 31.6283 39.3955 31.7552 39.2639 31.8773C39.1418 31.9901 39.0008 32.0934 38.8411 32.1874C38.6908 32.2719 38.5264 32.3424 38.3478 32.3988C38.1693 32.4552 37.9955 32.4834 37.8263 32.4834C37.4035 32.4834 37.0183 32.3941 36.6706 32.2156C36.3323 32.037 36.0833 31.8115 35.9236 31.539C35.7639 31.2666 35.6605 31.0129 35.6135 30.778C35.5759 30.543 35.5571 30.2894 35.5571 30.0169V25.1543C35.5571 24.8913 35.5806 24.6564 35.6276 24.4496C35.684 24.2335 35.7967 24.0033 35.9658 23.759C36.135 23.5147 36.3746 23.308 36.6847 23.1389C36.9947 22.9603 37.3189 22.8711 37.6572 22.8711C38.3055 22.8711 38.8458 23.0872 39.278 23.5194C39.7102 23.9422 39.9263 24.4872 39.9263 25.1543V25.6617H38.5874V25.1543C38.5874 24.8913 38.5122 24.6705 38.3619 24.4919C38.2209 24.3134 38.0095 24.2241 37.7276 24.2241C37.4645 24.2241 37.2578 24.3134 37.1075 24.4919C36.9665 24.6705 36.8961 24.8913 36.8961 25.1543V30.3833C36.9148 30.5243 36.9806 30.684 37.0934 30.8625C37.2249 31.0504 37.441 31.1444 37.7417 31.1444C38.0612 31.1444 38.2726 31.0598 38.376 30.8907C38.4793 30.7216 38.5404 30.5994 38.5592 30.5243C38.578 30.4397 38.5874 30.3269 38.5874 30.186V29.7068H39.9263L39.9264 30.0169Z" fill="white"/>
<path d="M41.3111 23.8436C41.5272 23.5429 41.7997 23.308 42.1285 23.1389C42.4668 22.9603 42.8145 22.8711 43.1715 22.8711C43.5192 22.8711 43.8433 22.9415 44.144 23.0825C44.4541 23.2234 44.7125 23.4161 44.9192 23.6604C45.1259 23.9047 45.2669 24.1584 45.342 24.4214C45.4172 24.6751 45.4548 24.9523 45.4548 25.253V30.0592C45.4548 30.341 45.4266 30.59 45.3702 30.8061C45.3233 31.0223 45.2105 31.2619 45.032 31.5249C44.8628 31.788 44.6138 32.0135 44.285 32.2015C43.9655 32.3894 43.6084 32.4834 43.2138 32.4834C42.9883 32.4834 42.7722 32.4552 42.5655 32.3988C42.3588 32.333 42.1661 32.2485 41.9876 32.1451C41.8091 32.0417 41.6493 31.9243 41.5084 31.7927C41.3769 31.6612 41.2735 31.525 41.1983 31.384C41.0574 31.0927 40.9728 30.8578 40.9446 30.6793C40.9164 30.5008 40.9023 30.2941 40.9023 30.0592V25.253C40.9023 24.9711 40.9305 24.7221 40.9869 24.506C41.0527 24.2805 41.1607 24.0597 41.3111 23.8436ZM43.9326 24.5906C43.7541 24.3275 43.5098 24.1959 43.1997 24.1959C43.04 24.1959 42.8802 24.2429 42.7205 24.3369C42.5702 24.4214 42.4621 24.5201 42.3963 24.6329C42.34 24.7456 42.3024 24.8584 42.2836 24.9711C42.2648 25.0839 42.2554 25.1778 42.2554 25.253V30.0592C42.2554 30.1061 42.2554 30.1578 42.2554 30.2142C42.2554 30.2611 42.2601 30.3128 42.2695 30.3692C42.2789 30.4632 42.3541 30.6182 42.495 30.8343C42.636 31.0317 42.8709 31.1303 43.1998 31.1303C43.3689 31.1303 43.5192 31.0927 43.6508 31.0175C43.7917 30.933 43.8904 30.839 43.9468 30.7357C44.0125 30.6229 44.0548 30.5196 44.0736 30.4256C44.0924 30.3316 44.1018 30.2095 44.1018 30.0592V25.253C44.1018 25.0651 44.0924 24.9335 44.0736 24.8584C44.0642 24.7832 44.0172 24.6939 43.9327 24.5906H43.9326Z" fill="white"/>
<path d="M49.9886 32.3988L47.8886 26.6624V32.3988H46.5355V22.9557H47.8181L49.9041 28.6779V22.9557H51.2571V32.3988H49.9886Z" fill="white"/>
<path d="M52.492 23.8436C52.7081 23.5429 52.9806 23.308 53.3094 23.1389C53.6477 22.9603 53.9954 22.8711 54.3524 22.8711C54.7001 22.8711 55.0243 22.9415 55.3249 23.0825C55.635 23.2234 55.8934 23.4161 56.1001 23.6604C56.3068 23.9047 56.4478 24.1584 56.5229 24.4214C56.5981 24.6751 56.6357 24.9523 56.6357 25.253V30.0592C56.6357 30.341 56.6075 30.59 56.5511 30.8061C56.5042 31.0223 56.3914 31.2619 56.2129 31.5249C56.0437 31.788 55.7947 32.0135 55.4659 32.2015C55.1464 32.3894 54.7894 32.4834 54.3947 32.4834C54.1692 32.4834 53.9531 32.4552 53.7464 32.3988C53.5397 32.333 53.347 32.2485 53.1685 32.1451C52.99 32.0417 52.8303 31.9243 52.6893 31.7927C52.5578 31.6612 52.4544 31.525 52.3792 31.384C52.2383 31.0927 52.1537 30.8578 52.1255 30.6793C52.0973 30.5008 52.0833 30.2941 52.0833 30.0592V25.253C52.0833 24.9711 52.1114 24.7221 52.1678 24.506C52.2336 24.2805 52.3416 24.0597 52.492 23.8436ZM55.1135 24.5906C54.935 24.3275 54.6907 24.1959 54.3806 24.1959C54.2209 24.1959 54.0611 24.2429 53.9014 24.3369C53.7511 24.4214 53.643 24.5201 53.5772 24.6329C53.5209 24.7456 53.4833 24.8584 53.4645 24.9711C53.4457 25.0839 53.4363 25.1778 53.4363 25.253V30.0592C53.4363 30.1061 53.4363 30.1578 53.4363 30.2142C53.4363 30.2611 53.441 30.3128 53.4504 30.3692C53.4599 30.4632 53.535 30.6182 53.676 30.8343C53.8169 31.0317 54.0518 31.1303 54.3807 31.1303C54.5498 31.1303 54.7001 31.0927 54.8317 31.0175C54.9726 30.933 55.0713 30.839 55.1277 30.7357C55.1934 30.6229 55.2357 30.5196 55.2545 30.4256C55.2733 30.3316 55.2827 30.2095 55.2827 30.0592V25.253C55.2827 25.0651 55.2733 24.9335 55.2545 24.8584C55.2451 24.7832 55.1981 24.6939 55.1136 24.5906H55.1135Z" fill="white"/>
<path d="M62.3468 32.3988V26.6484L60.9938 30.6793H60.3173L58.9783 26.6484V32.3988H57.6252V22.9557H58.8937L60.6837 27.9873L62.4455 22.9557H63.6858V32.3988H62.3468Z" fill="white"/>
<path d="M64.5016 32.3988V22.9557H65.8405V32.3988H64.5016Z" fill="white"/>
<path d="M71.4115 30.0169C71.4115 30.3175 71.3927 30.5759 71.3551 30.7921C71.3269 31.0082 71.233 31.2431 71.0732 31.4968C70.9887 31.6283 70.8806 31.7552 70.749 31.8773C70.6269 31.9901 70.486 32.0934 70.3262 32.1874C70.1759 32.2719 70.0115 32.3424 69.8329 32.3988C69.6544 32.4552 69.4806 32.4834 69.3114 32.4834C68.8886 32.4834 68.5034 32.3941 68.1557 32.2156C67.8174 32.037 67.5685 31.8115 67.4087 31.539C67.249 31.2666 67.1456 31.0129 67.0986 30.778C67.061 30.543 67.0422 30.2894 67.0422 30.0169V25.1543C67.0422 24.8913 67.0657 24.6564 67.1127 24.4496C67.1691 24.2335 67.2818 24.0033 67.451 23.759C67.6201 23.5147 67.8597 23.308 68.1698 23.1389C68.4798 22.9603 68.804 22.8711 69.1423 22.8711C69.7906 22.8711 70.3309 23.0872 70.7631 23.5194C71.1953 23.9422 71.4114 24.4872 71.4114 25.1543V25.6617H70.0725V25.1543C70.0725 24.8913 69.9973 24.6705 69.847 24.4919C69.706 24.3134 69.4946 24.2241 69.2128 24.2241C68.9497 24.2241 68.7429 24.3134 68.5926 24.4919C68.4516 24.6705 68.3812 24.8913 68.3812 25.1543V30.3833C68.4 30.5243 68.4657 30.684 68.5785 30.8625C68.71 31.0504 68.9262 31.1444 69.2268 31.1444C69.5463 31.1444 69.7577 31.0598 69.8611 30.8907C69.9644 30.7216 70.0255 30.5994 70.0443 30.5243C70.0631 30.4397 70.0725 30.3269 70.0725 30.186V29.7068H71.4114L71.4115 30.0169Z" fill="white"/>
<path d="M78.103 31.4122C77.8869 31.7505 77.6097 32.0135 77.2714 32.2015C76.9332 32.3894 76.562 32.4834 76.158 32.4834C75.8009 32.4834 75.4533 32.3988 75.115 32.2297C74.7861 32.0605 74.5277 31.8538 74.3398 31.6095C74.1613 31.3558 74.0391 31.1021 73.9734 30.8484C73.917 30.5947 73.8888 30.3082 73.8888 29.9887V25.2671C73.8888 25.0322 73.9123 24.7973 73.9593 24.5624C74.025 24.3275 74.1989 23.9939 74.4808 23.5617C74.772 23.1013 75.3452 22.8711 76.2002 22.8711C76.5761 22.8711 76.9284 22.9603 77.2573 23.1389C77.5862 23.3174 77.8352 23.5382 78.0043 23.8013C78.1828 24.055 78.2956 24.2993 78.3426 24.5342C78.3989 24.7597 78.4271 25.004 78.4271 25.2671V25.6617H77.0882V25.2671C77.0882 25.1919 77.0835 25.1262 77.0741 25.0698C77.0741 25.004 77.0694 24.9476 77.0599 24.9007C77.0505 24.8161 76.9801 24.6798 76.8485 24.4919C76.717 24.304 76.4962 24.21 76.1861 24.21C75.8196 24.21 75.5753 24.3087 75.4532 24.506C75.3404 24.7033 75.2747 24.849 75.2559 24.9429C75.2371 25.0369 75.2277 25.1449 75.2277 25.2671V29.9887C75.2277 30.0826 75.2277 30.1625 75.2277 30.2283C75.2277 30.2941 75.2324 30.3504 75.2418 30.3974C75.2512 30.4726 75.3217 30.6182 75.4532 30.8343C75.5754 31.0317 75.815 31.1303 76.1721 31.1303C76.5385 31.1303 76.7734 31.0317 76.8768 30.8343C76.9331 30.731 76.9754 30.6464 77.0036 30.5806C77.0318 30.5055 77.0506 30.4397 77.06 30.3833C77.0788 30.3269 77.0882 30.2706 77.0882 30.2142C77.0882 30.1484 77.0882 30.0733 77.0882 29.9887V28.3396H76.0029V27.1557H78.4271V29.9887C78.4271 30.186 78.4224 30.3551 78.413 30.4961C78.4036 30.6276 78.3848 30.7451 78.3566 30.8484C78.3284 30.9518 78.2908 31.0504 78.2439 31.1444C78.2063 31.229 78.1593 31.3182 78.1029 31.4122H78.103Z" fill="white"/>
<path d="M79.3892 32.3988V22.9557H81.757C82.3771 22.9557 82.8986 23.1718 83.3215 23.604C83.7537 24.0362 83.9698 24.5671 83.9698 25.1967V26.0705C83.9698 26.9443 83.5986 27.6115 82.8563 28.0719L84.294 32.3988H82.8563L81.5879 28.3538H80.7422V32.3988H79.3892ZM82.3912 26.8598C82.4758 26.7564 82.5322 26.639 82.5604 26.5074C82.598 26.3759 82.6168 26.2302 82.6168 26.0705V25.1967C82.6168 24.9054 82.5369 24.6705 82.3772 24.492C82.2174 24.304 81.9919 24.2101 81.7006 24.2101H80.7422V27.1558H81.6865C81.9684 27.1558 82.2033 27.0571 82.3912 26.8598H82.3912Z" fill="white"/>
<path d="M85.0931 23.8436C85.3092 23.5429 85.5817 23.308 85.9105 23.1389C86.2488 22.9603 86.5965 22.8711 86.9535 22.8711C87.3012 22.8711 87.6253 22.9415 87.926 23.0825C88.2361 23.2234 88.4945 23.4161 88.7012 23.6604C88.9079 23.9047 89.0488 24.1584 89.124 24.4214C89.1992 24.6751 89.2368 24.9523 89.2368 25.253V30.0592C89.2368 30.341 89.2086 30.59 89.1522 30.8061C89.1053 31.0223 88.9925 31.2619 88.8139 31.5249C88.6448 31.788 88.3958 32.0135 88.067 32.2015C87.7475 32.3894 87.3904 32.4834 86.9958 32.4834C86.7703 32.4834 86.5542 32.4552 86.3474 32.3988C86.1407 32.333 85.9481 32.2485 85.7696 32.1451C85.5911 32.0417 85.4313 31.9243 85.2904 31.7927C85.1588 31.6612 85.0555 31.525 84.9803 31.384C84.8394 31.0927 84.7548 30.8578 84.7266 30.6793C84.6984 30.5008 84.6843 30.2941 84.6843 30.0592V25.253C84.6843 24.9711 84.7125 24.7221 84.7689 24.506C84.8347 24.2805 84.9427 24.0597 85.0931 23.8436ZM87.7146 24.5906C87.5361 24.3275 87.2918 24.1959 86.9817 24.1959C86.822 24.1959 86.6622 24.2429 86.5025 24.3369C86.3522 24.4214 86.2441 24.5201 86.1783 24.6329C86.1219 24.7456 86.0844 24.8584 86.0656 24.9711C86.0468 25.0839 86.0374 25.1778 86.0374 25.253V30.0592C86.0374 30.1061 86.0374 30.1578 86.0374 30.2142C86.0374 30.2611 86.0421 30.3128 86.0515 30.3692C86.0609 30.4632 86.1361 30.6182 86.277 30.8343C86.418 31.0317 86.6529 31.1303 86.9818 31.1303C87.1509 31.1303 87.3012 31.0927 87.4328 31.0175C87.5737 30.933 87.6724 30.839 87.7287 30.7357C87.7945 30.6229 87.8368 30.5196 87.8556 30.4256C87.8744 30.3316 87.8838 30.2095 87.8838 30.0592V25.253C87.8838 25.0651 87.8744 24.9335 87.8556 24.8584C87.8462 24.7832 87.7992 24.6939 87.7147 24.5906H87.7146Z" fill="white"/>
<path d="M94.7632 32.3988L93.6498 26.6484L92.5645 32.3988H91.3101L89.943 22.9557H91.3806L92.0571 28.6639L93.1424 22.9557H94.1431L95.2565 28.6639L95.933 22.9557H97.3566L96.0317 32.3988H94.7632Z" fill="white"/>
<path d="M99.2467 32.3988V24.2101H97.6541V22.9557H102.206V24.2101H100.586V32.3988H99.2467Z" fill="white"/>
<path d="M102.87 32.3988V22.9557H104.209V26.9866H105.929V22.9557H107.268V32.3988H105.929V28.1846H104.209V32.3988H102.87Z" fill="white"/>
<path d="M22.0656 27.3149V27.551C22.0656 28.0456 21.9531 28.5627 21.7283 29.1023C21.5035 29.642 21.1887 30.1478 20.784 30.62C20.3793 31.0697 19.8959 31.4407 19.3338 31.7329C18.7717 32.0252 18.1646 32.1714 17.5126 32.1714H17.4114C16.9393 32.1714 16.4671 32.1039 15.995 31.969C15.5453 31.8341 15.1181 31.6542 14.7134 31.4294C14.3312 31.2046 13.9939 30.9573 13.7016 30.6874C13.4093 30.3952 13.1957 30.0916 13.0608 29.7769C12.7685 29.1473 12.5887 28.6302 12.5212 28.2255C12.4538 27.7983 12.42 27.3711 12.42 26.9439V22.998C12.42 21.8288 12.9597 20.8396 14.0389 20.0302C12.9597 19.2207 12.42 18.1078 12.42 16.6913V13.656C12.42 13.1839 12.4987 12.7454 12.6561 12.3407C12.8135 11.9135 13.2182 11.2728 13.8702 10.4184C14.4998 9.58649 15.6577 9.17053 17.344 9.17053C17.951 9.17053 18.5469 9.30544 19.1314 9.57525C19.6935 9.84505 20.3231 10.3397 21.0201 11.0592C21.7171 11.7562 22.0656 12.7454 22.0656 14.027V16.9274C22.0656 18.2315 21.526 19.2657 20.4467 20.0302C21.526 20.8171 22.0656 21.8851 22.0656 23.2341V27.3149ZM17.2765 12.3745C16.8044 12.3745 16.4109 12.5431 16.0961 12.8803C15.7814 13.1951 15.624 13.5773 15.624 14.027V16.9274C15.624 17.4445 15.7589 17.8942 16.0287 18.2764C16.321 18.6362 16.7257 18.816 17.2428 18.816C17.8049 18.816 18.2096 18.6474 18.4569 18.3102C18.7267 17.9504 18.8616 17.4895 18.8616 16.9274V14.027C18.8616 13.5998 18.7042 13.2176 18.3895 12.8803C18.0972 12.5431 17.7262 12.3745 17.2765 12.3745ZM17.2765 21.278C16.7819 21.278 16.3772 21.4466 16.0624 21.7839C15.7701 22.0987 15.624 22.5034 15.624 22.998V26.9439C15.624 27.5285 15.7589 28.0119 16.0287 28.3941C16.2985 28.7539 16.7369 28.9337 17.344 28.9337C17.9286 28.9337 18.322 28.7426 18.5244 28.3604C18.7492 27.9557 18.8616 27.4835 18.8616 26.9439V22.998C18.8616 22.5034 18.7155 22.0987 18.4232 21.7839C18.1534 21.4466 17.7712 21.278 17.2765 21.278Z" fill="white"/>
<path d="M83.3361 41.089C83.2896 41.0885 83.2413 41.0936 83.193 41.1067L73.9673 43.5783C73.5811 43.6818 73.4523 44.1649 73.7357 44.4469L75.7295 46.4407L56.0304 66.1531L48.1894 58.3136C47.4522 57.5767 46.2574 57.5767 45.5202 58.3136L29.6892 74.1445L32.3599 76.8138L46.8548 62.3174L54.6943 70.1584C55.4317 70.8963 56.6277 70.8963 57.365 70.1584L78.3988 49.1099L80.4884 51.1996C80.5876 51.2988 80.7227 51.3536 80.863 51.3515C81.0949 51.3485 81.2966 51.1919 81.357 50.9681L83.8286 41.7423C83.9196 41.4045 83.6609 41.0923 83.3361 41.089V41.089ZM78.3988 54.4499L65.9699 66.8875V97.2694C65.9699 98.0683 66.6134 98.7102 67.4122 98.7102H77.9829C78.7817 98.7102 79.4252 98.0683 79.4252 97.2694V55.4763L78.3988 54.4499ZM46.4846 68.0275L33.0309 81.4827V97.2694C33.0309 98.0683 33.6743 98.7102 34.4732 98.7102H45.0439C45.8427 98.7102 46.4846 98.0683 46.4846 97.2694V68.0275ZM62.9542 69.9048L57.365 75.4983C56.6277 76.2362 55.4317 76.2362 54.6943 75.4983L49.5004 70.303V97.2694C49.5004 98.0683 50.1438 98.7102 50.9427 98.7102H61.5134C62.3122 98.7102 62.9542 98.0683 62.9542 97.2694V69.9048Z" fill="white"/>
<path d="M83.3361 41.089C83.2896 41.0885 83.2413 41.0936 83.193 41.1067L73.9673 43.5783C73.5811 43.6818 73.4523 44.1649 73.7357 44.4469L75.7295 46.4407L56.0304 66.1531L48.1894 58.3136C47.4522 57.5767 46.2574 57.5767 45.5202 58.3136L29.6892 74.1445L32.3599 76.8138L46.8548 62.3174L54.6943 70.1584C55.4317 70.8963 56.6277 70.8963 57.365 70.1584L78.3988 49.1099L80.4884 51.1996C80.5876 51.2988 80.7227 51.3536 80.863 51.3515C81.0949 51.3485 81.2966 51.1919 81.357 50.9681L83.8286 41.7423C83.9196 41.4045 83.6609 41.0923 83.3361 41.089V41.089Z" fill="white"/>
</g>
<defs>
<clipPath id="clip0">
<rect x="0.817383" y="0.0654297" width="111.817" height="112" rx="6" fill="white"/>
</clipPath>
</defs>
</svg>
