<svg width="113" height="113" viewBox="0 0 113 113" fill="none" xmlns="http://www.w3.org/2000/svg">
<g clip-path="url(#clip0)">
<path fill-rule="evenodd" clip-rule="evenodd" d="M1.07641 0.0654297H111.645C111.991 0.0654297 112.27 0.343864 112.27 0.689691V111.441C112.27 111.787 111.991 112.065 111.645 112.065H1.07641C0.730575 112.065 0.452148 111.787 0.452148 111.441V0.689691C0.452148 0.343864 0.730575 0.0654297 1.07641 0.0654297Z" fill="#02558B"/>
<path d="M35.9094 19.3494V9.90628H38.1222H38.1504C38.4323 9.90628 38.7001 9.96736 38.9538 10.0895C39.2075 10.2023 39.433 10.3526 39.6303 10.5405C39.8276 10.7284 39.9827 10.9446 40.0954 11.1889C40.2176 11.4238 40.2833 11.668 40.2927 11.9217V13.2889V13.4298C40.2927 13.7399 40.2316 14.0312 40.1095 14.3037C39.9967 14.5668 39.8417 14.797 39.6444 14.9943C39.4471 15.1916 39.2122 15.3467 38.9397 15.4594C38.6766 15.5722 38.3947 15.6286 38.094 15.6286H37.9672H37.2625V19.3494H35.9094ZM38.7706 14.0782C38.8552 13.9936 38.9068 13.9043 38.9256 13.8104C38.9538 13.7164 38.9679 13.599 38.9679 13.458V12.0627C38.9679 11.7996 38.888 11.5835 38.7283 11.4144C38.5685 11.2358 38.3525 11.1466 38.08 11.1466H37.2625V14.346H37.9672C38.1551 14.346 38.3055 14.3319 38.4182 14.3037C38.5404 14.2661 38.6578 14.1909 38.7706 14.0782Z" fill="white"/>
<path d="M45.2948 17.9964V19.3494H41.2498V9.90628H45.2948V11.1466H42.5887V13.9373H44.9566V15.2198H42.5887V17.9964H45.2948Z" fill="white"/>
<path d="M45.6809 19.3494L47.7951 9.90628H48.9649L51.079 19.3494H49.6273L49.2467 17.3199H47.4991L47.1045 19.3494H45.6809ZM47.7387 16.0655H49.0072L48.3729 12.6265L47.7387 16.0655Z" fill="white"/>
<path d="M55.9848 16.9674C55.9848 17.2681 55.966 17.5265 55.9283 17.7426C55.9002 17.9587 55.8062 18.1937 55.6465 18.4474C55.5619 18.5789 55.4538 18.7057 55.3223 18.8279C55.2001 18.9406 55.0592 19.044 54.8995 19.1379C54.7491 19.2225 54.5847 19.293 54.4062 19.3494C54.2276 19.4057 54.0538 19.4339 53.8847 19.4339C53.4619 19.4339 53.0766 19.3447 52.7289 19.1661C52.3907 18.9876 52.1417 18.7621 51.9819 18.4896C51.8222 18.2171 51.7189 17.9634 51.6719 17.7285C51.6343 17.4936 51.6155 17.2399 51.6155 16.9674V12.1049C51.6155 11.8418 51.6389 11.6069 51.6859 11.4002C51.7423 11.1841 51.855 10.9539 52.0242 10.7096C52.1933 10.4653 52.4329 10.2586 52.743 10.0895C53.0531 9.91092 53.3772 9.82166 53.7155 9.82166C54.3638 9.82166 54.9041 10.0377 55.3363 10.47C55.7685 10.8928 55.9847 11.4378 55.9847 12.1049V12.6123H54.6457V12.1049C54.6457 11.8418 54.5705 11.621 54.4202 11.4425C54.2792 11.264 54.0679 11.1747 53.786 11.1747C53.5229 11.1747 53.3162 11.264 53.1658 11.4425C53.0249 11.621 52.9544 11.8418 52.9544 12.1049V17.3339C52.9731 17.4748 53.0389 17.6346 53.1517 17.8131C53.2833 18.001 53.4994 18.095 53.8001 18.095C54.1195 18.095 54.3309 18.0104 54.4343 17.8413C54.5376 17.6722 54.5987 17.55 54.6175 17.4748C54.6363 17.3903 54.6457 17.2775 54.6457 17.1366V16.6574H55.9846L55.9848 16.9674Z" fill="white"/>
<path d="M60.9928 17.9964V19.3494H56.9478V9.90628H60.9928V11.1466H58.2867V13.9373H60.6545V15.2198H58.2867V17.9964H60.9928Z" fill="white"/>
<path d="M61.6494 20.35V18.0103H63.0025V19.3493L61.6494 20.35Z" fill="white"/>
<path d="M69.1748 18.4051C68.9681 18.7152 68.7004 18.9642 68.3715 19.1521C68.0426 19.34 67.695 19.434 67.3285 19.434C66.9715 19.434 66.6332 19.3588 66.3137 19.2085C66.0037 19.0488 65.7265 18.8326 65.4822 18.5601L66.5251 17.7145C66.7506 17.9494 67.009 18.0668 67.3003 18.0668C67.6949 18.0668 67.9393 17.9635 68.0332 17.7568C68.1366 17.5407 68.193 17.3903 68.2024 17.3058C68.2118 17.2212 68.2165 17.1225 68.2165 17.0098V9.90628H69.5414V16.8829C69.5414 17.3246 69.5131 17.6346 69.4567 17.8131C69.4191 17.9823 69.3252 18.1796 69.1749 18.4051H69.1748Z" fill="white"/>
<path d="M74.8623 18.3628C74.6556 18.6823 74.3878 18.9407 74.0589 19.138C73.7394 19.3353 73.3824 19.434 72.9877 19.434C72.7904 19.434 72.5931 19.4058 72.3958 19.3494C72.2079 19.293 72.0293 19.2226 71.8602 19.138C71.6911 19.044 71.5408 18.9407 71.4092 18.8279C71.2777 18.7058 71.179 18.579 71.1132 18.4474C70.9723 18.1843 70.8783 17.9541 70.8313 17.7568C70.7937 17.5595 70.7749 17.348 70.7749 17.1225V9.90628H72.1279V17.1225C72.1279 17.1883 72.1279 17.2494 72.1279 17.3058C72.1374 17.3527 72.1468 17.3997 72.1561 17.4467C72.1656 17.5219 72.236 17.6534 72.3675 17.8414C72.4897 18.0105 72.7011 18.095 73.0018 18.095C73.2743 18.095 73.4763 17.9964 73.6079 17.799C73.7488 17.5923 73.8192 17.3668 73.8192 17.1225V9.90628H75.1723V17.1225C75.1723 17.348 75.1488 17.5641 75.1019 17.7708C75.0549 17.9776 74.9751 18.1749 74.8623 18.3628Z" fill="white"/>
<path d="M77.4087 16.9956C77.4087 17.0896 77.4087 17.1695 77.4087 17.2352C77.4087 17.301 77.4134 17.3574 77.4228 17.4044C77.4416 17.4983 77.5121 17.6346 77.6342 17.8131C77.7658 18.001 78.0006 18.095 78.3389 18.095C78.5268 18.095 78.7007 18.0574 78.8604 17.9822C79.0201 17.8977 79.1376 17.7896 79.2128 17.6581C79.2691 17.5547 79.302 17.456 79.3114 17.3621C79.3302 17.2681 79.3396 17.1835 79.3396 17.1084V16.9815V16.3191V16.1922C79.3396 15.9855 79.302 15.8258 79.2268 15.7131C79.1517 15.5909 78.9825 15.4547 78.7194 15.3043C78.5409 15.2104 78.2214 15.0788 77.761 14.9097C77.3006 14.7405 76.9154 14.4728 76.6053 14.1063C76.2952 13.7399 76.1402 13.2419 76.1402 12.6123V12.1895C76.1402 11.5411 76.3563 10.9868 76.7885 10.5264C77.2302 10.0566 77.7657 9.82166 78.3953 9.82166C79.053 9.82166 79.598 10.0519 80.0302 10.5123C80.4718 10.9727 80.6926 11.5318 80.6926 12.1895V12.6123H79.3396V12.1895C79.3396 12.1237 79.3349 12.0626 79.3255 12.0062C79.3255 11.9499 79.3208 11.8982 79.3113 11.8512C79.3019 11.8043 79.2785 11.7479 79.2409 11.6821C79.2033 11.6163 79.1516 11.5365 79.0859 11.4425C78.9543 11.2546 78.7335 11.1606 78.4234 11.1606C78.1509 11.1606 77.9254 11.2593 77.7469 11.4566C77.5778 11.6539 77.4932 11.8982 77.4932 12.1895V12.6123V12.7392C77.4932 12.9271 77.5214 13.0774 77.5778 13.1902C77.6436 13.2935 77.7939 13.411 78.0288 13.5425C78.104 13.5801 78.2167 13.6318 78.3671 13.6976C78.5268 13.7539 78.7194 13.8244 78.9449 13.909C79.3959 14.0593 79.8 14.3271 80.157 14.7123C80.5141 15.0976 80.6926 15.605 80.6926 16.2346V16.9956C80.6926 17.3245 80.6597 17.6017 80.594 17.8272C80.5376 18.0527 80.3449 18.3815 80.0161 18.8138C79.6872 19.2272 79.1376 19.4339 78.3671 19.4339C77.5496 19.4339 76.9577 19.1708 76.5912 18.6446C76.2247 18.1091 76.0415 17.5594 76.0415 16.9956V16.6574H77.4086L77.4087 16.9956Z" fill="white"/>
<path d="M82.43 19.3494V11.1607H80.8374V9.90628H85.3899V11.1607H83.769V19.3494H82.43Z" fill="white"/>
<path d="M86.1243 19.3494V9.90628H87.4632V19.3494H86.1243Z" fill="white"/>
<path d="M92.9462 16.9674C92.9462 17.2681 92.9274 17.5265 92.8898 17.7426C92.8616 17.9587 92.7676 18.1937 92.6079 18.4474C92.5233 18.5789 92.4153 18.7057 92.2837 18.8279C92.1616 18.9406 92.0206 19.044 91.8609 19.1379C91.7106 19.2225 91.5461 19.293 91.3676 19.3494C91.189 19.4057 91.0152 19.4339 90.8461 19.4339C90.4233 19.4339 90.038 19.3447 89.6904 19.1661C89.3521 18.9876 89.1031 18.7621 88.9434 18.4896C88.7836 18.2171 88.6803 17.9634 88.6333 17.7285C88.5957 17.4936 88.5769 17.2399 88.5769 16.9674V12.1049C88.5769 11.8418 88.6004 11.6069 88.6473 11.4002C88.7037 11.1841 88.8165 10.9539 88.9856 10.7096C89.1547 10.4653 89.3943 10.2586 89.7044 10.0895C90.0145 9.91092 90.3387 9.82166 90.6769 9.82166C91.3253 9.82166 91.8655 10.0377 92.2977 10.47C92.73 10.8928 92.9461 11.4378 92.9461 12.1049V12.6123H91.6071V12.1049C91.6071 11.8418 91.532 11.621 91.3816 11.4425C91.2407 11.264 91.0293 11.1747 90.7474 11.1747C90.4843 11.1747 90.2776 11.264 90.1272 11.4425C89.9863 11.621 89.9158 11.8418 89.9158 12.1049V17.3339C89.9346 17.4748 90.0004 17.6346 90.1131 17.8131C90.2447 18.001 90.4608 18.095 90.7615 18.095C91.081 18.095 91.2924 18.0104 91.3957 17.8413C91.4991 17.6722 91.5602 17.55 91.5789 17.4748C91.5977 17.3903 91.6071 17.2775 91.6071 17.1366V16.6574H92.946L92.9462 16.9674Z" fill="white"/>
<path d="M98.0218 17.9964V19.3494H93.9768V9.90628H98.0218V11.1466H95.3157V13.9373H97.6836V15.2198H95.3157V17.9964H98.0218Z" fill="white"/>
<path d="M35.4612 32.3717L37.5753 22.9285H38.7452L40.8593 32.3717H39.4076L39.027 30.342H37.2794L36.8847 32.3717H35.4612ZM37.519 29.0877H38.7874L38.1532 25.6487L37.519 29.0877Z" fill="white"/>
<path d="M45.0009 32.3717L42.9009 26.6353V32.3717H41.5479V22.9285H42.8304L44.9164 28.6507V22.9285H46.2694V32.3717H45.0009Z" fill="white"/>
<path d="M49.4104 22.9285C50.0211 22.9285 50.5427 23.1446 50.9749 23.5768C51.4165 23.9997 51.6373 24.5164 51.6373 25.1272V30.032C51.6373 30.7273 51.4259 31.2911 51.003 31.7233C50.5802 32.1555 50.0353 32.3717 49.3681 32.3717H47.2681V22.9285H49.4104ZM50.2984 30.032V25.1272C50.2984 24.8641 50.1997 24.6433 50.0024 24.4647C49.8144 24.2862 49.5842 24.1969 49.3117 24.1969H48.607V31.1172H49.2695C49.9554 31.1172 50.2984 30.7555 50.2984 30.032Z" fill="white"/>
<path d="M55.3494 30.018C55.3494 30.112 55.3494 30.1919 55.3494 30.2576C55.3494 30.3234 55.3541 30.3798 55.3635 30.4268C55.3822 30.5207 55.4527 30.657 55.5749 30.8355C55.7065 31.0235 55.9413 31.1174 56.2796 31.1174C56.4675 31.1174 56.6413 31.0798 56.8011 31.0047C56.9608 30.9201 57.0783 30.812 57.1534 30.6805C57.2098 30.5771 57.2427 30.4785 57.2521 30.3845C57.2709 30.2905 57.2803 30.206 57.2803 30.1308V30.0039V29.3415V29.2146C57.2803 29.0079 57.2427 28.8482 57.1675 28.7355C57.0923 28.6133 56.9232 28.4771 56.6601 28.3267C56.4816 28.2328 56.1621 28.1012 55.7017 27.9321C55.2413 27.763 54.8561 27.4952 54.546 27.1287C54.2359 26.7623 54.0809 26.2643 54.0809 25.6348V25.2119C54.0809 24.5635 54.297 24.0092 54.7292 23.5488C55.1708 23.079 55.7064 22.8441 56.3359 22.8441C56.9937 22.8441 57.5387 23.0743 57.9709 23.5347C58.4125 23.9951 58.6333 24.5541 58.6333 25.2119V25.6348H57.2803V25.2119C57.2803 25.1461 57.2756 25.0851 57.2662 25.0287C57.2662 24.9723 57.2614 24.9206 57.252 24.8736C57.2426 24.8267 57.2192 24.7703 57.1816 24.7045C57.144 24.6387 57.0923 24.5589 57.0265 24.4649C56.895 24.277 56.6742 24.183 56.3641 24.183C56.0916 24.183 55.8661 24.2817 55.6876 24.479C55.5185 24.6763 55.4339 24.9206 55.4339 25.2119V25.6348V25.7616C55.4339 25.9495 55.4621 26.0999 55.5185 26.2126C55.5842 26.316 55.7346 26.4334 55.9695 26.565C56.0447 26.6026 56.1574 26.6542 56.3077 26.72C56.4675 26.7764 56.6601 26.8468 56.8856 26.9314C57.3366 27.0817 57.7407 27.3495 58.0977 27.7348C58.4548 28.12 58.6333 28.6274 58.6333 29.257V30.018C58.6333 30.3469 58.6004 30.6241 58.5346 30.8496C58.4783 31.0751 58.2856 31.404 57.9567 31.8362C57.6279 32.2497 57.0782 32.4564 56.3077 32.4564C55.4903 32.4564 54.8983 32.1933 54.5319 31.6671C54.1654 31.1315 53.9822 30.5818 53.9822 30.018V29.6798H55.3493L55.3494 30.018Z" fill="white"/>
<path d="M60.5739 32.3717V24.1828H58.9812V22.9285H63.5337V24.1828H61.9128V32.3717H60.5739Z" fill="white"/>
<path d="M64.1187 32.3717V22.9285H66.4865C67.1067 22.9285 67.6281 23.1446 68.051 23.5768C68.4832 24.0091 68.6993 24.5399 68.6993 25.1695V26.0433C68.6993 26.9172 68.3282 27.5843 67.5859 28.0447L69.0235 32.3717H67.5859L66.3174 28.3266H65.4717V32.3717H64.1187ZM67.1207 26.8326C67.2053 26.7293 67.2617 26.6118 67.2899 26.4803C67.3275 26.3487 67.3463 26.2031 67.3463 26.0433V25.1695C67.3463 24.8782 67.2664 24.6433 67.1067 24.4647C66.947 24.2768 66.7214 24.1828 66.4302 24.1828H65.4717V27.1286H66.4161C66.6979 27.1286 66.9329 27.0299 67.1208 26.8326H67.1207Z" fill="white"/>
<path d="M69.8728 23.8166C70.0889 23.5159 70.3614 23.281 70.6903 23.1119C71.0285 22.9333 71.3762 22.8441 71.7333 22.8441C72.0809 22.8441 72.4051 22.9145 72.7058 23.0555C73.0159 23.1964 73.2742 23.389 73.4809 23.6333C73.6876 23.8776 73.8286 24.1313 73.9038 24.3944C73.979 24.6481 74.0165 24.9253 74.0165 25.226V30.0321C74.0165 30.314 73.9883 30.563 73.932 30.7791C73.885 30.9952 73.7722 31.2349 73.5937 31.498C73.4246 31.7611 73.1756 31.9866 72.8467 32.1745C72.5272 32.3624 72.1702 32.4564 71.7755 32.4564C71.55 32.4564 71.3339 32.4282 71.1272 32.3718C70.9205 32.306 70.7279 32.2215 70.5494 32.1181C70.3708 32.0148 70.2111 31.8973 70.0701 31.7658C69.9386 31.6342 69.8352 31.4979 69.7601 31.357C69.6191 31.0657 69.5346 30.8308 69.5064 30.6523C69.4782 30.4738 69.4641 30.267 69.4641 30.0321V25.226C69.4641 24.9441 69.4923 24.6951 69.5487 24.479C69.6144 24.2535 69.7225 24.0327 69.8728 23.8166ZM72.4944 24.5636C72.3158 24.3005 72.0715 24.1689 71.7615 24.1689C71.6017 24.1689 71.442 24.2159 71.2822 24.3099C71.1319 24.3944 71.0239 24.4931 70.9581 24.6059C70.9017 24.7186 70.8641 24.8314 70.8453 24.9441C70.8265 25.0569 70.8172 25.1508 70.8172 25.226V30.0321C70.8172 30.0791 70.8172 30.1308 70.8172 30.1872C70.8172 30.2341 70.8219 30.2858 70.8313 30.3422C70.8407 30.4362 70.9159 30.5912 71.0568 30.8073C71.1977 31.0047 71.4327 31.1033 71.7615 31.1033C71.9307 31.1033 72.081 31.0657 72.2125 30.9906C72.3535 30.906 72.4521 30.812 72.5085 30.7087C72.5743 30.5959 72.6166 30.4926 72.6354 30.3986C72.6542 30.3046 72.6635 30.1825 72.6635 30.0321V25.226C72.6635 25.0381 72.6542 24.9065 72.6354 24.8314C72.626 24.7562 72.579 24.6669 72.4944 24.5636H72.4944Z" fill="white"/>
<path d="M78.6213 32.3717L76.5213 26.6353V32.3717H75.1682V22.9285H76.4507L78.5367 28.6507V22.9285H79.8898V32.3717H78.6213Z" fill="white"/>
<path d="M84.9361 31.3852C84.72 31.7234 84.4428 31.9866 84.1045 32.1745C83.7663 32.3624 83.3951 32.4564 82.9911 32.4564C82.634 32.4564 82.2864 32.3718 81.9481 32.2027C81.6193 32.0336 81.3609 31.8268 81.173 31.5825C80.9944 31.3288 80.8723 31.0751 80.8065 30.8214C80.7501 30.5677 80.7219 30.2811 80.7219 29.9617V25.2401C80.7219 25.0052 80.7454 24.7703 80.7924 24.5354C80.8582 24.3005 81.032 23.9669 81.3139 23.5347C81.6052 23.0743 82.1783 22.8441 83.0333 22.8441C83.4092 22.8441 83.7616 22.9333 84.0904 23.1119C84.4193 23.2904 84.6683 23.5112 84.8374 23.7743C85.0159 24.028 85.1287 24.2723 85.1757 24.5072C85.2321 24.7327 85.2602 24.977 85.2602 25.2401V25.6348H83.9213V25.2401C83.9213 25.1649 83.9166 25.0991 83.9072 25.0428C83.9072 24.977 83.9025 24.9206 83.893 24.8736C83.8836 24.7891 83.8132 24.6528 83.6817 24.4649C83.5501 24.277 83.3293 24.183 83.0192 24.183C82.6527 24.183 82.4085 24.2817 82.2863 24.479C82.1736 24.6763 82.1078 24.822 82.089 24.9159C82.0702 25.0099 82.0608 25.1179 82.0608 25.2401V29.9617C82.0608 30.0556 82.0608 30.1355 82.0608 30.2013C82.0608 30.267 82.0655 30.3234 82.0749 30.3704C82.0843 30.4456 82.1548 30.5912 82.2864 30.8073C82.4085 31.0047 82.6481 31.1033 83.0052 31.1033C83.3716 31.1033 83.6065 31.0047 83.7099 30.8073C83.7662 30.704 83.8085 30.6194 83.8367 30.5536C83.8649 30.4785 83.8837 30.4127 83.8931 30.3563C83.9119 30.2999 83.9213 30.2435 83.9213 30.1872C83.9213 30.1214 83.9213 30.0462 83.9213 29.9617V28.3126H82.8361V27.1287H85.2602V29.9617C85.2602 30.159 85.2556 30.3281 85.2461 30.4691C85.2367 30.6006 85.2179 30.7181 85.1897 30.8214C85.1615 30.9248 85.1239 31.0234 85.077 31.1174C85.0394 31.202 84.9924 31.2912 84.936 31.3852H84.9361Z" fill="white"/>
<path d="M35.9094 45.394V35.9509H37.2484V45.394H35.9094Z" fill="white"/>
<path d="M41.832 45.394L39.7319 39.6576V45.394H38.3789V35.9509H39.6615L41.7475 41.6731V35.9509H43.1005V45.394H41.832Z" fill="white"/>
<path d="M45.0322 43.0403C45.0322 43.1342 45.0322 43.2141 45.0322 43.2799C45.0322 43.3456 45.0369 43.402 45.0463 43.449C45.0651 43.5429 45.1356 43.6792 45.2578 43.8577C45.3893 44.0456 45.6242 44.1396 45.9624 44.1396C46.1504 44.1396 46.3242 44.102 46.4839 44.0268C46.6437 43.9423 46.7611 43.8342 46.8363 43.7027C46.8927 43.5993 46.9256 43.5006 46.935 43.4067C46.9537 43.3127 46.9631 43.2281 46.9631 43.153V43.0262V42.3637V42.2369C46.9631 42.0301 46.9255 41.8704 46.8504 41.7577C46.7752 41.6355 46.6061 41.4992 46.343 41.3489C46.1644 41.2549 45.845 41.1234 45.3846 40.9543C44.9242 40.7852 44.5389 40.5173 44.2288 40.1509C43.9188 39.7844 43.7638 39.2865 43.7638 38.6569V38.2341C43.7638 37.5858 43.9798 37.0314 44.4121 36.571C44.8537 36.1011 45.3893 35.8663 46.0188 35.8663C46.6765 35.8663 47.2215 36.0965 47.6538 36.5569C48.0954 37.0173 48.3162 37.5764 48.3162 38.2341V38.6569H46.9631V38.2341C46.9631 38.1683 46.9584 38.1072 46.949 38.0509C46.949 37.9945 46.9443 37.9428 46.9349 37.8958C46.9255 37.8489 46.902 37.7925 46.8645 37.7267C46.8269 37.6609 46.7752 37.5811 46.7094 37.4871C46.5779 37.2992 46.357 37.2052 46.047 37.2052C45.7745 37.2052 45.549 37.3039 45.3704 37.5012C45.2013 37.6985 45.1167 37.9428 45.1167 38.2341V38.6569V38.7838C45.1167 38.9717 45.1449 39.122 45.2013 39.2348C45.2671 39.3381 45.4174 39.4556 45.6523 39.5871C45.7275 39.6247 45.8403 39.6764 45.9906 39.7422C46.1503 39.7985 46.343 39.869 46.5685 39.9536C47.0195 40.1039 47.4235 40.3717 47.7806 40.757C48.1376 41.1422 48.3162 41.6496 48.3162 42.2791V43.0403C48.3162 43.3691 48.2833 43.6463 48.2175 43.8718C48.1611 44.0973 47.9685 44.4262 47.6396 44.8584C47.3108 45.2718 46.7611 45.4785 45.9906 45.4785C45.1731 45.4785 44.5812 45.2154 44.2147 44.6893C43.8483 44.1537 43.665 43.604 43.665 43.0403V42.702H45.0322L45.0322 43.0403Z" fill="white"/>
<path d="M50.1888 45.394V37.2052H48.5962V35.9509H53.1487V37.2052H51.5278V45.394H50.1888Z" fill="white"/>
<path d="M53.8154 45.394V35.9509H55.1544V45.394H53.8154Z" fill="white"/>
<path d="M57.4379 45.394V37.2052H55.8452V35.9509H60.3976V37.2052H58.7768V45.394H57.4379Z" fill="white"/>
<path d="M65.2197 44.4074C65.013 44.7269 64.7452 44.9853 64.4163 45.1826C64.0968 45.3799 63.7398 45.4786 63.3452 45.4786C63.1478 45.4786 62.9505 45.4504 62.7532 45.394C62.5653 45.3376 62.3867 45.2671 62.2176 45.1826C62.0485 45.0886 61.8982 44.9853 61.7666 44.8725C61.6351 44.7504 61.5364 44.6235 61.4706 44.492C61.3297 44.2289 61.2357 43.9987 61.1887 43.8014C61.1511 43.6041 61.1323 43.3926 61.1323 43.1671V35.9509H62.4854V43.1671C62.4854 43.2329 62.4854 43.294 62.4854 43.3503C62.4948 43.3973 62.5042 43.4443 62.5136 43.4913C62.523 43.5664 62.5934 43.698 62.725 43.8859C62.8471 44.0551 63.0585 44.1396 63.3592 44.1396C63.6317 44.1396 63.8337 44.041 63.9653 43.8436C64.1062 43.6369 64.1767 43.4114 64.1767 43.1671V35.9509H65.5297V43.1671C65.5297 43.3926 65.5063 43.6087 65.4593 43.8154C65.4123 44.0221 65.3324 44.2195 65.2197 44.4074H65.2197Z" fill="white"/>
<path d="M67.7152 45.394V37.2052H66.1226V35.9509H70.675V37.2052H69.0542V45.394H67.7152Z" fill="white"/>
<path d="M71.3418 45.394V35.9509H72.6807V45.394H71.3418Z" fill="white"/>
<path d="M74.2566 36.8387C74.4727 36.5381 74.7453 36.3032 75.0741 36.1341C75.4124 35.9555 75.76 35.8663 76.1171 35.8663C76.4647 35.8663 76.7889 35.9367 77.0896 36.0777C77.3997 36.2186 77.6581 36.4112 77.8648 36.6555C78.0715 36.8998 78.2124 37.1536 78.2876 37.4166C78.3628 37.6703 78.4004 37.9475 78.4004 38.2482V43.0543C78.4004 43.3362 78.3722 43.5852 78.3158 43.8013C78.2688 44.0175 78.1561 44.257 77.9775 44.5201C77.8084 44.7832 77.5594 45.0087 77.2305 45.1966C76.911 45.3846 76.554 45.4785 76.1594 45.4785C75.9339 45.4785 75.7178 45.4504 75.511 45.394C75.3043 45.3282 75.1117 45.2436 74.9331 45.1403C74.7546 45.0369 74.5949 44.9195 74.454 44.7879C74.3224 44.6564 74.2191 44.5201 74.1439 44.3792C74.003 44.0879 73.9184 43.853 73.8902 43.6745C73.862 43.4959 73.8479 43.2892 73.8479 43.0543V38.2482C73.8479 37.9663 73.8761 37.7173 73.9325 37.5012C73.9982 37.2757 74.1063 37.0549 74.2566 36.8387ZM76.8781 37.5858C76.6996 37.3227 76.4553 37.1911 76.1453 37.1911C75.9855 37.1911 75.8258 37.2381 75.6661 37.3321C75.5157 37.4166 75.4077 37.5153 75.3419 37.628C75.2855 37.7408 75.2479 37.8535 75.2291 37.9663C75.2104 38.0791 75.201 38.173 75.201 38.2482V43.0543C75.201 43.1013 75.201 43.153 75.201 43.2094C75.201 43.2564 75.2057 43.308 75.2151 43.3644C75.2245 43.4584 75.2997 43.6134 75.4406 43.8295C75.5815 44.0268 75.8164 44.1255 76.1453 44.1255C76.3144 44.1255 76.4648 44.0879 76.5963 44.0127C76.7373 43.9282 76.8359 43.8342 76.8923 43.7308C76.9581 43.6181 77.0004 43.5147 77.0192 43.4208C77.0379 43.3268 77.0473 43.2047 77.0473 43.0543V38.2482C77.0473 38.0603 77.0379 37.9287 77.0192 37.8535C77.0098 37.7784 76.9627 37.6891 76.8782 37.5858H76.8781Z" fill="white"/>
<path d="M82.8698 45.394L80.7698 39.6576V45.394H79.4167V35.9509H80.6993L82.7853 41.6731V35.9509H84.1383V45.394H82.8698Z" fill="white"/>
<path d="M86.1377 43.0403C86.1377 43.1342 86.1377 43.2141 86.1377 43.2799C86.1377 43.3456 86.1424 43.402 86.1518 43.449C86.1706 43.5429 86.241 43.6792 86.3632 43.8577C86.4947 44.0456 86.7297 44.1396 87.0679 44.1396C87.2558 44.1396 87.4297 44.102 87.5894 44.0268C87.7491 43.9423 87.8666 43.8342 87.9418 43.7027C87.9981 43.5993 88.031 43.5006 88.0404 43.4067C88.0592 43.3127 88.0686 43.2281 88.0686 43.153V43.0262V42.3637V42.2369C88.0686 42.0301 88.031 41.8704 87.9558 41.7577C87.8807 41.6355 87.7115 41.4992 87.4484 41.3489C87.2699 41.2549 86.9504 41.1234 86.49 40.9543C86.0296 40.7852 85.6444 40.5173 85.3343 40.1509C85.0242 39.7844 84.8692 39.2865 84.8692 38.6569V38.2341C84.8692 37.5858 85.0853 37.0314 85.5175 36.571C85.9592 36.1011 86.4947 35.8663 87.1243 35.8663C87.782 35.8663 88.327 36.0965 88.7592 36.5569C89.2008 37.0173 89.4216 37.5764 89.4216 38.2341V38.6569H88.0686V38.2341C88.0686 38.1683 88.0639 38.1072 88.0544 38.0509C88.0544 37.9945 88.0498 37.9428 88.0403 37.8958C88.0309 37.8489 88.0074 37.7925 87.9699 37.7267C87.9323 37.6609 87.8806 37.5811 87.8149 37.4871C87.6833 37.2992 87.4625 37.2052 87.1524 37.2052C86.8799 37.2052 86.6544 37.3039 86.4759 37.5012C86.3068 37.6985 86.2222 37.9428 86.2222 38.2341V38.6569V38.7838C86.2222 38.9717 86.2504 39.122 86.3068 39.2348C86.3726 39.3381 86.5229 39.4556 86.7578 39.5871C86.8329 39.6247 86.9457 39.6764 87.096 39.7422C87.2558 39.7985 87.4484 39.869 87.6739 39.9536C88.1249 40.1039 88.5289 40.3717 88.886 40.757C89.2431 41.1422 89.4216 41.6496 89.4216 42.2791V43.0403C89.4216 43.3691 89.3887 43.6463 89.3229 43.8718C89.2665 44.0973 89.0739 44.4262 88.7451 44.8584C88.4162 45.2718 87.8665 45.4785 87.096 45.4785C86.2786 45.4785 85.6866 45.2154 85.3202 44.6893C84.9537 44.1537 84.7705 43.604 84.7705 43.0403V42.702H86.1377V43.0403Z" fill="white"/>
<path d="M12.5389 32.4894V13.2658L9.30127 15.6941V12.2541L12.5389 9.89325H15.7429V32.4894H12.5389Z" fill="white"/>
<path d="M27.6595 20.9215C27.8394 21.2362 27.9518 21.5623 27.9967 21.8995C28.0642 22.2368 28.0979 22.6527 28.0979 23.1473V27.4642C28.0979 27.9813 28.0417 28.4985 27.9293 29.0156C27.8169 29.5103 27.4796 30.2073 26.9175 31.1066C26.3329 32.0284 25.2313 32.5568 23.6124 32.6917C22.6007 32.6917 21.6788 32.4781 20.8469 32.0509C20.0375 31.6012 19.4642 31.0729 19.1269 30.4658C18.8122 29.8363 18.6098 29.3079 18.5199 28.8807C18.4524 28.4535 18.4187 27.9813 18.4187 27.4642V23.923C18.4187 23.4284 18.4299 23.0799 18.4524 22.8776C18.4749 22.6527 18.5536 22.3604 18.6885 22.0007L23.174 9.89319H26.8164L23.174 19.3701C23.5787 19.2127 24.0621 19.134 24.6242 19.134H24.9277C26.1643 19.3139 27.0749 19.9097 27.6595 20.9215ZM24.5904 22.6415C24.2532 22.1918 23.8035 21.967 23.2415 21.967C22.7468 21.967 22.3646 22.1468 22.0948 22.5066C21.825 22.8663 21.6901 23.3385 21.6901 23.923V27.4642C21.6901 27.9364 21.8025 28.3861 22.0273 28.8133C22.2746 29.218 22.6906 29.4203 23.2751 29.4203H23.4775C24.0621 29.4203 24.4443 29.218 24.6242 28.8133C24.804 28.4086 24.894 27.9589 24.894 27.4642V23.923C24.894 23.6307 24.8715 23.3947 24.8266 23.2148C24.8041 23.0125 24.7254 22.8213 24.5905 22.6415H24.5904Z" fill="white"/>
<path fill-rule="evenodd" clip-rule="evenodd" d="M81.8222 50.2415C79.2634 50.2181 78.8759 51.6929 78.8226 53.3988C81.3814 53.4222 81.7689 51.9474 81.8222 50.2415ZM74.9442 50.6441C73.4619 52.7299 74.4511 53.8913 75.8201 54.9104C77.3024 52.8246 76.3132 51.6632 74.9442 50.6441ZM71.9608 53.7675C70.4879 55.86 71.4824 57.0164 72.856 58.0294C74.3289 55.9369 73.3344 54.7805 71.9608 53.7675ZM77.87 54.1775C77.7818 54.1765 77.6966 54.2098 77.6326 54.2704C75.6314 56.1087 73.8995 58.0505 72.9489 60.2695C72.7253 60.7914 72.5504 61.3304 72.4224 61.8843C71.0907 60.5551 70.6065 59.1363 68.8875 59.1664C64.7709 59.2385 62.6293 65.6415 56.907 65.6817C48.8202 65.7384 49.4612 55.9249 34.2482 55.8454C43.3606 63.1382 34.1187 69.8393 47.6164 75.0151C41.8884 76.0853 41.7619 80.984 34.2083 78.5573C37.7288 79.9235 41.5261 84.3698 48.6148 84.6272V89.9435C40.5468 89.7032 32.7218 89.3772 32.7218 89.3772V92.7499C32.7218 92.7499 51.5492 91.9359 61.0052 91.9359C64.1339 91.9359 66.7351 92.568 67.8538 92.8885V95.0224C67.8538 95.8047 68.4843 96.4337 69.2665 96.4337H77.2314C78.0137 96.4337 78.6442 95.8047 78.6442 95.0224V87.146C78.6442 86.3638 78.0137 85.7347 77.2314 85.7347H69.2665C68.4843 85.7347 67.8538 86.3638 67.8538 87.146V89.2372C66.7351 89.5577 64.1339 90.1913 61.0052 90.1913C58.8802 90.1913 56.2535 90.1474 53.5019 90.0836V84.4016C67.3054 82.8083 66.8354 73.9997 66.7861 71.9875C66.622 65.293 69.7377 63.8561 72.2101 63.4785C72.1469 64.8349 72.3787 66.2799 73.0079 67.8288C73.0247 67.8702 73.0495 67.9078 73.0809 67.9396C73.1123 67.9713 73.1497 67.9966 73.1908 68.0139C73.232 68.0312 73.2761 68.0402 73.3208 68.0405C73.3654 68.0408 73.4097 68.0322 73.451 68.0154C73.4924 67.9985 73.53 67.9737 73.5618 67.9423C73.5935 67.911 73.6188 67.8736 73.6361 67.8324C73.6534 67.7913 73.6624 67.7471 73.6627 67.7025C73.6629 67.6578 73.6544 67.6136 73.6376 67.5722C73.0236 66.0608 72.8097 64.6881 72.8869 63.4047C73.4888 63.3498 74.0439 63.3265 74.4369 63.2867C73.8675 63.0309 73.4034 62.7312 73.0064 62.4152C73.1262 61.7696 73.3126 61.1434 73.5727 60.5364C74.4617 58.4614 76.1236 56.5807 78.0927 54.7718C78.1442 54.7262 78.1807 54.6661 78.1973 54.5994C78.2139 54.5327 78.2098 54.4624 78.1857 54.398C78.1616 54.3336 78.1185 54.2781 78.0621 54.2387C78.0057 54.1993 77.9387 54.178 77.87 54.1775ZM79.8077 55.5386C78.9911 55.582 78.2874 56.138 77.6119 56.8202C79.4695 58.5801 80.7584 57.7645 81.9593 56.5518C81.1467 55.7818 80.4429 55.5049 79.8077 55.5386ZM77.1017 58.7874C76.3843 58.7876 75.6764 59.1682 74.9722 59.6501C76.4636 61.7294 77.8831 61.1714 79.2916 60.2076C78.5459 59.1679 77.819 58.7872 77.1017 58.7874ZM68.3198 81.8533C67.5375 81.8533 66.907 82.4838 66.907 83.2661V83.5536C66.907 84.3359 67.5375 84.9649 68.3198 84.9649H78.1133C78.8956 84.9649 79.5246 84.3359 79.5246 83.5536V83.2661C79.5246 82.4838 78.8956 81.8533 78.1133 81.8533H68.3198ZM51.9446 84.5446V90.0453C51.3499 90.0301 50.772 90.0075 50.172 89.9907V84.6302C50.7848 84.6133 51.3761 84.5849 51.9446 84.5446ZM29.9125 88.3759C29.1303 88.3759 28.4998 89.005 28.4998 89.7872V92.1777C28.4998 92.96 29.1303 93.589 29.9125 93.589H30.3107C31.0929 93.589 31.722 92.96 31.722 92.1777V89.7872C31.722 89.005 31.0929 88.3759 30.3107 88.3759H29.9125ZM68.3198 96.9867C67.5375 96.9867 66.907 97.6173 66.907 98.3995V98.6871C66.907 99.4693 67.5375 100.1 68.3198 100.1H78.1133C78.8956 100.1 79.5246 99.4693 79.5246 98.6871V98.3995C79.5246 97.6173 78.8956 96.9867 78.1133 96.9867H68.3198Z" fill="white"/>
</g>
<defs>
<clipPath id="clip0">
<rect x="0.452148" y="0.0654297" width="111.817" height="112" rx="6" fill="white"/>
</clipPath>
</defs>
</svg>
