<svg width="112" height="113" viewBox="0 0 112 113" fill="none" xmlns="http://www.w3.org/2000/svg">
<g clip-path="url(#clip0)">
<path fill-rule="evenodd" clip-rule="evenodd" d="M0.624242 0.0654297H111.193C111.539 0.0654297 111.817 0.343841 111.817 0.689668V111.441C111.817 111.787 111.539 112.065 111.193 112.065H0.624242C0.278412 112.065 0 111.787 0 111.441V0.689668C0 0.343841 0.278412 0.0654297 0.624242 0.0654297Z" fill="#EB1C2D"/>
<path d="M35.3739 19.46L33.2738 13.7237V19.46H31.9208V10.0169H33.2034L35.2893 15.7392V10.0169H36.6424V19.46H35.3739Z" fill="white"/>
<path d="M38.0999 10.9048C38.316 10.6041 38.5885 10.3692 38.9174 10.2001C39.2556 10.0215 39.6033 9.93228 39.9603 9.93228C40.308 9.93228 40.6322 10.0028 40.9328 10.1437C41.2429 10.2846 41.5013 10.4773 41.708 10.7216C41.9147 10.9659 42.0557 11.2196 42.1309 11.4826C42.206 11.7363 42.2436 12.0135 42.2436 12.3142V17.1204C42.2436 17.4022 42.2154 17.6512 42.159 17.8674C42.1121 18.0835 41.9993 18.3231 41.8208 18.5862C41.6516 18.8493 41.4026 19.0748 41.0738 19.2627C40.7543 19.4506 40.3973 19.5446 40.0026 19.5446C39.7771 19.5446 39.561 19.5164 39.3543 19.46C39.1476 19.3942 38.9549 19.3097 38.7764 19.2063C38.5979 19.103 38.4382 18.9855 38.2972 18.854C38.1657 18.7224 38.0623 18.5862 37.9871 18.4452C37.8462 18.1539 37.7616 17.919 37.7334 17.7405C37.7053 17.562 37.6912 17.3553 37.6912 17.1204V12.3142C37.6912 12.0323 37.7194 11.7833 37.7757 11.5672C37.8415 11.3417 37.9496 11.1209 38.0999 10.9048ZM40.7214 11.6518C40.5429 11.3887 40.2986 11.2571 39.9885 11.2571C39.8288 11.2571 39.6691 11.3041 39.5093 11.3981C39.359 11.4826 39.2509 11.5813 39.1851 11.6941C39.1288 11.8068 39.0912 11.9196 39.0724 12.0323C39.0536 12.1451 39.0442 12.239 39.0442 12.3142V17.1204C39.0442 17.1673 39.0442 17.219 39.0442 17.2754C39.0442 17.3224 39.0489 17.374 39.0583 17.4304C39.0677 17.5244 39.1429 17.6794 39.2838 17.8955C39.4248 18.0929 39.6597 18.1915 39.9885 18.1915C40.1577 18.1915 40.308 18.1539 40.4395 18.0788C40.5805 17.9942 40.6791 17.9002 40.7355 17.7969C40.8013 17.6841 40.8436 17.5808 40.8624 17.4868C40.8812 17.3928 40.8905 17.2707 40.8905 17.1204V12.3142C40.8905 12.1263 40.8812 11.9947 40.8624 11.9196C40.853 11.8444 40.806 11.7551 40.7214 11.6518H40.7214Z" fill="white"/>
<path d="M31.9208 32.4824V23.0392H34.1336H34.1618C34.4436 23.0392 34.7114 23.1003 34.9651 23.2224C35.2188 23.3352 35.4443 23.4855 35.6417 23.6734C35.839 23.8614 35.994 24.0775 36.1068 24.3218C36.2289 24.5567 36.2947 24.801 36.3041 25.0547V26.4218V26.5628C36.3041 26.8729 36.243 27.1641 36.1209 27.4366C36.0081 27.6997 35.8531 27.9299 35.6558 28.1272C35.4584 28.3246 35.2235 28.4796 34.951 28.5923C34.6879 28.7051 34.4061 28.7615 34.1054 28.7615H33.9785H33.2738V32.4824H31.9208ZM34.7819 27.2111C34.8665 27.1266 34.9182 27.0373 34.9369 26.9433C34.9651 26.8494 34.9792 26.7319 34.9792 26.591V25.1956C34.9792 24.9325 34.8994 24.7164 34.7396 24.5473C34.5799 24.3688 34.3638 24.2795 34.0913 24.2795H33.2738V27.4789H33.9785C34.1665 27.4789 34.3168 27.4648 34.4296 27.4366C34.5517 27.399 34.6692 27.3239 34.7819 27.2111Z" fill="white"/>
<path d="M37.8914 23.9271C38.1075 23.6264 38.38 23.3915 38.7089 23.2224C39.0471 23.0439 39.3948 22.9546 39.7518 22.9546C40.0995 22.9546 40.4237 23.0251 40.7243 23.166C41.0344 23.3069 41.2928 23.4996 41.4995 23.7439C41.7062 23.9882 41.8472 24.2419 41.9224 24.505C41.9975 24.7587 42.0351 25.0359 42.0351 25.3365V30.1427C42.0351 30.4246 42.0069 30.6735 41.9505 30.8897C41.9036 31.1058 41.7908 31.3454 41.6123 31.6085C41.4432 31.8716 41.1942 32.0971 40.8653 32.285C40.5458 32.4729 40.1888 32.5669 39.7941 32.5669C39.5686 32.5669 39.3525 32.5387 39.1458 32.4823C38.9391 32.4165 38.7465 32.332 38.5679 32.2286C38.3894 32.1253 38.2297 32.0078 38.0887 31.8763C37.9572 31.7447 37.8538 31.6085 37.7786 31.4675C37.6377 31.1763 37.5531 30.9413 37.5249 30.7628C37.4968 30.5843 37.4827 30.3776 37.4827 30.1427V25.3365C37.4827 25.0547 37.5109 24.8056 37.5672 24.5895C37.633 24.364 37.7411 24.1432 37.8914 23.9271ZM40.5129 24.6741C40.3344 24.411 40.0901 24.2795 39.78 24.2795C39.6203 24.2795 39.4606 24.3264 39.3008 24.4204C39.1505 24.505 39.0424 24.6036 38.9767 24.7164C38.9203 24.8291 38.8827 24.9419 38.8639 25.0546C38.8451 25.1674 38.8357 25.2614 38.8357 25.3365V30.1427C38.8357 30.1896 38.8357 30.2413 38.8357 30.2977C38.8357 30.3447 38.8404 30.3964 38.8498 30.4528C38.8592 30.5467 38.9344 30.7018 39.0753 30.9179C39.2163 31.1152 39.4512 31.2138 39.78 31.2138C39.9492 31.2138 40.0995 31.1762 40.2311 31.1011C40.372 31.0165 40.4707 30.9226 40.527 30.8192C40.5928 30.7064 40.6351 30.6031 40.6539 30.5091C40.6727 30.4152 40.6821 30.293 40.6821 30.1427V25.3365C40.6821 25.1486 40.6727 25.0171 40.6539 24.9419C40.6445 24.8667 40.5975 24.7775 40.5129 24.6741Z" fill="white"/>
<path d="M44.6722 32.4824L42.7413 23.0392H44.1508L45.2501 29.5931L46.3636 23.0392H47.8012L45.828 32.4824H44.6722Z" fill="white"/>
<path d="M52.665 31.1293V32.4824H48.62V23.0392H52.665V24.2795H49.9589V27.0702H52.3268V28.3528H49.9589V31.1293H52.665Z" fill="white"/>
<path d="M53.3043 32.4824V23.0392H55.6722C56.2923 23.0392 56.8138 23.2553 57.2366 23.6875C57.6688 24.1198 57.885 24.6507 57.885 25.2802V26.154C57.885 27.0279 57.5138 27.695 56.7715 28.1554L58.2091 32.4824H56.7715L55.503 28.4373H54.6574V32.4824H53.3043ZM56.3064 26.9433C56.391 26.84 56.4473 26.7225 56.4755 26.591C56.5131 26.4594 56.5319 26.3138 56.5319 26.154V25.2802C56.5319 24.9889 56.4521 24.754 56.2923 24.5755C56.1326 24.3876 55.9071 24.2936 55.6158 24.2936H54.6574V27.2393H55.6017C55.8836 27.2393 56.1185 27.1406 56.3064 26.9433H56.3064Z" fill="white"/>
<path d="M59.8126 32.4824V24.2936H58.22V23.0392H62.7724V24.2936H61.1516V32.4824H59.8126Z" fill="white"/>
<path d="M64.7529 32.4824V28.4232L62.9207 23.0392H64.3301L65.4294 26.7319L66.5429 23.0392H67.9664L66.0919 28.4232V32.4824H64.7529Z" fill="white"/>
<path d="M16.0261 32.0525V12.8289L12.7885 15.2572V11.8171L16.0261 9.45636H19.23V32.0525H16.0261Z" fill="white"/>
<path fill-rule="evenodd" clip-rule="evenodd" d="M24.1483 53.551C24.1483 54.3757 23.8207 55.1667 23.2375 55.7498C22.6543 56.333 21.8634 56.6606 21.0387 56.6606C20.214 56.6606 19.423 56.333 18.8399 55.7498C18.2567 55.1667 17.9291 54.3757 17.9291 53.551C17.9291 53.1427 18.0095 52.7383 18.1658 52.361C18.3221 51.9837 18.5511 51.641 18.8399 51.3522C19.1286 51.0634 19.4714 50.8344 19.8487 50.6781C20.226 50.5218 20.6303 50.4414 21.0387 50.4414C21.447 50.4414 21.8514 50.5218 22.2287 50.6781C22.606 50.8344 22.9487 51.0634 23.2375 51.3522C23.5263 51.641 23.7553 51.9837 23.9116 52.361C24.0678 52.7383 24.1483 53.1427 24.1483 53.551Z" fill="white"/>
<path fill-rule="evenodd" clip-rule="evenodd" d="M50.4814 55.2726C50.4814 56.0973 50.1538 56.8882 49.5706 57.4714C48.9875 58.0545 48.1965 58.3822 47.3718 58.3822C46.5471 58.3822 45.7562 58.0545 45.173 57.4714C44.5898 56.8882 44.2622 56.0973 44.2622 55.2726C44.2622 54.4478 44.5898 53.6569 45.173 53.0737C45.7561 52.4906 46.5471 52.1629 47.3718 52.1629C47.7802 52.1629 48.1845 52.2434 48.5618 52.3997C48.9391 52.5559 49.2819 52.785 49.5706 53.0737C49.8594 53.3625 50.0884 53.7053 50.2447 54.0826C50.401 54.4598 50.4814 54.8642 50.4814 55.2726Z" fill="white"/>
<path fill-rule="evenodd" clip-rule="evenodd" d="M67.9203 55.2726C67.9202 56.0973 67.5926 56.8882 67.0095 57.4714C66.4263 58.0545 65.6354 58.3822 64.8106 58.3822C63.9859 58.3822 63.195 58.0545 62.6118 57.4714C62.0287 56.8882 61.7011 56.0973 61.701 55.2726C61.701 54.4478 62.0287 53.6569 62.6118 53.0737C63.195 52.4906 63.9859 52.1629 64.8106 52.1629C65.219 52.1629 65.6234 52.2434 66.0006 52.3997C66.3779 52.5559 66.7207 52.785 67.0095 53.0737C67.2982 53.3625 67.5273 53.7053 67.6835 54.0826C67.8398 54.4598 67.9203 54.8642 67.9203 55.2726Z" fill="white"/>
<path fill-rule="evenodd" clip-rule="evenodd" d="M92.3442 53.6227C92.3442 54.4474 92.0166 55.2384 91.4334 55.8215C90.8503 56.4047 90.0593 56.7323 89.2346 56.7323C88.4099 56.7323 87.6189 56.4047 87.0358 55.8215C86.4526 55.2384 86.125 54.4474 86.125 53.6227C86.125 53.2144 86.2054 52.81 86.3617 52.4327C86.518 52.0555 86.747 51.7126 87.0358 51.4239C87.3245 51.1351 87.6673 50.9061 88.0446 50.7498C88.4219 50.5936 88.8262 50.5131 89.2346 50.5131C90.0593 50.5131 90.8503 50.8408 91.4334 51.4239C92.0166 52.0071 92.3442 52.798 92.3442 53.6227Z" fill="white"/>
<path fill-rule="evenodd" clip-rule="evenodd" d="M36.0126 69.1947C36.0126 69.8544 35.7505 70.4872 35.284 70.9537C34.8174 71.4202 34.1847 71.6823 33.5249 71.6823C32.8651 71.6823 32.2324 71.4202 31.7659 70.9537C31.2993 70.4872 31.0372 69.8544 31.0372 69.1947C31.0372 68.868 31.1016 68.5445 31.2266 68.2427C31.3516 67.9409 31.5348 67.6666 31.7659 67.4356C31.9969 67.2046 32.2711 67.0213 32.5729 66.8963C32.8747 66.7713 33.1982 66.707 33.5249 66.707C33.8516 66.707 34.1751 66.7713 34.4769 66.8963C34.7787 67.0213 35.053 67.2046 35.284 67.4356C35.515 67.6666 35.6982 67.9409 35.8232 68.2427C35.9482 68.5445 36.0126 68.868 36.0126 69.1947Z" fill="white"/>
<path fill-rule="evenodd" clip-rule="evenodd" d="M80.0567 69.1947C80.0567 69.5213 79.9923 69.8448 79.8673 70.1467C79.7423 70.4485 79.559 70.7227 79.328 70.9537C79.097 71.1847 78.8228 71.368 78.521 71.493C78.2192 71.618 77.8957 71.6823 77.569 71.6823C76.9092 71.6823 76.2765 71.4202 75.8099 70.9537C75.3434 70.4872 75.0813 69.8544 75.0813 69.1947C75.0813 68.868 75.1456 68.5445 75.2707 68.2427C75.3957 67.9409 75.5789 67.6666 75.8099 67.4356C76.0409 67.2046 76.3152 67.0214 76.617 66.8964C76.9188 66.7713 77.2423 66.707 77.569 66.707C77.8957 66.707 78.2192 66.7713 78.521 66.8963C78.8228 67.0213 79.097 67.2046 79.328 67.4356C79.559 67.6666 79.7423 67.9408 79.8673 68.2427C79.9923 68.5445 80.0567 68.868 80.0567 69.1947Z" fill="white"/>
<path fill-rule="evenodd" clip-rule="evenodd" d="M88.6127 72.6152V85.3406C88.6127 87.518 85.4074 87.5277 85.4074 85.3406V63.0472C85.4074 62.2411 84.3071 62.1746 84.3071 63.0472V70.5581C84.3071 72.3348 81.9629 72.4094 81.9629 70.5581V61.4206C81.9629 59.5502 83.3785 57.9283 85.4552 57.9283H93.0139C95.0906 57.9283 96.5063 59.5502 96.5063 61.4206V70.5581C96.5063 72.4094 94.1621 72.3348 94.1621 70.5581V63.0472C94.1621 62.1746 93.0618 62.2411 93.0618 63.0472V85.3406C93.0618 87.5277 89.8565 87.518 89.8565 85.3406V72.6152C89.8565 71.9107 88.6127 71.8869 88.6127 72.6152Z" fill="white"/>
<path fill-rule="evenodd" clip-rule="evenodd" d="M17.156 57.9285C15.0793 57.9285 13.6639 59.5502 13.6639 61.4206V70.5579C13.6639 71.1857 13.9343 71.5868 14.2906 71.7804L11.4636 85.914C11.2978 86.7431 12.4069 86.9242 12.5534 86.1205L15.1533 71.863C15.6157 71.7202 16.0072 71.2832 16.0072 70.5579V63.0472C16.0072 62.1746 17.1073 62.2411 17.1073 63.0472V85.3403C17.1073 87.5274 20.3133 87.5177 20.3133 85.3403V72.6151C20.3133 71.8868 21.5565 71.9107 21.5565 72.6151V85.3403C21.5565 87.5177 24.7625 87.5274 24.7625 85.3403V63.0472C24.7625 62.2411 25.8627 62.1746 25.8627 63.0472V70.5579C25.8627 72.3346 28.206 72.4092 28.206 70.5579V61.4206C28.206 59.5502 26.7906 57.9285 24.7139 57.9285H17.156Z" fill="white"/>
<path fill-rule="evenodd" clip-rule="evenodd" d="M46.8211 76.4177V85.4267C46.8211 87.6577 43.7078 87.621 43.7078 85.4267V76.4177H40.7238L44.1056 64.4155C44.2585 63.873 43.3672 63.471 43.1441 64.1834L41.0885 70.7481C40.6024 72.3005 38.5184 71.7497 39.066 69.9524L41.6522 61.4647C41.9475 60.4954 42.936 59.7406 44.0062 59.7406H50.6059C51.6761 59.7406 52.6646 60.4954 52.96 61.4647L55.5461 69.9524C56.0937 71.7497 54.0097 72.3005 53.5236 70.7481L51.468 64.1834C51.2449 63.471 50.3536 63.873 50.5065 64.4155L53.8883 76.4177H50.9043V85.4267C50.9043 87.621 47.791 87.6577 47.791 85.4267V76.4177H46.8211Z" fill="white"/>
<path fill-rule="evenodd" clip-rule="evenodd" d="M64.3574 76.4177V85.4267C64.3574 87.6577 61.244 87.621 61.244 85.4267V76.4177H58.2601L61.6419 64.4155C61.7947 63.873 60.9035 63.471 60.6804 64.1834L58.6248 70.7481C58.1387 72.3005 56.0547 71.7497 56.6023 69.9524L59.1884 61.4647C59.4837 60.4954 60.4723 59.7406 61.5424 59.7406H68.1422C69.2123 59.7406 70.2009 60.4954 70.4962 61.4647L73.0823 69.9524C73.6299 71.7497 71.5459 72.3005 71.0598 70.7481L69.0042 64.1834C68.7811 63.471 67.8899 63.873 68.0427 64.4155L71.4245 76.4177H68.4406V85.4267C68.4406 87.621 65.3272 87.6577 65.3272 85.4267V76.4177H64.3574Z" fill="white"/>
<path fill-rule="evenodd" clip-rule="evenodd" d="M78.1671 81.8883V85.6348C78.1671 87.2257 80.3554 87.4248 80.3554 85.6348V76.6995C80.3554 76.2259 80.8628 76.2118 81.0351 76.6663L82.1812 79.6904C82.5716 80.7203 83.7719 80.2817 83.3417 79.2262L81.0682 73.6492C80.871 73.1654 80.3893 72.7706 79.742 72.7706H75.487C74.8397 72.7706 74.358 73.1654 74.1608 73.6492L71.8873 79.2262C71.4571 80.2817 72.6574 80.7203 73.0478 79.6904L74.1939 76.6663C74.3662 76.2118 74.8736 76.2259 74.8736 76.6995V85.6348C74.8736 87.4248 77.0619 87.2257 77.0619 85.6348V81.8883C77.0619 81.2237 78.1671 81.1765 78.1671 81.8883Z" fill="white"/>
<path fill-rule="evenodd" clip-rule="evenodd" d="M33.0747 82.1161V85.9436C33.0747 87.3185 31.0727 87.5507 31.0727 85.9436V81.7334H29.6889L30.896 77.3465C31.1035 76.5924 30.9441 75.8226 30.5722 75.1678L28.4818 71.4876C27.8552 70.3845 29.38 69.7704 29.8656 70.5454L31.3965 72.9891C31.6228 73.3503 31.9036 73.313 32.2503 73.313H35.1048C35.4516 73.313 35.7323 73.3503 35.9586 72.9891L37.4896 70.5454C37.9752 69.7704 39.4999 70.3845 38.8734 71.4876L36.783 75.1678C36.4111 75.8226 36.2516 76.5924 36.4591 77.3465L37.6663 81.7334H36.2825V85.9436C36.2825 87.5507 34.2804 87.3185 34.2804 85.9436V82.1161C34.2804 81.2513 33.0747 81.2751 33.0747 82.1161Z" fill="white"/>
</g>
<defs>
<clipPath id="clip0">
<rect y="0.0654297" width="111.817" height="112" rx="6" fill="white"/>
</clipPath>
</defs>
</svg>
