<svg width="113" height="113" viewBox="0 0 113 113" fill="none" xmlns="http://www.w3.org/2000/svg">
<g clip-path="url(#clip0)">
<path fill-rule="evenodd" clip-rule="evenodd" d="M1.07641 0.0654297H111.645C111.991 0.0654297 112.27 0.343833 112.27 0.689668V111.441C112.27 111.787 111.991 112.065 111.645 112.065H1.07641C0.730575 112.065 0.452148 111.787 0.452148 111.441V0.689668C0.452148 0.343833 0.730575 0.0654297 1.07641 0.0654297Z" fill="#E11484"/>
<path d="M36.5486 19.1186V9.67542H38.9164C39.5366 9.67542 40.058 9.89151 40.4808 10.3237C40.9131 10.756 41.1292 11.2868 41.1292 11.9164V12.7902C41.1292 13.6641 40.7581 14.3312 40.0158 14.7916L41.4534 19.1186H40.0158L38.7473 15.0735H37.9016V19.1186H36.5486ZM39.5506 13.5795C39.6352 13.4762 39.6916 13.3587 39.7198 13.2272C39.7574 13.0956 39.7762 12.95 39.7762 12.7902V11.9164C39.7762 11.6251 39.6963 11.3902 39.5366 11.2117C39.3768 11.0237 39.1513 10.9298 38.86 10.9298H37.9016V13.8755H38.8459C39.1278 13.8755 39.3627 13.7768 39.5507 13.5795H39.5506Z" fill="white"/>
<path d="M46.0787 17.7655V19.1186H42.0337V9.67542H46.0787V10.9157H43.3726V13.7064H45.7405V14.9889H43.3726V17.7655H46.0787Z" fill="white"/>
<path d="M48.8682 9.67542C49.4789 9.67542 50.0004 9.89151 50.4326 10.3237C50.8743 10.7466 51.0951 11.2634 51.0951 11.8741V16.7789C51.0951 17.4742 50.8836 18.038 50.4608 18.4702C50.038 18.9024 49.493 19.1186 48.8259 19.1186H46.7258V9.67542H48.8682ZM49.7561 16.7789V11.8741C49.7561 11.611 49.6574 11.3902 49.4601 11.2117C49.2722 11.0331 49.042 10.9439 48.7695 10.9439H48.0648V17.8642H48.7272C49.4132 17.8642 49.7561 17.5024 49.7561 16.7789Z" fill="white"/>
<path d="M56.539 18.132C56.3323 18.4514 56.0645 18.7098 55.7356 18.9071C55.4162 19.1045 55.0591 19.2031 54.6645 19.2031C54.4672 19.2031 54.2699 19.1749 54.0725 19.1186C53.8846 19.0622 53.7061 18.9917 53.537 18.9071C53.3678 18.8132 53.2175 18.7098 53.0859 18.5971C52.9544 18.4749 52.8557 18.3481 52.79 18.2165C52.649 17.9534 52.555 17.7232 52.5081 17.5259C52.4705 17.3286 52.4517 17.1172 52.4517 16.8917V9.67542H53.8047V16.8917C53.8047 16.9574 53.8047 17.0185 53.8047 17.0749C53.8141 17.1219 53.8235 17.1688 53.8329 17.2158C53.8423 17.291 53.9128 17.4225 54.0443 17.6105C54.1664 17.7796 54.3778 17.8642 54.6785 17.8642C54.951 17.8642 55.153 17.7655 55.2846 17.5682C55.4255 17.3615 55.496 17.136 55.496 16.8917V9.67542H56.8491V16.8917C56.8491 17.1172 56.8256 17.3333 56.7786 17.54C56.7316 17.7467 56.6518 17.944 56.539 18.132H56.539Z" fill="white"/>
<path d="M62.2985 16.7366C62.2985 17.0372 62.2797 17.2957 62.2421 17.5118C62.2139 17.7279 62.1199 17.9628 61.9602 18.2165C61.8756 18.348 61.7676 18.4749 61.636 18.597C61.5139 18.7098 61.3729 18.8131 61.2132 18.9071C61.0628 18.9917 60.8984 19.0621 60.7199 19.1185C60.5414 19.1749 60.3675 19.2031 60.1984 19.2031C59.7756 19.2031 59.3903 19.1138 59.0426 18.9353C58.7044 18.7567 58.4554 18.5312 58.2957 18.2587C58.1359 17.9863 58.0326 17.7326 57.9856 17.4977C57.948 17.2628 57.9292 17.0091 57.9292 16.7366V11.8741C57.9292 11.611 57.9527 11.376 57.9996 11.1693C58.056 10.9532 58.1687 10.723 58.3379 10.4787C58.507 10.2344 58.7466 10.0277 59.0567 9.85856C59.3668 9.68004 59.691 9.59079 60.0292 9.59079C60.6776 9.59079 61.2178 9.80689 61.6501 10.2391C62.0823 10.6619 62.2984 11.2069 62.2984 11.8741V12.3814H60.9594V11.8741C60.9594 11.611 60.8842 11.3901 60.7339 11.2116C60.593 11.0331 60.3816 10.9438 60.0997 10.9438C59.8366 10.9438 59.6299 11.0331 59.4795 11.2116C59.3386 11.3901 59.2681 11.611 59.2681 11.8741V17.103C59.2869 17.244 59.3527 17.4037 59.4654 17.5822C59.597 17.7701 59.8131 17.8641 60.1138 17.8641C60.4333 17.8641 60.6447 17.7795 60.748 17.6104C60.8514 17.4413 60.9124 17.3191 60.9312 17.244C60.95 17.1594 60.9594 17.0466 60.9594 16.9057V16.4265H62.2983L62.2985 16.7366Z" fill="white"/>
<path d="M67.3724 17.7655V19.1186H63.3274V9.67542H67.3724V10.9157H64.6663V13.7064H67.0342V14.9889H64.6663V17.7655H67.3724Z" fill="white"/>
<path d="M70.1619 9.67542C70.7726 9.67542 71.2941 9.89151 71.7263 10.3237C72.168 10.7466 72.3888 11.2634 72.3888 11.8741V16.7789C72.3888 17.4742 72.1774 18.038 71.7545 18.4702C71.3317 18.9024 70.7867 19.1186 70.1196 19.1186H68.0195V9.67542H70.1619ZM71.0498 16.7789V11.8741C71.0498 11.611 70.9511 11.3902 70.7538 11.2117C70.5659 11.0331 70.3357 10.9439 70.0632 10.9439H69.3585V17.8642H70.0209C70.7069 17.8642 71.0498 17.5024 71.0498 16.7789Z" fill="white"/>
<path d="M36.7451 32.1408V22.6976H38.0841V32.1408H36.7451Z" fill="white"/>
<path d="M42.6411 32.1408L40.541 26.4044V32.1408H39.188V22.6976H40.4706L42.5565 28.4199V22.6976H43.9096V32.1408H42.6411Z" fill="white"/>
<path d="M48.7879 30.7878V32.1408H44.7429V22.6976H48.7879V23.9379H46.0819V26.7286H48.4497V28.0112H46.0819V30.7878H48.7879Z" fill="white"/>
<path d="M49.781 31.4079C49.5648 31.173 49.4192 30.924 49.344 30.6609C49.2783 30.3978 49.2454 30.0878 49.2454 29.7307V25.0373C49.2454 24.3514 49.4615 23.7782 49.8937 23.3178C50.3353 22.848 50.8897 22.6131 51.5568 22.6131C52.1582 22.6131 52.689 22.8339 53.1495 23.2755C53.6005 23.7172 53.826 24.2433 53.826 24.8541V29.7307C53.826 30.0032 53.8119 30.2052 53.7837 30.3368C53.7649 30.4683 53.7273 30.5999 53.671 30.7314L54.5589 31.4784L53.8119 32.3804L52.9663 31.7039C52.5528 32.0422 52.0548 32.2113 51.4723 32.2113C51.1622 32.2113 50.8521 32.1361 50.542 31.9858C50.2414 31.8355 49.9877 31.6428 49.781 31.4079ZM52.022 29.3784L52.4729 29.7307V25.0373C52.4729 24.7367 52.3884 24.4829 52.2192 24.2762C52.0501 24.0601 51.8152 23.9521 51.5146 23.9521C51.3266 23.9521 51.1622 23.9991 51.0212 24.093C50.8803 24.187 50.7769 24.2997 50.7112 24.4313C50.6548 24.5628 50.6219 24.6662 50.6125 24.7414C50.6031 24.8071 50.5984 24.9058 50.5984 25.0373V29.7307V29.8294C50.5984 30.1019 50.6736 30.3462 50.8239 30.5623C50.9836 30.769 51.228 30.877 51.5568 30.8864C51.6508 30.8864 51.7635 30.8582 51.8951 30.8019L51.2749 30.2804L52.022 29.3784Z" fill="white"/>
<path d="M58.9841 31.1542C58.7774 31.4737 58.5096 31.7321 58.1807 31.9294C57.8612 32.1267 57.5042 32.2254 57.1096 32.2254C56.9123 32.2254 56.7149 32.1972 56.5176 32.1408C56.3297 32.0844 56.1512 32.014 55.982 31.9294C55.8129 31.8354 55.6626 31.7321 55.531 31.6193C55.3995 31.4972 55.3008 31.3703 55.235 31.2388C55.0941 30.9757 55.0001 30.7455 54.9531 30.5481C54.9155 30.3508 54.8967 30.1394 54.8967 29.9139V22.6976H56.2498V29.9139C56.2498 29.9797 56.2498 30.0408 56.2498 30.0971C56.2592 30.1441 56.2686 30.1911 56.278 30.2381C56.2874 30.3133 56.3578 30.4448 56.4894 30.6327C56.6115 30.8018 56.823 30.8864 57.1236 30.8864C57.3961 30.8864 57.5981 30.7877 57.7297 30.5904C57.8706 30.3837 57.9411 30.1582 57.9411 29.9139V22.6976H59.2941V29.9139C59.2941 30.1394 59.2707 30.3555 59.2237 30.5622C59.1767 30.769 59.0968 30.9663 58.9841 31.1542H58.9841Z" fill="white"/>
<path d="M59.8313 32.1408L61.9454 22.6976H63.1152L65.2294 32.1408H63.7777L63.3971 30.1112H61.6494L61.2548 32.1408H59.8313ZM61.8891 28.8568H63.1575L62.5233 25.4178L61.8891 28.8568Z" fill="white"/>
<path d="M69.9631 32.1408H65.9321V22.6976H67.2852V30.7878H69.9631V32.1408Z" fill="white"/>
<path d="M70.2532 32.1408V22.6976H71.5921V32.1408H70.2532Z" fill="white"/>
<path d="M74.055 32.1408V23.952H72.4624V22.6976H77.0148V23.952H75.394V32.1408H74.055Z" fill="white"/>
<path d="M77.4504 32.1408V22.6976H78.7894V32.1408H77.4504Z" fill="white"/>
<path d="M83.984 30.7878V32.1408H79.939V22.6976H83.984V23.9379H81.2779V26.7286H83.6457V28.0112H81.2779V30.7878H83.984Z" fill="white"/>
<path d="M85.6774 29.7871C85.6774 29.881 85.6774 29.9609 85.6774 30.0267C85.6774 30.0925 85.6822 30.1489 85.6916 30.1958C85.7104 30.2898 85.7808 30.426 85.903 30.6046C86.0345 30.7925 86.2694 30.8864 86.6077 30.8864C86.7956 30.8864 86.9695 30.8489 87.1292 30.7737C87.2889 30.6891 87.4064 30.5811 87.4816 30.4495C87.5379 30.3462 87.5708 30.2475 87.5802 30.1535C87.599 30.0596 87.6084 29.975 87.6084 29.8999V29.773V29.1106V28.9837C87.6084 28.777 87.5708 28.6173 87.4956 28.5045C87.4204 28.3824 87.2513 28.2461 86.9882 28.0958C86.8097 28.0018 86.4902 27.8703 86.0298 27.7011C85.5694 27.532 85.1842 27.2642 84.8741 26.8978C84.564 26.5313 84.409 26.0333 84.409 25.4038V24.9809C84.409 24.3326 84.6251 23.7782 85.0573 23.3178C85.499 22.848 86.0345 22.6131 86.6641 22.6131C87.3218 22.6131 87.8668 22.8433 88.299 23.3037C88.7406 23.7641 88.9614 24.3232 88.9614 24.9809V25.4038H87.6084V24.9809C87.6084 24.9152 87.6037 24.8541 87.5943 24.7977C87.5943 24.7413 87.5896 24.6897 87.5801 24.6427C87.5707 24.5957 87.5473 24.5393 87.5097 24.4736C87.4721 24.4078 87.4204 24.3279 87.3546 24.2339C87.2231 24.046 87.0023 23.9521 86.6922 23.9521C86.4197 23.9521 86.1942 24.0507 86.0157 24.248C85.8466 24.4454 85.762 24.6897 85.762 24.9809V25.4038V25.5306C85.762 25.7185 85.7902 25.8689 85.8466 25.9817C85.9123 26.085 86.0627 26.2024 86.2976 26.334C86.3728 26.3716 86.4855 26.4233 86.6359 26.489C86.7956 26.5454 86.9882 26.6159 87.2137 26.7005C87.6647 26.8508 88.0688 27.1186 88.4258 27.5038C88.7829 27.8891 88.9614 28.3965 88.9614 29.026V29.7871C88.9614 30.1159 88.9285 30.3931 88.8628 30.6187C88.8064 30.8442 88.6138 31.173 88.2849 31.6053C87.956 32.0187 87.4064 32.2254 86.6359 32.2254C85.8184 32.2254 85.2265 31.9623 84.86 31.4361C84.4935 30.9005 84.3103 30.3509 84.3103 29.7871V29.4488H85.6774V29.7871Z" fill="white"/>
<path d="M11.4569 31.969V12.7454L8.21924 15.1737V11.7336L11.4569 9.37286H14.6608V31.969H11.4569Z" fill="white"/>
<path d="M22.4952 32.0365C20.1119 31.6093 18.7292 30.2153 18.3469 27.8545V13.3188C18.6392 11.5426 19.4149 10.3509 20.674 9.74387C21.5059 9.36165 22.3715 9.17053 23.2709 9.17053C23.833 9.17053 24.4175 9.23799 25.0246 9.37289C25.834 9.86753 26.486 10.3959 26.9807 10.958C27.4753 11.4976 27.8126 12.2845 27.9924 13.3188V27.787C27.6777 29.9904 26.5085 31.3957 24.485 32.0027H23.8442C23.7318 32.0252 23.2821 32.0365 22.4952 32.0365V32.0365ZM22.8324 28.7988C23.8217 28.7988 24.4513 28.3491 24.7211 27.4498V13.8247C24.5862 13.3975 24.44 13.049 24.2826 12.7792C23.9004 12.4869 23.5294 12.3407 23.1697 12.3407C22.7874 12.3407 22.4727 12.4869 22.2254 12.7792C21.978 13.049 21.787 13.3975 21.6521 13.8247V27.3823C21.787 28.0793 22.1804 28.5515 22.8324 28.7988Z" fill="white"/>
<path fill-rule="evenodd" clip-rule="evenodd" d="M46.1239 60.3339V67.4405H67.4216V60.3339H46.1239ZM46.1239 73.4868V80.707H67.4216V73.4868H46.1239ZM56.7506 41.0639L46.171 51.6435H67.3301L56.7506 41.0639ZM38.0159 59.7986L27.4585 70.356L38.0159 80.9135V59.7986ZM75.5295 59.8428V80.8073L86.0117 70.3251L75.5295 59.8428ZM46.3672 89.2647L56.7196 99.6172L67.0721 89.2647H46.3672Z" fill="white"/>
</g>
<defs>
<clipPath id="clip0">
<rect x="0.452148" y="0.0654297" width="111.817" height="112" rx="6" fill="white"/>
</clipPath>
</defs>
</svg>
