<svg width="113" height="112" viewBox="0 0 113 112" fill="none" xmlns="http://www.w3.org/2000/svg">
<g clip-path="url(#clip0)">
<path fill-rule="evenodd" clip-rule="evenodd" d="M0.893793 0H111.463C111.809 0 112.087 0.278411 112.087 0.624239V111.376C112.087 111.722 111.809 112 111.463 112H0.893793C0.547965 112 0.269531 111.722 0.269531 111.376V0.624239C0.269531 0.278411 0.547965 0 0.893793 0Z" fill="#EF402B"/>
<path d="M37.7105 18.4574C37.4944 18.7957 37.2172 19.0588 36.8789 19.2467C36.5407 19.4346 36.1695 19.5286 35.7655 19.5286C35.4084 19.5286 35.0608 19.444 34.7225 19.2749C34.3936 19.1058 34.1352 18.899 33.9473 18.6547C33.7688 18.401 33.6467 18.1473 33.5809 17.8936C33.5245 17.64 33.4963 17.3534 33.4963 17.0339V12.3123C33.4963 12.0774 33.5198 11.8425 33.5668 11.6076C33.6325 11.3727 33.8064 11.0391 34.0882 10.6069C34.3795 10.1465 34.9527 9.91629 35.8078 9.91629C36.1836 9.91629 36.5359 10.0056 36.8648 10.1841C37.1937 10.3626 37.4427 10.5834 37.6118 10.8465C37.7904 11.1002 37.9031 11.3445 37.9501 11.5794C38.0065 11.8049 38.0347 12.0492 38.0347 12.3123V12.707H36.6957V12.3123C36.6957 12.2372 36.691 12.1714 36.6816 12.115C36.6816 12.0492 36.6769 11.9928 36.6675 11.9459C36.6581 11.8613 36.5876 11.7251 36.456 11.5371C36.3245 11.3492 36.1037 11.2552 35.7936 11.2552C35.4272 11.2552 35.1829 11.3539 35.0607 11.5512C34.948 11.7485 34.8822 11.8942 34.8634 11.9881C34.8446 12.0821 34.8352 12.1902 34.8352 12.3123V17.0339C34.8352 17.1279 34.8352 17.2077 34.8352 17.2735C34.8352 17.3393 34.8399 17.3956 34.8493 17.4426C34.8587 17.5178 34.9292 17.6634 35.0608 17.8795C35.1829 18.0769 35.4225 18.1755 35.7796 18.1755C36.146 18.1755 36.3809 18.0769 36.4843 17.8795C36.5407 17.7762 36.583 17.6916 36.6111 17.6259C36.6393 17.5507 36.6581 17.4849 36.6675 17.4285C36.6863 17.3722 36.6957 17.3158 36.6957 17.2594C36.6957 17.1936 36.6957 17.1185 36.6957 17.0339V15.3849H35.6104V14.2009H38.0347V17.0339C38.0347 17.2312 38.0299 17.4003 38.0205 17.5413C38.0111 17.6728 37.9923 17.7903 37.9641 17.8936C37.936 17.997 37.8984 18.0957 37.8514 18.1896C37.8138 18.2742 37.7668 18.3634 37.7105 18.4574H37.7105Z" fill="white"/>
<path d="M43.4208 18.091V19.4441H39.3757V10.0009H43.4208V11.2412H40.7147V14.0319H43.0825V15.3145H40.7147V18.091H43.4208Z" fill="white"/>
<path d="M47.3671 19.4441L45.2671 13.7077V19.4441H43.9141V10.0009H45.1966L47.2826 15.7232V10.0009H48.6356V19.4441H47.3671Z" fill="white"/>
<path d="M51.7166 10.0009C52.3273 10.0009 52.8488 10.2171 53.281 10.6493C53.7226 11.0721 53.9434 11.5889 53.9434 12.1997V17.1045C53.9434 17.7998 53.732 18.3635 53.3092 18.7958C52.8864 19.228 52.3414 19.4441 51.6742 19.4441H49.5742V10.0009H51.7166ZM52.6045 17.1045V12.1997C52.6045 11.9366 52.5058 11.7158 52.3085 11.5372C52.1206 11.3587 51.8904 11.2694 51.6179 11.2694H50.9132V18.1897H51.5756C52.2615 18.1897 52.6045 17.828 52.6045 17.1045Z" fill="white"/>
<path d="M58.9183 18.091V19.4441H54.8733V10.0009H58.9183V11.2412H56.2122V14.0319H58.5801V15.3145H56.2122V18.091H58.9183Z" fill="white"/>
<path d="M59.6108 19.4441V10.0009H61.9787C62.5988 10.0009 63.1203 10.2171 63.5431 10.6493C63.9754 11.0815 64.1915 11.6124 64.1915 12.2419V13.1158C64.1915 13.9896 63.8203 14.6568 63.078 15.1172L64.5156 19.4441H63.078L61.8095 15.3991H60.9639V19.4441H59.6108ZM62.6129 13.9051C62.6975 13.8017 62.7539 13.6843 62.7821 13.5527C62.8197 13.4212 62.8385 13.2755 62.8385 13.1158V12.2419C62.8385 11.9507 62.7586 11.7158 62.5988 11.5372C62.4391 11.3493 62.2136 11.2553 61.9223 11.2553H60.9639V14.201H61.9082C62.1901 14.201 62.425 14.1024 62.6129 13.9051Z" fill="white"/>
<path d="M37.64 31.1134V32.4664H33.595V23.0232H37.64V24.2635H34.934V27.0542H37.3018V28.3368H34.934V31.1134H37.64Z" fill="white"/>
<path d="M38.6769 31.7335C38.4608 31.4986 38.3152 31.2496 38.24 30.9865C38.1742 30.7234 38.1414 30.4133 38.1414 30.0562V25.3629C38.1414 24.6769 38.3574 24.1038 38.7897 23.6434C39.2313 23.1735 39.7857 22.9386 40.4528 22.9386C41.0542 22.9386 41.585 23.1594 42.0455 23.6011C42.4965 24.0427 42.722 24.5689 42.722 25.1796V30.0562C42.722 30.3287 42.7079 30.5307 42.6797 30.6623C42.6609 30.7938 42.6233 30.9254 42.567 31.0569L43.4549 31.8039L42.7079 32.706L41.8622 32.0294C41.4488 32.3677 40.9508 32.5368 40.3683 32.5368C40.0582 32.5368 39.7481 32.4617 39.438 32.3113C39.1373 32.161 38.8836 31.9684 38.6769 31.7335ZM40.9179 29.7039L41.3689 30.0562V25.3629C41.3689 25.0622 41.2844 24.8085 41.1152 24.6018C40.9461 24.3856 40.7112 24.2776 40.4105 24.2776C40.2226 24.2776 40.0582 24.3246 39.9172 24.4185C39.7763 24.5125 39.6729 24.6253 39.6071 24.7568C39.5507 24.8884 39.5179 24.9917 39.5085 25.0669C39.4991 25.1327 39.4944 25.2313 39.4944 25.3629V30.0562V30.1549C39.4944 30.4274 39.5696 30.6717 39.7199 30.8878C39.8796 31.0945 40.1239 31.2026 40.4528 31.212C40.5467 31.212 40.6595 31.1838 40.791 31.1274L40.1709 30.6059L40.9179 29.7039Z" fill="white"/>
<path d="M48.1081 31.4798C47.9014 31.7993 47.6336 32.0577 47.3047 32.255C46.9853 32.4523 46.6282 32.551 46.2336 32.551C46.0363 32.551 45.839 32.5228 45.6416 32.4664C45.4537 32.41 45.2752 32.3396 45.106 32.255C44.9369 32.161 44.7866 32.0577 44.655 31.9449C44.5235 31.8228 44.4248 31.6959 44.3591 31.5644C44.2181 31.3013 44.1241 31.0711 44.0772 30.8737C44.0396 30.6764 44.0208 30.465 44.0208 30.2395V23.0232H45.3738V30.2395C45.3738 30.3053 45.3738 30.3664 45.3738 30.4227C45.3832 30.4697 45.3926 30.5167 45.402 30.5637C45.4114 30.6389 45.4819 30.7704 45.6134 30.9583C45.7355 31.1274 45.9469 31.212 46.2476 31.212C46.5201 31.212 46.7221 31.1134 46.8537 30.916C46.9946 30.7093 47.0651 30.4838 47.0651 30.2395V23.0232H48.4181V30.2395C48.4181 30.465 48.3946 30.6811 48.3477 30.8879C48.3007 31.0946 48.2209 31.2919 48.1081 31.4798H48.1081Z" fill="white"/>
<path d="M48.7109 32.4664L50.8251 23.0232H51.9949L54.1091 32.4664H52.6573L52.2768 30.4368H50.5291L50.1345 32.4664H48.7109ZM50.7687 29.1824H52.0372L51.403 25.7435L50.7687 29.1824Z" fill="white"/>
<path d="M58.8427 32.4664H54.8118V23.0232H56.1648V31.1134H58.8427V32.4664Z" fill="white"/>
<path d="M59.2227 32.4664V23.0232H60.5616V32.4664H59.2227Z" fill="white"/>
<path d="M62.9022 32.4664V24.2776H61.3096V23.0232H65.862V24.2776H64.2411V32.4664H62.9022Z" fill="white"/>
<path d="M67.8425 32.4664V28.4073L66.0103 23.0232H67.4197L68.519 26.716L69.6325 23.0232H71.056L69.1814 28.4073V32.4664H67.8425Z" fill="white"/>
<path d="M18.5113 17.5007C19.0734 17.5007 19.6355 17.6581 20.1976 17.9729C20.7822 18.2877 21.2094 18.6587 21.4792 19.0859C21.7715 19.513 21.9626 19.9627 22.0525 20.4349C22.1649 20.8845 22.2211 21.3679 22.2211 21.8851V26.9439C22.2211 27.4386 22.1987 27.8657 22.1537 28.2255C22.1312 28.5627 22.0076 29.0349 21.7827 29.642C21.5579 30.249 21.0071 30.8336 20.1302 31.3957C19.2983 31.9578 18.3765 32.2388 17.3647 32.2388C16.6003 32.2388 15.8695 32.059 15.1726 31.6992C14.4756 31.317 13.9359 30.8561 13.5537 30.3165C13.1715 29.7769 12.9129 29.226 12.778 28.6639C12.6431 28.1018 12.5757 27.5285 12.5757 26.9439V26.3706H15.8808V27.6184C15.8808 27.7308 15.9145 27.8657 15.9819 28.0231C16.0494 28.1805 16.1393 28.3379 16.2518 28.4953C16.3642 28.6302 16.5215 28.7538 16.7239 28.8663C16.9262 28.9562 17.1623 29.0012 17.4321 29.0012C18.0392 29.0012 18.4439 28.8325 18.6463 28.4953C18.8486 28.158 18.961 27.8995 18.9835 27.7196C19.006 27.5172 19.0173 27.3036 19.0173 27.0788V22.3235C19.0173 22.2111 19.0173 22.1099 19.0173 22.02C19.0173 21.9076 19.006 21.7951 18.9835 21.6827C18.9835 21.5703 18.9498 21.4354 18.8824 21.278C18.8374 21.1206 18.7475 20.9745 18.6125 20.8396C18.5001 20.6822 18.3428 20.5585 18.1404 20.4686C17.9605 20.3562 17.7357 20.3 17.4659 20.3C16.6789 20.3 16.1506 20.7047 15.8808 21.5141H12.9804V9.44034H22.2212V12.4419H15.8808V18.5125C16.6452 17.838 17.5221 17.5007 18.5114 17.5007H18.5113Z" fill="white"/>
<path fill-rule="evenodd" clip-rule="evenodd" d="M47.6614 62.403V66.8448H64.5615V62.403H47.6614ZM47.6614 69.2928V73.944H64.5615V69.2928H47.6614ZM67.6496 42.6729V47.5025H73.395L67.275 53.624C64.0703 51.1009 60.112 49.7254 56.0333 49.7175C51.1987 49.7176 46.5622 51.6381 43.1436 55.0567C39.7251 58.4753 37.8045 63.1118 37.8044 67.9464C37.8098 72.366 39.4205 76.6331 42.337 79.9538C45.2535 83.2745 49.2771 85.4226 53.659 85.9983V91.347H47.9136V96.7179H53.659V101.965H58.9886V96.7179H64.6928V91.347H58.9886V85.9127C63.2501 85.2125 67.1245 83.0222 69.9217 79.7318C72.7189 76.4415 74.257 72.265 74.2621 67.9464C74.2541 64.1939 73.0881 60.5353 70.9234 57.4701L76.9771 51.4164V56.7047H81.9306V42.6729H67.6496ZM56.0333 54.6917C59.5486 54.6919 62.9199 56.0884 65.4056 58.5741C67.8913 61.0598 69.2878 64.4311 69.288 67.9464C69.2882 71.4619 67.8918 74.8336 65.4061 77.3196C62.9203 79.8056 59.5488 81.2023 56.0333 81.2025C54.2924 81.2026 52.5686 80.8598 50.9603 80.1937C49.3519 79.5275 47.8906 78.5511 46.6596 77.3201C45.4286 76.0891 44.4522 74.6277 43.786 73.0194C43.1199 71.411 42.7771 69.6872 42.7772 67.9464C42.7774 64.4308 44.1741 61.0593 46.6601 58.5736C49.1461 56.0879 52.5177 54.6915 56.0333 54.6917Z" fill="white"/>
</g>
<defs>
<clipPath id="clip0">
<rect x="0.269531" width="111.817" height="112" rx="6" fill="white"/>
</clipPath>
</defs>
</svg>
