<svg width="113" height="112" viewBox="0 0 113 112" fill="none" xmlns="http://www.w3.org/2000/svg">
<g clip-path="url(#clip0)">
<path fill-rule="evenodd" clip-rule="evenodd" d="M1.44162 0H112.011C112.356 0 112.635 0.278411 112.635 0.624239V111.376C112.635 111.722 112.356 112 112.011 112H1.44162C1.09579 112 0.817383 111.722 0.817383 111.376V0.624239C0.817383 0.278411 1.09579 0 1.44162 0Z" fill="#D3A029"/>
<path d="M33.1099 19.4441V18.232L35.6468 11.2553H33.2931V10.0009H37.1549V11.0862L34.632 18.091H37.1549V19.4441H33.1099Z" fill="white"/>
<path d="M42.3368 18.091V19.4441H38.2917V10.0009H42.3368V11.2412H39.6307V14.0319H41.9986V15.3145H39.6307V18.091H42.3368Z" fill="white"/>
<path d="M43.0293 19.4441V10.0009H45.3971C46.0173 10.0009 46.5388 10.2171 46.9616 10.6493C47.3938 11.0815 47.6099 11.6124 47.6099 12.2419V13.1158C47.6099 13.9896 47.2388 14.6568 46.4965 15.1172L47.9341 19.4441H46.4965L45.228 15.3991H44.3823V19.4441H43.0293ZM46.0314 13.9051C46.1159 13.8017 46.1723 13.6843 46.2005 13.5527C46.2381 13.4212 46.2569 13.2755 46.2569 13.1158V12.2419C46.2569 11.9507 46.177 11.7158 46.0173 11.5372C45.8576 11.3493 45.632 11.2553 45.3408 11.2553H44.3824V14.201H45.3267C45.6086 14.201 45.8435 14.1024 46.0314 13.9051H46.0314Z" fill="white"/>
<path d="M48.816 10.8888C49.0321 10.5882 49.3046 10.3532 49.6334 10.1841C49.9717 10.0056 50.3193 9.91632 50.6764 9.91632C51.024 9.91632 51.3482 9.98679 51.6489 10.1277C51.959 10.2687 52.2174 10.4613 52.4241 10.7056C52.6308 10.9499 52.7717 11.2036 52.8469 11.4667C52.9221 11.7204 52.9597 11.9976 52.9597 12.2982V17.1044C52.9597 17.3863 52.9315 17.6353 52.8751 17.8514C52.8281 18.0675 52.7154 18.3071 52.5368 18.5702C52.3677 18.8333 52.1187 19.0588 51.7898 19.2467C51.4704 19.4346 51.1133 19.5286 50.7187 19.5286C50.4932 19.5286 50.277 19.5004 50.0703 19.444C49.8636 19.3783 49.671 19.2937 49.4925 19.1903C49.3139 19.087 49.1542 18.9695 49.0133 18.838C48.8817 18.7064 48.7784 18.5702 48.7032 18.4292C48.5623 18.138 48.4777 17.9031 48.4495 17.7245C48.4213 17.546 48.4072 17.3393 48.4072 17.1044V12.2982C48.4072 12.0164 48.4354 11.7674 48.4918 11.5513C48.5576 11.3257 48.6656 11.1049 48.816 10.8888ZM51.4375 11.6358C51.2589 11.3727 51.0146 11.2412 50.7046 11.2412C50.5448 11.2412 50.3851 11.2882 50.2254 11.3821C50.075 11.4667 49.967 11.5653 49.9012 11.6781C49.8448 11.7909 49.8072 11.9036 49.7885 12.0164C49.7697 12.1291 49.7603 12.2231 49.7603 12.2982V17.1044C49.7603 17.1514 49.7603 17.203 49.7603 17.2594C49.7603 17.3064 49.765 17.3581 49.7744 17.4145C49.7838 17.5084 49.859 17.6635 49.9999 17.8796C50.1409 18.0769 50.3758 18.1756 50.7046 18.1756C50.8738 18.1756 51.0241 18.138 51.1556 18.0628C51.2966 17.9782 51.3952 17.8843 51.4516 17.7809C51.5174 17.6682 51.5597 17.5648 51.5785 17.4709C51.5972 17.3769 51.6066 17.2547 51.6066 17.1044V12.2982C51.6066 12.1103 51.5972 11.9788 51.5785 11.9036C51.5691 11.8284 51.5221 11.7392 51.4375 11.6358H51.4375Z" fill="white"/>
<path d="M33.3917 32.4664V23.0232H34.7307V27.0542H36.4502V23.0232H37.7891V32.4664H36.4502V28.2522H34.7307V32.4664H33.3917Z" fill="white"/>
<path d="M43.3425 31.4798C43.1358 31.7993 42.868 32.0577 42.5391 32.255C42.2196 32.4523 41.8626 32.551 41.4679 32.551C41.2706 32.551 41.0733 32.5228 40.876 32.4664C40.6881 32.41 40.5095 32.3396 40.3404 32.255C40.1713 32.161 40.0209 32.0577 39.8894 31.9449C39.7578 31.8228 39.6592 31.6959 39.5934 31.5644C39.4525 31.3013 39.3585 31.0711 39.3115 30.8737C39.2739 30.6764 39.2551 30.465 39.2551 30.2395V23.0232H40.6082V30.2395C40.6082 30.3053 40.6082 30.3664 40.6082 30.4227C40.6176 30.4697 40.627 30.5167 40.6363 30.5637C40.6457 30.6389 40.7162 30.7704 40.8477 30.9583C40.9699 31.1274 41.1813 31.212 41.482 31.212C41.7545 31.212 41.9565 31.1134 42.088 30.916C42.229 30.7093 42.2995 30.4838 42.2995 30.2395V23.0232H43.6525V30.2395C43.6525 30.465 43.629 30.6811 43.5821 30.8879C43.5351 31.0946 43.4552 31.2919 43.3425 31.4798H43.3425Z" fill="white"/>
<path d="M47.9572 32.4664L45.8572 26.7301V32.4664H44.5042V23.0232H45.7867L47.8727 28.7455V23.0232H49.2257V32.4664H47.9572Z" fill="white"/>
<path d="M54.4399 31.4798C54.2238 31.818 53.9466 32.0811 53.6083 32.2691C53.2701 32.457 52.8989 32.5509 52.4949 32.5509C52.1378 32.5509 51.7902 32.4664 51.4519 32.2972C51.123 32.1281 50.8646 31.9214 50.6767 31.6771C50.4982 31.4234 50.376 31.1697 50.3103 30.916C50.2539 30.6623 50.2257 30.3757 50.2257 30.0562V25.3347C50.2257 25.0998 50.2492 24.8649 50.2961 24.63C50.3619 24.3951 50.5358 24.0615 50.8176 23.6293C51.1089 23.1688 51.6821 22.9386 52.5371 22.9386C52.913 22.9386 53.2654 23.0279 53.5942 23.2064C53.9231 23.385 54.1721 23.6058 54.3412 23.8689C54.5197 24.1226 54.6325 24.3668 54.6795 24.6018C54.7359 24.8273 54.764 25.0716 54.764 25.3347V25.7293H53.4251V25.3347C53.4251 25.2595 53.4204 25.1937 53.411 25.1373C53.411 25.0716 53.4062 25.0152 53.3968 24.9682C53.3874 24.8837 53.317 24.7474 53.1854 24.5595C53.0539 24.3715 52.8331 24.2776 52.523 24.2776C52.1566 24.2776 51.9122 24.3763 51.7901 24.5736C51.6773 24.7709 51.6116 24.9165 51.5928 25.0105C51.574 25.1045 51.5646 25.2125 51.5646 25.3347V30.0562C51.5646 30.1502 51.5646 30.2301 51.5646 30.2958C51.5646 30.3616 51.5693 30.418 51.5787 30.465C51.5881 30.5402 51.6586 30.6858 51.7901 30.9019C51.9123 31.0992 52.1519 31.1979 52.5089 31.1979C52.8754 31.1979 53.1103 31.0992 53.2137 30.9019C53.27 30.7986 53.3123 30.714 53.3405 30.6482C53.3687 30.573 53.3875 30.5073 53.3969 30.4509C53.4157 30.3945 53.4251 30.3381 53.4251 30.2817C53.4251 30.216 53.4251 30.1408 53.4251 30.0562V28.4072H52.3398V27.2233H54.764V30.0562C54.764 30.2536 54.7593 30.4227 54.7499 30.5636C54.7405 30.6952 54.7217 30.8126 54.6935 30.916C54.6653 31.0193 54.6277 31.118 54.5808 31.212C54.5432 31.2965 54.4962 31.3858 54.4398 31.4798H54.4399Z" fill="white"/>
<path d="M59.8301 31.1134V32.4664H55.785V23.0232H59.8301V24.2635H57.124V27.0542H59.4918V28.3368H57.124V31.1134H59.8301Z" fill="white"/>
<path d="M60.4159 32.4664V23.0232H62.7837C63.4039 23.0232 63.9254 23.2394 64.3482 23.6716C64.7804 24.1038 64.9965 24.6347 64.9965 25.2642V26.1381C64.9965 27.0119 64.6254 27.679 63.8831 28.1395L65.3207 32.4664H63.8831L62.6146 28.4214H61.769V32.4664H60.4159ZM63.418 26.9274C63.5025 26.824 63.5589 26.7066 63.5871 26.575C63.6247 26.4435 63.6435 26.2978 63.6435 26.1381V25.2642C63.6435 24.973 63.5636 24.738 63.4039 24.5595C63.2442 24.3716 63.0187 24.2776 62.7274 24.2776H61.769V27.2233H62.7133C62.9952 27.2233 63.2301 27.1247 63.418 26.9274H63.418Z" fill="white"/>
<path d="M22.3551 32.0364H12.7433V29.0686L18.7465 17.3995C19.0163 16.8599 19.1512 16.3091 19.1512 15.747V14.0607C19.1512 13.611 18.9938 13.2288 18.6791 12.914C18.3643 12.5768 17.9821 12.4081 17.5324 12.4081C17.1277 12.4081 16.7567 12.5543 16.4194 12.8466C16.1047 13.1389 15.9473 13.4986 15.9473 13.9258V15.9156H12.6759V14.2968C12.6759 13.4199 13.0019 12.3519 13.6539 11.0928C14.3285 9.85624 15.6775 9.23793 17.701 9.23793C18.9826 9.23793 20.073 9.72133 20.9724 10.6881C21.8942 11.6774 22.3551 12.8016 22.3551 14.0607V16.1179C22.3551 17.0398 22.1078 17.9616 21.6132 18.8834L16.5543 28.8325H22.3551V32.0364Z" fill="white"/>
<path fill-rule="evenodd" clip-rule="evenodd" d="M63.8986 97.557C64.785 97.557 64.9431 96.5919 64.8996 95.9671C64.8466 95.2079 65.5768 95.0874 65.9595 94.9661C70.2751 93.598 74.8022 90.9732 78.384 87.1935C81.8177 83.57 84.5274 79.8097 85.5089 73.5324C85.6278 72.772 85.1993 72.1781 84.449 72.1781H26.0554C25.3051 72.1781 24.8766 72.772 24.9955 73.5324C25.977 79.8097 28.6867 83.57 32.1204 87.1935C35.7022 90.9732 40.2293 93.598 44.5449 94.9661C44.9276 95.0874 45.6578 95.2079 45.6048 95.9671C45.5613 96.5919 45.7194 97.557 46.6058 97.557H63.8986ZM43.9866 69.6122H47.8588C47.8588 69.6122 49.6336 64.6526 45.4022 60.4104C44.0485 59.0532 43.1906 57.0188 43.1906 55.1018C43.1906 51.4557 44.8268 49.3444 45.3104 48.5657C46.557 46.5585 43.586 45.1466 42.3073 46.6814C40.3323 49.0521 39.1865 52.3106 39.1865 55.3962C39.1865 58.8735 40.8748 60.6393 42.6017 62.6978C45.8089 66.5207 43.9866 69.6122 43.9866 69.6122ZM67.3046 69.6122H71.1768C71.1768 69.6122 72.9515 64.6526 68.7202 60.4104C67.3665 59.0532 66.5086 57.0188 66.5086 55.1018C66.5086 51.4557 68.1448 49.3444 68.6284 48.5657C69.875 46.5585 66.904 45.1466 65.6253 46.6814C63.6503 49.0521 62.5045 52.3106 62.5045 55.3962C62.5045 58.8735 64.1928 60.6393 65.9197 62.6978C69.1269 66.5207 67.3046 69.6122 67.3046 69.6122ZM55.7044 69.6122H59.5767C59.5767 69.6122 61.3515 64.6526 57.1201 60.4104C55.7664 59.0532 54.9084 57.0188 54.9084 55.1018C54.9084 51.4557 56.5447 49.3444 57.0283 48.5657C58.2749 46.5585 55.3038 45.1466 54.0252 46.6814C52.0502 49.0521 50.9043 52.3106 50.9043 55.3962C50.9043 58.8735 52.5927 60.6393 54.3196 62.6978C57.5267 66.5207 55.7044 69.6122 55.7044 69.6122Z" fill="white"/>
</g>
<defs>
<clipPath id="clip0">
<rect x="0.817383" width="111.817" height="112" rx="6" fill="white"/>
</clipPath>
</defs>
</svg>
