<svg width="113" height="113" viewBox="0 0 113 113" fill="none" xmlns="http://www.w3.org/2000/svg">
<g clip-path="url(#clip0)">
<path fill-rule="evenodd" clip-rule="evenodd" d="M1.44162 0.0654297H112.011C112.356 0.0654297 112.635 0.343864 112.635 0.689691V111.441C112.635 111.787 112.356 112.065 112.011 112.065H1.44162C1.09579 112.065 0.817383 111.787 0.817383 111.441V0.689691C0.817383 0.343864 1.09579 0.0654297 1.44162 0.0654297Z" fill="#007DBC"/>
<path d="M41.3796 19.3496H37.3486V9.90643H38.7017V17.9965H41.3796V19.3496Z" fill="white"/>
<path d="M41.8188 19.3496V9.90643H43.1578V19.3496H41.8188Z" fill="white"/>
<path d="M44.3041 19.3496V9.90643H48.335V11.1749H45.643V14.0079H47.9968V15.2763H45.643V19.3496H44.3041Z" fill="white"/>
<path d="M52.8422 17.9965V19.3496H48.7971V9.90643H52.8422V11.1467H50.1361V13.9374H52.5039V15.22H50.1361V17.9965H52.8422Z" fill="white"/>
<path d="M39.5613 22.9286C39.8526 22.9286 40.1251 22.9897 40.3788 23.1119C40.6607 23.2434 40.9473 23.4549 41.2386 23.7461C41.5486 24.0468 41.7037 24.5166 41.7037 25.1555V25.8744C41.7037 26.5979 41.4171 27.1053 40.8439 27.3966C41.4171 27.7348 41.7037 28.261 41.7037 28.9751V30.0744C41.7037 30.7416 41.4876 31.2913 41.0553 31.7235C40.6325 32.1557 40.0875 32.3718 39.4204 32.3718H37.3345V22.9286H39.5613ZM40.3647 25.7334V25.1555C40.3647 24.8643 40.2802 24.6341 40.111 24.4649C39.9419 24.2864 39.7164 24.1971 39.4345 24.1971H38.6734V26.8046H39.4768C39.7869 26.8046 40.0124 26.7106 40.1533 26.5227C40.2943 26.3254 40.3647 26.0623 40.3647 25.7334ZM40.3647 30.0744V28.9751C40.3647 28.6744 40.2802 28.4395 40.111 28.2704C39.9513 28.0919 39.7258 28.0026 39.4345 28.0026H38.6734V31.0329H39.4486C39.7211 31.0329 39.9419 30.9436 40.111 30.7651C40.2802 30.5771 40.3647 30.3469 40.3647 30.0744Z" fill="white"/>
<path d="M47.0778 31.0188V32.3718H43.0327V22.9286H47.0778V24.169H44.3717V26.9596H46.7395V28.2422H44.3717V31.0188H47.0778Z" fill="white"/>
<path d="M51.6534 32.3718H47.6224V22.9286H48.9755V31.0188H51.6534V32.3718Z" fill="white"/>
<path d="M52.2093 23.8167C52.4254 23.5161 52.6979 23.2811 53.0267 23.112C53.365 22.9335 53.7127 22.8442 54.0697 22.8442C54.4174 22.8442 54.7415 22.9147 55.0422 23.0556C55.3523 23.1966 55.6107 23.3892 55.8174 23.6335C56.0241 23.8778 56.1651 24.1315 56.2402 24.3946C56.3154 24.6483 56.353 24.9255 56.353 25.2261V30.0323C56.353 30.3142 56.3248 30.5632 56.2684 30.7793C56.2214 30.9954 56.1087 31.235 55.9302 31.4981C55.761 31.7612 55.512 31.9867 55.1832 32.1746C54.8637 32.3626 54.5066 32.4565 54.112 32.4565C53.8865 32.4565 53.6704 32.4283 53.4637 32.372C53.2569 32.3062 53.0643 32.2216 52.8858 32.1183C52.7073 32.0149 52.5475 31.8975 52.4066 31.7659C52.275 31.6344 52.1717 31.4981 52.0965 31.3571C51.9556 31.0659 51.871 30.831 51.8428 30.6525C51.8146 30.4739 51.8005 30.2672 51.8005 30.0323V25.2261C51.8005 24.9443 51.8287 24.6953 51.8851 24.4792C51.9509 24.2536 52.0589 24.0328 52.2093 23.8167ZM54.8308 24.5637C54.6523 24.3006 54.408 24.1691 54.0979 24.1691C53.9382 24.1691 53.7784 24.2161 53.6187 24.31C53.4683 24.3946 53.3603 24.4933 53.2945 24.606C53.2382 24.7188 53.2006 24.8315 53.1818 24.9443C53.163 25.057 53.1536 25.151 53.1536 25.2261V30.0323C53.1536 30.0793 53.1536 30.1309 53.1536 30.1873C53.1536 30.2343 53.1583 30.286 53.1677 30.3424C53.1771 30.4363 53.2523 30.5914 53.3932 30.8075C53.5342 31.0048 53.7691 31.1034 54.0979 31.1034C54.2671 31.1034 54.4174 31.0659 54.549 30.9907C54.6899 30.9062 54.7886 30.8122 54.8449 30.7088C54.9107 30.5961 54.953 30.4927 54.9718 30.3988C54.9906 30.3048 55 30.1826 55 30.0323V25.2261C55 25.0382 54.9906 24.9067 54.9718 24.8315C54.9624 24.7563 54.9154 24.6671 54.8309 24.5637H54.8308Z" fill="white"/>
<path d="M61.8794 32.3718L60.766 26.6214L59.6807 32.3718H58.4264L57.0592 22.9286H58.4968L59.1734 28.6368L60.2586 22.9286H61.2593L62.3728 28.6368L63.0493 22.9286H64.4728L63.1479 32.3718H61.8794Z" fill="white"/>
<path d="M71.0513 32.3718L69.9379 26.6214L68.8526 32.3718H67.5982L66.2311 22.9286H67.6687L68.3452 28.6368L69.4305 22.9286H70.4312L71.5446 28.6368L72.2211 22.9286H73.6447L72.3198 32.3718H71.0513Z" fill="white"/>
<path d="M73.3436 32.3718L75.4578 22.9286H76.6276L78.7417 32.3718H77.29L76.9095 30.3422H75.1618L74.7672 32.3718H73.3436ZM75.4014 29.0879H76.6699L76.0356 25.6488L75.4014 29.0879Z" fill="white"/>
<path d="M79.8704 32.3718V24.183H78.2777V22.9286H82.8302V24.183H81.2093V32.3718H79.8704Z" fill="white"/>
<path d="M87.6191 31.0188V32.3718H83.5741V22.9286H87.6191V24.169H84.913V26.9596H87.2809V28.2422H84.913V31.0188H87.6191Z" fill="white"/>
<path d="M88.1355 32.3718V22.9286H90.5033C91.1235 22.9286 91.645 23.1448 92.0678 23.577C92.5 24.0092 92.7161 24.5401 92.7161 25.1697V26.0435C92.7161 26.9174 92.345 27.5845 91.6027 28.0449L93.0403 32.3718H91.6027L90.3342 28.3268H89.4886V32.3718H88.1355ZM91.1376 26.8328C91.2222 26.7294 91.2785 26.612 91.3067 26.4804C91.3443 26.3489 91.3631 26.2032 91.3631 26.0435V25.1697C91.3631 24.8784 91.2833 24.6434 91.1235 24.4649C90.9638 24.277 90.7383 24.183 90.447 24.183H89.4886V27.1288H90.4329C90.7148 27.1288 90.9497 27.0301 91.1376 26.8328H91.1376Z" fill="white"/>
<path d="M11.881 32.4894V13.2658L8.64331 15.6941V12.2541L11.881 9.89325H15.0849V32.4894H11.881Z" fill="white"/>
<path d="M23.6274 32.4893V29.0494H17.1858V26.014L21.8737 9.89319H25.2799L20.4572 26.014H23.6274V19.5725H26.865V26.014H28.4501V29.0494H26.865V32.4893H23.6274Z" fill="white"/>
<path d="M63.2536 68.8127C55.626 68.99 48.1474 73.0185 40.726 78.5221C37.4583 72.9095 33.1495 68.9161 26.2871 68.8953C32.8459 78.6586 31.5293 87.3549 26.2871 95.5181C33.1495 95.4973 37.4583 91.5039 40.726 85.8913C55.5688 96.8986 70.6396 102.003 86.6749 82.2074C78.6572 72.3096 70.8812 68.6354 63.2536 68.8127ZM70.6389 76.5136C71.1194 76.5135 71.5952 76.6081 72.0392 76.7919C72.4831 76.9757 72.8865 77.2452 73.2262 77.585C73.566 77.9248 73.8355 78.3282 74.0194 78.7721C74.2032 79.216 74.2977 79.6918 74.2977 80.1723C74.2975 81.1425 73.9119 82.0729 73.2257 82.7587C72.5396 83.4446 71.6091 83.8298 70.6389 83.8296C69.669 83.8294 68.7389 83.444 68.0531 82.7582C67.3672 82.0724 66.9818 81.1422 66.9816 80.1723C66.9814 79.2022 67.3667 78.2717 68.0525 77.5855C68.7384 76.8994 69.6687 76.5138 70.6389 76.5136ZM86.1114 56.0735L86.3746 59.0817C80.6809 62.9993 76.4521 61.4429 72.6499 58.2921C67.9514 61.7587 62.7777 62.7903 56.4811 58.0664C51.8345 60.9111 47.0775 63.3937 39.9738 58.1793C36.2668 61.0706 32.5468 63.9186 26.5875 59.2697L26.4371 56.1111C31.9131 59.3179 36.2216 57.4894 40.3123 54.2311C45.7395 57.9036 51.1034 58.9805 56.3307 54.4566C62.3932 60.0152 67.4861 57.6392 72.4619 54.3063C76.1078 56.641 79.4664 59.6334 86.1114 56.0735ZM86.1114 46.8235L86.3746 49.8316C80.6809 53.7493 76.4521 52.1928 72.6499 49.042C67.9514 52.5086 62.7777 53.5402 56.4811 48.8163C51.8345 51.661 47.0775 54.1436 39.9738 48.9292C36.2668 51.8205 32.5468 54.6685 26.5875 50.0196L26.4371 46.8611C31.9131 50.0678 36.2216 48.2393 40.3123 44.981C45.7395 48.6535 51.1034 49.7304 56.3307 45.2066C62.3932 50.7651 67.4861 48.3891 72.4619 45.0562C76.1078 47.3909 79.4664 50.3834 86.1114 46.8235Z" fill="white"/>
</g>
<defs>
<clipPath id="clip0">
<rect x="0.817383" y="0.0654297" width="111.817" height="112" rx="6" fill="white"/>
</clipPath>
</defs>
</svg>
