<svg width="113" height="113" viewBox="0 0 113 113" fill="none" xmlns="http://www.w3.org/2000/svg">
<g clip-path="url(#clip0)">
<path fill-rule="evenodd" clip-rule="evenodd" d="M1.259 0.0654297H111.828C112.174 0.0654297 112.452 0.343833 112.452 0.689668V111.441C112.452 111.787 112.174 112.065 111.828 112.065H1.259C0.913176 112.065 0.634766 111.787 0.634766 111.441V0.689668C0.634766 0.343833 0.913176 0.0654297 1.259 0.0654297Z" fill="#F36D25"/>
<path d="M27.569 19.1186V9.67542H28.9079V19.1186H27.569Z" fill="white"/>
<path d="M32.8943 19.1186L30.7942 13.3822V19.1186H29.4412V9.67542H30.7237L32.8097 15.3977V9.67542H34.1627V19.1186H32.8943Z" fill="white"/>
<path d="M36.9707 9.67542C37.5815 9.67542 38.1029 9.89151 38.5352 10.3237C38.9768 10.7466 39.1976 11.2634 39.1976 11.8741V16.7789C39.1976 17.4742 38.9862 18.038 38.5633 18.4702C38.1405 18.9024 37.5956 19.1186 36.9284 19.1186H34.8284V9.67542H36.9707ZM37.8586 16.7789V11.8741C37.8586 11.611 37.76 11.3902 37.5627 11.2117C37.3747 11.0331 37.1445 10.9439 36.872 10.9439H36.1673V17.8642H36.8298C37.5157 17.8642 37.8586 17.5024 37.8586 16.7789Z" fill="white"/>
<path d="M44.0607 18.132C43.854 18.4514 43.5862 18.7098 43.2574 18.9071C42.9379 19.1045 42.5808 19.2031 42.1862 19.2031C41.9889 19.2031 41.7916 19.1749 41.5943 19.1186C41.4063 19.0622 41.2278 18.9917 41.0587 18.9071C40.8895 18.8132 40.7392 18.7098 40.6077 18.5971C40.4761 18.4749 40.3774 18.3481 40.3117 18.2165C40.1707 17.9534 40.0768 17.7232 40.0298 17.5259C39.9922 17.3286 39.9734 17.1172 39.9734 16.8917V9.67542H41.3265V16.8917C41.3265 16.9574 41.3265 17.0185 41.3265 17.0749C41.3359 17.1219 41.3453 17.1688 41.3546 17.2158C41.364 17.291 41.4345 17.4225 41.566 17.6105C41.6882 17.7796 41.8996 17.8642 42.2003 17.8642C42.4728 17.8642 42.6748 17.7655 42.8063 17.5682C42.9473 17.3615 43.0177 17.136 43.0177 16.8917V9.67542H44.3708V16.8917C44.3708 17.1172 44.3473 17.3333 44.3003 17.54C44.2534 17.7467 44.1735 17.944 44.0607 18.132H44.0607Z" fill="white"/>
<path d="M46.2616 16.7648C46.2616 16.8587 46.2616 16.9386 46.2616 17.0043C46.2616 17.0701 46.2663 17.1265 46.2757 17.1735C46.2945 17.2675 46.3649 17.4037 46.4871 17.5822C46.6187 17.7701 46.8536 17.8641 47.1918 17.8641C47.3797 17.8641 47.5536 17.8265 47.7133 17.7514C47.873 17.6668 47.9905 17.5587 48.0657 17.4272C48.1221 17.3238 48.1549 17.2252 48.1643 17.1312C48.1831 17.0373 48.1925 16.9527 48.1925 16.8775V16.7507V16.0882V15.9614C48.1925 15.7547 48.1549 15.5949 48.0797 15.4822C48.0046 15.36 47.8354 15.2238 47.5723 15.0734C47.3938 14.9795 47.0743 14.8479 46.6139 14.6788C46.1535 14.5097 45.7683 14.2419 45.4582 13.8754C45.1481 13.509 44.9931 13.011 44.9931 12.3814V11.9586C44.9931 11.3103 45.2092 10.7559 45.6414 10.2955C46.083 9.82569 46.6186 9.59079 47.2482 9.59079C47.9059 9.59079 48.4509 9.82098 48.8831 10.2814C49.3247 10.7418 49.5455 11.3009 49.5455 11.9586V12.3814H48.1925V11.9586C48.1925 11.8928 48.1878 11.8318 48.1784 11.7754C48.1784 11.719 48.1737 11.6673 48.1642 11.6204C48.1548 11.5734 48.1314 11.517 48.0938 11.4512C48.0562 11.3854 48.0045 11.3056 47.9388 11.2116C47.8072 11.0237 47.5864 10.9297 47.2763 10.9297C47.0038 10.9297 46.7783 11.0284 46.5998 11.2257C46.4307 11.423 46.3461 11.6673 46.3461 11.9586V12.3814V12.5083C46.3461 12.6962 46.3743 12.8465 46.4307 12.9593C46.4965 13.0627 46.6468 13.1801 46.8817 13.3117C46.9569 13.3493 47.0696 13.401 47.22 13.4667C47.3797 13.5231 47.5723 13.5936 47.7978 13.6781C48.2488 13.8285 48.6529 14.0963 49.0099 14.4815C49.367 14.8667 49.5455 15.3741 49.5455 16.0037V16.7648C49.5455 17.0936 49.5126 17.3708 49.4469 17.5963C49.3905 17.8218 49.1979 18.1507 48.869 18.5829C48.5401 18.9964 47.9904 19.2031 47.22 19.2031C46.4025 19.2031 45.8105 18.94 45.4441 18.4138C45.0776 17.8782 44.8944 17.3285 44.8944 16.7648V16.4265H46.2615L46.2616 16.7648Z" fill="white"/>
<path d="M50.9531 19.1186V10.9298H49.3605V9.67542H53.9129V10.9298H52.2921V19.1186H50.9531Z" fill="white"/>
<path d="M54.191 19.1186V9.67542H56.5589C57.179 9.67542 57.7005 9.89151 58.1233 10.3237C58.5556 10.756 58.7717 11.2868 58.7717 11.9164V12.7902C58.7717 13.6641 58.4005 14.3312 57.6582 14.7916L59.0958 19.1186H57.6582L56.3897 15.0735H55.5441V19.1186H54.191ZM57.1931 13.5795C57.2777 13.4762 57.3341 13.3587 57.3623 13.2272C57.3999 13.0956 57.4186 12.95 57.4186 12.7902V11.9164C57.4186 11.6251 57.3388 11.3902 57.179 11.2117C57.0193 11.0237 56.7938 10.9298 56.5025 10.9298H55.5441V13.8755H56.4884C56.7703 13.8755 57.0052 13.7768 57.1932 13.5795H57.1931Z" fill="white"/>
<path d="M60.4066 19.1186V15.0594L58.5743 9.67542H59.9838L61.0831 13.3681L62.1966 9.67542H63.6201L61.7455 15.0594V19.1186H60.4066Z" fill="white"/>
<path d="M62.797 20.1192V17.7796H64.15V19.1185L62.797 20.1192Z" fill="white"/>
<path d="M66.2031 19.1186V9.67542H67.5421V19.1186H66.2031Z" fill="white"/>
<path d="M71.6885 19.1186L69.5884 13.3822V19.1186H68.2354V9.67542H69.5179L71.6039 15.3977V9.67542H72.9569V19.1186H71.6885Z" fill="white"/>
<path d="M76.7872 19.1186L74.6871 13.3822V19.1186H73.3341V9.67542H74.6167L76.7026 15.3977V9.67542H78.0557V19.1186H76.7872Z" fill="white"/>
<path d="M78.8798 10.5633C79.0959 10.2626 79.3684 10.0277 79.6973 9.85856C80.0355 9.68004 80.3832 9.59079 80.7403 9.59079C81.0879 9.59079 81.4121 9.66126 81.7128 9.8022C82.0228 9.94315 82.2812 10.1358 82.4879 10.3801C82.6947 10.6244 82.8356 10.878 82.9108 11.1411C82.9859 11.3948 83.0235 11.672 83.0235 11.9727V16.7789C83.0235 17.0607 82.9953 17.3097 82.9389 17.5258C82.892 17.742 82.7792 17.9816 82.6007 18.2446C82.4316 18.5077 82.1826 18.7333 81.8537 18.9212C81.5342 19.1091 81.1772 19.2031 80.7825 19.2031C80.557 19.2031 80.3409 19.1749 80.1342 19.1185C79.9275 19.0527 79.7349 18.9682 79.5563 18.8648C79.3778 18.7614 79.2181 18.644 79.0771 18.5124C78.9456 18.3809 78.8422 18.2447 78.767 18.1037C78.6261 17.8124 78.5415 17.5775 78.5134 17.399C78.4852 17.2205 78.4711 17.0138 78.4711 16.7789V11.9727C78.4711 11.6908 78.4993 11.4418 78.5556 11.2257C78.6214 11.0002 78.7295 10.7794 78.8798 10.5633ZM81.5013 11.3103C81.3228 11.0472 81.0785 10.9156 80.7684 10.9156C80.6087 10.9156 80.449 10.9626 80.2892 11.0566C80.1389 11.1411 80.0308 11.2398 79.9651 11.3526C79.9087 11.4653 79.8711 11.5781 79.8523 11.6908C79.8335 11.8036 79.8241 11.8975 79.8241 11.9727V16.7789C79.8241 16.8258 79.8241 16.8775 79.8241 16.9339C79.8241 16.9808 79.8288 17.0325 79.8383 17.0889C79.8477 17.1829 79.9229 17.3379 80.0638 17.554C80.2047 17.7514 80.4396 17.85 80.7685 17.85C80.9376 17.85 81.088 17.8124 81.2195 17.7373C81.3605 17.6527 81.4591 17.5587 81.5155 17.4554C81.5813 17.3426 81.6235 17.2393 81.6423 17.1453C81.6611 17.0513 81.6705 16.9292 81.6705 16.7789V11.9727C81.6705 11.7848 81.6611 11.6532 81.6423 11.5781C81.6329 11.5029 81.5859 11.4136 81.5014 11.3103H81.5013Z" fill="white"/>
<path d="M85.1132 19.1186L83.1823 9.67542H84.5917L85.691 16.2292L86.8045 9.67542H88.2421L86.2689 19.1186H85.1132Z" fill="white"/>
<path d="M87.6577 19.1186L89.7718 9.67542H90.9417L93.0558 19.1186H91.6041L91.2236 17.089H89.4759L89.0812 19.1186H87.6577ZM89.7155 15.8346H90.984L90.3497 12.3956L89.7155 15.8346Z" fill="white"/>
<path d="M93.9628 19.1186V10.9298H92.3701V9.67542H96.9226V10.9298H95.3017V19.1186H93.9628Z" fill="white"/>
<path d="M97.1758 19.1186V9.67542H98.5147V19.1186H97.1758Z" fill="white"/>
<path d="M99.5179 10.5633C99.734 10.2626 100.006 10.0277 100.335 9.85856C100.674 9.68004 101.021 9.59079 101.378 9.59079C101.726 9.59079 102.05 9.66126 102.351 9.8022C102.661 9.94315 102.919 10.1358 103.126 10.3801C103.333 10.6244 103.474 10.878 103.549 11.1411C103.624 11.3948 103.662 11.672 103.662 11.9727V16.7789C103.662 17.0607 103.633 17.3097 103.577 17.5258C103.53 17.742 103.417 17.9816 103.239 18.2446C103.07 18.5077 102.821 18.7333 102.492 18.9212C102.172 19.1091 101.815 19.2031 101.421 19.2031C101.195 19.2031 100.979 19.1749 100.772 19.1185C100.566 19.0527 100.373 18.9682 100.194 18.8648C100.016 18.7614 99.8561 18.644 99.7152 18.5124C99.5836 18.3809 99.4803 18.2447 99.4051 18.1037C99.2642 17.8124 99.1796 17.5775 99.1514 17.399C99.1232 17.2205 99.1091 17.0138 99.1091 16.7789V11.9727C99.1091 11.6908 99.1373 11.4418 99.1937 11.2257C99.2595 11.0002 99.3675 10.7794 99.5179 10.5633ZM102.139 11.3103C101.961 11.0472 101.717 10.9156 101.406 10.9156C101.247 10.9156 101.087 10.9626 100.927 11.0566C100.777 11.1411 100.669 11.2398 100.603 11.3526C100.547 11.4653 100.509 11.5781 100.49 11.6908C100.472 11.8036 100.462 11.8975 100.462 11.9727V16.7789C100.462 16.8258 100.462 16.8775 100.462 16.9339C100.462 16.9808 100.467 17.0325 100.476 17.0889C100.486 17.1829 100.561 17.3379 100.702 17.554C100.843 17.7514 101.078 17.85 101.407 17.85C101.576 17.85 101.726 17.8124 101.858 17.7373C101.999 17.6527 102.097 17.5587 102.154 17.4554C102.219 17.3426 102.262 17.2393 102.28 17.1453C102.299 17.0513 102.309 16.9292 102.309 16.7789V11.9727C102.309 11.7848 102.299 11.6532 102.28 11.5781C102.271 11.5029 102.224 11.4136 102.139 11.3103H102.139Z" fill="white"/>
<path d="M107.922 19.1186L105.822 13.3822V19.1186H104.469V9.67542H105.751L107.837 15.3977V9.67542H109.19V19.1186H107.922Z" fill="white"/>
<path d="M27.1239 32.1408L29.2381 22.6976H30.4079L32.522 32.1408H31.0703L30.6897 30.1112H28.9421L28.5474 32.1408H27.1239ZM29.1817 28.8568H30.4501L29.8159 25.4178L29.1817 28.8568Z" fill="white"/>
<path d="M36.0706 32.1408L33.9706 26.4044V32.1408H32.6176V22.6976H33.9001L35.9861 28.4199V22.6976H37.3391V32.1408H36.0706Z" fill="white"/>
<path d="M40.178 22.6976C40.7887 22.6976 41.3102 22.9137 41.7424 23.346C42.1841 23.7688 42.4049 24.2856 42.4049 24.8964V29.8012C42.4049 30.4965 42.1934 31.0602 41.7706 31.4925C41.3478 31.9247 40.8028 32.1408 40.1357 32.1408H38.0356V22.6976H40.178ZM41.0659 29.8012V24.8964C41.0659 24.6333 40.9673 24.4124 40.7699 24.2339C40.582 24.0554 40.3518 23.9661 40.0793 23.9661H39.3746V30.8864H40.037C40.7229 30.8864 41.0659 30.5247 41.0659 29.8012Z" fill="white"/>
<path d="M44.3502 32.1408V22.6976H45.6892V32.1408H44.3502Z" fill="white"/>
<path d="M49.7899 32.1408L47.6898 26.4044V32.1408H46.3368V22.6976H47.6194L49.7053 28.4199V22.6976H51.0584V32.1408H49.7899Z" fill="white"/>
<path d="M51.4812 32.1408V22.6976H55.5122V23.9661H52.8201V26.7991H55.1739V28.0675H52.8201V32.1408H51.4812Z" fill="white"/>
<path d="M55.7117 32.1408V22.6976H58.0795C58.6996 22.6976 59.2211 22.9137 59.644 23.346C60.0762 23.7782 60.2923 24.3091 60.2923 24.9386V25.8125C60.2923 26.6863 59.9211 27.3534 59.1788 27.8138L60.6165 32.1408H59.1788L57.9104 28.0957H57.0647V32.1408H55.7117ZM58.7137 26.6018C58.7983 26.4984 58.8547 26.3809 58.8829 26.2494C58.9205 26.1178 58.9393 25.9722 58.9393 25.8125V24.9386C58.9393 24.6474 58.8594 24.4124 58.6997 24.2339C58.5399 24.046 58.3144 23.952 58.0231 23.952H57.0647V26.8977H58.0091C58.2909 26.8977 58.5258 26.7991 58.7138 26.6018H58.7137Z" fill="white"/>
<path d="M60.4323 32.1408L62.5464 22.6976H63.7162L65.8304 32.1408H64.3787L63.9981 30.1112H62.2504L61.8558 32.1408H60.4323ZM62.49 28.8568H63.7585L63.1243 25.4178L62.49 28.8568Z" fill="white"/>
<path d="M66.9265 29.7871C66.9265 29.881 66.9265 29.9609 66.9265 30.0267C66.9265 30.0925 66.9312 30.1489 66.9406 30.1958C66.9594 30.2898 67.0299 30.426 67.152 30.6046C67.2836 30.7925 67.5185 30.8864 67.8567 30.8864C68.0447 30.8864 68.2185 30.8489 68.3782 30.7737C68.538 30.6891 68.6554 30.5811 68.7306 30.4495C68.787 30.3462 68.8199 30.2475 68.8293 30.1535C68.848 30.0596 68.8574 29.975 68.8574 29.8999V29.773V29.1106V28.9837C68.8574 28.777 68.8198 28.6173 68.7447 28.5045C68.6695 28.3824 68.5003 28.2461 68.2373 28.0958C68.0587 28.0018 67.7393 27.8703 67.2789 27.7011C66.8184 27.532 66.4332 27.2642 66.1231 26.8978C65.8131 26.5313 65.658 26.0333 65.658 25.4038V24.9809C65.658 24.3326 65.8741 23.7782 66.3064 23.3178C66.748 22.848 67.2836 22.6131 67.9131 22.6131C68.5708 22.6131 69.1158 22.8433 69.548 23.3037C69.9897 23.7641 70.2105 24.3232 70.2105 24.9809V25.4038H68.8574V24.9809C68.8574 24.9152 68.8527 24.8541 68.8433 24.7977C68.8433 24.7413 68.8386 24.6897 68.8292 24.6427C68.8198 24.5957 68.7963 24.5393 68.7587 24.4736C68.7211 24.4078 68.6694 24.3279 68.6037 24.2339C68.4721 24.046 68.2513 23.9521 67.9413 23.9521C67.6688 23.9521 67.4433 24.0507 67.2647 24.248C67.0956 24.4454 67.011 24.6897 67.011 24.9809V25.4038V25.5306C67.011 25.7185 67.0392 25.8689 67.0956 25.9817C67.1614 26.085 67.3117 26.2024 67.5466 26.334C67.6218 26.3716 67.7345 26.4233 67.8849 26.489C68.0446 26.5454 68.2372 26.6159 68.4627 26.7005C68.9138 26.8508 69.3178 27.1186 69.6748 27.5038C70.0319 27.8891 70.2104 28.3965 70.2104 29.026V29.7871C70.2104 30.1159 70.1775 30.3931 70.1118 30.6187C70.0554 30.8442 69.8628 31.173 69.5339 31.6053C69.205 32.0187 68.6554 32.2254 67.8849 32.2254C67.0674 32.2254 66.4755 31.9623 66.109 31.4361C65.7425 30.9005 65.5593 30.3509 65.5593 29.7871V29.4488H66.9265L66.9265 29.7871Z" fill="white"/>
<path d="M71.5766 32.1408V23.952H69.984V22.6976H74.5365V23.952H72.9156V32.1408H71.5766Z" fill="white"/>
<path d="M74.7754 32.1408V22.6976H77.1432C77.7634 22.6976 78.2849 22.9137 78.7077 23.346C79.1399 23.7782 79.356 24.3091 79.356 24.9386V25.8125C79.356 26.6863 78.9849 27.3534 78.2426 27.8138L79.6802 32.1408H78.2426L76.9741 28.0957H76.1285V32.1408H74.7754ZM77.7775 26.6018C77.862 26.4984 77.9184 26.3809 77.9466 26.2494C77.9842 26.1178 78.003 25.9722 78.003 25.8125V24.9386C78.003 24.6474 77.9231 24.4124 77.7634 24.2339C77.6037 24.046 77.3782 23.952 77.0869 23.952H76.1285V26.8977H77.0728C77.3547 26.8977 77.5896 26.7991 77.7775 26.6018H77.7775Z" fill="white"/>
<path d="M83.7546 31.1542C83.5479 31.4737 83.2801 31.7321 82.9512 31.9294C82.6318 32.1267 82.2747 32.2254 81.8801 32.2254C81.6827 32.2254 81.4854 32.1972 81.2881 32.1408C81.1002 32.0844 80.9216 32.014 80.7525 31.9294C80.5834 31.8354 80.433 31.7321 80.3015 31.6193C80.17 31.4972 80.0713 31.3703 80.0055 31.2388C79.8646 30.9757 79.7706 30.7455 79.7236 30.5481C79.686 30.3508 79.6672 30.1394 79.6672 29.9139V22.6976H81.0203V29.9139C81.0203 29.9797 81.0203 30.0408 81.0203 30.0971C81.0297 30.1441 81.0391 30.1911 81.0484 30.2381C81.0579 30.3133 81.1283 30.4448 81.2599 30.6327C81.382 30.8018 81.5934 30.8864 81.8941 30.8864C82.1666 30.8864 82.3686 30.7877 82.5001 30.5904C82.6411 30.3837 82.7116 30.1582 82.7116 29.9139V22.6976H84.0646V29.9139C84.0646 30.1394 84.0411 30.3555 83.9942 30.5622C83.9472 30.769 83.8673 30.9663 83.7546 31.1542H83.7546Z" fill="white"/>
<path d="M89.1947 29.7589C89.1947 30.0596 89.1759 30.318 89.1383 30.5341C89.1101 30.7502 89.0162 30.9851 88.8564 31.2388C88.7719 31.3703 88.6638 31.4972 88.5323 31.6193C88.4101 31.7321 88.2692 31.8355 88.1094 31.9294C87.9591 32.014 87.7947 32.0845 87.6161 32.1408C87.4376 32.1972 87.2638 32.2254 87.0946 32.2254C86.6718 32.2254 86.2866 32.1361 85.9389 31.9576C85.6006 31.7791 85.3517 31.5536 85.1919 31.2811C85.0322 31.0086 84.9288 30.7549 84.8818 30.52C84.8442 30.2851 84.8254 30.0314 84.8254 29.7589V24.8964C84.8254 24.6333 84.8489 24.3984 84.8959 24.1917C84.9523 23.9755 85.065 23.7454 85.2342 23.5011C85.4033 23.2568 85.6429 23.05 85.953 22.8809C86.263 22.7024 86.5872 22.6131 86.9255 22.6131C87.5738 22.6131 88.1141 22.8292 88.5463 23.2614C88.9785 23.6843 89.1946 24.2293 89.1946 24.8964V25.4038H87.8557V24.8964C87.8557 24.6333 87.7805 24.4125 87.6302 24.2339C87.4893 24.0554 87.2778 23.9662 86.9959 23.9662C86.7328 23.9662 86.5261 24.0554 86.3758 24.2339C86.2349 24.4125 86.1644 24.6333 86.1644 24.8964V30.1253C86.1832 30.2663 86.2489 30.426 86.3617 30.6046C86.4932 30.7925 86.7094 30.8864 87.01 30.8864C87.3295 30.8864 87.5409 30.8019 87.6443 30.6327C87.7476 30.4636 87.8087 30.3415 87.8275 30.2663C87.8463 30.1817 87.8557 30.069 87.8557 29.928V29.4488H89.1946L89.1947 29.7589Z" fill="white"/>
<path d="M90.8983 32.1408V23.952H89.3057V22.6976H93.8581V23.952H92.2373V32.1408H90.8983Z" fill="white"/>
<path d="M98.153 31.1542C97.9463 31.4737 97.6785 31.7321 97.3496 31.9294C97.0302 32.1267 96.6731 32.2254 96.2785 32.2254C96.0812 32.2254 95.8839 32.1972 95.6865 32.1408C95.4986 32.0844 95.3201 32.014 95.1509 31.9294C94.9818 31.8354 94.8315 31.7321 94.6999 31.6193C94.5684 31.4972 94.4697 31.3703 94.404 31.2388C94.263 30.9757 94.169 30.7455 94.1221 30.5481C94.0845 30.3508 94.0657 30.1394 94.0657 29.9139V22.6976H95.4187V29.9139C95.4187 29.9797 95.4187 30.0408 95.4187 30.0971C95.4281 30.1441 95.4375 30.1911 95.4469 30.2381C95.4563 30.3133 95.5268 30.4448 95.6583 30.6327C95.7804 30.8018 95.9919 30.8864 96.2925 30.8864C96.565 30.8864 96.767 30.7877 96.8986 30.5904C97.0395 30.3837 97.11 30.1582 97.11 29.9139V22.6976H98.463V29.9139C98.463 30.1394 98.4396 30.3555 98.3926 30.5622C98.3456 30.769 98.2658 30.9663 98.153 31.1542H98.153Z" fill="white"/>
<path d="M99.1118 32.1408V22.6976H101.48C102.1 22.6976 102.621 22.9137 103.044 23.346C103.476 23.7782 103.692 24.3091 103.692 24.9386V25.8125C103.692 26.6863 103.321 27.3534 102.579 27.8138L104.017 32.1408H102.579L101.311 28.0957H100.465V32.1408H99.1118ZM102.114 26.6018C102.198 26.4984 102.255 26.3809 102.283 26.2494C102.321 26.1178 102.339 25.9722 102.339 25.8125V24.9386C102.339 24.6474 102.26 24.4124 102.1 24.2339C101.94 24.046 101.715 23.952 101.423 23.952H100.465V26.8977H101.409C101.691 26.8977 101.926 26.7991 102.114 26.6018Z" fill="white"/>
<path d="M108.14 30.7878V32.1408H104.095V22.6976H108.14V23.9379H105.434V26.7286H107.802V28.0112H105.434V30.7878H108.14Z" fill="white"/>
<path d="M12.1379 20.536C11.9805 20.2213 11.8794 19.929 11.8344 19.6592C11.8119 19.3669 11.8007 18.9397 11.8007 18.3776V13.7909C11.8007 13.2963 11.8793 12.8466 12.0367 12.4419C12.1267 12.2171 12.2616 11.9473 12.4414 11.6325C12.6438 11.3177 12.9023 10.9355 13.2171 10.4858C13.8467 9.60897 14.9708 9.17053 16.5897 9.17053C18.1186 9.17053 19.299 9.68765 20.1309 10.7219C21.0077 11.7337 21.4462 12.9028 21.4462 14.2294V17.9054C21.4462 18.7823 21.2663 19.6592 20.9066 20.536L16.6571 31.969H12.981L16.7583 22.4584C16.1737 22.5933 15.7241 22.6608 15.4093 22.6608C14.6898 22.6608 14.0265 22.4696 13.4195 22.0874C12.8349 21.6827 12.4077 21.1656 12.1379 20.536H12.1379ZM16.6909 12.3407C16.1513 12.3407 15.7466 12.5318 15.4768 12.9141C15.207 13.2738 15.0721 13.7122 15.0721 14.2294V17.9054C15.0721 18.4675 15.2182 18.9285 15.5105 19.2882C15.8028 19.6479 16.23 19.8278 16.7921 19.8278C17.2867 19.8278 17.6464 19.6592 17.8713 19.3219C18.1186 18.9622 18.2423 18.49 18.2423 17.9054V14.2294C18.2423 13.6673 18.1186 13.2176 17.8713 12.8803C17.6464 12.5206 17.253 12.3407 16.6909 12.3407Z" fill="white"/>
<path d="M71.9153 50.3638V66.206L58.1955 74.1271L44.4758 66.206V50.3639L58.1955 42.4428L71.9153 50.3638Z" stroke="white" stroke-width="2.6" stroke-linejoin="round"/>
<path d="M85.7413 74.1885V90.0306L72.0216 97.9517L58.3019 90.0306V74.1885L72.0216 66.2674L85.7413 74.1885Z" stroke="white" stroke-width="2.6" stroke-linejoin="round"/>
<path d="M58.1955 74.1273V89.9694L44.4758 97.8905L30.7561 89.9694V74.1273L44.4758 66.2062L58.1955 74.1273Z" stroke="white" stroke-width="2.6" stroke-linejoin="round"/>
<path d="M44.4296 98.0399V66.0566L58.0429 58.1969L85.7413 74.1886L58.3019 90.0307L44.4759 82.0482L44.4296 98.0399" stroke="white" stroke-width="2.6" stroke-linejoin="round"/>
<path d="M58.3019 58.0474V74.0658" stroke="white" stroke-width="2.6" stroke-linejoin="round"/>
<path d="M58.0813 58.1747L71.9536 50.1655L58.3019 42.2837L44.4296 50.2929L58.0813 58.1747Z" fill="white" stroke="white" stroke-width="2.6" stroke-linejoin="round"/>
<path d="M44.4296 82.0749L58.3019 74.0657L44.6502 66.1839L30.7778 74.1931L44.4296 82.0749Z" fill="white" stroke="white" stroke-width="2.6" stroke-linejoin="round"/>
<path d="M58.1492 89.9425L72.0215 97.9517V82.188L58.1492 74.1788V89.9425Z" fill="white" stroke="white" stroke-width="2.6" stroke-linejoin="round"/>
</g>
<defs>
<clipPath id="clip0">
<rect x="0.634766" y="0.0654297" width="111.817" height="112" rx="6" fill="white"/>
</clipPath>
</defs>
</svg>
