<svg width="112" height="112" viewBox="0 0 112 112" fill="none" xmlns="http://www.w3.org/2000/svg">
<g clip-path="url(#clip0)">
<path fill-rule="evenodd" clip-rule="evenodd" d="M0.71113 0H111.28C111.626 0 111.904 0.278411 111.904 0.624239V111.376C111.904 111.722 111.626 112 111.28 112H0.71113C0.365302 112 0.0869141 111.722 0.0869141 111.376V0.624239C0.0869141 0.278411 0.365302 0 0.71113 0Z" fill="#00AED9"/>
<path d="M37.1122 17.0621C37.1122 17.3628 37.0934 17.6212 37.0558 17.8373C37.0276 18.0534 36.9336 18.2883 36.7739 18.542C36.6893 18.6736 36.5813 18.8004 36.4497 18.9226C36.3276 19.0353 36.1866 19.1387 36.0269 19.2326C35.8766 19.3172 35.7121 19.3877 35.5336 19.444C35.3551 19.5004 35.1813 19.5286 35.0121 19.5286C34.5893 19.5286 34.204 19.4393 33.8564 19.2608C33.5181 19.0823 33.2691 18.8568 33.1094 18.5843C32.9497 18.3118 32.8463 18.0581 32.7993 17.8232C32.7617 17.5883 32.7429 17.3346 32.7429 17.0621V12.1996C32.7429 11.9365 32.7664 11.7016 32.8134 11.4949C32.8698 11.2788 32.9825 11.0486 33.1516 10.8043C33.3208 10.56 33.5604 10.3532 33.8704 10.1841C34.1805 10.0056 34.5047 9.91632 34.8429 9.91632C35.4913 9.91632 36.0316 10.1324 36.4638 10.5647C36.896 10.9875 37.1121 11.5325 37.1121 12.1996V12.707H35.7732V12.1996C35.7732 11.9365 35.698 11.7157 35.5477 11.5372C35.4067 11.3586 35.1953 11.2694 34.9134 11.2694C34.6503 11.2694 34.4436 11.3586 34.2933 11.5372C34.1523 11.7157 34.0819 11.9365 34.0819 12.1996V17.4286C34.1006 17.5695 34.1664 17.7292 34.2792 17.9078C34.4107 18.0957 34.6268 18.1897 34.9275 18.1897C35.247 18.1897 35.4584 18.1051 35.5617 17.936C35.6651 17.7668 35.7262 17.6447 35.745 17.5695C35.7637 17.4849 35.7731 17.3722 35.7731 17.2312V16.752H37.1121L37.1122 17.0621Z" fill="white"/>
<path d="M42.1098 19.4441H38.0789V10.0009H39.4319V18.091H42.1098V19.4441Z" fill="white"/>
<path d="M46.5878 18.091V19.4441H42.5427V10.0009H46.5878V11.2412H43.8817V14.0319H46.2495V15.3145H43.8817V18.091H46.5878Z" fill="white"/>
<path d="M46.8425 19.4441L48.9567 10.0009H50.1265L52.2406 19.4441H50.7889L50.4084 17.4145H48.6607L48.266 19.4441H46.8425ZM48.9003 16.1601H50.1688L49.5345 12.7211L48.9003 16.1601Z" fill="white"/>
<path d="M56.2756 19.4441L54.1756 13.7077V19.4441H52.8225V10.0009H54.105L56.191 15.7232V10.0009H57.5441V19.4441H56.2756Z" fill="white"/>
<path d="M64.3593 19.4441L63.2458 13.6936L62.1606 19.4441H60.9062L59.5391 10.0009H60.9767L61.6532 15.7091L62.7384 10.0009H63.7392L64.8526 15.7091L65.5291 10.0009H66.9526L65.6278 19.4441H64.3593Z" fill="white"/>
<path d="M66.6118 19.4441L68.7259 10.0009H69.8958L72.0099 19.4441H70.5582L70.1777 17.4145H68.43L68.0354 19.4441H66.6118ZM68.6696 16.1601H69.9381L69.3038 12.7211L68.6696 16.1601Z" fill="white"/>
<path d="M73.0367 19.4441V11.2553H71.4441V10.0009H75.9966V11.2553H74.3757V19.4441H73.0367Z" fill="white"/>
<path d="M80.819 18.091V19.4441H76.7739V10.0009H80.819V11.2412H78.1129V14.0319H80.4807V15.3145H78.1129V18.091H80.819Z" fill="white"/>
<path d="M81.5115 19.4441V10.0009H83.8793C84.4994 10.0009 85.021 10.2171 85.4438 10.6493C85.876 11.0815 86.0921 11.6124 86.0921 12.2419V13.1158C86.0921 13.9896 85.7209 14.6568 84.9786 15.1172L86.4163 19.4441H84.9786L83.7102 15.3991H82.8645V19.4441H81.5115ZM84.5136 13.9051C84.5981 13.8017 84.6545 13.6843 84.6827 13.5527C84.7203 13.4212 84.7391 13.2755 84.7391 13.1158V12.2419C84.7391 11.9507 84.6592 11.7158 84.4995 11.5372C84.3397 11.3493 84.1142 11.2553 83.8229 11.2553H82.8645V14.201H83.8088C84.0907 14.201 84.3256 14.1024 84.5136 13.9051Z" fill="white"/>
<path d="M32.429 32.4664L34.5431 23.0232H35.7129L37.8271 32.4664H36.3754L35.9948 30.4368H34.2471L33.8525 32.4664H32.429ZM34.4867 29.1824H35.7552L35.1209 25.7435L34.4867 29.1824Z" fill="white"/>
<path d="M41.862 32.4664L39.762 26.7301V32.4664H38.4089V23.0232H39.6915L41.7774 28.7455V23.0232H43.1305V32.4664H41.862Z" fill="white"/>
<path d="M46.1047 23.0232C46.7155 23.0232 47.2369 23.2394 47.6692 23.6716C48.1108 24.0944 48.3316 24.6112 48.3316 25.222V30.1268C48.3316 30.8221 48.1202 31.3858 47.6974 31.8181C47.2745 32.2503 46.7296 32.4664 46.0624 32.4664H43.9624V23.0232H46.1047ZM46.9926 30.1268V25.222C46.9926 24.9589 46.894 24.738 46.6967 24.5595C46.5088 24.381 46.2786 24.2917 46.0061 24.2917H45.3013V31.212H45.9638C46.6497 31.212 46.9926 30.8503 46.9926 30.1268Z" fill="white"/>
<path d="M52.2868 30.1126C52.2868 30.2066 52.2868 30.2865 52.2868 30.3522C52.2868 30.418 52.2916 30.4744 52.301 30.5214C52.3197 30.6153 52.3902 30.7516 52.5124 30.9301C52.6439 31.118 52.8788 31.212 53.2171 31.212C53.405 31.212 53.5788 31.1744 53.7386 31.0992C53.8983 31.0147 54.0158 30.9066 54.0909 30.7751C54.1473 30.6717 54.1802 30.573 54.1896 30.4791C54.2083 30.3851 54.2178 30.3005 54.2178 30.2254V30.0985V29.4361V29.3092C54.2178 29.1025 54.1802 28.9428 54.105 28.83C54.0298 28.7079 53.8607 28.5716 53.5976 28.4213C53.4191 28.3273 53.0996 28.1958 52.6392 28.0267C52.1788 27.8575 51.7936 27.5897 51.4835 27.2233C51.1734 26.8568 51.0183 26.3589 51.0183 25.7293V25.3065C51.0183 24.6581 51.2344 24.1038 51.6667 23.6434C52.1083 23.1735 52.6439 22.9386 53.2734 22.9386C53.9312 22.9386 54.4761 23.1688 54.9083 23.6293C55.35 24.0897 55.5708 24.6487 55.5708 25.3065V25.7293H54.2178V25.3065C54.2178 25.2407 54.213 25.1796 54.2036 25.1232C54.2036 25.0669 54.1989 25.0152 54.1895 24.9682C54.1801 24.9213 54.1566 24.8649 54.1191 24.7991C54.0815 24.7333 54.0298 24.6534 53.964 24.5595C53.8325 24.3715 53.6117 24.2776 53.3016 24.2776C53.0291 24.2776 52.8036 24.3763 52.6251 24.5736C52.456 24.7709 52.3714 25.0152 52.3714 25.3065V25.7293V25.8562C52.3714 26.0441 52.3996 26.1944 52.456 26.3072C52.5217 26.4105 52.672 26.528 52.9069 26.6595C52.9821 26.6971 53.0949 26.7488 53.2452 26.8146C53.4049 26.871 53.5976 26.9414 53.8231 27.026C54.2741 27.1763 54.6781 27.4441 55.0352 27.8294C55.3922 28.2146 55.5708 28.722 55.5708 29.3515V30.1126C55.5708 30.4415 55.5379 30.7187 55.4721 30.9442C55.4157 31.1697 55.2231 31.4986 54.8942 31.9308C54.5654 32.3442 54.0157 32.5509 53.2452 32.5509C52.4277 32.5509 51.8358 32.2878 51.4693 31.7617C51.1029 31.2261 50.9197 30.6764 50.9197 30.1126V29.7744H52.2868V30.1126Z" fill="white"/>
<path d="M55.8318 32.4664L57.9459 23.0232H59.1158L61.2299 32.4664H59.7782L59.3976 30.4368H57.65L57.2553 32.4664H55.8318ZM57.8896 29.1824H59.158L58.5238 25.7435L57.8896 29.1824Z" fill="white"/>
<path d="M65.3718 32.4664L63.2717 26.7301V32.4664H61.9187V23.0232H63.2013L65.2872 28.7455V23.0232H66.6403V32.4664H65.3718Z" fill="white"/>
<path d="M67.5254 32.4664V23.0232H68.8643V32.4664H67.5254Z" fill="white"/>
<path d="M71.205 32.4664V24.2776H69.6123V23.0232H74.1648V24.2776H72.5439V32.4664H71.205Z" fill="white"/>
<path d="M73.6897 32.4664L75.8039 23.0232H76.9737L79.0878 32.4664H77.6361L77.2556 30.4368H75.5079L75.1133 32.4664H73.6897ZM75.7475 29.1824H77.0159L76.3817 25.7435L75.7475 29.1824Z" fill="white"/>
<path d="M80.2748 32.4664V24.2776H78.6821V23.0232H83.2346V24.2776H81.6137V32.4664H80.2748Z" fill="white"/>
<path d="M83.9587 32.4664V23.0232H85.2977V32.4664H83.9587Z" fill="white"/>
<path d="M86.8098 23.9112C87.026 23.6105 87.2985 23.3756 87.6273 23.2064C87.9656 23.0279 88.3133 22.9386 88.6703 22.9386C89.018 22.9386 89.3421 23.0091 89.6428 23.15C89.9529 23.291 90.2113 23.4836 90.418 23.7279C90.6247 23.9722 90.7657 24.2259 90.8408 24.489C90.916 24.7427 90.9536 25.0199 90.9536 25.3206V30.1267C90.9536 30.4086 90.9254 30.6576 90.869 30.8737C90.8221 31.0898 90.7093 31.3294 90.5308 31.5925C90.3616 31.8556 90.1126 32.0811 89.7838 32.2691C89.4643 32.457 89.1072 32.5509 88.7126 32.5509C88.4871 32.5509 88.271 32.5227 88.0643 32.4664C87.8576 32.4006 87.6649 32.316 87.4864 32.2127C87.3079 32.1093 87.1481 31.9919 87.0072 31.8603C86.8756 31.7288 86.7723 31.5925 86.6971 31.4516C86.5562 31.1603 86.4716 30.9254 86.4434 30.7469C86.4152 30.5683 86.4011 30.3616 86.4011 30.1267V25.3206C86.4011 25.0387 86.4293 24.7897 86.4857 24.5736C86.5515 24.3481 86.6595 24.1273 86.8098 23.9112ZM89.4314 24.6581C89.2529 24.395 89.0086 24.2635 88.6985 24.2635C88.5387 24.2635 88.379 24.3105 88.2193 24.4044C88.069 24.489 87.9609 24.5877 87.8951 24.7004C87.8388 24.8132 87.8012 24.9259 87.7824 25.0387C87.7636 25.1514 87.7542 25.2454 87.7542 25.3206V30.1267C87.7542 30.1737 87.7542 30.2254 87.7542 30.2817C87.7542 30.3287 87.7589 30.3804 87.7683 30.4368C87.7777 30.5308 87.8529 30.6858 87.9939 30.9019C88.1348 31.0992 88.3697 31.1979 88.6985 31.1979C88.8677 31.1979 89.018 31.1603 89.1496 31.0851C89.2905 31.0006 89.3892 30.9066 89.4456 30.8032C89.5113 30.6905 89.5536 30.5871 89.5724 30.4932C89.5912 30.3992 89.6005 30.2771 89.6005 30.1267V25.3206C89.6005 25.1327 89.5912 25.0011 89.5724 24.9259C89.563 24.8508 89.516 24.7615 89.4315 24.6581H89.4314Z" fill="white"/>
<path d="M95.5478 32.4664L93.4478 26.7301V32.4664H92.0947V23.0232H93.3773L95.4632 28.7455V23.0232H96.8163V32.4664H95.5478Z" fill="white"/>
<path d="M21.5235 20.4686C21.7034 20.7834 21.8158 21.1094 21.8608 21.4466C21.9282 21.7839 21.962 22.1998 21.962 22.6945V27.0114C21.962 27.5285 21.9057 28.0456 21.7933 28.5627C21.6809 29.0574 21.3436 29.7544 20.7815 30.6537C20.197 31.5756 19.0953 32.1039 17.4764 32.2388C16.4647 32.2388 15.5429 32.0252 14.711 31.598C13.9015 31.1484 13.3282 30.62 12.9909 30.0129C12.6762 29.3834 12.4738 28.855 12.3839 28.4278C12.3164 28.0006 12.2827 27.5285 12.2827 27.0114V23.4702C12.2827 22.9755 12.2939 22.627 12.3164 22.4247C12.3389 22.1998 12.4177 21.9076 12.5525 21.5478L17.038 9.44034H20.6804L17.038 18.9172C17.4428 18.7598 17.9261 18.6811 18.4882 18.6811H18.7917C20.0284 18.861 20.9389 19.4568 21.5235 20.4686ZM18.4545 22.1886C18.1172 21.7389 17.6676 21.5141 17.1055 21.5141C16.6108 21.5141 16.2286 21.694 15.9588 22.0537C15.689 22.4134 15.5541 22.8856 15.5541 23.4702V27.0114C15.5541 27.4835 15.6665 27.9332 15.8913 28.3604C16.1386 28.7651 16.5546 28.9674 17.1392 28.9674H17.3415C17.9261 28.9674 18.3083 28.7651 18.4882 28.3604C18.6681 27.9557 18.758 27.506 18.758 27.0114V23.4702C18.758 23.1779 18.7355 22.9418 18.6906 22.7619C18.6681 22.5596 18.5894 22.3685 18.4545 22.1886H18.4545Z" fill="white"/>
<path d="M36.198 45.1504C35.6625 45.1504 35.1392 45.6205 35.2557 46.3287L41.8506 86.4274C41.9359 86.9465 42.2652 87.4287 42.7929 87.4287H50.8006L51.3904 93.9646H47.975L56.0712 102.062L64.1673 93.9646H60.7519L61.3418 87.4287H69.3494C69.8771 87.4287 70.2064 86.9465 70.2917 86.4274L76.8866 46.3287C77.0031 45.6205 76.4798 45.1504 75.9443 45.1504H36.198ZM37.4161 47.1486H74.7262L73.6246 53.8482C69.3001 53.3477 62.8162 58.8873 55.5314 55.227C46.5653 50.722 46.371 55.5783 38.7345 55.168L37.4161 47.1486ZM56.0417 61.1671C59.5621 67.2646 62.5672 69.6133 62.5672 73.739C62.5672 76.4964 60.827 80.0685 56.0417 80.0685C51.2563 80.0685 49.5161 76.4964 49.5161 73.739C49.5161 69.6133 52.5213 67.2646 56.0417 61.1671Z" fill="white"/>
</g>
<defs>
<clipPath id="clip0">
<rect x="0.0869141" width="111.817" height="112" rx="6" fill="white"/>
</clipPath>
</defs>
</svg>
