<svg width="112" height="113" viewBox="0 0 112 113" fill="none" xmlns="http://www.w3.org/2000/svg">
<g clip-path="url(#clip0)">
<path fill-rule="evenodd" clip-rule="evenodd" d="M0.624242 0.0654297H111.193C111.539 0.0654297 111.817 0.343833 111.817 0.689668V111.441C111.817 111.787 111.539 112.065 111.193 112.065H0.624242C0.278412 112.065 0 111.787 0 111.441V0.689668C0 0.343833 0.278412 0.0654297 0.624242 0.0654297Z" fill="#FDB713"/>
<path d="M31.6941 19.3765L33.8082 9.93338H34.9781L37.0922 19.3765H35.6405L35.2599 17.347H33.5122L33.1176 19.3765H31.6941ZM33.7519 16.0926H35.0203L34.3861 12.6536L33.7519 16.0926Z" fill="white"/>
<path d="M37.694 19.3765V9.93338H41.7249V11.2019H39.0329V14.0348H41.3867V15.3033H39.0329V19.3765H37.694Z" fill="white"/>
<path d="M42.3759 19.3765V9.93338H46.4068V11.2019H43.7148V14.0348H46.0686V15.3033H43.7148V19.3765H42.3759Z" fill="white"/>
<path d="M47.0206 10.8213C47.2367 10.5206 47.5092 10.2857 47.838 10.1166C48.1763 9.93802 48.5239 9.84875 48.881 9.84875C49.2287 9.84875 49.5528 9.91923 49.8535 10.0602C50.1636 10.2011 50.422 10.3937 50.6287 10.638C50.8354 10.8823 50.9763 11.136 51.0515 11.3991C51.1267 11.6528 51.1643 11.93 51.1643 12.2307V17.0368C51.1643 17.3187 51.1361 17.5677 51.0797 17.7838C51.0327 17.9999 50.92 18.2396 50.7414 18.5027C50.5723 18.7657 50.3233 18.9913 49.9944 19.1792C49.675 19.3671 49.3179 19.4611 48.9233 19.4611C48.6978 19.4611 48.4817 19.4329 48.2749 19.3765C48.0682 19.3107 47.8756 19.2261 47.6971 19.1228C47.5186 19.0194 47.3588 18.902 47.2179 18.7704C47.0863 18.6389 46.983 18.5026 46.9078 18.3617C46.7669 18.0704 46.6823 17.8355 46.6541 17.657C46.6259 17.4785 46.6118 17.2717 46.6118 17.0368V12.2307C46.6118 11.9488 46.64 11.6998 46.6964 11.4837C46.7622 11.2582 46.8702 11.0374 47.0206 10.8213ZM49.6421 11.5683C49.4636 11.3052 49.2193 11.1736 48.9092 11.1736C48.7495 11.1736 48.5897 11.2206 48.43 11.3146C48.2796 11.3991 48.1716 11.4978 48.1058 11.6105C48.0494 11.7233 48.0119 11.8361 47.9931 11.9488C47.9743 12.0616 47.9649 12.1555 47.9649 12.2307V17.0368C47.9649 17.0838 47.9649 17.1355 47.9649 17.1919C47.9649 17.2388 47.9696 17.2905 47.979 17.3469C47.9884 17.4409 48.0636 17.5959 48.2045 17.812C48.3455 18.0094 48.5804 18.108 48.9092 18.108C49.0784 18.108 49.2287 18.0704 49.3603 17.9952C49.5012 17.9107 49.5999 17.8167 49.6562 17.7134C49.722 17.6006 49.7643 17.4972 49.7831 17.4033C49.8019 17.3093 49.8112 17.1872 49.8112 17.0368V12.2307C49.8112 12.0428 49.8019 11.9112 49.7831 11.8361C49.7737 11.7609 49.7267 11.6716 49.6421 11.5683H49.6421Z" fill="white"/>
<path d="M52.3311 19.3765V9.93338H54.6989C55.319 9.93338 55.8405 10.1495 56.2634 10.5817C56.6956 11.0139 56.9117 11.5448 56.9117 12.1744V13.0482C56.9117 13.9221 56.5405 14.5892 55.7982 15.0496L57.2359 19.3765H55.7982L54.5298 15.3315H53.6841V19.3765H52.3311ZM55.3331 13.8375C55.4177 13.7341 55.4741 13.6167 55.5023 13.4851C55.5399 13.3536 55.5587 13.208 55.5587 13.0482V12.1744C55.5587 11.8831 55.4788 11.6482 55.3191 11.4697C55.1593 11.2817 54.9338 11.1878 54.6425 11.1878H53.6841V14.1335H54.6284C54.9103 14.1335 55.1452 14.0348 55.3332 13.8375H55.3331Z" fill="white"/>
<path d="M59.8893 9.93338C60.5 9.93338 61.0215 10.1495 61.4537 10.5817C61.8954 11.0045 62.1162 11.5213 62.1162 12.1321V17.0369C62.1162 17.7322 61.9048 18.296 61.4819 18.7282C61.0591 19.1604 60.5141 19.3765 59.847 19.3765H57.7469V9.93338H59.8893ZM60.7772 17.0369V12.1321C60.7772 11.869 60.6786 11.6482 60.4812 11.4697C60.2933 11.2911 60.0631 11.2019 59.7906 11.2019H59.0859V18.1222H59.7483C60.4343 18.1222 60.7772 17.7604 60.7772 17.0369Z" fill="white"/>
<path d="M62.754 19.3765L64.8682 9.93338H66.038L68.1521 19.3765H66.7004L66.3199 17.347H64.5722L64.1775 19.3765H62.754ZM64.8118 16.0926H66.0803L65.446 12.6536L64.8118 16.0926Z" fill="white"/>
<path d="M71.0676 9.93338C71.3589 9.93338 71.6314 9.99446 71.8851 10.1166C72.1669 10.2482 72.4535 10.4596 72.7448 10.7509C73.0549 11.0515 73.2099 11.5213 73.2099 12.1603V12.8791C73.2099 13.6026 72.9233 14.11 72.3502 14.4013C72.9233 14.7395 73.2099 15.2657 73.2099 15.9798V17.0792C73.2099 17.7463 72.9938 18.296 72.5616 18.7282C72.1388 19.1604 71.5938 19.3765 70.9267 19.3765H68.8407V9.93338H71.0676ZM71.871 12.7382V12.1603C71.871 11.869 71.7864 11.6388 71.6173 11.4697C71.4481 11.2911 71.2226 11.2019 70.9407 11.2019H70.1797V13.8093H70.983C71.2931 13.8093 71.5186 13.7154 71.6596 13.5274C71.8005 13.3301 71.871 13.067 71.871 12.7382ZM71.871 17.0792V15.9798C71.871 15.6792 71.7864 15.4442 71.6173 15.2751C71.4575 15.0966 71.232 15.0073 70.9407 15.0073H70.1797V18.0376H70.9548C71.2273 18.0376 71.4481 17.9483 71.6173 17.7698C71.7864 17.5819 71.871 17.3517 71.871 17.0792Z" fill="white"/>
<path d="M78.3236 19.3765H74.2926V9.93338H75.6456V18.0235H78.3236V19.3765Z" fill="white"/>
<path d="M82.781 18.0235V19.3765H78.736V9.93338H82.781V11.1737H80.0749V13.9644H82.4428V15.2469H80.0749V18.0235H82.781Z" fill="white"/>
<path d="M84.2448 19.3765L86.3589 9.93338H87.5287L89.6428 19.3765H88.1911L87.8106 17.347H86.0629L85.6683 19.3765H84.2448ZM86.3025 16.0926H87.571L86.9367 12.6536L86.3025 16.0926Z" fill="white"/>
<path d="M93.7846 19.3765L91.6846 13.6402V19.3765H90.3315V9.93338H91.6141L93.7001 15.6557V9.93338H95.0531V19.3765H93.7846Z" fill="white"/>
<path d="M98.1467 9.93338C98.7575 9.93338 99.279 10.1495 99.7112 10.5817C100.153 11.0045 100.374 11.5213 100.374 12.1321V17.0369C100.374 17.7322 100.162 18.296 99.7394 18.7282C99.3165 19.1604 98.7716 19.3765 98.1044 19.3765H96.0044V9.93338H98.1467ZM99.0347 17.0369V12.1321C99.0347 11.869 98.936 11.6482 98.7387 11.4697C98.5508 11.2911 98.3206 11.2019 98.0481 11.2019H97.3433V18.1222H98.0058C98.6917 18.1222 99.0347 17.7604 99.0347 17.0369Z" fill="white"/>
<path d="M36.6107 30.0169C36.6107 30.3175 36.5919 30.5759 36.5543 30.7921C36.5261 31.0082 36.4322 31.2431 36.2724 31.4968C36.1879 31.6283 36.0798 31.7552 35.9483 31.8773C35.8261 31.9901 35.6852 32.0934 35.5254 32.1874C35.3751 32.2719 35.2107 32.3424 35.0321 32.3988C34.8536 32.4552 34.6798 32.4834 34.5106 32.4834C34.0878 32.4834 33.7026 32.3941 33.3549 32.2156C33.0166 32.037 32.7676 31.8115 32.6079 31.539C32.4482 31.2666 32.3448 31.0129 32.2978 30.778C32.2602 30.543 32.2415 30.2894 32.2415 30.0169V25.1543C32.2415 24.8913 32.2649 24.6564 32.3119 24.4496C32.3683 24.2335 32.4811 24.0033 32.6502 23.759C32.8193 23.5147 33.0589 23.308 33.369 23.1389C33.6791 22.9603 34.0032 22.8711 34.3415 22.8711C34.9898 22.8711 35.5301 23.0872 35.9623 23.5194C36.3946 23.9422 36.6107 24.4872 36.6107 25.1543V25.6617H35.2717V25.1543C35.2717 24.8913 35.1965 24.6705 35.0462 24.4919C34.9053 24.3134 34.6939 24.2241 34.412 24.2241C34.1489 24.2241 33.9422 24.3134 33.7918 24.4919C33.6509 24.6705 33.5804 24.8913 33.5804 25.1543V30.3833C33.5992 30.5243 33.665 30.684 33.7777 30.8625C33.9093 31.0504 34.1254 31.1444 34.4261 31.1444C34.7455 31.1444 34.9569 31.0598 35.0603 30.8907C35.1637 30.7216 35.2247 30.5994 35.2435 30.5243C35.2623 30.4397 35.2717 30.3269 35.2717 30.186V29.7068H36.6107L36.6107 30.0169Z" fill="white"/>
<path d="M41.5612 32.3988H37.5303V22.9557H38.8833V31.0458H41.5612V32.3988Z" fill="white"/>
<path d="M45.9318 31.0458V32.3988H41.8867V22.9557H45.9318V24.196H43.2257V26.9866H45.5935V28.2692H43.2257V31.0458H45.9318Z" fill="white"/>
<path d="M46.106 32.3988L48.2201 22.9557H49.3899L51.5041 32.3988H50.0524L49.6718 30.3693H47.9241L47.5295 32.3988H46.106ZM48.1637 29.1149H49.4322L48.798 25.6759L48.1637 29.1149Z" fill="white"/>
<path d="M55.6458 32.3988L53.5458 26.6624V32.3988H52.1927V22.9557H53.4753L55.5613 28.6779V22.9557H56.9143V32.3988H55.6458Z" fill="white"/>
<path d="M63.287 31.0458V32.3988H59.2419V22.9557H63.287V24.196H60.5809V26.9866H62.9487V28.2692H60.5809V31.0458H63.287Z" fill="white"/>
<path d="M67.2859 32.3988L65.1858 26.6624V32.3988H63.8328V22.9557H65.1153L67.2013 28.6779V22.9557H68.5543V32.3988H67.2859Z" fill="white"/>
<path d="M73.2902 31.0458V32.3988H69.2451V22.9557H73.2902V24.196H70.5841V26.9866H72.9519V28.2692H70.5841V31.0458H73.2902Z" fill="white"/>
<path d="M73.9955 32.3988V22.9557H76.3633C76.9835 22.9557 77.505 23.1718 77.9278 23.604C78.36 24.0362 78.5761 24.5671 78.5761 25.1967V26.0705C78.5761 26.9443 78.205 27.6115 77.4627 28.0719L78.9003 32.3988H77.4627L76.1942 28.3538H75.3485V32.3988H73.9955ZM76.9976 26.8598C77.0821 26.7564 77.1385 26.639 77.1667 26.5074C77.2043 26.3759 77.2231 26.2302 77.2231 26.0705V25.1967C77.2231 24.9054 77.1432 24.6705 76.9835 24.492C76.8238 24.304 76.5982 24.2101 76.307 24.2101H75.3486V27.1558H76.2929C76.5748 27.1558 76.8097 27.0571 76.9976 26.8598H76.9976Z" fill="white"/>
<path d="M83.6137 31.4122C83.3976 31.7505 83.1204 32.0135 82.7822 32.2015C82.4439 32.3894 82.0728 32.4834 81.6687 32.4834C81.3117 32.4834 80.964 32.3988 80.6257 32.2297C80.2969 32.0605 80.0385 31.8538 79.8506 31.6095C79.672 31.3558 79.5499 31.1021 79.4841 30.8484C79.4277 30.5947 79.3995 30.3082 79.3995 29.9887V25.2671C79.3995 25.0322 79.423 24.7973 79.47 24.5624C79.5358 24.3275 79.7096 23.9939 79.9915 23.5617C80.2828 23.1013 80.8559 22.8711 81.711 22.8711C82.0868 22.8711 82.4392 22.9603 82.768 23.1389C83.0969 23.3174 83.3459 23.5382 83.515 23.8013C83.6936 24.055 83.8063 24.2993 83.8533 24.5342C83.9097 24.7597 83.9379 25.004 83.9379 25.2671V25.6617H82.5989V25.2671C82.5989 25.1919 82.5942 25.1262 82.5848 25.0698C82.5848 25.004 82.5801 24.9476 82.5707 24.9007C82.5613 24.8161 82.4908 24.6798 82.3593 24.4919C82.2277 24.304 82.0069 24.21 81.6968 24.21C81.3304 24.21 81.0861 24.3087 80.9639 24.506C80.8512 24.7033 80.7854 24.849 80.7666 24.9429C80.7478 25.0369 80.7384 25.1449 80.7384 25.2671V29.9887C80.7384 30.0826 80.7384 30.1625 80.7384 30.2283C80.7384 30.2941 80.7432 30.3504 80.7526 30.3974C80.762 30.4726 80.8325 30.6182 80.964 30.8343C81.0861 31.0317 81.3257 31.1303 81.6828 31.1303C82.0492 31.1303 82.2841 31.0317 82.3875 30.8343C82.4439 30.731 82.4862 30.6464 82.5143 30.5806C82.5425 30.5055 82.5613 30.4397 82.5707 30.3833C82.5895 30.3269 82.5989 30.2706 82.5989 30.2142C82.5989 30.1484 82.5989 30.0733 82.5989 29.9887V28.3396H81.5137V27.1557H83.9379V29.9887C83.9379 30.186 83.9332 30.3551 83.9238 30.4961C83.9144 30.6276 83.8956 30.7451 83.8674 30.8484C83.8392 30.9518 83.8016 31.0504 83.7546 31.1444C83.717 31.229 83.67 31.3182 83.6137 31.4122H83.6137Z" fill="white"/>
<path d="M85.9748 32.3988V28.3397L84.1426 22.9557H85.552L86.6514 26.6484L87.7648 22.9557H89.1883L87.3138 28.3397V32.3988H85.9748Z" fill="white"/>
<path d="M14.3904 15.0388H11.5237V9.37286H21.1692V12.307L15.908 31.969H12.468L17.9653 12.3744H14.3904V15.0388Z" fill="white"/>
<path fill-rule="evenodd" clip-rule="evenodd" d="M33.4349 55.6815L39.5027 59.1848C40.1946 59.5842 40.4299 60.4627 40.0305 61.1545C39.6311 61.8463 38.7526 62.0817 38.0608 61.6823L31.993 58.179C31.3012 57.7796 31.0658 56.9011 31.4652 56.2093C31.8646 55.5175 32.7431 55.2821 33.4349 55.6815ZM43.9795 46.2726L47.4827 52.3404C47.8821 53.0322 47.6467 53.9108 46.9549 54.3102C46.2631 54.7096 45.3846 54.4742 44.9852 53.7824L41.4819 47.7146C41.0825 47.0228 41.3179 46.1443 42.0097 45.7448C42.7015 45.3454 43.58 45.5808 43.9795 46.2726ZM57.8157 43.3966L57.8157 50.4031C57.8157 51.2019 57.1726 51.845 56.3738 51.845C55.5749 51.845 54.9318 51.2019 54.9318 50.4031L54.9318 43.3966C54.9318 42.5977 55.5749 41.9546 56.3738 41.9546C57.1726 41.9546 57.8157 42.5978 57.8157 43.3966ZM71.2363 47.824L67.7331 53.8918C67.3337 54.5836 66.4552 54.819 65.7633 54.4196C65.0715 54.0202 64.8361 53.1417 65.2355 52.4498L68.7388 46.382C69.1382 45.6902 70.0167 45.4548 70.7085 45.8542C71.4004 46.2537 71.6357 47.1322 71.2363 47.824ZM80.6452 58.3685L74.5774 61.8718C73.8856 62.2712 73.0071 62.0358 72.6077 61.344C72.2083 60.6522 72.4436 59.7736 73.1354 59.3742L79.2032 55.871C79.8951 55.4716 80.7736 55.707 81.173 56.3988C81.5724 57.0906 81.337 57.9691 80.6452 58.3685ZM83.5213 72.2048L76.5148 72.2048C75.7159 72.2048 75.0728 71.5617 75.0728 70.7628C75.0728 69.964 75.7159 69.3209 76.5148 69.3209L83.5213 69.3209C84.3201 69.3209 84.9632 69.964 84.9632 70.7628C84.9632 71.5617 84.3201 72.2048 83.5213 72.2048ZM79.0939 85.6254L73.0261 82.1222C72.3342 81.7227 72.0988 80.8442 72.4983 80.1524C72.8977 79.4606 73.7762 79.2252 74.468 79.6246L80.5358 83.1279C81.2276 83.5273 81.463 84.4058 81.0636 85.0976C80.6642 85.7894 79.7857 86.0248 79.0939 85.6254ZM68.5493 95.0343L65.0461 88.9665C64.6467 88.2746 64.882 87.3961 65.5739 86.9967C66.2657 86.5973 67.1442 86.8327 67.5436 87.5245L71.0469 93.5923C71.4463 94.2841 71.2109 95.1626 70.5191 95.5621C69.8273 95.9615 68.9488 95.7261 68.5493 95.0343ZM54.713 97.9103L54.7131 90.9038C54.7131 90.105 55.3561 89.4619 56.155 89.4619C56.9538 89.4619 57.597 90.105 57.597 90.9038L57.5969 97.9103C57.5969 98.7092 56.9538 99.3523 56.155 99.3523C55.3562 99.3523 54.713 98.7092 54.713 97.9103ZM41.2924 93.4829L44.7957 87.4151C45.1951 86.7233 46.0736 86.4879 46.7654 86.8873C47.4573 87.2868 47.6926 88.1653 47.2932 88.8571L43.79 94.9249C43.3906 95.6167 42.5121 95.8521 41.8202 95.4527C41.1284 95.0533 40.893 94.1748 41.2924 93.4829ZM31.8836 82.9384L37.9514 79.4351C38.6432 79.0357 39.5217 79.2711 39.9211 79.9629C40.3205 80.6547 40.0851 81.5332 39.3933 81.9327L33.3255 85.4359C32.6337 85.8353 31.7552 85.5999 31.3558 84.9081C30.9564 84.2163 31.1917 83.3378 31.8836 82.9384ZM29.0075 69.1021L36.014 69.1021C36.8128 69.1021 37.456 69.7452 37.456 70.5441C37.456 71.3429 36.8129 71.986 36.014 71.986L29.0075 71.986C28.2087 71.986 27.5656 71.3429 27.5656 70.5441C27.5656 69.7452 28.2087 69.1021 29.0075 69.1021ZM56.2638 54.1122C51.8768 54.1125 47.6697 55.8554 44.5678 58.9576C41.4659 62.0597 39.7233 66.267 39.7235 70.654C39.7237 75.0407 41.4665 79.2476 44.5683 82.3495C47.6702 85.4513 51.8771 87.194 56.2638 87.1943C60.6507 87.1944 64.858 85.4518 67.9602 82.35C71.0624 79.2481 72.8053 75.0409 72.8056 70.654C72.8056 68.4817 72.3778 66.3306 71.5465 64.3237C70.7152 62.3167 69.4968 60.4931 67.9607 58.9571C66.4247 57.421 64.6011 56.2025 62.5941 55.3712C60.5871 54.54 58.4361 54.1121 56.2638 54.1122ZM56.2018 59.7323C56.7424 59.7323 57.1766 60.168 57.1766 60.7086L57.1766 66.2829C57.1766 66.8235 56.7424 67.2592 56.2018 67.2592C55.6613 67.2592 55.2256 66.8235 55.2256 66.2829L55.2256 60.7086C55.2256 60.168 55.6613 59.7323 56.2018 59.7323ZM53.6565 62.5918L53.6565 65.4763C52.6975 65.9593 51.8914 66.6991 51.3282 67.6133C50.765 68.5275 50.4667 69.5802 50.4667 70.654C50.4668 72.1914 51.0776 73.6659 52.1648 74.753C53.2519 75.8401 54.7263 76.4509 56.2638 76.451C57.0252 76.4512 57.7791 76.3013 58.4826 76.0101C59.1861 75.7188 59.8253 75.2918 60.3637 74.7535C60.9022 74.2152 61.3293 73.5761 61.6208 72.8727C61.9122 72.1693 62.0623 71.4154 62.0623 70.654C62.0612 69.5868 61.7656 68.5406 61.208 67.6307C60.6504 66.7208 59.8524 65.9824 58.902 65.4969L58.902 62.608C60.5987 63.1634 62.0767 64.2402 63.1253 65.685C64.174 67.1298 64.7397 68.8687 64.7419 70.654C64.7418 71.7673 64.5225 72.8696 64.0964 73.8981C63.6703 74.9267 63.0458 75.8612 62.2585 76.6483C61.4712 77.4354 60.5366 78.0598 59.5081 78.4857C58.4795 78.9116 57.3771 79.1308 56.2638 79.1306C54.0157 79.1305 51.8596 78.2374 50.27 76.6478C48.6803 75.0581 47.7872 72.9021 47.7872 70.654C47.7879 68.8623 48.3564 67.117 49.4109 65.6685C50.4654 64.22 51.9517 63.1429 53.6565 62.5918Z" fill="white"/>
</g>
<defs>
<clipPath id="clip0">
<rect y="0.0654297" width="111.817" height="112" rx="6" fill="white"/>
</clipPath>
</defs>
</svg>
