<svg width="113" height="113" viewBox="0 0 113 113" fill="none" xmlns="http://www.w3.org/2000/svg">
<g clip-path="url(#clip0)">
<path fill-rule="evenodd" clip-rule="evenodd" d="M0.893793 0.0654297H111.463C111.809 0.0654297 112.087 0.343833 112.087 0.689668V111.441C112.087 111.787 111.809 112.065 111.463 112.065H0.893793C0.547965 112.065 0.269531 111.787 0.269531 111.441V0.689668C0.269531 0.343833 0.547965 0.0654297 0.893793 0.0654297Z" fill="#F99D26"/>
<path d="M32.478 16.7647C32.478 16.8587 32.478 16.9385 32.478 17.0043C32.478 17.0701 32.4827 17.1265 32.4921 17.1735C32.5109 17.2674 32.5814 17.4037 32.7036 17.5822C32.8351 17.7701 33.07 17.8641 33.4082 17.8641C33.5962 17.8641 33.77 17.8265 33.9297 17.7513C34.0895 17.6668 34.2069 17.5587 34.2821 17.4272C34.3385 17.3238 34.3714 17.2252 34.3808 17.1312C34.3995 17.0372 34.4089 16.9526 34.4089 16.8775V16.7506V16.0882V15.9614C34.4089 15.7546 34.3714 15.5949 34.2962 15.4821C34.221 15.36 34.0519 15.2238 33.7888 15.0734C33.6102 14.9795 33.2908 14.8479 32.8304 14.6788C32.37 14.5096 31.9847 14.2419 31.6746 13.8754C31.3646 13.509 31.2096 13.011 31.2096 12.3814V11.9586C31.2096 11.3102 31.4257 10.7559 31.8579 10.2955C32.2995 9.82565 32.8351 9.59076 33.4646 9.59076C34.1223 9.59076 34.6673 9.82095 35.0996 10.2814C35.5412 10.7418 35.762 11.3009 35.762 11.9586V12.3814H34.4089V11.9586C34.4089 11.8928 34.4042 11.8317 34.3948 11.7754C34.3948 11.719 34.3901 11.6673 34.3807 11.6203C34.3713 11.5734 34.3478 11.517 34.3103 11.4512C34.2727 11.3854 34.221 11.3055 34.1552 11.2116C34.0237 11.0237 33.8028 10.9297 33.4928 10.9297C33.2203 10.9297 32.9948 11.0284 32.8162 11.2257C32.6471 11.423 32.5626 11.6673 32.5626 11.9586V12.3814V12.5083C32.5626 12.6962 32.5907 12.8465 32.6471 12.9593C32.7129 13.0626 32.8632 13.1801 33.0981 13.3116C33.1733 13.3492 33.2861 13.4009 33.4364 13.4667C33.5961 13.5231 33.7888 13.5935 34.0143 13.6781C34.4653 13.8284 34.8693 14.0962 35.2264 14.4815C35.5834 14.8667 35.762 15.3741 35.762 16.0036V16.7647C35.762 17.0936 35.7291 17.3708 35.6633 17.5963C35.6069 17.8218 35.4143 18.1507 35.0855 18.5829C34.7566 18.9963 34.2069 19.203 33.4364 19.203C32.6189 19.203 32.027 18.94 31.6605 18.4138C31.2941 17.8782 31.1108 17.3285 31.1108 16.7647V16.4265H32.478L32.478 16.7647Z" fill="white"/>
<path d="M40.769 18.132C40.5623 18.4514 40.2945 18.7098 39.9656 18.9071C39.6462 19.1045 39.2891 19.2031 38.8945 19.2031C38.6972 19.2031 38.4998 19.1749 38.3025 19.1186C38.1146 19.0622 37.9361 18.9917 37.7669 18.9071C37.5978 18.8132 37.4474 18.7098 37.3159 18.5971C37.1844 18.4749 37.0857 18.3481 37.0199 18.2165C36.879 17.9534 36.785 17.7232 36.738 17.5259C36.7004 17.3286 36.6816 17.1172 36.6816 16.8917V9.67542H38.0347V16.8917C38.0347 16.9574 38.0347 17.0185 38.0347 17.0749C38.0441 17.1219 38.0535 17.1688 38.0628 17.2158C38.0723 17.291 38.1427 17.4225 38.2743 17.6105C38.3964 17.7796 38.6078 17.8642 38.9085 17.8642C39.181 17.8642 39.383 17.7655 39.5146 17.5682C39.6555 17.3615 39.726 17.136 39.726 16.8917V9.67542H41.079V16.8917C41.079 17.1172 41.0555 17.3333 41.0086 17.54C40.9616 17.7467 40.8817 17.944 40.769 18.132H40.769Z" fill="white"/>
<path d="M43.062 16.7648C43.062 16.8587 43.062 16.9386 43.062 17.0043C43.062 17.0701 43.0667 17.1265 43.0761 17.1735C43.0948 17.2675 43.1653 17.4037 43.2875 17.5822C43.4191 17.7701 43.654 17.8641 43.9922 17.8641C44.1802 17.8641 44.354 17.8265 44.5137 17.7514C44.6735 17.6668 44.7909 17.5587 44.8661 17.4272C44.9225 17.3238 44.9553 17.2252 44.9647 17.1312C44.9835 17.0373 44.9929 16.9527 44.9929 16.8775V16.7507V16.0882V15.9614C44.9929 15.7547 44.9553 15.5949 44.8801 15.4822C44.805 15.36 44.6358 15.2238 44.3728 15.0734C44.1942 14.9795 43.8747 14.8479 43.4143 14.6788C42.9539 14.5097 42.5687 14.2419 42.2586 13.8754C41.9485 13.509 41.7935 13.011 41.7935 12.3814V11.9586C41.7935 11.3103 42.0096 10.7559 42.4418 10.2955C42.8834 9.82569 43.4191 9.59079 44.0486 9.59079C44.7063 9.59079 45.2513 9.82098 45.6835 10.2814C46.1251 10.7418 46.346 11.3009 46.346 11.9586V12.3814H44.9929V11.9586C44.9929 11.8928 44.9882 11.8318 44.9788 11.7754C44.9788 11.719 44.9741 11.6673 44.9647 11.6204C44.9553 11.5734 44.9318 11.517 44.8942 11.4512C44.8566 11.3854 44.8049 11.3056 44.7392 11.2116C44.6076 11.0237 44.3868 10.9297 44.0768 10.9297C43.8043 10.9297 43.5788 11.0284 43.4002 11.2257C43.2311 11.423 43.1465 11.6673 43.1465 11.9586V12.3814V12.5083C43.1465 12.6962 43.1747 12.8465 43.2311 12.9593C43.2969 13.0627 43.4472 13.1801 43.6821 13.3117C43.7573 13.3493 43.87 13.401 44.0203 13.4667C44.1801 13.5231 44.3727 13.5936 44.5982 13.6781C45.0493 13.8285 45.4533 14.0963 45.8104 14.4815C46.1674 14.8667 46.3459 15.3741 46.3459 16.0037V16.7648C46.3459 17.0936 46.313 17.3708 46.2472 17.5963C46.1909 17.8218 45.9983 18.1507 45.6694 18.5829C45.3405 18.9964 44.7908 19.2031 44.0203 19.2031C43.2029 19.2031 42.6109 18.94 42.2445 18.4138C41.878 17.8782 41.6948 17.3285 41.6948 16.7648V16.4265H43.062V16.7648Z" fill="white"/>
<path d="M48.1683 19.1186V10.9298H46.5757V9.67542H51.1281V10.9298H49.5073V19.1186H48.1683Z" fill="white"/>
<path d="M50.4343 19.1186L52.5485 9.67542H53.7183L55.8324 19.1186H54.3807L54.0002 17.089H52.2525L51.8578 19.1186H50.4343ZM52.4921 15.8346H53.7606L53.1263 12.3956L52.4921 15.8346Z" fill="white"/>
<path d="M56.521 19.1186V9.67542H57.86V19.1186H56.521Z" fill="white"/>
<path d="M62.3256 19.1186L60.2256 13.3822V19.1186H58.8726V9.67542H60.1551L62.2411 15.3977V9.67542H63.5941V19.1186H62.3256Z" fill="white"/>
<path d="M63.8 19.1186L65.9142 9.67542H67.084L69.1982 19.1186H67.7464L67.3659 17.089H65.6182L65.2236 19.1186H63.8ZM65.8578 15.8346H67.1263L66.492 12.3956L65.8578 15.8346Z" fill="white"/>
<path d="M71.9312 9.67542C72.2225 9.67542 72.495 9.73648 72.7487 9.85862C73.0306 9.99017 73.3172 10.2016 73.6084 10.4929C73.9185 10.7935 74.0736 11.2634 74.0736 11.9023V12.6211C74.0736 13.3446 73.787 13.852 73.2138 14.1433C73.787 14.4816 74.0736 15.0077 74.0736 15.7218V16.8212C74.0736 17.4883 73.8575 18.038 73.4253 18.4702C73.0024 18.9024 72.4574 19.1186 71.7903 19.1186H69.7043V9.67542H71.9312ZM72.7346 12.4802V11.9023C72.7346 11.611 72.6501 11.3808 72.4809 11.2117C72.3118 11.0331 72.0863 10.9439 71.8044 10.9439H71.0433V13.5513H71.8467C72.1568 13.5513 72.3823 13.4574 72.5232 13.2694C72.6641 13.0721 72.7346 12.809 72.7346 12.4802ZM72.7346 16.8212V15.7218C72.7346 15.4212 72.6501 15.1863 72.4809 15.0171C72.3212 14.8386 72.0957 14.7494 71.8044 14.7494H71.0433V17.7796H71.8185C72.091 17.7796 72.3118 17.6903 72.4809 17.5118C72.6501 17.3239 72.7346 17.0937 72.7346 16.8212Z" fill="white"/>
<path d="M78.8088 19.1186H74.7778V9.67542H76.1309V17.7655H78.8088V19.1186Z" fill="white"/>
<path d="M83.2353 17.7655V19.1186H79.1902V9.67542H83.2353V10.9157H80.5292V13.7064H82.897V14.9889H80.5292V17.7655H83.2353Z" fill="white"/>
<path d="M89.349 16.7366C89.349 17.0372 89.3302 17.2957 89.2926 17.5118C89.2644 17.7279 89.1704 17.9628 89.0107 18.2165C88.9261 18.348 88.8181 18.4749 88.6865 18.597C88.5644 18.7098 88.4235 18.8131 88.2637 18.9071C88.1134 18.9917 87.949 19.0621 87.7704 19.1185C87.5919 19.1749 87.4181 19.2031 87.2489 19.2031C86.8261 19.2031 86.4408 19.1138 86.0932 18.9353C85.7549 18.7567 85.5059 18.5312 85.3462 18.2587C85.1865 17.9863 85.0831 17.7326 85.0361 17.4977C84.9985 17.2628 84.9797 17.0091 84.9797 16.7366V11.8741C84.9797 11.611 85.0032 11.376 85.0502 11.1693C85.1065 10.9532 85.2193 10.723 85.3884 10.4787C85.5575 10.2344 85.7972 10.0277 86.1072 9.85856C86.4173 9.68004 86.7415 9.59079 87.0798 9.59079C87.7281 9.59079 88.2684 9.80689 88.7006 10.2391C89.1328 10.6619 89.3489 11.2069 89.3489 11.8741V12.3814H88.01V11.8741C88.01 11.611 87.9348 11.3901 87.7844 11.2116C87.6435 11.0331 87.4321 10.9438 87.1502 10.9438C86.8871 10.9438 86.6804 11.0331 86.5301 11.2116C86.3891 11.3901 86.3187 11.611 86.3187 11.8741V17.103C86.3375 17.244 86.4032 17.4037 86.516 17.5822C86.6475 17.7701 86.8637 17.8641 87.1643 17.8641C87.4838 17.8641 87.6952 17.7795 87.7985 17.6104C87.9019 17.4413 87.963 17.3191 87.9818 17.244C88.0006 17.1594 88.0099 17.0466 88.0099 16.9057V16.4265H89.3489L89.349 16.7366Z" fill="white"/>
<path d="M90.1499 19.1186V9.67542H91.4888V19.1186H90.1499Z" fill="white"/>
<path d="M93.6779 19.1186V10.9298H92.0852V9.67542H96.6377V10.9298H95.0168V19.1186H93.6779Z" fill="white"/>
<path d="M97.2102 19.1186V9.67542H98.5492V19.1186H97.2102Z" fill="white"/>
<path d="M103.333 17.7655V19.1186H99.2881V9.67542H103.333V10.9157H100.627V13.7064H102.995V14.9889H100.627V17.7655H103.333Z" fill="white"/>
<path d="M105.118 16.7648C105.118 16.8587 105.118 16.9386 105.118 17.0043C105.118 17.0701 105.122 17.1265 105.132 17.1735C105.151 17.2675 105.221 17.4037 105.343 17.5822C105.475 17.7701 105.71 17.8641 106.048 17.8641C106.236 17.8641 106.41 17.8265 106.569 17.7514C106.729 17.6668 106.847 17.5587 106.922 17.4272C106.978 17.3238 107.011 17.2252 107.02 17.1312C107.039 17.0373 107.049 16.9527 107.049 16.8775V16.7507V16.0882V15.9614C107.049 15.7547 107.011 15.5949 106.936 15.4822C106.861 15.36 106.692 15.2238 106.428 15.0734C106.25 14.9795 105.93 14.8479 105.47 14.6788C105.01 14.5097 104.624 14.2419 104.314 13.8754C104.004 13.509 103.849 13.011 103.849 12.3814V11.9586C103.849 11.3103 104.065 10.7559 104.498 10.2955C104.939 9.82569 105.475 9.59079 106.104 9.59079C106.762 9.59079 107.307 9.82098 107.739 10.2814C108.181 10.7418 108.402 11.3009 108.402 11.9586V12.3814H107.049V11.9586C107.049 11.8928 107.044 11.8318 107.034 11.7754C107.034 11.719 107.03 11.6673 107.02 11.6204C107.011 11.5734 106.987 11.517 106.95 11.4512C106.912 11.3854 106.861 11.3056 106.795 11.2116C106.663 11.0237 106.442 10.9297 106.132 10.9297C105.86 10.9297 105.634 11.0284 105.456 11.2257C105.287 11.423 105.202 11.6673 105.202 11.9586V12.3814V12.5083C105.202 12.6962 105.23 12.8465 105.287 12.9593C105.353 13.0627 105.503 13.1801 105.738 13.3117C105.813 13.3493 105.926 13.401 106.076 13.4667C106.236 13.5231 106.428 13.5936 106.654 13.6781C107.105 13.8285 107.509 14.0963 107.866 14.4815C108.223 14.8667 108.402 15.3741 108.402 16.0037V16.7648C108.402 17.0936 108.369 17.3708 108.303 17.5963C108.247 17.8218 108.054 18.1507 107.725 18.5829C107.396 18.9964 106.847 19.2031 106.076 19.2031C105.259 19.2031 104.667 18.94 104.3 18.4138C103.934 17.8782 103.75 17.3285 103.75 16.7648V16.4265H105.118L105.118 16.7648Z" fill="white"/>
<path d="M31.1235 32.1408L33.2377 22.6976H34.4075L36.5217 32.1408H35.0699L34.6894 30.1112H32.9417L32.5471 32.1408H31.1235ZM33.1813 28.8568H34.4498L33.8156 25.4178L33.1813 28.8568Z" fill="white"/>
<path d="M40.4809 32.1408L38.3809 26.4044V32.1408H37.0278V22.6976H38.3104L40.3963 28.4199V22.6976H41.7494V32.1408H40.4809Z" fill="white"/>
<path d="M44.7251 22.6976C45.3359 22.6976 45.8573 22.9137 46.2895 23.346C46.7312 23.7688 46.952 24.2856 46.952 24.8964V29.8012C46.952 30.4965 46.7406 31.0602 46.3177 31.4925C45.8949 31.9247 45.3499 32.1408 44.6828 32.1408H42.5828V22.6976H44.7251ZM45.613 29.8012V24.8964C45.613 24.6333 45.5144 24.4124 45.3171 24.2339C45.1291 24.0554 44.8989 23.9661 44.6264 23.9661H43.9217V30.8864H44.5842C45.2701 30.8864 45.613 30.5247 45.613 29.8012Z" fill="white"/>
<path d="M53.6383 29.7589C53.6383 30.0596 53.6195 30.318 53.5819 30.5341C53.5537 30.7502 53.4598 30.9851 53.3001 31.2388C53.2155 31.3703 53.1074 31.4972 52.9759 31.6193C52.8537 31.7321 52.7128 31.8355 52.553 31.9294C52.4027 32.014 52.2383 32.0845 52.0597 32.1408C51.8812 32.1972 51.7074 32.2254 51.5382 32.2254C51.1154 32.2254 50.7302 32.1361 50.3825 31.9576C50.0443 31.7791 49.7953 31.5536 49.6356 31.2811C49.4758 31.0086 49.3724 30.7549 49.3255 30.52C49.2878 30.2851 49.269 30.0314 49.269 29.7589V24.8964C49.269 24.6333 49.2925 24.3984 49.3395 24.1917C49.3959 23.9755 49.5086 23.7454 49.6778 23.5011C49.8469 23.2568 50.0865 23.05 50.3966 22.8809C50.7067 22.7024 51.0308 22.6131 51.3691 22.6131C52.0174 22.6131 52.5577 22.8292 52.9899 23.2614C53.4221 23.6843 53.6383 24.2293 53.6383 24.8964V25.4038H52.2993V24.8964C52.2993 24.6333 52.2241 24.4125 52.0738 24.2339C51.9329 24.0554 51.7214 23.9662 51.4395 23.9662C51.1764 23.9662 50.9698 24.0554 50.8194 24.2339C50.6785 24.4125 50.608 24.6333 50.608 24.8964V30.1253C50.6268 30.2663 50.6925 30.426 50.8053 30.6046C50.9369 30.7925 51.153 30.8864 51.4536 30.8864C51.7731 30.8864 51.9845 30.8019 52.0879 30.6327C52.1913 30.4636 52.2523 30.3415 52.2711 30.2663C52.2899 30.1817 52.2993 30.069 52.2993 29.928V29.4488H53.6382L53.6383 29.7589Z" fill="white"/>
<path d="M54.9317 23.5856C55.1478 23.2849 55.4203 23.05 55.7492 22.8809C56.0874 22.7024 56.4351 22.6131 56.7922 22.6131C57.1398 22.6131 57.464 22.6836 57.7646 22.8245C58.0747 22.9655 58.3331 23.1581 58.5398 23.4024C58.7465 23.6467 58.8875 23.9004 58.9626 24.1635C59.0378 24.4172 59.0754 24.6944 59.0754 24.995V29.8012C59.0754 30.0831 59.0472 30.3321 58.9908 30.5482C58.9439 30.7643 58.8311 31.0039 58.6526 31.267C58.4835 31.5301 58.2345 31.7556 57.9056 31.9435C57.5861 32.1314 57.2291 32.2254 56.8344 32.2254C56.6089 32.2254 56.3928 32.1972 56.1861 32.1408C55.9794 32.0751 55.7868 31.9905 55.6082 31.8871C55.4297 31.7838 55.27 31.6663 55.129 31.5348C54.9975 31.4032 54.8941 31.267 54.819 31.126C54.678 30.8348 54.5934 30.5998 54.5653 30.4213C54.5371 30.2428 54.5229 30.0361 54.5229 29.8012V24.995C54.5229 24.7132 54.5511 24.4642 54.6075 24.248C54.6733 24.0225 54.7814 23.8017 54.9317 23.5856ZM57.5532 24.3326C57.3747 24.0695 57.1304 23.938 56.8203 23.938C56.6606 23.938 56.5009 23.9849 56.3411 24.0789C56.1908 24.1635 56.0827 24.2621 56.017 24.3749C55.9606 24.4876 55.923 24.6004 55.9042 24.7131C55.8854 24.8259 55.876 24.9199 55.876 24.995V29.8012C55.876 29.8482 55.876 29.8998 55.876 29.9562C55.876 30.0032 55.8807 30.0549 55.8901 30.1113C55.8996 30.2052 55.9748 30.3603 56.1157 30.5764C56.2566 30.7737 56.4915 30.8724 56.8204 30.8724C56.9895 30.8724 57.1398 30.8348 57.2714 30.7596C57.4123 30.675 57.511 30.5811 57.5674 30.4777C57.6332 30.365 57.6754 30.2616 57.6942 30.1676C57.713 30.0737 57.7224 29.9515 57.7224 29.8012V24.995C57.7224 24.8071 57.713 24.6756 57.6942 24.6004C57.6848 24.5252 57.6378 24.436 57.5533 24.3326H57.5532Z" fill="white"/>
<path d="M64.3302 32.1408V26.3903L62.9771 30.4213H62.3006L60.9617 26.3903V32.1408H59.6086V22.6976H60.8771L62.6671 27.7293L64.4289 22.6976H65.6692V32.1408H64.3302Z" fill="white"/>
<path d="M70.9328 32.1408V26.3903L69.5797 30.4213H68.9032L67.5642 26.3903V32.1408H66.2112V22.6976H67.4797L69.2696 27.7293L71.0314 22.6976H72.2717V32.1408H70.9328Z" fill="white"/>
<path d="M77.3574 31.1542C77.1507 31.4737 76.8829 31.7321 76.554 31.9294C76.2345 32.1267 75.8775 32.2254 75.4829 32.2254C75.2855 32.2254 75.0882 32.1972 74.8909 32.1408C74.703 32.0844 74.5244 32.014 74.3553 31.9294C74.1862 31.8354 74.0358 31.7321 73.9043 31.6193C73.7727 31.4972 73.6741 31.3703 73.6083 31.2388C73.4674 30.9757 73.3734 30.7455 73.3264 30.5481C73.2888 30.3508 73.27 30.1394 73.27 29.9139V22.6976H74.6231V29.9139C74.6231 29.9797 74.6231 30.0408 74.6231 30.0971C74.6325 30.1441 74.6419 30.1911 74.6512 30.2381C74.6606 30.3133 74.7311 30.4448 74.8627 30.6327C74.9848 30.8018 75.1962 30.8864 75.4969 30.8864C75.7694 30.8864 75.9714 30.7877 76.1029 30.5904C76.2439 30.3837 76.3144 30.1582 76.3144 29.9139V22.6976H77.6674V29.9139C77.6674 30.1394 77.6439 30.3555 77.5969 30.5622C77.55 30.769 77.4701 30.9663 77.3574 31.1542H77.3574Z" fill="white"/>
<path d="M81.9204 32.1408L79.8203 26.4044V32.1408H78.4673V22.6976H79.7499L81.8358 28.4199V22.6976H83.1888V32.1408H81.9204Z" fill="white"/>
<path d="M83.9312 32.1408V22.6976H85.2701V32.1408H83.9312Z" fill="white"/>
<path d="M87.7328 32.1408V23.952H86.1401V22.6976H90.6926V23.952H89.0718V32.1408H87.7328Z" fill="white"/>
<path d="M90.9915 32.1408V22.6976H92.3304V32.1408H90.9915Z" fill="white"/>
<path d="M97.2055 30.7878V32.1408H93.1604V22.6976H97.2055V23.9379H94.4994V26.7286H96.8672V28.0112H94.4994V30.7878H97.2055Z" fill="white"/>
<path d="M98.8078 29.7871C98.8078 29.881 98.8078 29.9609 98.8078 30.0267C98.8078 30.0925 98.8125 30.1489 98.8219 30.1958C98.8407 30.2898 98.9112 30.426 99.0334 30.6046C99.1649 30.7925 99.3998 30.8864 99.7381 30.8864C99.926 30.8864 100.1 30.8489 100.26 30.7737C100.419 30.6891 100.537 30.5811 100.612 30.4495C100.668 30.3462 100.701 30.2475 100.711 30.1535C100.729 30.0596 100.739 29.975 100.739 29.8999V29.773V29.1106V28.9837C100.739 28.777 100.701 28.6173 100.626 28.5045C100.551 28.3824 100.382 28.2461 100.119 28.0958C99.9401 28.0018 99.6206 27.8703 99.1602 27.7011C98.6998 27.532 98.3145 27.2642 98.0045 26.8978C97.6944 26.5313 97.5393 26.0333 97.5393 25.4038V24.9809C97.5393 24.3326 97.7554 23.7782 98.1877 23.3178C98.6293 22.848 99.1649 22.6131 99.7944 22.6131C100.452 22.6131 100.997 22.8433 101.429 23.3037C101.871 23.7641 102.092 24.3232 102.092 24.9809V25.4038H100.739V24.9809C100.739 24.9152 100.734 24.8541 100.725 24.7977C100.725 24.7413 100.72 24.6897 100.711 24.6427C100.701 24.5957 100.678 24.5393 100.64 24.4736C100.602 24.4078 100.551 24.3279 100.485 24.2339C100.353 24.046 100.133 23.9521 99.8226 23.9521C99.5501 23.9521 99.3246 24.0507 99.1461 24.248C98.9769 24.4454 98.8924 24.6897 98.8924 24.9809V25.4038V25.5306C98.8924 25.7185 98.9206 25.8689 98.9769 25.9817C99.0427 26.085 99.193 26.2024 99.4279 26.334C99.5031 26.3716 99.6159 26.4233 99.7662 26.489C99.9259 26.5454 100.119 26.6159 100.344 26.7005C100.795 26.8508 101.199 27.1186 101.556 27.5038C101.913 27.8891 102.092 28.3965 102.092 29.026V29.7871C102.092 30.1159 102.059 30.3931 101.993 30.6187C101.937 30.8442 101.744 31.173 101.415 31.6053C101.086 32.0187 100.537 32.2254 99.7662 32.2254C98.9487 32.2254 98.3568 31.9623 97.9903 31.4361C97.6239 30.9005 97.4407 30.3509 97.4407 29.7871V29.4488H98.8078V29.7871Z" fill="white"/>
<path d="M11.4818 31.969V12.7454L8.24414 15.1737V11.7336L11.4818 9.37286H14.6858V31.969H11.4818Z" fill="white"/>
<path d="M20.049 31.969V12.7455L16.8113 15.1737V11.7337L20.049 9.37292H23.2529V31.969H20.049Z" fill="white"/>
<path d="M28.6165 73.8995L36.5349 84.2982C36.8293 84.6849 36.749 85.1425 36.1198 85.1425H19.9725C19.3433 85.1425 19.2629 84.6849 19.5574 84.2982L27.4757 73.8995C27.8593 73.3958 28.2383 73.4027 28.6165 73.8995ZM78.1918 77.8049H94.2013C94.5762 77.8049 94.8781 78.1068 94.8781 78.4817V81.3178C94.8781 81.6928 94.5762 81.9947 94.2013 81.9947H78.1918C77.8168 81.9947 77.515 81.6928 77.515 81.3178V78.4817C77.515 78.1068 77.8168 77.8049 78.1918 77.8049ZM78.1925 83.1447C77.8175 83.1447 77.5156 83.4466 77.5156 83.8216V100.119C77.5156 100.494 77.8175 100.795 78.1925 100.795H94.2019C94.5768 100.795 94.8788 100.494 94.8788 100.119V83.8216C94.8788 83.4466 94.5768 83.1447 94.2019 83.1447H78.1925ZM80.5358 85.6045H84.6266C85.0016 85.6045 85.3035 85.9064 85.3035 86.2814V88.1778C85.3035 88.5528 85.0016 88.8547 84.6266 88.8547H80.5358C80.1608 88.8547 79.8603 88.5528 79.8603 88.1778V86.2814C79.8603 85.9064 80.1608 85.6045 80.5358 85.6045ZM88.0568 85.6045H92.1461C92.5211 85.6045 92.823 85.9064 92.823 86.2814V88.1778C92.823 88.5528 92.5211 88.8547 92.1461 88.8547H88.0568C87.6818 88.8547 87.3799 88.5528 87.3799 88.1778V86.2814C87.3799 85.9064 87.6818 85.6045 88.0568 85.6045ZM80.5358 91.17H84.6266C85.0016 91.17 85.3035 91.472 85.3035 91.8469V93.7419C85.3035 94.1169 85.0016 94.4188 84.6266 94.4188H80.5358C80.1608 94.4188 79.8603 94.1169 79.8603 93.7419V91.8469C79.8603 91.472 80.1608 91.17 80.5358 91.17ZM88.0568 91.17H92.1461C92.5211 91.17 92.823 91.472 92.823 91.8469V93.7419C92.823 94.1169 92.5211 94.4188 92.1461 94.4188H88.0568C87.6818 94.4188 87.3799 94.1169 87.3799 93.7419V91.8469C87.3799 91.472 87.6818 91.17 88.0568 91.17ZM39.7129 44.1136C39.338 44.1136 39.036 44.4155 39.036 44.7905V100.119C39.036 100.494 39.338 100.795 39.7129 100.795H55.3463C55.7213 100.795 56.0232 100.494 56.0232 100.119V44.7905C56.0232 44.4155 55.7213 44.1136 55.3463 44.1136H39.7129ZM42.767 51.8544H45.1546C45.5296 51.8544 45.8315 52.1563 45.8315 52.5312V55.4099C45.8315 55.7848 45.5296 56.0868 45.1546 56.0868H42.767C42.3921 56.0868 42.0902 55.7848 42.0902 55.4099V52.5312C42.0902 52.1563 42.3921 51.8544 42.767 51.8544ZM50.0624 51.8544H52.45C52.8249 51.8544 53.1269 52.1563 53.1269 52.5312V55.4099C53.1269 55.7848 52.8249 56.0868 52.45 56.0868H50.0624C49.6875 56.0868 49.3855 55.7848 49.3855 55.4099V52.5312C49.3855 52.1563 49.6875 51.8544 50.0624 51.8544ZM42.767 61.434H45.1546C45.5296 61.434 45.8315 61.736 45.8315 62.1109V64.9896C45.8315 65.3645 45.5296 65.6665 45.1546 65.6665H42.767C42.3921 65.6665 42.0902 65.3645 42.0902 64.9896V62.1109C42.0902 61.736 42.3921 61.434 42.767 61.434ZM50.0624 61.434H52.45C52.8249 61.434 53.1269 61.736 53.1269 62.1109V64.9896C53.1269 65.3645 52.8249 65.6665 52.45 65.6665H50.0624C49.6875 65.6665 49.3855 65.3645 49.3855 64.9896V62.1109C49.3855 61.736 49.6875 61.434 50.0624 61.434ZM42.767 71.0137H45.1546C45.5296 71.0137 45.8315 71.3157 45.8315 71.6906V74.5693C45.8315 74.9442 45.5296 75.2461 45.1546 75.2461H42.767C42.3921 75.2461 42.0902 74.9442 42.0902 74.5693V71.6906C42.0902 71.3157 42.3921 71.0137 42.767 71.0137ZM50.0624 71.0137H52.45C52.8249 71.0137 53.1269 71.3157 53.1269 71.6906V74.5693C53.1269 74.9442 52.8249 75.2461 52.45 75.2461H50.0624C49.6875 75.2461 49.3855 74.9442 49.3855 74.5693V71.6906C49.3855 71.3157 49.6875 71.0137 50.0624 71.0137ZM42.767 80.5934H45.1546C45.5296 80.5934 45.8315 80.8954 45.8315 81.2703V84.149C45.8315 84.5239 45.5296 84.8258 45.1546 84.8258H42.767C42.3921 84.8258 42.0902 84.5239 42.0902 84.149V81.2703C42.0902 80.8954 42.3921 80.5934 42.767 80.5934ZM50.0624 80.5934H52.45C52.8249 80.5934 53.1269 80.8954 53.1269 81.2703V84.149C53.1269 84.5239 52.8249 84.8258 52.45 84.8258H50.0624C49.6875 84.8258 49.3855 84.5239 49.3855 84.149V81.2703C49.3855 80.8954 49.6875 80.5934 50.0624 80.5934ZM42.767 90.1731H45.1546C45.5296 90.1731 45.8315 90.4751 45.8315 90.85V93.7301C45.8315 94.1051 45.5296 94.407 45.1546 94.407H42.767C42.3921 94.407 42.0902 94.1051 42.0902 93.7301V90.85C42.0902 90.4751 42.3921 90.1731 42.767 90.1731ZM50.0624 90.1731H52.45C52.8249 90.1731 53.1269 90.4751 53.1269 90.85V93.7301C53.1269 94.1051 52.8249 94.407 52.45 94.407H50.0624C49.6875 94.407 49.3855 94.1051 49.3855 93.7301V90.85C49.3855 90.4751 49.6875 90.1731 50.0624 90.1731ZM58.6895 75.883V100.119C58.6895 100.494 58.9914 100.795 59.3663 100.795H74.7741C75.149 100.795 75.451 100.494 75.451 100.119V55.3184C75.451 54.9435 74.9551 54.4248 74.3607 55.1775L59.2821 74.2739C58.7677 74.9254 58.6895 75.124 58.6895 75.883ZM73.1386 60.7232C73.4127 60.7217 73.4586 61.3784 73.4586 61.6597V65.7372C73.4586 66.1122 73.1567 66.4141 72.7818 66.4141H69.6318C69.2306 66.4141 68.5472 66.2437 68.9549 65.7372L72.7818 60.9828C72.9305 60.7979 73.0473 60.7237 73.1386 60.7232ZM68.6924 68.7294H72.7818C73.1567 68.7294 73.4586 69.0313 73.4586 69.4063V71.3013C73.4586 71.6763 73.1567 71.9782 72.7818 71.9782H68.6924C68.3174 71.9782 68.0155 71.6763 68.0155 71.3013V69.4063C68.0155 69.0313 68.3174 68.7294 68.6924 68.7294ZM65.6029 70.2262C65.8718 70.1706 65.9376 70.785 65.9376 71.2143V77.0187C65.9376 77.3937 65.6357 77.6956 65.2607 77.6956H61.3837C61.0088 77.6956 60.4404 77.398 60.7069 77.0187L65.2607 70.5374C65.4004 70.3386 65.5132 70.2448 65.6029 70.2262ZM68.6924 74.2773H72.7818C73.1567 74.2773 73.4586 74.5792 73.4586 74.9542V76.8506C73.4586 77.2256 73.1567 77.5275 72.7818 77.5275H68.6924C68.3174 77.5275 68.0155 77.2256 68.0155 76.8506V74.9542C68.0155 74.5792 68.3174 74.2773 68.6924 74.2773ZM61.3837 79.8428H65.2607C65.6357 79.8428 65.9376 80.1447 65.9376 80.5197V82.4162C65.9376 82.7911 65.6357 83.0931 65.2607 83.0931H61.3837C61.0088 83.0931 60.7069 82.7911 60.7069 82.4162V80.5197C60.7069 80.1447 61.0088 79.8428 61.3837 79.8428ZM68.6924 79.8428H72.7818C73.1567 79.8428 73.4586 80.1447 73.4586 80.5197V82.4162C73.4586 82.7911 73.1567 83.0931 72.7818 83.0931H68.6924C68.3174 83.0931 68.0155 82.7911 68.0155 82.4162V80.5197C68.0155 80.1447 68.3174 79.8428 68.6924 79.8428ZM61.3837 85.6045H65.2607C65.6357 85.6045 65.9376 85.9064 65.9376 86.2814V88.1778C65.9376 88.5528 65.6357 88.8547 65.2607 88.8547H61.3837C61.0088 88.8547 60.7069 88.5528 60.7069 88.1778V86.2814C60.7069 85.9064 61.0088 85.6045 61.3837 85.6045ZM68.6924 85.6045H72.7818C73.1567 85.6045 73.4586 85.9064 73.4586 86.2814V88.1778C73.4586 88.5528 73.1567 88.8547 72.7818 88.8547H68.6924C68.3174 88.8547 68.0155 88.5528 68.0155 88.1778V86.2814C68.0155 85.9064 68.3174 85.6045 68.6924 85.6045ZM61.3837 91.17H65.2607C65.6357 91.17 65.9376 91.472 65.9376 91.8469V93.7419C65.9376 94.1169 65.6357 94.4188 65.2607 94.4188H61.3837C61.0088 94.4188 60.7069 94.1169 60.7069 93.7419V91.8469C60.7069 91.472 61.0088 91.17 61.3837 91.17ZM68.6924 91.17H72.7818C73.1567 91.17 73.4586 91.472 73.4586 91.8469V93.7419C73.4586 94.1169 73.1567 94.4188 72.7818 94.4188H68.6924C68.3174 94.4188 68.0155 94.1169 68.0155 93.7419V91.8469C68.0155 91.472 68.3174 91.17 68.6924 91.17ZM19.7587 86.6795C19.3837 86.6795 19.0818 86.9815 19.0818 87.3564V100.119C19.0818 100.494 19.3837 100.795 19.7587 100.795H25.2239C25.2224 100.77 25.2164 100.746 25.2164 100.72V93.2907C25.2164 92.7074 25.686 92.2377 26.2693 92.2377H29.7098C30.2931 92.2377 30.7628 92.7074 30.7628 93.2907V100.72C30.7628 100.746 30.7575 100.77 30.7552 100.795H35.9181C36.2931 100.795 36.595 100.494 36.595 100.119V87.3564C36.595 86.9815 36.2931 86.6795 35.9181 86.6795H19.7587Z" fill="white"/>
</g>
<defs>
<clipPath id="clip0">
<rect x="0.269531" y="0.0654297" width="111.817" height="112" rx="6" fill="white"/>
</clipPath>
</defs>
</svg>
