<svg width="113" height="113" viewBox="0 0 113 113" fill="none" xmlns="http://www.w3.org/2000/svg">
<g clip-path="url(#clip0)">
<path fill-rule="evenodd" clip-rule="evenodd" d="M0.893793 0.0654297H111.463C111.809 0.0654297 112.087 0.343864 112.087 0.689691V111.441C112.087 111.787 111.809 112.065 111.463 112.065H0.893793C0.547965 112.065 0.269531 111.787 0.269531 111.441V0.689691C0.269531 0.343864 0.547965 0.0654297 0.893793 0.0654297Z" fill="#183668"/>
<path d="M36.676 19.3494V9.90628H38.8888H38.917C39.1989 9.90628 39.4667 9.96736 39.7204 10.0895C39.9741 10.2023 40.1996 10.3526 40.3969 10.5405C40.5942 10.7284 40.7493 10.9446 40.862 11.1889C40.9842 11.4238 41.0499 11.668 41.0593 11.9217V13.2889V13.4298C41.0593 13.7399 40.9982 14.0312 40.8761 14.3037C40.7633 14.5668 40.6083 14.797 40.411 14.9943C40.2137 15.1916 39.9788 15.3467 39.7063 15.4594C39.4432 15.5722 39.1613 15.6286 38.8606 15.6286H38.7338H38.0291V19.3494H36.676ZM39.5372 14.0782C39.6218 13.9936 39.6734 13.9043 39.6922 13.8104C39.7204 13.7164 39.7345 13.599 39.7345 13.458V12.0627C39.7345 11.7996 39.6546 11.5835 39.4949 11.4144C39.3351 11.2358 39.1191 11.1466 38.8466 11.1466H38.0291V14.346H38.7338C38.9217 14.346 39.0721 14.3319 39.1848 14.3037C39.307 14.2661 39.4244 14.1909 39.5372 14.0782Z" fill="white"/>
<path d="M41.1624 19.3494L43.2765 9.90628H44.4463L46.5605 19.3494H45.1088L44.7282 17.3199H42.9805L42.5859 19.3494H41.1624ZM43.2201 16.0655H44.4886L43.8544 12.6265L43.2201 16.0655Z" fill="white"/>
<path d="M47.2349 19.3494V9.90628H49.6027C50.2228 9.90628 50.7443 10.1224 51.1672 10.5546C51.5994 10.9868 51.8155 11.5177 51.8155 12.1472V13.0211C51.8155 13.8949 51.4443 14.5621 50.702 15.0225L52.1397 19.3494H50.702L49.4336 15.3044H48.5879V19.3494H47.2349ZM50.237 13.8104C50.3215 13.707 50.3779 13.5896 50.4061 13.458C50.4437 13.3265 50.4625 13.1808 50.4625 13.0211V12.1472C50.4625 11.856 50.3826 11.6211 50.2228 11.4426C50.0631 11.2546 49.8376 11.1607 49.5463 11.1607H48.588V14.1064H49.5323C49.8142 14.1064 50.049 14.0077 50.237 13.8104Z" fill="white"/>
<path d="M53.6966 19.3494V11.1607H52.104V9.90628H56.6564V11.1607H55.0356V19.3494H53.6966Z" fill="white"/>
<path d="M60.6411 19.3494L58.541 13.613V19.3494H57.188V9.90628H58.4706L60.5565 15.6286V9.90628H61.9095V19.3494H60.6411Z" fill="white"/>
<path d="M66.7501 17.9964V19.3494H62.7051V9.90628H66.7501V11.1466H64.044V13.9373H66.4118V15.2198H64.044V17.9964H66.7501Z" fill="white"/>
<path d="M67.3674 19.3494V9.90628H69.7353C70.3555 9.90628 70.8769 10.1224 71.2997 10.5546C71.732 10.9868 71.9481 11.5177 71.9481 12.1472V13.0211C71.9481 13.8949 71.577 14.5621 70.8347 15.0225L72.2723 19.3494H70.8347L69.5662 15.3044H68.7205V19.3494H67.3674ZM70.3695 13.8104C70.4541 13.707 70.5105 13.5896 70.5386 13.458C70.5763 13.3265 70.5951 13.1808 70.5951 13.0211V12.1472C70.5951 11.856 70.5152 11.6211 70.3555 11.4426C70.1957 11.2546 69.9702 11.1607 69.6789 11.1607H68.7205V14.1064H69.6648C69.9467 14.1064 70.1816 14.0077 70.3696 13.8104H70.3695Z" fill="white"/>
<path d="M73.8123 16.9956C73.8123 17.0896 73.8123 17.1695 73.8123 17.2352C73.8123 17.301 73.8169 17.3574 73.8264 17.4044C73.8451 17.4983 73.9156 17.6346 74.0378 17.8131C74.1693 18.001 74.4042 18.095 74.7425 18.095C74.9304 18.095 75.1042 18.0574 75.264 17.9822C75.4237 17.8977 75.5412 17.7896 75.6163 17.6581C75.6727 17.5547 75.7056 17.456 75.715 17.3621C75.7338 17.2681 75.7432 17.1835 75.7432 17.1084V16.9815V16.3191V16.1922C75.7432 15.9855 75.7056 15.8258 75.6304 15.7131C75.5552 15.5909 75.3861 15.4547 75.123 15.3043C74.9445 15.2104 74.625 15.0788 74.1646 14.9097C73.7042 14.7405 73.3189 14.4728 73.0089 14.1063C72.6988 13.7399 72.5438 13.2419 72.5438 12.6123V12.1895C72.5438 11.5411 72.7599 10.9868 73.1921 10.5264C73.6337 10.0566 74.1693 9.82166 74.7988 9.82166C75.4566 9.82166 76.0016 10.0519 76.4338 10.5123C76.8754 10.9727 77.0962 11.5318 77.0962 12.1895V12.6123H75.7432V12.1895C75.7432 12.1237 75.7385 12.0626 75.7291 12.0062C75.7291 11.9499 75.7243 11.8982 75.7149 11.8512C75.7055 11.8043 75.682 11.7479 75.6445 11.6821C75.6069 11.6163 75.5552 11.5365 75.4894 11.4425C75.3579 11.2546 75.1371 11.1606 74.827 11.1606C74.5545 11.1606 74.329 11.2593 74.1505 11.4566C73.9813 11.6539 73.8968 11.8982 73.8968 12.1895V12.6123V12.7392C73.8968 12.9271 73.925 13.0774 73.9813 13.1902C74.0471 13.2935 74.1975 13.411 74.4324 13.5425C74.5075 13.5801 74.6203 13.6318 74.7706 13.6976C74.9304 13.7539 75.123 13.8244 75.3485 13.909C75.7995 14.0593 76.2036 14.3271 76.5606 14.7123C76.9177 15.0976 77.0962 15.605 77.0962 16.2346V16.9956C77.0962 17.3245 77.0633 17.6017 76.9975 17.8272C76.9412 18.0527 76.7485 18.3815 76.4196 18.8138C76.0908 19.2272 75.5411 19.4339 74.7706 19.4339C73.9532 19.4339 73.3612 19.1708 72.9948 18.6446C72.6283 18.1091 72.4451 17.5594 72.4451 16.9956V16.6574H73.8122L73.8123 16.9956Z" fill="white"/>
<path d="M77.8838 19.3494V9.90628H79.2228V13.9373H80.9422V9.90628H82.2812V19.3494H80.9422V15.1353H79.2228V19.3494H77.8838Z" fill="white"/>
<path d="M83.6118 19.3494V9.90628H84.9508V19.3494H83.6118Z" fill="white"/>
<path d="M86.0813 19.3494V9.90628H88.2941H88.3223C88.6041 9.90628 88.8719 9.96736 89.1256 10.0895C89.3793 10.2023 89.6048 10.3526 89.8022 10.5405C89.9995 10.7284 90.1545 10.9446 90.2673 11.1889C90.3894 11.4238 90.4552 11.668 90.4646 11.9217V13.2889V13.4298C90.4646 13.7399 90.4035 14.0312 90.2814 14.3037C90.1686 14.5668 90.0135 14.797 89.8162 14.9943C89.6189 15.1916 89.384 15.3467 89.1115 15.4594C88.8485 15.5722 88.5665 15.6286 88.2658 15.6286H88.139H87.4343V19.3494H86.0813ZM88.9424 14.0782C89.027 13.9936 89.0786 13.9043 89.0974 13.8104C89.1256 13.7164 89.1397 13.599 89.1397 13.458V12.0627C89.1397 11.7996 89.0599 11.5835 88.9002 11.4144C88.7404 11.2358 88.5243 11.1466 88.2518 11.1466H87.4343V14.346H88.139C88.3269 14.346 88.4773 14.3319 88.5901 14.3037C88.7122 14.2661 88.8297 14.1909 88.9424 14.0782Z" fill="white"/>
<path d="M92.4902 16.9956C92.4902 17.0896 92.4902 17.1695 92.4902 17.2352C92.4902 17.301 92.4949 17.3574 92.5043 17.4044C92.5231 17.4983 92.5936 17.6346 92.7158 17.8131C92.8473 18.001 93.0822 18.095 93.4205 18.095C93.6084 18.095 93.7822 18.0574 93.9419 17.9822C94.1017 17.8977 94.2191 17.7896 94.2943 17.6581C94.3507 17.5547 94.3836 17.456 94.393 17.3621C94.4118 17.2681 94.4211 17.1835 94.4211 17.1084V16.9815V16.3191V16.1922C94.4211 15.9855 94.3835 15.8258 94.3084 15.7131C94.2332 15.5909 94.0641 15.4547 93.801 15.3043C93.6225 15.2104 93.303 15.0788 92.8426 14.9097C92.3821 14.7405 91.9969 14.4728 91.6868 14.1063C91.3768 13.7399 91.2217 13.2419 91.2217 12.6123V12.1895C91.2217 11.5411 91.4379 10.9868 91.8701 10.5264C92.3117 10.0566 92.8473 9.82166 93.4768 9.82166C94.1346 9.82166 94.6795 10.0519 95.1118 10.5123C95.5534 10.9727 95.7742 11.5318 95.7742 12.1895V12.6123H94.4211V12.1895C94.4211 12.1237 94.4164 12.0626 94.407 12.0062C94.407 11.9499 94.4023 11.8982 94.3929 11.8512C94.3835 11.8043 94.36 11.7479 94.3225 11.6821C94.2849 11.6163 94.2331 11.5365 94.1674 11.4425C94.0358 11.2546 93.815 11.1606 93.505 11.1606C93.2325 11.1606 93.007 11.2593 92.8285 11.4566C92.6593 11.6539 92.5748 11.8982 92.5748 12.1895V12.6123V12.7392C92.5748 12.9271 92.6029 13.0774 92.6593 13.1902C92.7251 13.2935 92.8754 13.411 93.1104 13.5425C93.1855 13.5801 93.2983 13.6318 93.4486 13.6976C93.6083 13.7539 93.801 13.8244 94.0265 13.909C94.4775 14.0593 94.8815 14.3271 95.2386 14.7123C95.5956 15.0976 95.7742 15.605 95.7742 16.2346V16.9956C95.7742 17.3245 95.7413 17.6017 95.6755 17.8272C95.6191 18.0527 95.4265 18.3815 95.0976 18.8138C94.7687 19.2272 94.2191 19.4339 93.4486 19.4339C92.6311 19.4339 92.0392 19.1708 91.6727 18.6446C91.3063 18.1091 91.123 17.5594 91.123 16.9956V16.6574H92.4902L92.4902 16.9956Z" fill="white"/>
<path d="M36.676 32.3717V22.9285H40.707V24.1969H38.015V27.0299H40.3687V28.2984H38.015V32.3717H36.676Z" fill="white"/>
<path d="M41.377 23.8166C41.5931 23.5159 41.8656 23.281 42.1944 23.1119C42.5327 22.9333 42.8804 22.8441 43.2374 22.8441C43.5851 22.8441 43.9093 22.9145 44.2099 23.0555C44.52 23.1964 44.7784 23.389 44.9851 23.6333C45.1918 23.8776 45.3328 24.1313 45.408 24.3944C45.4831 24.6481 45.5207 24.9253 45.5207 25.226V30.0321C45.5207 30.314 45.4925 30.563 45.4361 30.7791C45.3892 30.9952 45.2764 31.2349 45.0979 31.498C44.9287 31.7611 44.6797 31.9866 44.3509 32.1745C44.0314 32.3624 43.6743 32.4564 43.2797 32.4564C43.0542 32.4564 42.8381 32.4282 42.6314 32.3718C42.4246 32.306 42.232 32.2215 42.0535 32.1181C41.875 32.0148 41.7152 31.8973 41.5743 31.7658C41.4427 31.6342 41.3394 31.4979 41.2642 31.357C41.1233 31.0657 41.0387 30.8308 41.0105 30.6523C40.9823 30.4738 40.9683 30.267 40.9683 30.0321V25.226C40.9683 24.9441 40.9964 24.6951 41.0528 24.479C41.1186 24.2535 41.2266 24.0327 41.377 23.8166ZM43.9985 24.5636C43.82 24.3005 43.5757 24.1689 43.2656 24.1689C43.1059 24.1689 42.9461 24.2159 42.7864 24.3099C42.6361 24.3944 42.528 24.4931 42.4622 24.6059C42.4059 24.7186 42.3683 24.8314 42.3495 24.9441C42.3307 25.0569 42.3213 25.1508 42.3213 25.226V30.0321C42.3213 30.0791 42.3213 30.1308 42.3213 30.1872C42.3213 30.2341 42.326 30.2858 42.3355 30.3422C42.3449 30.4362 42.42 30.5912 42.5609 30.8073C42.7019 31.0047 42.9368 31.1033 43.2657 31.1033C43.4348 31.1033 43.5851 31.0657 43.7167 30.9906C43.8576 30.906 43.9563 30.812 44.0127 30.7087C44.0784 30.5959 44.1207 30.4926 44.1395 30.3986C44.1583 30.3046 44.1677 30.1825 44.1677 30.0321V25.226C44.1677 25.0381 44.1583 24.9065 44.1395 24.8314C44.1301 24.7562 44.0831 24.6669 43.9986 24.5636H43.9985Z" fill="white"/>
<path d="M46.6582 32.3717V22.9285H49.026C49.6462 22.9285 50.1676 23.1446 50.5905 23.5768C51.0227 24.0091 51.2388 24.5399 51.2388 25.1695V26.0433C51.2388 26.9172 50.8677 27.5843 50.1254 28.0447L51.563 32.3717H50.1254L48.8569 28.3266H48.0112V32.3717H46.6582ZM49.6602 26.8326C49.7448 26.7293 49.8012 26.6118 49.8294 26.4803C49.867 26.3487 49.8858 26.2031 49.8858 26.0433V25.1695C49.8858 24.8782 49.8059 24.6433 49.6462 24.4647C49.4865 24.2768 49.2609 24.1828 48.9697 24.1828H48.0112V27.1286H48.9556C49.2375 27.1286 49.4724 27.0299 49.6603 26.8326H49.6602Z" fill="white"/>
<path d="M54.6778 32.3717V24.1828H53.0852V22.9285H57.6376V24.1828H56.0168V32.3717H54.6778Z" fill="white"/>
<path d="M58.1692 32.3717V22.9285H59.5081V26.9594H61.2276V22.9285H62.5666V32.3717H61.2276V28.1575H59.5081V32.3717H58.1692Z" fill="white"/>
<path d="M67.8747 31.0186V32.3717H63.8296V22.9285H67.8747V24.1688H65.1686V26.9594H67.5364V28.242H65.1686V31.0186H67.8747Z" fill="white"/>
<path d="M74.1116 31.3852C73.8955 31.7234 73.6183 31.9866 73.2801 32.1745C72.9418 32.3624 72.5707 32.4564 72.1666 32.4564C71.8096 32.4564 71.4619 32.3718 71.1236 32.2027C70.7948 32.0336 70.5364 31.8268 70.3485 31.5825C70.17 31.3288 70.0478 31.0751 69.982 30.8214C69.9256 30.5677 69.8975 30.2811 69.8975 29.9617V25.2401C69.8975 25.0052 69.921 24.7703 69.9679 24.5354C70.0337 24.3005 70.2075 23.9669 70.4894 23.5347C70.7806 23.0743 71.3538 22.8441 72.2089 22.8441C72.5847 22.8441 72.9371 22.9333 73.266 23.1119C73.5948 23.2904 73.8438 23.5112 74.013 23.7743C74.1915 24.028 74.3042 24.2723 74.3512 24.5072C74.4076 24.7327 74.4358 24.977 74.4358 25.2401V25.6348H73.0968V25.2401C73.0968 25.1649 73.0921 25.0991 73.0827 25.0428C73.0827 24.977 73.078 24.9206 73.0686 24.8736C73.0592 24.7891 72.9887 24.6528 72.8572 24.4649C72.7256 24.277 72.5048 24.183 72.1947 24.183C71.8283 24.183 71.584 24.2817 71.4618 24.479C71.3491 24.6763 71.2833 24.822 71.2645 24.9159C71.2457 25.0099 71.2364 25.1179 71.2364 25.2401V29.9617C71.2364 30.0556 71.2364 30.1355 71.2364 30.2013C71.2364 30.267 71.241 30.3234 71.2505 30.3704C71.2599 30.4456 71.3304 30.5912 71.4619 30.8073C71.584 31.0047 71.8236 31.1033 72.1807 31.1033C72.5471 31.1033 72.782 31.0047 72.8854 30.8073C72.9418 30.704 72.9841 30.6194 73.0123 30.5536C73.0405 30.4785 73.0593 30.4127 73.0687 30.3563C73.0875 30.2999 73.0968 30.2435 73.0968 30.1872C73.0968 30.1214 73.0968 30.0462 73.0968 29.9617V28.3126H72.0115V27.1287H74.4358V29.9617C74.4358 30.159 74.431 30.3281 74.4216 30.4691C74.4122 30.6006 74.3935 30.7181 74.3653 30.8214C74.3371 30.9248 74.2995 31.0234 74.2525 31.1174C74.2149 31.202 74.1679 31.2912 74.1116 31.3852H74.1116Z" fill="white"/>
<path d="M75.9519 23.8166C76.168 23.5159 76.4405 23.281 76.7694 23.1119C77.1076 22.9333 77.4553 22.8441 77.8124 22.8441C78.16 22.8441 78.4842 22.9145 78.7849 23.0555C79.095 23.1964 79.3533 23.389 79.56 23.6333C79.7668 23.8776 79.9077 24.1313 79.9829 24.3944C80.058 24.6481 80.0956 24.9253 80.0956 25.226V30.0321C80.0956 30.314 80.0674 30.563 80.0111 30.7791C79.9641 30.9952 79.8514 31.2349 79.6728 31.498C79.5037 31.7611 79.2547 31.9866 78.9258 32.1745C78.6064 32.3624 78.2493 32.4564 77.8547 32.4564C77.6292 32.4564 77.413 32.4282 77.2063 32.3718C76.9996 32.306 76.807 32.2215 76.6285 32.1181C76.4499 32.0148 76.2902 31.8973 76.1492 31.7658C76.0177 31.6342 75.9143 31.4979 75.8392 31.357C75.6982 31.0657 75.6137 30.8308 75.5855 30.6523C75.5573 30.4738 75.5432 30.267 75.5432 30.0321V25.226C75.5432 24.9441 75.5714 24.6951 75.6278 24.479C75.6936 24.2535 75.8016 24.0327 75.9519 23.8166ZM78.5735 24.5636C78.3949 24.3005 78.1506 24.1689 77.8406 24.1689C77.6808 24.1689 77.5211 24.2159 77.3613 24.3099C77.211 24.3944 77.103 24.4931 77.0372 24.6059C76.9808 24.7186 76.9432 24.8314 76.9244 24.9441C76.9056 25.0569 76.8963 25.1508 76.8963 25.226V30.0321C76.8963 30.0791 76.8963 30.1308 76.8963 30.1872C76.8963 30.2341 76.901 30.2858 76.9104 30.3422C76.9198 30.4362 76.995 30.5912 77.1359 30.8073C77.2768 31.0047 77.5118 31.1033 77.8406 31.1033C78.0098 31.1033 78.1601 31.0657 78.2916 30.9906C78.4325 30.906 78.5312 30.812 78.5876 30.7087C78.6534 30.5959 78.6956 30.4926 78.7144 30.3986C78.7332 30.3046 78.7426 30.1825 78.7426 30.0321V25.226C78.7426 25.0381 78.7332 24.9065 78.7144 24.8314C78.705 24.7562 78.658 24.6669 78.5735 24.5636H78.5735Z" fill="white"/>
<path d="M80.6636 32.3717L82.7777 22.9285H83.9476L86.0617 32.3717H84.61L84.2294 30.342H82.4817L82.0871 32.3717H80.6636ZM82.7213 29.0877H83.9898L83.3556 25.6487L82.7213 29.0877Z" fill="white"/>
<path d="M90.7277 32.3717H86.6968V22.9285H88.0499V31.0186H90.7277V32.3717Z" fill="white"/>
<path d="M92.1396 30.018C92.1396 30.112 92.1396 30.1919 92.1396 30.2576C92.1396 30.3234 92.1443 30.3798 92.1538 30.4268C92.1725 30.5207 92.243 30.657 92.3651 30.8355C92.4967 31.0235 92.7316 31.1174 93.0699 31.1174C93.2578 31.1174 93.4316 31.0798 93.5914 31.0047C93.7511 30.9201 93.8686 30.812 93.9437 30.6805C94.0001 30.5771 94.033 30.4785 94.0424 30.3845C94.0612 30.2905 94.0705 30.206 94.0705 30.1308V30.0039V29.3415V29.2146C94.0705 29.0079 94.0329 28.8482 93.9578 28.7355C93.8826 28.6133 93.7135 28.4771 93.4504 28.3267C93.2719 28.2328 92.9524 28.1012 92.492 27.9321C92.0316 27.763 91.6463 27.4952 91.3363 27.1287C91.0262 26.7623 90.8712 26.2643 90.8712 25.6348V25.2119C90.8712 24.5635 91.0873 24.0092 91.5195 23.5488C91.9611 23.079 92.4967 22.8441 93.1262 22.8441C93.784 22.8441 94.3289 23.0743 94.7612 23.5347C95.2028 23.9951 95.4236 24.5541 95.4236 25.2119V25.6348H94.0705V25.2119C94.0705 25.1461 94.0659 25.0851 94.0564 25.0287C94.0564 24.9723 94.0517 24.9206 94.0423 24.8736C94.0329 24.8267 94.0094 24.7703 93.9719 24.7045C93.9343 24.6387 93.8826 24.5589 93.8168 24.4649C93.6853 24.277 93.4645 24.183 93.1544 24.183C92.8819 24.183 92.6564 24.2817 92.4779 24.479C92.3087 24.6763 92.2242 24.9206 92.2242 25.2119V25.6348V25.7616C92.2242 25.9495 92.2524 26.0999 92.3087 26.2126C92.3745 26.316 92.5249 26.4334 92.7598 26.565C92.8349 26.6026 92.9477 26.6542 93.098 26.72C93.2578 26.7764 93.4504 26.8468 93.6759 26.9314C94.1269 27.0817 94.5309 27.3495 94.888 27.7348C95.2451 28.12 95.4236 28.6274 95.4236 29.257V30.018C95.4236 30.3469 95.3907 30.6241 95.3249 30.8496C95.2685 31.0751 95.0759 31.404 94.7471 31.8362C94.4182 32.2497 93.8685 32.4564 93.098 32.4564C92.2806 32.4564 91.6886 32.1933 91.3222 31.6671C90.9557 31.1315 90.7725 30.5818 90.7725 30.018V29.6798H92.1396V30.018Z" fill="white"/>
<path d="M13.5929 32.4894V13.2658L10.3552 15.6941V12.2541L13.5929 9.89325H16.7968V32.4894H13.5929Z" fill="white"/>
<path d="M21.6614 15.5591H18.7947V9.89319H28.4402V12.8273L23.179 32.4893H19.739L25.2363 12.8948H21.6614V15.5591Z" fill="white"/>
<path fill-rule="evenodd" clip-rule="evenodd" d="M56.7949 68.361C56.7949 70.0787 56.4565 71.7794 55.7992 73.3663C55.1419 74.9532 54.1786 76.395 52.964 77.6095C51.7495 78.8241 50.3076 79.7875 48.7208 80.4447C47.1339 81.102 45.4331 81.4404 43.7155 81.4404C40.2467 81.4404 36.9199 80.0624 34.4671 77.6095C32.0142 75.1567 30.6362 71.8299 30.6362 68.361C30.6362 64.8922 32.0142 61.5654 34.4671 59.1126C36.9199 56.6597 40.2467 55.2817 43.7155 55.2817C47.1844 55.2817 50.5112 56.6597 52.964 59.1126C55.4169 61.5654 56.7949 64.8922 56.7949 68.361V68.361Z" stroke="white" stroke-width="4" stroke-linecap="round" stroke-linejoin="round"/>
<path fill-rule="evenodd" clip-rule="evenodd" d="M70.0507 58.7041C70.0507 62.173 68.6727 65.4998 66.2199 67.9526C63.767 70.4055 60.4403 71.7834 56.9714 71.7834C53.5025 71.7834 50.1758 70.4055 47.7229 67.9526C45.2701 65.4998 43.8921 62.173 43.8921 58.7041C43.8921 56.9865 44.2304 55.2857 44.8877 53.6989C45.545 52.112 46.5084 50.6702 47.7229 49.4556C48.9374 48.2411 50.3793 47.2777 51.9662 46.6204C53.553 45.9631 55.2538 45.6248 56.9714 45.6248C60.4403 45.6248 63.767 47.0028 66.2199 49.4556C68.6727 51.9085 70.0507 55.2353 70.0507 58.7041V58.7041Z" stroke="white" stroke-width="4" stroke-linecap="round" stroke-linejoin="round"/>
<path fill-rule="evenodd" clip-rule="evenodd" d="M78.122 83.7591C78.122 87.2279 76.744 90.5547 74.2912 93.0075C71.8383 95.4604 68.5115 96.8384 65.0427 96.8384C63.3251 96.8384 61.6243 96.5001 60.0374 95.8428C58.4506 95.1855 57.0087 94.2221 55.7942 93.0075C54.5797 91.793 53.6163 90.3512 52.959 88.7643C52.3017 87.1774 51.9634 85.4767 51.9634 83.7591C51.9634 80.2902 53.3414 76.9634 55.7942 74.5106C58.2471 72.0577 61.5738 70.6797 65.0427 70.6797C68.5115 70.6798 71.8383 72.0577 74.2912 74.5106C76.744 76.9634 78.122 80.2902 78.122 83.7591V83.7591Z" stroke="white" stroke-width="4" stroke-linecap="round" stroke-linejoin="round"/>
<path fill-rule="evenodd" clip-rule="evenodd" d="M83.1667 68.2047C83.1667 69.9223 82.8284 71.6231 82.1711 73.21C81.5138 74.7968 80.5504 76.2387 79.3359 77.4532C78.1213 78.6677 76.6795 79.6311 75.0926 80.2884C73.5058 80.9457 71.805 81.284 70.0874 81.284C68.3698 81.284 66.669 80.9457 65.0821 80.2884C63.4953 79.6311 62.0534 78.6677 60.8389 77.4532C59.6244 76.2387 58.6609 74.7968 58.0036 73.21C57.3463 71.6231 57.0081 69.9223 57.0081 68.2047C57.0081 66.4871 57.3463 64.7863 58.0036 63.1995C58.6609 61.6126 59.6244 60.1708 60.8389 58.9563C62.0534 57.7417 63.4953 56.7783 65.0821 56.121C66.669 55.4637 68.3698 55.1254 70.0874 55.1254C71.805 55.1254 73.5058 55.4637 75.0926 56.121C76.6795 56.7783 78.1213 57.7417 79.3359 58.9563C80.5504 60.1708 81.5138 61.6126 82.1711 63.1995C82.8284 64.7863 83.1667 66.4871 83.1667 68.2047V68.2047Z" stroke="white" stroke-width="4" stroke-linecap="round" stroke-linejoin="round"/>
<path fill-rule="evenodd" clip-rule="evenodd" d="M61.811 83.8431C61.811 85.5607 61.4727 87.2615 60.8154 88.8484C60.1581 90.4352 59.1947 91.8771 57.9801 93.0916C56.7656 94.3061 55.3238 95.2695 53.7369 95.9268C52.15 96.5841 50.4493 96.9224 48.7317 96.9224C47.0141 96.9224 45.3133 96.5841 43.7264 95.9268C42.1396 95.2695 40.6977 94.3061 39.4832 93.0916C38.2686 91.8771 37.3053 90.4352 36.648 88.8484C35.9907 87.2615 35.6523 85.5607 35.6523 83.8431C35.6523 82.1255 35.9907 80.4247 36.648 78.8379C37.3053 77.251 38.2686 75.8091 39.4832 74.5946C40.6977 73.3801 42.1396 72.4167 43.7264 71.7594C45.3133 71.1021 47.0141 70.7638 48.7317 70.7638C50.4493 70.7638 52.15 71.1021 53.7369 71.7594C55.3238 72.4167 56.7656 73.3801 57.9801 74.5946C59.1947 75.8091 60.1581 77.251 60.8154 78.8379C61.4727 80.4247 61.811 82.1255 61.811 83.8431Z" stroke="white" stroke-width="4" stroke-linecap="round" stroke-linejoin="round"/>
</g>
<defs>
<clipPath id="clip0">
<rect x="0.269531" y="0.0654297" width="111.817" height="112" rx="6" fill="white"/>
</clipPath>
</defs>
</svg>
