<svg width="25" height="25" viewBox="0 0 25 25" fill="none" xmlns="http://www.w3.org/2000/svg">
<path d="M18.851 6.07311C18.4551 5.66951 17.9852 5.34935 17.4679 5.13092C16.9506 4.91248 16.3961 4.80005 15.8362 4.80005C15.2763 4.80005 14.7218 4.91248 14.2046 5.13092C13.6873 5.34935 13.2173 5.66951 12.8214 6.07311L11.9999 6.91033L11.1784 6.07311C10.3789 5.25825 9.29443 4.80047 8.16367 4.80047C7.03291 4.80047 5.94847 5.25825 5.1489 6.07311C4.34934 6.88797 3.90015 7.99316 3.90015 9.14554C3.90015 10.2979 4.34934 11.4031 5.1489 12.218L5.97041 13.0552L11.9999 19.2001L18.0295 13.0552L18.851 12.218C19.247 11.8146 19.5612 11.3356 19.7755 10.8084C19.9898 10.2812 20.1001 9.71618 20.1001 9.14554C20.1001 8.5749 19.9898 8.00985 19.7755 7.48268C19.5612 6.9555 19.247 6.47652 18.851 6.07311Z" stroke="#F05658" stroke-width="2" stroke-linecap="round" stroke-linejoin="round"/>
</svg>
