<svg width="181" height="42" viewBox="0 0 181 42" fill="none" xmlns="http://www.w3.org/2000/svg">
<path d="M54.56 27C54.4747 27 54.3947 26.968 54.32 26.904C54.256 26.84 54.224 26.76 54.224 26.664L54.256 26.52L58.112 16.2C58.1867 15.9333 58.3733 15.8 58.672 15.8H60.416C60.6933 15.8 60.88 15.9333 60.976 16.2L64.832 26.52C64.8427 26.552 64.848 26.6 64.848 26.664C64.848 26.76 64.816 26.84 64.752 26.904C64.688 26.968 64.6133 27 64.528 27H63.136C62.9973 27 62.8907 26.968 62.816 26.904C62.7413 26.84 62.6933 26.7707 62.672 26.696L61.92 24.744H57.168L56.416 26.696C56.3307 26.8987 56.176 27 55.952 27H54.56ZM61.36 22.904L59.536 17.96L57.728 22.904H61.36ZM73.643 27.16C72.171 27.16 71.0297 26.7813 70.219 26.024C69.419 25.2667 68.9923 24.2 68.939 22.824C68.9283 22.536 68.923 22.0667 68.923 21.416C68.923 20.7547 68.9283 20.2747 68.939 19.976C68.9923 18.6107 69.4243 17.5493 70.235 16.792C71.0563 16.024 72.1923 15.64 73.643 15.64C74.5923 15.64 75.419 15.8053 76.123 16.136C76.827 16.456 77.371 16.8987 77.755 17.464C78.139 18.0187 78.3417 18.648 78.363 19.352V19.384C78.363 19.4693 78.3257 19.544 78.251 19.608C78.187 19.6613 78.1123 19.688 78.027 19.688H76.507C76.379 19.688 76.283 19.6613 76.219 19.608C76.155 19.5547 76.1017 19.4533 76.059 19.304C75.8883 18.632 75.6057 18.1627 75.211 17.896C74.8163 17.6187 74.2883 17.48 73.627 17.48C72.091 17.48 71.291 18.3387 71.227 20.056C71.2163 20.344 71.211 20.7867 71.211 21.384C71.211 21.9813 71.2163 22.4347 71.227 22.744C71.291 24.4613 72.091 25.32 73.627 25.32C74.2883 25.32 74.8163 25.1813 75.211 24.904C75.6163 24.6267 75.899 24.1573 76.059 23.496C76.091 23.3467 76.139 23.2453 76.203 23.192C76.2777 23.1387 76.379 23.112 76.507 23.112H78.027C78.123 23.112 78.203 23.144 78.267 23.208C78.3417 23.272 78.3737 23.352 78.363 23.448C78.3417 24.152 78.139 24.7867 77.755 25.352C77.371 25.9067 76.827 26.3493 76.123 26.68C75.419 27 74.5923 27.16 73.643 27.16ZM87.7805 27.16C86.3085 27.16 85.1672 26.7813 84.3565 26.024C83.5565 25.2667 83.1298 24.2 83.0765 22.824C83.0658 22.536 83.0605 22.0667 83.0605 21.416C83.0605 20.7547 83.0658 20.2747 83.0765 19.976C83.1298 18.6107 83.5618 17.5493 84.3725 16.792C85.1938 16.024 86.3298 15.64 87.7805 15.64C88.7298 15.64 89.5565 15.8053 90.2605 16.136C90.9645 16.456 91.5085 16.8987 91.8925 17.464C92.2765 18.0187 92.4792 18.648 92.5005 19.352V19.384C92.5005 19.4693 92.4632 19.544 92.3885 19.608C92.3245 19.6613 92.2498 19.688 92.1645 19.688H90.6445C90.5165 19.688 90.4205 19.6613 90.3565 19.608C90.2925 19.5547 90.2392 19.4533 90.1965 19.304C90.0258 18.632 89.7432 18.1627 89.3485 17.896C88.9538 17.6187 88.4258 17.48 87.7645 17.48C86.2285 17.48 85.4285 18.3387 85.3645 20.056C85.3538 20.344 85.3485 20.7867 85.3485 21.384C85.3485 21.9813 85.3538 22.4347 85.3645 22.744C85.4285 24.4613 86.2285 25.32 87.7645 25.32C88.4258 25.32 88.9538 25.1813 89.3485 24.904C89.7538 24.6267 90.0365 24.1573 90.1965 23.496C90.2285 23.3467 90.2765 23.2453 90.3405 23.192C90.4152 23.1387 90.5165 23.112 90.6445 23.112H92.1645C92.2605 23.112 92.3405 23.144 92.4045 23.208C92.4792 23.272 92.5112 23.352 92.5005 23.448C92.4792 24.152 92.2765 24.7867 91.8925 25.352C91.5085 25.9067 90.9645 26.3493 90.2605 26.68C89.5565 27 88.7298 27.16 87.7805 27.16ZM97.982 27C97.8753 27 97.7847 26.9627 97.71 26.888C97.6353 26.8133 97.598 26.7227 97.598 26.616V16.2C97.598 16.0827 97.63 15.9867 97.694 15.912C97.7687 15.8373 97.8647 15.8 97.982 15.8H105.022C105.139 15.8 105.235 15.8373 105.31 15.912C105.385 15.9867 105.422 16.0827 105.422 16.2V17.256C105.422 17.3733 105.385 17.4693 105.31 17.544C105.235 17.608 105.139 17.64 105.022 17.64H99.758V20.472H104.67C104.787 20.472 104.883 20.5093 104.958 20.584C105.033 20.648 105.07 20.7387 105.07 20.856V21.848C105.07 21.9653 105.033 22.0613 104.958 22.136C104.883 22.2 104.787 22.232 104.67 22.232H99.758V25.16H105.15C105.267 25.16 105.363 25.1973 105.438 25.272C105.513 25.3467 105.55 25.4427 105.55 25.56V26.616C105.55 26.7333 105.513 26.8293 105.438 26.904C105.363 26.968 105.267 27 105.15 27H97.982ZM111.135 27C111.028 27 110.938 26.9627 110.863 26.888C110.788 26.8133 110.751 26.7227 110.751 26.616V16.184C110.751 16.0667 110.788 15.976 110.863 15.912C110.938 15.8373 111.028 15.8 111.135 15.8H112.623C112.74 15.8 112.831 15.8373 112.895 15.912C112.97 15.976 113.007 16.0667 113.007 16.184V25.096H118.079C118.196 25.096 118.292 25.1333 118.367 25.208C118.442 25.2827 118.479 25.3787 118.479 25.496V26.616C118.479 26.7333 118.442 26.8293 118.367 26.904C118.292 26.968 118.196 27 118.079 27H111.135ZM123.616 27C123.51 27 123.419 26.9627 123.344 26.888C123.27 26.8133 123.232 26.7227 123.232 26.616V16.2C123.232 16.0827 123.264 15.9867 123.328 15.912C123.403 15.8373 123.499 15.8 123.616 15.8H130.656C130.774 15.8 130.87 15.8373 130.944 15.912C131.019 15.9867 131.056 16.0827 131.056 16.2V17.256C131.056 17.3733 131.019 17.4693 130.944 17.544C130.87 17.608 130.774 17.64 130.656 17.64H125.392V20.472H130.304C130.422 20.472 130.518 20.5093 130.592 20.584C130.667 20.648 130.704 20.7387 130.704 20.856V21.848C130.704 21.9653 130.667 22.0613 130.592 22.136C130.518 22.2 130.422 22.232 130.304 22.232H125.392V25.16H130.784C130.902 25.16 130.998 25.1973 131.072 25.272C131.147 25.3467 131.184 25.4427 131.184 25.56V26.616C131.184 26.7333 131.147 26.8293 131.072 26.904C130.998 26.968 130.902 27 130.784 27H123.616ZM136.769 27C136.663 27 136.572 26.9627 136.497 26.888C136.423 26.8133 136.385 26.7227 136.385 26.616V16.2C136.385 16.0827 136.417 15.9867 136.481 15.912C136.556 15.8373 136.652 15.8 136.769 15.8H140.913C142.215 15.8 143.233 16.104 143.969 16.712C144.716 17.32 145.089 18.184 145.089 19.304C145.089 20.0827 144.897 20.7387 144.513 21.272C144.14 21.7947 143.617 22.1733 142.945 22.408L145.281 26.488C145.313 26.552 145.329 26.6107 145.329 26.664C145.329 26.76 145.292 26.84 145.217 26.904C145.153 26.968 145.079 27 144.993 27H143.537C143.367 27 143.233 26.9627 143.137 26.888C143.052 26.8133 142.972 26.7067 142.897 26.568L140.833 22.776H138.609V26.616C138.609 26.7227 138.572 26.8133 138.497 26.888C138.433 26.9627 138.343 27 138.225 27H136.769ZM140.865 20.968C141.505 20.968 141.985 20.824 142.305 20.536C142.636 20.248 142.801 19.832 142.801 19.288C142.801 18.744 142.636 18.3227 142.305 18.024C141.985 17.7253 141.505 17.576 140.865 17.576H138.609V20.968H140.865ZM150.735 27C150.628 27 150.538 26.9627 150.463 26.888C150.388 26.8133 150.351 26.7227 150.351 26.616V16.184C150.351 16.0667 150.388 15.976 150.463 15.912C150.538 15.8373 150.628 15.8 150.735 15.8H152.239C152.356 15.8 152.447 15.8373 152.511 15.912C152.586 15.976 152.623 16.0667 152.623 16.184V26.616C152.623 26.7227 152.586 26.8133 152.511 26.888C152.447 26.9627 152.356 27 152.239 27H150.735ZM162.22 27.16C161.271 27.16 160.455 27.016 159.772 26.728C159.09 26.44 158.572 26.0613 158.22 25.592C157.868 25.1227 157.682 24.616 157.66 24.072C157.66 23.976 157.692 23.896 157.756 23.832C157.82 23.768 157.9 23.736 157.996 23.736H159.42C159.548 23.736 159.644 23.7627 159.708 23.816C159.783 23.8587 159.852 23.9333 159.916 24.04C160.023 24.4027 160.268 24.7067 160.652 24.952C161.036 25.1973 161.559 25.32 162.22 25.32C162.978 25.32 163.548 25.1973 163.932 24.952C164.316 24.696 164.508 24.344 164.508 23.896C164.508 23.5973 164.407 23.352 164.204 23.16C164.012 22.968 163.719 22.8027 163.324 22.664C162.94 22.5253 162.364 22.3547 161.596 22.152C160.338 21.8533 159.415 21.4587 158.828 20.968C158.252 20.4667 157.964 19.7573 157.964 18.84C157.964 18.2213 158.13 17.672 158.46 17.192C158.802 16.712 159.287 16.3333 159.916 16.056C160.556 15.7787 161.298 15.64 162.14 15.64C163.015 15.64 163.772 15.7947 164.412 16.104C165.052 16.4133 165.538 16.8027 165.868 17.272C166.21 17.7307 166.391 18.1893 166.412 18.648C166.412 18.744 166.38 18.824 166.316 18.888C166.252 18.952 166.172 18.984 166.076 18.984H164.588C164.364 18.984 164.21 18.8827 164.124 18.68C164.06 18.3387 163.847 18.056 163.484 17.832C163.122 17.5973 162.674 17.48 162.14 17.48C161.543 17.48 161.074 17.592 160.732 17.816C160.391 18.04 160.22 18.3653 160.22 18.792C160.22 19.0907 160.306 19.336 160.476 19.528C160.647 19.72 160.914 19.8907 161.276 20.04C161.65 20.1893 162.183 20.3547 162.876 20.536C163.815 20.7493 164.562 20.9893 165.116 21.256C165.682 21.5227 166.098 21.8587 166.364 22.264C166.631 22.6693 166.764 23.1867 166.764 23.816C166.764 24.4987 166.572 25.096 166.188 25.608C165.815 26.1093 165.282 26.4933 164.588 26.76C163.906 27.0267 163.116 27.16 162.22 27.16ZM174.521 27C174.414 27 174.324 26.9627 174.249 26.888C174.174 26.8133 174.137 26.7227 174.137 26.616V17.768H171.177C171.07 17.768 170.98 17.7307 170.905 17.656C170.83 17.5813 170.793 17.4907 170.793 17.384V16.2C170.793 16.0827 170.825 15.9867 170.889 15.912C170.964 15.8373 171.06 15.8 171.177 15.8H179.337C179.454 15.8 179.55 15.8373 179.625 15.912C179.7 15.9867 179.737 16.0827 179.737 16.2V17.384C179.737 17.4907 179.7 17.5813 179.625 17.656C179.55 17.7307 179.454 17.768 179.337 17.768H176.393V26.616C176.393 26.7227 176.356 26.8133 176.281 26.888C176.206 26.9627 176.11 27 175.993 27H174.521Z" fill="#122434"/>
<g clip-path="url(#clip0)">
<path d="M22.178 20.9834L35.8296 7.32098C36.1614 6.98896 36.1614 6.45774 35.8296 6.14232C35.4979 5.81031 34.9671 5.81031 34.6519 6.14232L20.6851 20.1036C20.6353 20.1534 20.6022 20.2032 20.5524 20.2696C20.486 20.3028 20.4363 20.336 20.3865 20.4024C20.0548 20.7344 20.0548 21.2656 20.3865 21.5811L34.6353 35.8411C34.8012 36.0071 35.0168 36.0902 35.2325 36.0902C35.4481 36.0902 35.6638 36.0071 35.8296 35.8411C36.1614 35.5091 36.1614 34.9779 35.8296 34.6625L22.178 20.9834Z" fill="#E92D30"/>
<path d="M20.9832 13.0316C20.5187 13.0316 20.1538 12.6498 20.1538 12.2016V0.83004C20.1538 0.365217 20.5353 0 20.9832 0C21.4311 0 21.8126 0.381818 21.8126 0.83004V12.2016C21.8292 12.6498 21.4476 13.0316 20.9832 13.0316Z" fill="#FFDA00"/>
<path d="M20.9832 42C20.5187 42 20.1538 41.6182 20.1538 41.17V29.7984C20.1538 29.3336 20.5353 28.9684 20.9832 28.9684C21.4476 28.9684 21.8126 29.3502 21.8126 29.7984V41.17C21.8292 41.6182 21.4476 42 20.9832 42Z" fill="#F6921E"/>
<path d="M41.9833 21.1493C41.9833 21.1327 41.9833 21.0995 41.9833 21.0829C41.9833 21.0497 41.9998 21.0165 41.9998 20.9833C41.9998 20.9501 41.9998 20.9169 41.9833 20.8837C41.9833 20.8671 41.9833 20.8339 41.9833 20.8173C41.9501 20.6679 41.8837 20.5185 41.751 20.3857L36.1112 14.7414C35.7795 14.4094 35.2487 14.4094 34.9169 14.7414C34.5852 15.0735 34.5852 15.6047 34.9169 15.9367L39.1468 20.1699H29.8245C29.36 20.1699 28.9951 20.5517 28.9951 20.9999C28.9951 21.4648 29.3766 21.83 29.8245 21.83H39.1302L34.9003 26.0632C34.5686 26.3952 34.5686 26.9264 34.9003 27.2584C35.0662 27.4245 35.2818 27.5075 35.4975 27.5075C35.7131 27.5075 35.9288 27.4245 36.0946 27.2584L41.7344 21.6142C41.8671 21.4648 41.9501 21.332 41.9833 21.1493C41.9833 21.166 41.9833 21.166 41.9833 21.1493Z" fill="#122434"/>
<path d="M7.33175 6.14232C7 5.81031 6.46919 5.81031 6.15402 6.14232C5.82227 6.47434 5.82227 7.00556 6.15402 7.32098L18.9763 20.1534H0.829384C0.364929 20.1534 0 20.5352 0 20.9834C0 21.4483 0.381516 21.8135 0.829384 21.8135H18.9763L6.15402 34.6459C5.82227 34.9779 5.82227 35.5091 6.15402 35.8245C6.3199 35.9905 6.53554 36.0735 6.75118 36.0735C6.96682 36.0735 7.18246 35.9905 7.34834 35.8245L22.1943 20.9668L7.33175 6.14232Z" fill="#122434"/>
</g>
<defs>
<clipPath id="clip0">
<rect width="42" height="42" fill="white"/>
</clipPath>
</defs>
</svg>
