<svg width="201" height="36" viewBox="0 0 201 36" fill="none" xmlns="http://www.w3.org/2000/svg">
<path d="M52.756 22.064C52.756 22.64 53.206 23.09 53.782 23.09C54.25 23.09 54.628 22.838 54.808 22.388L55.87 19.958H61.99L63.016 22.316C63.214 22.784 63.574 23.09 64.096 23.09C64.69 23.09 65.14 22.622 65.14 22.028C65.14 21.884 65.104 21.722 65.014 21.56L60.334 11.12C60.082 10.562 59.65 10.22 59.02 10.22H58.912C58.282 10.22 57.832 10.562 57.58 11.12L52.9 21.56C52.81 21.74 52.756 21.902 52.756 22.064ZM56.716 17.996L58.93 12.902L61.144 17.996H56.716ZM76.447 23.216C78.481 23.216 79.831 22.568 81.019 21.524C81.217 21.344 81.379 21.074 81.379 20.732C81.379 20.174 80.893 19.706 80.335 19.706C80.065 19.706 79.831 19.814 79.669 19.958C78.751 20.732 77.851 21.164 76.519 21.164C74.107 21.164 72.361 19.166 72.361 16.7V16.664C72.361 14.198 74.125 12.218 76.519 12.218C77.725 12.218 78.661 12.65 79.525 13.352C79.669 13.46 79.885 13.568 80.191 13.568C80.803 13.568 81.289 13.1 81.289 12.488C81.289 12.092 81.091 11.786 80.857 11.606C79.759 10.76 78.481 10.184 76.537 10.184C72.721 10.184 70.039 13.118 70.039 16.7V16.736C70.039 20.354 72.775 23.216 76.447 23.216ZM92.9845 23.216C95.0185 23.216 96.3685 22.568 97.5565 21.524C97.7545 21.344 97.9165 21.074 97.9165 20.732C97.9165 20.174 97.4305 19.706 96.8725 19.706C96.6025 19.706 96.3685 19.814 96.2065 19.958C95.2885 20.732 94.3885 21.164 93.0565 21.164C90.6445 21.164 88.8985 19.166 88.8985 16.7V16.664C88.8985 14.198 90.6625 12.218 93.0565 12.218C94.2625 12.218 95.1985 12.65 96.0625 13.352C96.2065 13.46 96.4225 13.568 96.7285 13.568C97.3405 13.568 97.8265 13.1 97.8265 12.488C97.8265 12.092 97.6285 11.786 97.3945 11.606C96.2965 10.76 95.0185 10.184 93.0745 10.184C89.2585 10.184 86.5765 13.118 86.5765 16.7V16.736C86.5765 20.354 89.3125 23.216 92.9845 23.216ZM105.14 23H112.556C113.096 23 113.546 22.568 113.546 22.01C113.546 21.47 113.096 21.02 112.556 21.02H106.238V17.636H111.656C112.196 17.636 112.646 17.204 112.646 16.664C112.646 16.106 112.196 15.656 111.656 15.656H106.238V12.38H112.466C113.006 12.38 113.456 11.948 113.456 11.39C113.456 10.85 113.006 10.4 112.466 10.4H105.14C104.51 10.4 104.024 10.886 104.024 11.516V21.884C104.024 22.514 104.51 23 105.14 23ZM119.682 21.884C119.682 22.514 120.168 23 120.798 23H127.602C128.16 23 128.61 22.55 128.61 21.992C128.61 21.434 128.16 20.984 127.602 20.984H121.896V11.408C121.896 10.796 121.41 10.31 120.798 10.31C120.168 10.31 119.682 10.796 119.682 11.408V21.884ZM135.543 23H142.959C143.499 23 143.949 22.568 143.949 22.01C143.949 21.47 143.499 21.02 142.959 21.02H136.641V17.636H142.059C142.599 17.636 143.049 17.204 143.049 16.664C143.049 16.106 142.599 15.656 142.059 15.656H136.641V12.38H142.869C143.409 12.38 143.859 11.948 143.859 11.39C143.859 10.85 143.409 10.4 142.869 10.4H135.543C134.913 10.4 134.427 10.886 134.427 11.516V21.884C134.427 22.514 134.913 23 135.543 23ZM150.085 21.992C150.085 22.604 150.571 23.09 151.201 23.09C151.813 23.09 152.299 22.604 152.299 21.992V18.608H155.089L158.149 22.514C158.401 22.856 158.725 23.09 159.229 23.09C159.769 23.09 160.291 22.676 160.291 22.064C160.291 21.722 160.147 21.488 159.931 21.218L157.519 18.176C159.211 17.654 160.381 16.43 160.381 14.414V14.378C160.381 13.28 160.003 12.344 159.337 11.66C158.527 10.868 157.285 10.4 155.701 10.4H151.201C150.571 10.4 150.085 10.886 150.085 11.516V21.992ZM152.299 16.646V12.416H155.521C157.159 12.416 158.131 13.154 158.131 14.504V14.54C158.131 15.818 157.123 16.646 155.539 16.646H152.299ZM166.819 21.992C166.819 22.604 167.305 23.09 167.935 23.09C168.547 23.09 169.033 22.604 169.033 21.992V11.408C169.033 10.796 168.547 10.31 167.935 10.31C167.305 10.31 166.819 10.796 166.819 11.408V21.992ZM180.416 23.18C183.062 23.18 184.916 21.776 184.916 19.418V19.382C184.916 17.294 183.548 16.34 180.884 15.692C178.454 15.116 177.878 14.684 177.878 13.712V13.676C177.878 12.848 178.634 12.182 179.93 12.182C180.92 12.182 181.856 12.506 182.828 13.136C183.008 13.244 183.188 13.298 183.404 13.298C183.98 13.298 184.448 12.848 184.448 12.272C184.448 11.84 184.214 11.534 183.962 11.39C182.828 10.634 181.55 10.22 179.966 10.22C177.464 10.22 175.664 11.714 175.664 13.874V13.91C175.664 16.232 177.176 17.024 179.858 17.672C182.198 18.212 182.702 18.698 182.702 19.598V19.634C182.702 20.57 181.838 21.218 180.47 21.218C179.102 21.218 177.986 20.75 176.942 19.922C176.798 19.814 176.6 19.724 176.294 19.724C175.718 19.724 175.25 20.174 175.25 20.75C175.25 21.11 175.43 21.416 175.682 21.596C177.086 22.64 178.706 23.18 180.416 23.18ZM193.952 21.992C193.952 22.604 194.456 23.09 195.068 23.09C195.68 23.09 196.184 22.604 196.184 21.992V12.452H199.262C199.82 12.452 200.27 11.984 200.27 11.426C200.27 10.868 199.82 10.4 199.262 10.4H190.892C190.316 10.4 189.866 10.868 189.866 11.426C189.866 11.984 190.316 12.452 190.892 12.452H193.952V21.992Z" fill="white"/>
<rect width="1.01408" height="10.8" transform="matrix(1 0 0 -1 17.2393 10.7999)" fill="#FFDA00"/>
<rect width="1.01408" height="10.8" transform="matrix(1 0 0 -1 17.2393 35.9999)" fill="#F6921E"/>
<rect width="1.02135" height="17.8736" transform="matrix(0.702074 0.712104 0.702074 -0.712104 17.2393 17.8706)" fill="#E92D30"/>
<rect width="1.02135" height="17.8736" transform="matrix(-0.702074 0.712104 -0.702074 -0.712104 30.5049 30.2136)" fill="#E92D30"/>
<path fill-rule="evenodd" clip-rule="evenodd" d="M18.1673 18.0415L18.3358 17.8707L5.78714 5.14282L5.07007 5.87013L16.5221 17.4857L4.4327e-08 17.4857L0 18.5143L16.6054 18.5143L5.07079 30.2136L5.78785 30.9409L18.3365 18.2131L18.1673 18.0415Z" fill="white"/>
<path fill-rule="evenodd" clip-rule="evenodd" d="M35.9996 17.9999L30.1686 12.3428L29.6233 12.9189L34.4785 17.4856H27.3799V18.5142H34.4785L29.6232 23.5952L30.1686 24.1713L35.9996 17.9999Z" fill="white"/>
</svg>
