<svg width="106" height="106" viewBox="0 0 106 106" fill="none" xmlns="http://www.w3.org/2000/svg">
<path d="M52.9999 0C23.7176 0 0 23.7176 0 52.9999C0 82.2822 23.7176 106 52.9999 106C82.2822 106 106 82.2824 106 52.9999C106 23.7173 82.2824 0 52.9999 0ZM10.6001 52.9999C10.6001 29.574 29.574 10.5998 53.0001 10.5998C62.8052 10.5998 71.7887 13.9654 78.97 19.5304L19.5304 78.97C13.9654 71.7884 10.6001 62.8049 10.6001 52.9999ZM52.9999 95.3999C43.1948 95.3999 34.2113 92.0343 27.03 86.4694L86.4694 27.03C92.0343 34.2116 95.3999 43.195 95.3999 52.9999C95.3999 76.426 76.426 95.3999 52.9999 95.3999Z" fill="#F05658"/>
</svg>
