<svg width="20" height="20" viewBox="0 0 20 20" fill="none" xmlns="http://www.w3.org/2000/svg">
<path fill-rule="evenodd" clip-rule="evenodd" d="M10.0002 2.50001C5.85803 2.50001 2.50016 5.85787 2.50016 10C2.50016 14.1421 5.85803 17.5 10.0002 17.5C14.1423 17.5 17.5002 14.1421 17.5002 10C17.5002 5.85787 14.1423 2.50001 10.0002 2.50001ZM0.833496 10C0.833496 4.9374 4.93755 0.833344 10.0002 0.833344C15.0628 0.833344 19.1668 4.9374 19.1668 10C19.1668 15.0626 15.0628 19.1667 10.0002 19.1667C4.93755 19.1667 0.833496 15.0626 0.833496 10Z" fill="#2BAEE0"/>
<path fill-rule="evenodd" clip-rule="evenodd" d="M0.833496 9.99999C0.833496 9.53975 1.20659 9.16666 1.66683 9.16666H18.3335C18.7937 9.16666 19.1668 9.53975 19.1668 9.99999C19.1668 10.4602 18.7937 10.8333 18.3335 10.8333H1.66683C1.20659 10.8333 0.833496 10.4602 0.833496 9.99999Z" fill="#2BAEE0"/>
<path fill-rule="evenodd" clip-rule="evenodd" d="M7.50036 10C7.55747 12.5624 8.43871 15.0293 10.0002 17.041C11.5616 15.0293 12.4429 12.5624 12.5 10C12.4429 7.43763 11.5616 4.9707 10.0002 2.95899C8.43871 4.9707 7.55747 7.43763 7.50036 10ZM10.0002 1.66666L9.38488 1.10464C7.16424 3.53575 5.90226 6.69071 5.83368 9.98264C5.83344 9.99421 5.83344 10.0058 5.83368 10.0174C5.90226 13.3093 7.16424 16.4642 9.38488 18.8953C9.54276 19.0682 9.76606 19.1667 10.0002 19.1667C10.2343 19.1667 10.4576 19.0682 10.6155 18.8953C12.8361 16.4642 14.0981 13.3093 14.1666 10.0174C14.1669 10.0058 14.1669 9.99421 14.1666 9.98264C14.0981 6.69071 12.8361 3.53575 10.6155 1.10464L10.0002 1.66666Z" fill="#2BAEE0"/>
</svg>
