<svg width="23" height="21" viewBox="0 0 23 21" fill="none" xmlns="http://www.w3.org/2000/svg">
<path d="M20.2574 3.34219C19.7687 2.85327 19.1885 2.46543 18.5498 2.20081C17.9112 1.9362 17.2267 1.8 16.5354 1.8C15.8442 1.8 15.1597 1.9362 14.521 2.20081C13.8824 2.46543 13.3022 2.85327 12.8135 3.34219L11.7993 4.35639L10.7851 3.34219C9.79798 2.35507 8.45917 1.80051 7.06317 1.80051C5.66717 1.80051 4.32835 2.35507 3.34124 3.34219C2.35412 4.32931 1.79956 5.66813 1.79956 7.06412C1.79956 8.46012 2.35412 9.79894 3.34124 10.7861L4.35544 11.8003L11.7993 19.2441L19.2432 11.8003L20.2574 10.7861C20.7463 10.2974 21.1341 9.71714 21.3988 9.07852C21.6634 8.4399 21.7996 7.7554 21.7996 7.06412C21.7996 6.37285 21.6634 5.68835 21.3988 5.04973C21.1341 4.41111 20.7463 3.83088 20.2574 3.34219Z" stroke="#122434" stroke-width="2" stroke-linecap="round" stroke-linejoin="round"/>
</svg>
