<svg width="97" height="87" viewBox="0 0 97 87" fill="none" xmlns="http://www.w3.org/2000/svg">
<path d="M58.1901 2.59397C61.5614 1.17032 65.1786 0.436218 68.8339 0.436218C72.4893 0.436218 76.1065 1.17032 79.4778 2.59397C82.8489 4.01752 85.9053 6.10127 88.4748 8.72122C91.0446 11.3394 93.078 14.4424 94.4636 17.8505C95.8496 21.2592 96.5617 24.9095 96.5617 28.5936C96.5617 32.2776 95.8496 35.9279 94.4636 39.3366C93.0777 42.7455 91.0437 45.8491 88.4731 48.4677L52.3862 85.2448C51.3957 86.2543 50.0407 86.8231 48.6264 86.8231C47.2121 86.8231 45.8572 86.2543 44.8666 85.2448L8.77887 48.4668C3.59066 43.1793 0.693359 36.0289 0.693359 28.5936C0.693359 21.1582 3.59066 14.0078 8.77887 8.72034C13.9704 3.42951 21.0331 0.438443 28.4189 0.438443C35.8047 0.438443 42.8674 3.42951 48.0589 8.72034L48.6264 9.29866L49.193 8.72122C51.7624 6.10169 54.8193 4.01736 58.1901 2.59397Z" fill="#E8E8E8"/>
</svg>
