<svg width="24" height="24" viewBox="0 0 24 24" fill="none" xmlns="http://www.w3.org/2000/svg">
<path fill-rule="evenodd" clip-rule="evenodd" d="M10.6667 6.66667C10.6667 7.03486 10.3683 7.33333 10.0001 7.33333L5.33341 7.33333C4.96522 7.33333 4.66675 7.03486 4.66675 6.66667C4.66675 6.29848 4.96522 6 5.33341 6L10.0001 6C10.3683 6 10.6667 6.29848 10.6667 6.66667Z" fill="#737373"/>
<path fill-rule="evenodd" clip-rule="evenodd" d="M18 6.66667C18 7.03486 17.7015 7.33333 17.3333 7.33333L12.6667 7.33333C12.2985 7.33333 12 7.03486 12 6.66667C12 6.29848 12.2985 6 12.6667 6L17.3333 6C17.7015 6 18 6.29848 18 6.66667Z" fill="#737373"/>
<path fill-rule="evenodd" clip-rule="evenodd" d="M12 12C12 12.3682 11.7015 12.6667 11.3333 12.6667L5.33333 12.6667C4.96514 12.6667 4.66667 12.3682 4.66667 12C4.66667 11.6319 4.96514 11.3334 5.33333 11.3334L11.3333 11.3334C11.7015 11.3334 12 11.6319 12 12Z" fill="#737373"/>
<path fill-rule="evenodd" clip-rule="evenodd" d="M18 12C18 12.3682 17.7015 12.6667 17.3333 12.6667L14 12.6667C13.6318 12.6667 13.3333 12.3682 13.3333 12C13.3333 11.6319 13.6318 11.3334 14 11.3334L17.3333 11.3334C17.7015 11.3334 18 11.6319 18 12Z" fill="#737373"/>
<path fill-rule="evenodd" clip-rule="evenodd" d="M9.33325 17.3333C9.33325 17.7015 9.03478 18 8.66659 18L5.33325 18C4.96506 18 4.66658 17.7015 4.66658 17.3333C4.66658 16.9651 4.96506 16.6666 5.33325 16.6666L8.66659 16.6666C9.03478 16.6666 9.33325 16.9651 9.33325 17.3333Z" fill="#737373"/>
<path fill-rule="evenodd" clip-rule="evenodd" d="M18 17.3333C18 17.7015 17.7015 18 17.3333 18L11.3333 18C10.9651 18 10.6667 17.7015 10.6667 17.3333C10.6667 16.9651 10.9651 16.6666 11.3333 16.6666L17.3333 16.6666C17.7015 16.6666 18 16.9651 18 17.3333Z" fill="#737373"/>
<path fill-rule="evenodd" clip-rule="evenodd" d="M10.0001 4C10.3683 4 10.6667 4.29848 10.6667 4.66667L10.6667 8.66667C10.6667 9.03486 10.3683 9.33333 10.0001 9.33333C9.63189 9.33333 9.33342 9.03486 9.33342 8.66667L9.33342 4.66667C9.33342 4.29848 9.63189 4 10.0001 4Z" fill="#737373"/>
<path fill-rule="evenodd" clip-rule="evenodd" d="M14.0001 9.33337C14.3683 9.33337 14.6667 9.63185 14.6667 10L14.6667 14C14.6667 14.3682 14.3683 14.6667 14.0001 14.6667C13.6319 14.6667 13.3334 14.3682 13.3334 14L13.3334 10C13.3334 9.63185 13.6319 9.33337 14.0001 9.33337Z" fill="#737373"/>
<path fill-rule="evenodd" clip-rule="evenodd" d="M8.66659 14.6666C9.03478 14.6666 9.33325 14.9651 9.33325 15.3333L9.33325 19.3333C9.33325 19.7015 9.03477 20 8.66659 20C8.2984 20 7.99992 19.7015 7.99992 19.3333L7.99992 15.3333C7.99992 14.9651 8.2984 14.6666 8.66659 14.6666Z" fill="#737373"/>
</svg>
